<?xml version="1.0" standalone="no"?>
<!DOCTYPE svg PUBLIC "-//W3C//DTD SVG 1.1//EN" "http://www.w3.org/Graphics/SVG/1.1/DTD/svg11.dtd" >
<svg xmlns="http://www.w3.org/2000/svg">
<metadata>
Created by FontPrep 20130207 at Mon Jul 31 15:55:07 2017
 By Mohammad Rabaya
Copyright (c) 2008 - 2011 Linotype GmbH, www.linotype.com. All rights reserved. This font software may not be reproduced, modified, disclosed or transferred without the express written approval of Linotype GmbH.
</metadata>
<defs>
<font id="80a79e0a72d0930618b5616004bdde10" horiz-adv-x='1024' >
  <font-face 
    font-family="DINNextLTW23-Regular"
    font-weight="400"
    font-stretch="normal"
    units-per-em="2048"
    panose-1="2 11 5 3 2 2 3 5 2 3"
    ascent="1536"
    descent="-512"
    x-height="981"
    cap-height="1393"
    bbox="-360.727 -877 2597 2845"
    underline-thickness="102"
    underline-position="-205"
    unicode-range="U+000D-FEFC"
  />
<missing-glyph horiz-adv-x="776" 
d="M326 226q0 24 15 40.5t37 16.5t38 -17.5t16 -39.5t-16 -38t-38 -16t-37 15t-15 39zM504 735q0 45 -35 81t-81 36t-81 -35t-45 -110l-74 12q12 104 68.5 156.5t136.5 52.5t134.5 -52.5t54.5 -146.5q0 -51 -20 -89t-76 -92t-65 -86t-9 -102l-70 -6l-2 27q0 102 31 143
t68 79q38 38 51.5 62.5t13.5 69.5zM702 76v940h-626v-940h626zM776 1092v-1092h-776v1092h776z" />
    <glyph glyph-name="uniFEF5" unicode="&#xfedf;&#xfe82;" horiz-adv-x="1331" arabic-form="isolated" 
d="M678 160h240q51 0 74.5 23.5t23.5 84.5v1104q0 20 20 21h131q20 0 21 -21v-1114q0 -133 -55.5 -195.5t-184.5 -62.5h-846q-20 0 -20 20v119q0 20 20 21h404v923q0 20 20 21h131q20 0 21 -21v-923zM593.5 1366q132.5 -53 180 -53t61 15t13.5 44.5t20 30.5h45q20 0 21 -21
q0 -84 -38 -127t-97 -43q-83 0 -218.5 52.5t-168.5 52.5t-51.5 -11.5t-28.5 -45.5q-6 -20 -27 -15l-43 12q-18 7 -14 27q14 66 56 100.5t99.5 34.5t190 -53z" />
    <glyph glyph-name="uniFEF6" unicode="&#xfee0;&#xfe82;" horiz-adv-x="1392" arabic-form="final" 
d="M1350 0q-134 0 -191 104q-47 -104 -211 -104h-846q-20 0 -20 20v119q0 20 20 21h404v923q0 20 20 21h131q20 0 21 -21v-923h240q51 0 74.5 23.5t23.5 84.5v1104q0 20 20 21h131q20 0 21 -21v-1100q20 -112 182 -112h23q82 0 82 -76q0 -53 -19.5 -68.5t-62.5 -15.5h-43z
M593.5 1366q132.5 -53 180 -53t61 15t13.5 44.5t20 30.5h45q20 0 21 -21q0 -84 -38 -127t-97 -43q-83 0 -218.5 52.5t-168.5 52.5t-51.5 -11.5t-28.5 -45.5q-6 -20 -27 -15l-43 12q-18 7 -14 27q14 66 56 100.5t99.5 34.5t190 -53z" />
    <glyph glyph-name="uniFEF7" unicode="&#xfedf;&#xfe84;" horiz-adv-x="1331" arabic-form="isolated" 
d="M678 160h240q51 0 74.5 23.5t23.5 84.5v1104q0 20 20 21h131q20 0 21 -21v-1114q0 -133 -55.5 -195.5t-184.5 -62.5h-846q-20 0 -20 20v119q0 20 20 21h404v923q0 20 20 21h131q20 0 21 -21v-923zM424 1430q0 100 51 161.5t160 61.5t160 -72q6 -14 0 -20l-43 -35
q-14 -12 -23 -4q-42 47 -98.5 47t-84.5 -35t-28 -81t23.5 -80t46.5 -50h211q12 0 12 -14v-58q0 -14 -12 -14h-416q-12 0 -12 14v58q0 14 12 14h78q-37 54 -37 107z" />
    <glyph glyph-name="uniFEF8" unicode="&#xfee0;&#xfe84;" horiz-adv-x="1392" arabic-form="final" 
d="M1350 0q-134 0 -191 104q-47 -104 -211 -104h-846q-20 0 -20 20v119q0 20 20 21h404v923q0 20 20 21h131q20 0 21 -21v-923h240q51 0 74.5 23.5t23.5 84.5v1104q0 20 20 21h131q20 0 21 -21v-1100q20 -112 182 -112h23q82 0 82 -76q0 -53 -19.5 -68.5t-62.5 -15.5h-43z
M424 1430q0 100 51 161.5t160 61.5t160 -72q6 -14 0 -20l-43 -35q-14 -12 -23 -4q-42 47 -98.5 47t-84.5 -35t-28 -81t23.5 -80t46.5 -50h211q12 0 12 -14v-58q0 -14 -12 -14h-416q-12 0 -12 14v58q0 14 12 14h78q-37 54 -37 107z" />
    <glyph glyph-name="uniFEF9" unicode="&#xfedf;&#xfe88;" horiz-adv-x="1331" arabic-form="isolated" 
d="M678 160h240q51 0 74.5 23.5t23.5 84.5v1104q0 20 20 21h131q20 0 21 -21v-1114q0 -133 -55.5 -195.5t-184.5 -62.5h-846q-20 0 -20 20v119q0 20 20 21h404v923q0 20 20 21h131q20 0 21 -21v-923zM422 -364q0 98 51 159.5t160 61.5t160 -72q6 -14 0 -21l-43 -34
q-14 -12 -23 -4q-42 47 -98.5 47t-84.5 -35t-28 -81t23.5 -80t46.5 -50h211q12 0 12 -14v-58q0 -14 -12 -14h-416q-12 0 -12 14v58q0 14 12 14h78q-37 58 -37 109z" />
    <glyph glyph-name="uniFEFA" unicode="&#xfee0;&#xfe88;" horiz-adv-x="1392" arabic-form="final" 
d="M1350 0q-134 0 -191 104q-47 -104 -211 -104h-846q-20 0 -20 20v119q0 20 20 21h404v923q0 20 20 21h131q20 0 21 -21v-923h240q51 0 74.5 23.5t23.5 84.5v1104q0 20 20 21h131q20 0 21 -21v-1100q20 -112 182 -112h23q82 0 82 -76q0 -53 -19.5 -68.5t-62.5 -15.5h-43z
M422 -364q0 98 51 159.5t160 61.5t160 -72q6 -14 0 -21l-43 -34q-14 -12 -23 -4q-42 47 -98.5 47t-84.5 -35t-28 -81t23.5 -80t46.5 -50h211q12 0 12 -14v-58q0 -14 -12 -14h-416q-12 0 -12 14v58q0 14 12 14h78q-37 58 -37 109z" />
    <glyph glyph-name="uniFEFB" unicode="&#xfedf;&#xfe8e;" horiz-adv-x="1331" arabic-form="isolated" 
d="M678 160h240q51 0 74.5 23.5t23.5 84.5v1104q0 20 20 21h131q20 0 21 -21v-1114q0 -133 -55.5 -195.5t-184.5 -62.5h-846q-20 0 -20 20v119q0 20 20 21h404v923q0 20 20 21h131q20 0 21 -21v-923z" />
    <glyph glyph-name="uniFEFC" unicode="&#xfee0;&#xfe8e;" horiz-adv-x="1392" arabic-form="final" 
d="M1350 0q-134 0 -191 104q-47 -104 -211 -104h-846q-20 0 -20 20v119q0 20 20 21h404v923q0 20 20 21h131q20 0 21 -21v-923h240q51 0 74.5 23.5t23.5 84.5v1104q0 20 20 21h131q20 0 21 -21v-1100q20 -112 182 -112h23q82 0 82 -76q0 -53 -19.5 -68.5t-62.5 -15.5h-43z
" />
    <glyph glyph-name="uniFEDF_uniFB51.rlig" unicode="&#xfedf;&#xfb51;" horiz-adv-x="1331" 
d="M678 160h240q51 0 74.5 23.5t23.5 84.5v1104q0 20 20 21h131q20 0 21 -21v-1114q0 -133 -55.5 -195.5t-184.5 -62.5h-846q-20 0 -20 20v119q0 20 20 21h404v923q0 20 20 21h131q20 0 21 -21v-923zM748 1364q0 88 -88 88q-50 0 -134 -35v-117h172q33 0 41.5 12.5t8.5 51.5
zM675 1526q81 0 116.5 -48t35.5 -118t-26.5 -101.5t-83.5 -31.5h-316q-14 0 -14 14v45q0 14 14 14h25q20 0 20 23v190q0 14 17 15h47q16 0 16 -15v-22q68 35 149 35z" />
    <glyph glyph-name="uniFEE0_uniFB51.rlig" unicode="&#xfee0;&#xfb51;" horiz-adv-x="1392" 
d="M1350 0q-134 0 -191 104q-47 -104 -211 -104h-846q-20 0 -20 20v119q0 20 20 21h404v923q0 20 20 21h131q20 0 21 -21v-923h240q51 0 74.5 23.5t23.5 84.5v1104q0 20 20 21h131q20 0 21 -21v-1100q20 -112 182 -112h23q82 0 82 -76q0 -53 -19.5 -68.5t-62.5 -15.5h-43z
M748 1364q0 88 -88 88q-50 0 -134 -35v-117h172q33 0 41.5 12.5t8.5 51.5zM675 1526q81 0 116.5 -48t35.5 -118t-26.5 -101.5t-83.5 -31.5h-316q-14 0 -14 14v45q0 14 14 14h25q20 0 20 23v190q0 14 17 15h47q16 0 16 -15v-22q68 35 149 35z" />
    <glyph glyph-name="uni0621" unicode="&#x621;" horiz-adv-x="790" arabic-form="isolated" 
d="M184 139q-57 82 -57 203t72 210q91 112 260 112q80 0 147.5 -30t106.5 -87q13 -18 0 -31l-68 -57q-20 -16 -35 -2q-69 69 -157 69t-132.5 -54t-44.5 -127t35 -126t70 -80h338q20 0 20 -22v-94q0 -23 -20 -23h-658q-20 0 -20 23v94q0 23 20 22h123z" />
    <glyph glyph-name="uni0622" unicode="&#x622;" horiz-adv-x="458" arabic-form="isolated" 
d="M315 20q0 -20 -20 -20h-131q-20 0 -21 20v1352q0 20 21 21h131q20 0 20 -21v-1352zM227.5 1661q130.5 -53 180 -53t62.5 15t13 44.5t21 30.5h45q20 0 20 -21q0 -84 -37.5 -127t-97.5 -43q-84 0 -218.5 52.5t-167.5 52.5t-52 -11.5t-29 -46.5q-6 -20 -26 -14l-43 12
q-19 7 -15 27q14 66 56.5 100.5t100 34.5t188 -53z" />
    <glyph glyph-name="uni0623" unicode="&#x623;" horiz-adv-x="458" arabic-form="isolated" 
d="M315 20q0 -20 -20 -20h-131q-20 0 -21 20v1352q0 20 21 21h131q20 0 20 -21v-1352zM61 1688q0 99 51 161t161 62t159 -72q6 -14 0 -20l-43 -35q-14 -12 -22 -4q-42 47 -99 47t-84.5 -35t-27.5 -81t23.5 -80t45.5 -50h211q12 0 13 -14v-58q0 -14 -13 -14h-416
q-12 0 -12 14v58q0 14 12 14h78q-37 54 -37 107z" />
    <glyph glyph-name="uni0624" unicode="&#x624;" horiz-adv-x="1028" arabic-form="isolated" 
d="M750 428q0 287 -210 287q-110 0 -169.5 -82t-59.5 -222t58.5 -195.5t173.5 -55.5h207v268zM313 -408q-20 0 -20 21v119q0 20 20 20h246q191 0 191 195v53h-220q-290 0 -364 219q-27 81 -27 197q0 227 111.5 342.5t289 115.5t280 -105t102.5 -341v-477q0 -273 -210 -339
q-66 -20 -145 -20h-254zM342 1214q0 95 54.5 154t168.5 59q57 0 106.5 -21.5t71.5 -55.5q8 -12 -2 -23l-53 -45q-6 -4 -21 10q-44 41 -105.5 41t-88.5 -32.5t-27 -71.5q0 -74 68 -111h231q12 0 13 -14v-66q0 -14 -13 -14h-436q-12 0 -12 14v66q0 14 12 14h70q-37 46 -37 96z
" />
    <glyph glyph-name="uni0625" unicode="&#x625;" horiz-adv-x="458" arabic-form="isolated" 
d="M315 20q0 -20 -20 -20h-131q-20 0 -21 20v1352q0 20 21 21h131q20 0 20 -21v-1352zM59 -364q0 96 51 158.5t161 62.5t159 -72q6 -14 0 -21l-43 -34q-14 -12 -22 -4q-42 47 -99 47t-84.5 -35t-27.5 -81t23.5 -80t45.5 -50h211q12 0 12 -14v-58q0 -14 -12 -14h-416
q-12 0 -12 14v58q0 14 12 14h78q-37 58 -37 109z" />
    <glyph glyph-name="uni0626" unicode="&#x626;" horiz-adv-x="1587" arabic-form="isolated" 
d="M1425 -125q-1 -193 -203 -259q-74 -24 -180 -24h-479q-240 0 -364.5 120t-124.5 329q0 121 40 232.5t93 187.5q8 14 29 2l112 -62q16 -10 6 -26q-104 -160 -104 -318.5t95.5 -229.5t242.5 -71h452q123 0 171.5 37t48.5 86t-66 99.5t-144 97.5q-141 85 -206.5 167.5
t-65.5 204t98.5 220t281 98.5t285.5 -98q32 -30 62 -68q12 -14 -6 -29l-90 -73q-16 -12 -29 2q-45 49 -97 77.5t-135 28.5t-140.5 -43t-57.5 -134t158 -195q45 -30 125 -79t136 -116.5t56 -163.5zM186 852q0 95 55 154t169 59q57 0 106 -21.5t72 -56.5q8 -12 -2 -22l-54 -45
q-6 -4 -21 10q-44 41 -105.5 41t-88 -33t-26.5 -72q0 -73 67 -110h232q12 0 12 -15v-65q0 -14 -12 -14h-436q-12 0 -13 14v65q0 14 13 15h69q-37 47 -37 96z" />
    <glyph glyph-name="uni0627" unicode="&#x627;" horiz-adv-x="458" arabic-form="isolated" 
d="M315 20q0 -20 -20 -20h-131q-20 0 -21 20v1352q0 20 21 21h131q20 0 20 -21v-1352z" />
    <glyph glyph-name="uni0628" unicode="&#x628;" horiz-adv-x="1681" arabic-form="isolated" 
d="M1292 160q53 0 77 23.5t24 84.5v549q0 20 20 21h131q20 0 21 -21v-559q0 -133 -55.5 -195.5t-188.5 -62.5h-985q-129 0 -184.5 62.5t-55.5 195.5v428q0 20 21 21h131q20 0 20 -21v-418q0 -61 23.5 -84.5t75.5 -23.5h925zM754 -381q-20 0 -21 21v149q0 20 21 21h139
q20 0 20 -21v-149q0 -20 -20 -21h-139z" />
    <glyph glyph-name="uni0629" unicode="&#x629;" horiz-adv-x="987" arabic-form="isolated" 
d="M702 428q0 287 -219 287t-219 -287q0 -147 52.5 -215t167 -68t166.5 68t52 215zM483 -14q-182 0 -286.5 104.5t-104.5 339t104.5 339.5t287 105t286.5 -105t104 -341q0 -336 -228 -416q-73 -26 -163 -26zM289 1040q-20 0 -21 21v149q0 20 21 21h139q20 0 21 -21v-149
q0 -20 -21 -21h-139zM539 1040q-20 0 -21 21v149q0 20 21 21h139q20 0 20 -21v-149q0 -20 -20 -21h-139z" />
    <glyph glyph-name="uni062A" unicode="&#x62a;" horiz-adv-x="1681" arabic-form="isolated" 
d="M1292 160q53 0 77 23.5t24 84.5v549q0 20 20 21h131q20 0 21 -21v-559q0 -133 -55.5 -195.5t-188.5 -62.5h-985q-129 0 -184.5 62.5t-55.5 195.5v428q0 20 21 21h131q20 0 20 -21v-418q0 -61 23.5 -84.5t75.5 -23.5h925zM639 920q-20 0 -21 20v150q0 20 21 20h139
q20 0 21 -20v-150q0 -20 -21 -20h-139zM889 920q-20 0 -21 20v150q0 20 21 20h139q20 0 21 -20v-150q0 -20 -21 -20h-139z" />
    <glyph glyph-name="uni062B" unicode="&#x62b;" horiz-adv-x="1681" arabic-form="isolated" 
d="M1292 160q53 0 77 23.5t24 84.5v549q0 20 20 21h131q20 0 21 -21v-559q0 -133 -55.5 -195.5t-188.5 -62.5h-985q-129 0 -184.5 62.5t-55.5 195.5v428q0 20 21 21h131q20 0 20 -21v-418q0 -61 23.5 -84.5t75.5 -23.5h925zM766 1159q-20 0 -21 21v149q0 20 21 21h139
q20 0 21 -21v-149q0 -20 -21 -21h-139zM639 920q-20 0 -21 20v150q0 20 21 20h139q20 0 21 -20v-150q0 -20 -21 -20h-139zM889 920q-20 0 -21 20v150q0 20 21 20h139q20 0 21 -20v-150q0 -20 -21 -20h-139z" />
    <glyph glyph-name="uni062C" unicode="&#x62c;" horiz-adv-x="1146" arabic-form="isolated" 
d="M614 -381q-20 0 -20 21v149q0 20 20 21h140q20 0 20 -21v-149q0 -20 -20 -21h-140zM567 874q467 0 467 -520q0 -197 -68 -275.5t-227 -78.5h-387q-114 0 -114 -123q0 -66 35.5 -95.5t140.5 -29.5h78q20 0 20 -20v-119q0 -20 -20 -21h-93q-338 0 -338 281q0 153 99 227
q79 60 192 60h324q112 0 144 39t32 137q0 187 -62.5 283t-206 96t-241.5 -107q-12 -14 -29 -2l-90 74q-18 14 -6 29q131 165 350 165z" />
    <glyph glyph-name="uni062D" unicode="&#x62d;" horiz-adv-x="1146" arabic-form="isolated" 
d="M567 874q467 0 467 -520q0 -197 -68 -275.5t-227 -78.5h-387q-114 0 -114 -123q0 -66 35.5 -95.5t140.5 -29.5h196q20 0 21 -20v-119q0 -20 -21 -21h-211q-338 0 -338 281q0 153 99 227q79 60 192 60h324q112 0 144 39t32 137q0 187 -62.5 283t-206 96t-241.5 -107
q-12 -14 -29 -2l-90 74q-18 14 -6 29q131 165 350 165z" />
    <glyph glyph-name="uni062E" unicode="&#x62e;" horiz-adv-x="1146" arabic-form="isolated" 
d="M567 874q467 0 467 -520q0 -197 -68 -275.5t-227 -78.5h-387q-114 0 -114 -123q0 -66 35.5 -95.5t140.5 -29.5h196q20 0 21 -20v-119q0 -20 -21 -21h-211q-338 0 -338 281q0 153 99 227q79 60 192 60h324q112 0 144 39t32 137q0 187 -62.5 283t-206 96t-241.5 -107
q-12 -14 -29 -2l-90 74q-18 14 -6 29q131 165 350 165zM516 1040q-20 0 -20 21v149q0 20 20 21h139q20 0 21 -21v-149q0 -20 -21 -21h-139z" />
    <glyph glyph-name="uni062F" unicode="&#x62f;" horiz-adv-x="999" arabic-form="isolated" 
d="M887 350q0 -198 -68 -274t-227 -76h-455q-20 0 -20 20v119q0 20 20 21h391q112 0 144 38q33 38 33 146v164q0 207 -234 207h-238q-20 0 -20 20v119q0 20 20 20h302q156 0 254 -88t98 -276v-160z" />
    <glyph glyph-name="uni0630" unicode="&#x630;" horiz-adv-x="999" arabic-form="isolated" 
d="M887 350q0 -198 -68 -274t-227 -76h-455q-20 0 -20 20v119q0 20 20 21h391q112 0 144 38q33 38 33 146v164q0 207 -234 207h-238q-20 0 -20 20v119q0 20 20 20h302q156 0 254 -88t98 -276v-160zM381 1040q-20 0 -21 21v149q0 20 21 21h139q20 0 21 -21v-149
q0 -20 -21 -21h-139z" />
    <glyph glyph-name="uni0631" unicode="&#x631;" horiz-adv-x="538" arabic-form="isolated" 
d="M20 -408q-20 0 -20 21v119q0 20 20 20h48q166 0 165 174v891q0 20 21 21h131q20 0 21 -21v-887q0 -166 -84 -252t-246 -86h-56z" />
    <glyph glyph-name="uni0632" unicode="&#x632;" horiz-adv-x="538" arabic-form="isolated" 
d="M20 -408q-20 0 -20 21v119q0 20 20 20h48q166 0 165 174v891q0 20 21 21h131q20 0 21 -21v-887q0 -166 -84 -252t-246 -86h-56zM252 1040q-20 0 -21 21v149q0 20 21 21h139q20 0 21 -21v-149q0 -20 -21 -21h-139z" />
    <glyph glyph-name="uni0633" unicode="&#x633;" horiz-adv-x="2193" arabic-form="isolated" 
d="M1722 0q-136 0 -190 106q-51 -106 -213 -106h-98q-106 0 -164 66v-25q0 -211 -124 -330t-352 -119t-359 120q-130 120 -130 329q0 121 40 232.5t93 187.5q8 14 29 2l113 -62q16 -10 6 -26q-105 -162 -105 -320t107 -236q87 -63 214.5 -63t211.5 67.5t84 219.5v598
q0 20 20 21h131q20 0 21 -21v-350q0 -66 51 -98.5t133 -32.5h47q51 0 74.5 23.5t23.5 84.5v373q0 20 21 21h131q20 0 21 -21v-350q0 -66 51 -98.5t133 -32.5h47q51 0 74.5 23.5t23.5 84.5v549q0 20 21 21h131q20 0 20 -21v-559q0 -133 -55 -195.5t-184 -62.5h-99z" />
    <glyph glyph-name="uni0634" unicode="&#x634;" horiz-adv-x="2193" arabic-form="isolated" 
d="M1722 0q-136 0 -190 106q-51 -106 -213 -106h-98q-106 0 -164 66v-25q0 -211 -124 -330t-352 -119t-359 120q-130 120 -130 329q0 121 40 232.5t93 187.5q8 14 29 2l113 -62q16 -10 6 -26q-105 -162 -105 -320t107 -236q87 -63 214.5 -63t211.5 67.5t84 219.5v598
q0 20 20 21h131q20 0 21 -21v-350q0 -66 51 -98.5t133 -32.5h47q51 0 74.5 23.5t23.5 84.5v373q0 20 21 21h131q20 0 21 -21v-350q0 -66 51 -98.5t133 -32.5h47q51 0 74.5 23.5t23.5 84.5v549q0 20 21 21h131q20 0 20 -21v-559q0 -133 -55 -195.5t-184 -62.5h-99zM1401 1280
q-20 0 -21 20v150q0 20 21 20h139q20 0 21 -20v-150q0 -20 -21 -20h-139zM1274 1040q-20 0 -21 21v149q0 20 21 21h139q20 0 21 -21v-149q0 -20 -21 -21h-139zM1524 1040q-20 0 -21 21v149q0 20 21 21h139q20 0 20 -21v-149q0 -20 -20 -21h-139z" />
    <glyph glyph-name="uni0635" unicode="&#x635;" horiz-adv-x="2134" arabic-form="isolated" 
d="M1057 160h596q115 0 150.5 44t35.5 155.5t-15.5 171t-51.5 100.5q-75 84 -265 84t-450 -127v-428zM1532 874q489 0 489 -485q0 -216 -69.5 -302.5t-239.5 -86.5h-657q-12 -193 -135 -300.5t-345.5 -107.5t-352.5 119.5t-130 329.5q0 121 40 232.5t93 187.5q8 14 29 2
l113 -62q16 -10 6 -26q-105 -162 -105 -320.5t107 -235.5q87 -63 214.5 -63t211.5 67.5t84 219.5v776q0 20 20 21h131q20 0 21 -21v-71q238 126 475 126z" />
    <glyph glyph-name="uni0636" unicode="&#x636;" horiz-adv-x="2134" arabic-form="isolated" 
d="M1057 160h596q115 0 150.5 44t35.5 155.5t-15.5 171t-51.5 100.5q-75 84 -265 84t-450 -127v-428zM1532 874q489 0 489 -485q0 -216 -69.5 -302.5t-239.5 -86.5h-657q-12 -193 -135 -300.5t-345.5 -107.5t-352.5 119.5t-130 329.5q0 121 40 232.5t93 187.5q8 14 29 2
l113 -62q16 -10 6 -26q-105 -162 -105 -320.5t107 -235.5q87 -63 214.5 -63t211.5 67.5t84 219.5v776q0 20 20 21h131q20 0 21 -21v-71q238 126 475 126zM1456 1040q-20 0 -20 21v149q0 20 20 21h139q20 0 21 -21v-149q0 -20 -21 -21h-139z" />
    <glyph glyph-name="uni0637" unicode="&#x637;" horiz-adv-x="1505" arabic-form="isolated" 
d="M428 258q0 -51 -10 -98h606q115 0 150.5 44t35.5 155.5t-15 171t-52 100.5q-76 84 -265.5 84t-449.5 -127v-330zM903 874q490 0 490 -485q0 -214 -70 -301.5t-240 -87.5h-688q-49 0 -69 27q-51 -27 -138 -27h-112q-20 0 -21 20v119q0 20 21 21h82q51 0 74.5 23.5
t23.5 84.5v1104q0 20 20 21h132q20 0 20 -21v-624q238 126 475 126z" />
    <glyph glyph-name="uni0638" unicode="&#x638;" horiz-adv-x="1505" arabic-form="isolated" 
d="M428 258q0 -51 -10 -98h606q115 0 150.5 44t35.5 155.5t-15 171t-52 100.5q-76 84 -265.5 84t-449.5 -127v-330zM903 874q490 0 490 -485q0 -214 -70 -301.5t-240 -87.5h-688q-49 0 -69 27q-51 -27 -138 -27h-112q-20 0 -21 20v119q0 20 21 21h82q51 0 74.5 23.5
t23.5 84.5v1104q0 20 20 21h132q20 0 20 -21v-624q238 126 475 126zM825 1040q-20 0 -20 21v149q0 20 20 21h140q20 0 20 -21v-149q0 -20 -20 -21h-140z" />
    <glyph glyph-name="uni0639" unicode="&#x639;" horiz-adv-x="1118" arabic-form="isolated" 
d="M182 451q0 273 220 381q84 42 212 42q243 0 357 -165q10 -16 -6 -29l-91 -74q-16 -12 -28 2q-92 106 -225.5 106.5t-194.5 -74.5t-61 -169q1 -147 81 -235q49 -53 115 -76h445q20 0 20 -21v-119q0 -20 -20 -20h-639q-115 0 -115 -121q0 -66 36 -96.5t140 -30.5h197
q20 0 20 -20v-119q0 -20 -20 -21h-211q-338 0 -338 283q0 129 63.5 196t159.5 83q-117 117 -117 297z" />
    <glyph glyph-name="uni063A" unicode="&#x63a;" horiz-adv-x="1118" arabic-form="isolated" 
d="M182 451q0 273 220 381q84 42 212 42q243 0 357 -165q10 -16 -6 -29l-91 -74q-16 -12 -28 2q-92 106 -225.5 106.5t-194.5 -74.5t-61 -169q1 -147 81 -235q49 -53 115 -76h445q20 0 20 -21v-119q0 -20 -20 -20h-639q-115 0 -115 -121q0 -66 36 -96.5t140 -30.5h197
q20 0 20 -20v-119q0 -20 -20 -21h-211q-338 0 -338 283q0 129 63.5 196t159.5 83q-117 117 -117 297zM541 1038q-20 0 -21 21v149q0 20 21 21h139q20 0 20 -21v-149q0 -20 -20 -21h-139z" />
    <glyph glyph-name="uni0641" unicode="&#x641;" horiz-adv-x="1929" arabic-form="isolated" 
d="M1421 715q-219 1 -219 -287q0 -140 52.5 -204t167 -64t166.5 60.5t52 207.5q0 287 -219 287zM336 0q-129 0 -184.5 62.5t-55.5 195.5v428q0 20 21 21h131q20 0 20 -21v-418q0 -61 23.5 -84.5t75.5 -23.5h723q-60 100 -60 242q-1 251 107.5 361.5t287 110.5t283 -105
t104.5 -341q0 -330 -228 -404q-73 -24 -163 -24h-1085zM1366 1040q-20 0 -20 21v149q0 20 20 21h139q20 0 21 -21v-149q0 -20 -21 -21h-139z" />
    <glyph glyph-name="uni0642" unicode="&#x642;" horiz-adv-x="1564" arabic-form="isolated" 
d="M1260 428q0 287 -220 287q-104 0 -161.5 -76t-57.5 -217t58.5 -201.5t173.5 -60.5h207v268zM1432 -121q0 -192 -208 -262q-74 -25 -182 -25h-479q-240 0 -364.5 120t-124.5 329q0 121 40 232.5t93 187.5q8 14 29 2l112 -62q16 -10 6 -26q-104 -160 -104 -318.5
t95.5 -229.5t242.5 -71h452q123 0 171.5 37t48.5 88v119h-220q-290 0 -364 229q-26 82 -27 199q0 224 109 335t286.5 111t282.5 -105t105 -341v-549zM842 1040q-20 0 -21 21v149q0 20 21 21h139q20 0 20 -21v-149q0 -20 -20 -21h-139zM1092 1040q-20 0 -21 21v149
q0 20 21 21h139q20 0 20 -21v-149q0 -20 -20 -21h-139z" />
    <glyph glyph-name="uni0643" unicode="&#x643;" horiz-adv-x="1708" arabic-form="isolated" 
d="M874 662q25 0 31 10t6 33v40q0 51 -55 52h-111q-29 0 -28 28v35q0 15 10 25l162 192q18 18 33 4l41 -34q14 -14 0 -35l-105 -123h33q121 0 121 -144v-36q0 -82 -28 -111t-91 -29h-231q-20 0 -21 21v51q0 20 21 21h212zM1292 160q53 0 77 23.5t24 84.5v1104q0 20 20 21
h131q20 0 21 -21v-1114q0 -133 -55.5 -195.5t-188.5 -62.5h-985q-129 0 -184.5 62.5t-55.5 195.5v428q0 20 21 21h131q20 0 20 -21v-418q0 -61 23.5 -84.5t75.5 -23.5h925z" />
    <glyph glyph-name="uni0644" unicode="&#x644;" horiz-adv-x="1200" arabic-form="isolated" 
d="M373 375q-105 -162 -105 -320t107 -236q87 -63 214.5 -63t211.5 67.5t84 219.5v1329q0 20 20 21h131q20 0 21 -21v-1331q0 -211 -124 -330t-352 -119t-359 120q-130 120 -130 329q0 121 40 232.5t93 187.5q8 14 29 2l113 -62q16 -10 6 -26z" />
    <glyph glyph-name="uni0645" unicode="&#x645;" horiz-adv-x="1214" arabic-form="isolated" 
d="M930 428q0 287 -219 287t-219 -287q0 -147 52 -215t166.5 -68t167 68t52.5 215zM319 428q0 236 104.5 341t287 105t287 -105t104.5 -341q0 -336 -228 -416q-72 -26 -163 -26q-223 0 -320 145q-20 -33 -48 -47t-53.5 -30.5t-44 -43t-18.5 -84.5v-334h-172v377
q1 151 129 221q84 47 109.5 75t30.5 67q-5 58 -5 96z" />
    <glyph glyph-name="uni0646" unicode="&#x646;" horiz-adv-x="1189" arabic-form="isolated" 
d="M373 375q-105 -162 -105 -320t107 -236q87 -63 214.5 -63t211.5 67.5t84 219.5v598q0 20 20 21h131q20 0 21 -21v-600q0 -211 -124 -330t-352 -119t-359 120q-130 120 -130 329q0 121 40 232.5t93 187.5q8 14 29 2l113 -62q16 -10 6 -26zM575 713q-20 0 -20 20v150
q0 20 20 20h140q20 0 20 -20v-150q0 -20 -20 -20h-140z" />
    <glyph glyph-name="uni0648" unicode="&#x648;" horiz-adv-x="1028" arabic-form="isolated" 
d="M723 428q1 287 -209 287q-110 0 -169.5 -82t-59.5 -222t58 -195.5t173 -55.5h207v268zM287 -408q-20 0 -21 21v119q0 20 21 20h245q191 0 191 195v53h-219q-292 0 -364 219q-26 81 -27 197q0 229 112 343.5t288.5 114.5t279 -105t102.5 -341v-477q-1 -273 -209 -339
q-66 -20 -145 -20h-254z" />
    <glyph glyph-name="uni0649" unicode="&#x649;" horiz-adv-x="1587" arabic-form="isolated" 
d="M1425 -125q-1 -193 -203 -259q-74 -24 -180 -24h-479q-240 0 -364.5 120t-124.5 329q0 121 40 232.5t93 187.5q8 14 29 2l112 -62q16 -10 6 -26q-104 -160 -104 -318.5t95.5 -229.5t242.5 -71h452q123 0 171.5 37t48.5 86t-66 99.5t-144 97.5q-141 85 -206.5 167.5
t-65.5 204t98.5 220t281 98.5t285.5 -98q32 -30 62 -68q12 -14 -6 -29l-90 -73q-16 -12 -29 2q-45 49 -97 77.5t-135 28.5t-140.5 -43t-57.5 -134t158 -195q45 -30 125 -79t136 -116.5t56 -163.5z" />
    <glyph glyph-name="uni064A" unicode="&#x64a;" horiz-adv-x="1587" arabic-form="isolated" 
d="M1425 29q-1 -195 -203 -259q-74 -24 -180 -24h-479q-240 0 -364.5 120t-124.5 329q0 121 40 232.5t93 186.5q8 14 29 2l112 -61q16 -10 6 -27q-104 -160 -104 -317q0 -231 210 -285q60 -16 128 -16h452q123 0 171.5 37t48.5 86t-66 99t-144 98q-78 46 -122 80
q-150 117 -150 265.5t99.5 246.5t281 98t284.5 -98q32 -30 62 -68q12 -14 -6 -29l-90 -74q-16 -12 -29 2q-45 49 -97 78t-135 29t-140.5 -43t-57.5 -133.5t158 -195.5q45 -30 125 -79q192 -118 192 -280zM557 -594q-20 0 -20 21v149q0 20 20 21h139q20 0 21 -21v-149
q0 -20 -21 -21h-139zM807 -594q-20 0 -21 21v149q0 20 21 21h139q20 0 21 -21v-149q0 -20 -21 -21h-139z" />
    <glyph glyph-name="uni0671" unicode="&#x671;" horiz-adv-x="458" arabic-form="isolated" 
d="M315 20q0 -20 -20 -20h-131q-20 0 -21 20v1352q0 20 21 21h131q20 0 20 -21v-1352zM362 1693q0 87 -84 87q-47 0 -137 -35v-117h172q33 0 41 12.5t8 52.5zM289 1853q82 0 117.5 -48t35.5 -117.5t-26.5 -101.5t-83.5 -32h-316q-14 0 -14 15v45q0 14 14 14h25q20 0 20 23
v190q0 14 17 14h47q16 0 16 -14v-22q66 34 148 34z" />
    <glyph glyph-name="uni0679" unicode="&#x679;" horiz-adv-x="1681" arabic-form="isolated" 
d="M1292 160q53 0 77 23.5t24 84.5v549q0 20 20 21h131q20 0 21 -21v-559q0 -133 -55.5 -195.5t-188.5 -62.5h-985q-129 0 -184.5 62.5t-55.5 195.5v428q0 20 21 21h131q20 0 20 -21v-418q0 -61 23.5 -84.5t75.5 -23.5h925zM954 1035q0 87 -87 87q-50 0 -134 -35v-116h172
q33 0 41 12t8 52zM881.5 1196q80.5 0 116.5 -48t36 -118t-26.5 -101.5t-83.5 -31.5h-316q-14 0 -14 14v45q0 14 14 15h25q20 0 20 22v340q0 14 17 15h47q16 0 16 -15v-172q68 35 148.5 35z" />
    <glyph glyph-name="uni067E" unicode="&#x67e;" horiz-adv-x="1681" arabic-form="isolated" 
d="M1292 160q53 0 77 23.5t24 84.5v549q0 20 20 21h131q20 0 21 -21v-559q0 -133 -55.5 -195.5t-188.5 -62.5h-985q-129 0 -184.5 62.5t-55.5 195.5v428q0 20 21 21h131q20 0 20 -21v-418q0 -61 23.5 -84.5t75.5 -23.5h925zM756 -621q-20 0 -21 21v149q0 20 21 21h139
q20 0 20 -21v-149q0 -20 -20 -21h-139zM631 -381q-20 0 -21 21v149q0 20 21 21h139q20 0 21 -21v-149q0 -20 -21 -21h-139zM881 -381q-20 0 -21 21v149q0 20 21 21h139q20 0 20 -21v-149q0 -20 -20 -21h-139z" />
    <glyph glyph-name="uni0686" unicode="&#x686;" horiz-adv-x="1120" arabic-form="isolated" 
d="M346 0q-115 0 -115 -130q0 -58 36 -88t141 -30h84q20 0 20 -20v-119q0 -20 -20 -21h-93q-158 0 -251 67t-93 217t99 224q79 60 192 60h324q112 0 144 39t32 137q0 187 -62.5 283t-206 96t-241.5 -107q-12 -14 -29 -2l-90 74q-18 14 -6 29q131 165 350 165q467 0 467 -520
q0 -197 -68 -275.5t-227 -78.5h-387zM653 -426q-14 0 -14 14v105q0 14 14 14h97q14 0 14 -14v-105q0 -14 -14 -14h-97zM565 -258q-14 0 -14 14v105q0 14 14 14h99q14 0 14 -14v-105q0 -14 -14 -14h-99zM739 -258q-14 0 -14 14v105q0 14 14 14h99q14 0 14 -14v-105
q0 -14 -14 -14h-99z" />
    <glyph glyph-name="uni0688" unicode="&#x688;" horiz-adv-x="999" arabic-form="isolated" 
d="M887 350q0 -198 -68.5 -274t-226.5 -76h-455q-20 0 -20 20v119q0 20 20 21h391q112 0 144.5 38t32.5 146v164q0 207 -234 207h-238q-20 0 -20 20v119q0 20 20 20h302q156 0 254 -88t98 -276v-160zM513 1257q-48 0 -136 -34v-117h172q33 0 41 12t8 52t-18.5 63.5
t-66.5 23.5zM525.5 1331q80.5 0 116.5 -48t36 -118t-26.5 -101.5t-84.5 -31.5h-315q-14 0 -14 15v45q0 14 14 14h24q20 0 21 22v340q0 14 16 15h47q16 0 17 -15v-172q68 35 148.5 35z" />
    <glyph glyph-name="uni0691" unicode="&#x691;" horiz-adv-x="538" arabic-form="isolated" 
d="M20 -408q-20 0 -20 21v119q0 20 20 20h48q166 0 165 174v891q0 20 21 21h131q20 0 21 -21v-887q0 -166 -84 -252t-246 -86h-56zM370.5 1257q-49.5 0 -134.5 -34v-117h172q33 0 41 12t8 52t-18.5 63.5t-68 23.5zM384.5 1331q80.5 0 116.5 -48t36 -118t-27 -101.5
t-84 -31.5h-315q-14 0 -15 15v45q0 14 15 14h24q20 0 21 22v340q0 14 16 15h47q16 0 17 -15v-172q68 35 148.5 35z" />
    <glyph glyph-name="uni0698" unicode="&#x698;" horiz-adv-x="538" arabic-form="isolated" 
d="M20 -408q-20 0 -20 21v119q0 20 20 20h48q166 0 165 174v891q0 20 21 21h131q20 0 21 -21v-887q0 -166 -84 -252t-246 -86h-56zM250 1280q-20 0 -21 20v150q0 20 21 20h139q20 0 21 -20v-150q0 -20 -21 -20h-139zM123 1040q-20 0 -21 21v149q0 20 21 21h139q20 0 21 -21
v-149q0 -20 -21 -21h-139zM373 1040q-20 0 -21 21v149q0 20 21 21h139q20 0 20 -21v-149q0 -20 -20 -21h-139z" />
    <glyph glyph-name="uni06A4" unicode="&#x6a4;" horiz-adv-x="1929" arabic-form="isolated" 
d="M1421 715q-219 1 -219 -287q0 -140 52.5 -204t167 -64t166.5 60.5t52 207.5q0 287 -219 287zM336 0q-129 0 -184.5 62.5t-55.5 195.5v428q0 20 21 21h131q20 0 20 -21v-418q0 -61 23.5 -84.5t75.5 -23.5h723q-60 100 -60 242q-1 251 107.5 361.5t287 110.5t283 -105
t104.5 -341q0 -330 -228 -404q-73 -24 -163 -24h-1085zM1350 1280q-20 0 -21 20v150q0 20 21 20h139q20 0 20 -20v-150q0 -20 -20 -20h-139zM1223 1040q-20 0 -21 21v149q0 20 21 21h139q20 0 20 -21v-149q0 -20 -20 -21h-139zM1473 1040q-20 0 -21 21v149q0 20 21 21h139
q20 0 20 -21v-149q0 -20 -20 -21h-139z" />
    <glyph glyph-name="uni06A9" unicode="&#x6a9;" horiz-adv-x="1728" arabic-form="isolated" 
d="M1257 160q112 0 144 38q33 38 33 146v127q0 207 -234 207h-330q-20 0 -20 20v115q0 15 18 33l449 528q12 14 26 6l99 -82q16 -12 8 -28l-369 -432h183q156 0 254 -88t98 -277v-123q0 -198 -68 -274t-227 -76h-985q-129 0 -184.5 62.5t-55.5 195.5v428q0 20 21 21h131
q20 0 20 -21v-418q0 -61 23.5 -84.5t75.5 -23.5h890z" />
    <glyph glyph-name="uni06AF" unicode="&#x6af;" horiz-adv-x="1728" arabic-form="isolated" 
d="M1257 160q112 0 144 38q33 38 33 146v127q0 207 -234 207h-330q-20 0 -20 20v115q0 15 18 33l449 528q12 14 26 6l99 -82q16 -12 8 -28l-369 -432h183q156 0 254 -88t98 -277v-123q0 -198 -68 -274t-227 -76h-985q-129 0 -184.5 62.5t-55.5 195.5v428q0 20 21 21h131
q20 0 20 -21v-418q0 -61 23.5 -84.5t75.5 -23.5h890zM776 920q-12 -14 -26 -7l-99 82q-16 10 -8 29l449 528q12 14 26 7l99 -82q16 -12 8 -29z" />
    <glyph glyph-name="uni06BA" unicode="&#x6ba;" horiz-adv-x="1189" arabic-form="isolated" 
d="M373 375q-105 -162 -105 -320t107 -236q87 -63 214.5 -63t211.5 67.5t84 219.5v598q0 20 20 21h131q20 0 21 -21v-600q0 -211 -124 -330t-352 -119t-359 120q-130 120 -130 329q0 121 40 232.5t93 187.5q8 14 29 2l113 -62q16 -10 6 -26z" />
    <glyph glyph-name="uni06BE" unicode="&#x6be;" horiz-adv-x="1355" arabic-form="isolated" 
d="M467 303q0 -143 119 -143t119 144q1 144 -117 145q-58 0 -89.5 -38t-31.5 -108zM848 303q0 -85 -27 -143h33q112 0 144 42.5t32 146.5q0 190 -78.5 292t-254.5 102t-312 -110q-16 -12 -29 -2l-71 84q-18 16 -6 28q164 160 432 160t398 -170q103 -135 103 -351.5
t-67.5 -299t-226.5 -82.5h-660q-47 0 -60.5 -13.5t-13.5 -56.5v-61q0 -20 -20 -21h-131q-20 0 -21 21v154q0 137 168 137h174q-27 55 -26 143q0 145 72.5 212t186.5 67t187.5 -66.5t73.5 -212.5z" />
    <glyph glyph-name="uni06C1" unicode="&#x6c1;" horiz-adv-x="987" arabic-form="isolated" 
d="M702 428q0 287 -219 287t-219 -287q0 -147 52.5 -215t167 -68t166.5 68t52 215zM483 -14q-182 0 -286.5 104.5t-104.5 339t104.5 339.5t287 105t286.5 -105t104 -341q0 -336 -228 -416q-73 -26 -163 -26z" />
    <glyph glyph-name="uni06C2.fina" unicode="&#x6c2;" horiz-adv-x="1007" 
d="M82 455q0 383 403 383h283q20 0 20 -21v-510q0 -72 28 -109.5t114 -37.5h78q43 0 62.5 -18.5t19.5 -65.5t-20.5 -61.5t-61.5 -14.5h-97q-295 0 -295 289v377h-139q-125 0 -174 -64.5t-49 -193.5v-388q0 -20 -21 -20h-131q-20 0 -20 20v435zM287 1203q0 100 50.5 161
t160.5 61t159 -71q6 -14 0 -21l-43 -35q-14 -12 -22 -4q-42 47 -98.5 47t-84.5 -34.5t-28 -80.5t23.5 -80t46.5 -50h211q12 0 12 -15v-57q0 -14 -12 -14h-416q-12 0 -13 14v57q0 14 13 15h78q-37 54 -37 107z" />
    <glyph glyph-name="uni06C3.fina" unicode="&#x6c3;" horiz-adv-x="1026" 
d="M248 465q0 -215 214 -215q204 0 204 260v205h-201q-96 0 -156.5 -54.5t-60.5 -195.5zM451 90q-263 0 -347 208q-28 70 -28 176q0 202 110 301t279 99h201v89q0 20 20 20h131q20 0 21 -20v-695q0 -61 23.5 -84.5t74.5 -23.5h90q82 0 82 -82q0 -51 -19.5 -64.5t-62.5 -13.5
h-121q-100 0 -156.5 38t-74.5 126q-82 -74 -223 -74zM297 1110q-20 0 -21 20v150q0 20 21 20h139q20 0 21 -20v-150q0 -20 -21 -20h-139zM547 1110q-20 0 -21 20v150q0 20 21 20h139q20 0 21 -20v-150q0 -20 -21 -20h-139z" />
    <glyph glyph-name="uni06CC" unicode="&#x6cc;" horiz-adv-x="1587" arabic-form="isolated" 
d="M1425 -125q-1 -193 -203 -259q-74 -24 -180 -24h-479q-240 0 -364.5 120t-124.5 329q0 121 40 232.5t93 187.5q8 14 29 2l112 -62q16 -10 6 -26q-104 -160 -104 -318.5t95.5 -229.5t242.5 -71h452q123 0 171.5 37t48.5 86t-66 99.5t-144 97.5q-141 85 -206.5 167.5
t-65.5 204t98.5 220t281 98.5t285.5 -98q32 -30 62 -68q12 -14 -6 -29l-90 -73q-16 -12 -29 2q-45 49 -97 77.5t-135 28.5t-140.5 -43t-57.5 -134t158 -195q45 -30 125 -79t136 -116.5t56 -163.5z" />
    <glyph glyph-name="uni06D2" unicode="&#x6d2;" horiz-adv-x="1542" arabic-form="isolated" 
d="M229 292q0 -54 48.5 -93t171.5 -39h1032q20 0 20 -21v-119q0 -20 -20 -20h-1032q-202 0 -294 77t-92 184t58.5 179t138.5 131.5t163 115.5t130 126q12 16 31 2l92 -74q12 -12 2 -28q-51 -76 -127 -130.5t-147.5 -100.5t-123 -91t-51.5 -99z" />
    <glyph glyph-name="uni06D3" unicode="&#x6d3;" horiz-adv-x="1677" arabic-form="isolated" 
d="M244 292q0 -54 48 -93t171 -39h1032q20 0 21 -21v-119q0 -20 -21 -20h-1032q-203 0 -294 77t-91 184t58.5 179t138 131.5t162.5 115.5t130 126q12 16 31 2l92 -74q12 -12 2 -28q-51 -76 -127 -130.5t-147.5 -100.5t-122.5 -91t-51 -99zM133 1037q0 99 51 161t160 62
t160 -72q6 -14 0 -21l-43 -34q-14 -12 -23 -5q-43 48 -99 48t-84 -35t-28 -81t23.5 -80t46.5 -50h211q12 0 12 -15v-57q0 -14 -12 -14h-416q-12 0 -12 14v57q0 14 12 15h78q-37 54 -37 107z" />
    <glyph glyph-name="uni06D5.fina" unicode="&#x6d5;" horiz-adv-x="1026" 
d="M248 465q0 -215 214 -215q204 0 204 260v205h-201q-96 0 -156.5 -54.5t-60.5 -195.5zM451 90q-263 0 -347 208q-28 70 -28 176q0 202 110 301t279 99h201v89q0 20 20 20h131q20 0 21 -20v-695q0 -61 23.5 -84.5t74.5 -23.5h90q82 0 82 -82q0 -51 -19.5 -64.5t-62.5 -13.5
h-121q-100 0 -156.5 38t-74.5 126q-82 -74 -223 -74z" />
    <glyph glyph-name="uniFB51" unicode="&#x671;" horiz-adv-x="503" arabic-form="final" 
d="M143 1372q0 20 21 21h131q20 0 20 -21v-1104q0 -61 23.5 -84.5t75.5 -23.5h90q82 0 82 -82q0 -51 -19.5 -64.5t-62.5 -13.5h-121q-129 0 -184.5 62.5t-55.5 195.5v1114zM289.5 1780q-48.5 0 -135.5 -35v-117h172q33 0 41 12.5t8 52.5t-18.5 63.5t-67 23.5zM301.5 1853
q81.5 0 117.5 -48t36 -117.5t-27 -101.5t-84 -32h-315q-14 0 -15 15v45q0 14 15 14h24q20 0 21 23v190q0 14 16 14h47q16 0 17 -14v-22q66 34 147.5 34z" />
    <glyph glyph-name="uniFB57" unicode="&#x67e;" horiz-adv-x="1771" arabic-form="final" 
d="M1335 0h-985q-129 0 -184 62.5t-55 195.5v428q0 20 20 21h131q20 0 21 -21v-418q0 -61 23.5 -84.5t74.5 -23.5h926q53 0 76.5 23.5t23.5 84.5v549q0 20 20 21h132q20 0 20 -21v-526q0 -66 51 -98.5t133 -32.5h23q82 0 82 -76q0 -53 -19.5 -68.5t-62.5 -15.5h-43
q-137 0 -191 106q-54 -106 -217 -106zM770 -621q-20 0 -20 21v149q0 20 20 21h139q20 0 21 -21v-149q0 -20 -21 -21h-139zM645 -381q-20 0 -20 21v149q0 20 20 21h139q20 0 21 -21v-149q0 -20 -21 -21h-139zM895 -381q-20 0 -21 21v149q0 20 21 21h139q20 0 21 -21v-149
q0 -20 -21 -21h-139z" />
    <glyph glyph-name="uniFB58" unicode="&#x67e;" horiz-adv-x="565" arabic-form="initial" 
d="M0 0q-41 0 -61.5 14.5t-20.5 61.5t19.5 65.5t62.5 18.5h141q51 0 75 23.5t24 84.5v549q0 20 20 21h131q20 0 21 -21v-559q0 -133 -55.5 -195.5t-184.5 -62.5h-172zM193 -621q-20 0 -21 21v149q0 20 21 21h139q20 0 20 -21v-149q0 -20 -20 -21h-139zM68 -381q-20 0 -21 21
v149q0 20 21 21h139q20 0 20 -21v-149q0 -20 -20 -21h-139zM317 -381q-20 0 -20 21v149q0 20 20 21h140q20 0 20 -21v-149q0 -20 -20 -21h-140z" />
    <glyph glyph-name="uniFB59" unicode="&#x67e;" horiz-adv-x="632" arabic-form="medial" 
d="M588 0q-137 0 -191 106q-51 -106 -213 -106h-170q-41 0 -61.5 14.5t-20.5 61.5t19.5 65.5t62.5 18.5h140q51 0 74.5 23.5t23.5 84.5v549q0 20 20 21h131q20 0 21 -21v-518q0 -70 50 -104.5t134 -34.5h25q82 0 82 -76q0 -53 -19.5 -68.5t-62.5 -15.5h-45zM258 -621
q-20 0 -20 21v149q0 20 20 21h139q20 0 21 -21v-149q0 -20 -21 -21h-139zM133 -381q-20 0 -20 21v149q0 20 20 21h139q20 0 21 -21v-149q0 -20 -21 -21h-139zM383 -381q-20 0 -21 21v149q0 20 21 21h139q20 0 21 -21v-149q0 -20 -21 -21h-139z" />
    <glyph glyph-name="uniFB67" unicode="&#x679;" horiz-adv-x="1771" arabic-form="final" 
d="M1335 0h-985q-129 0 -184 62.5t-55 195.5v428q0 20 20 21h131q20 0 21 -21v-418q0 -61 23.5 -84.5t74.5 -23.5h926q53 0 76.5 23.5t23.5 84.5v549q0 20 20 21h132q20 0 20 -21v-526q0 -66 51 -98.5t133 -32.5h23q82 0 82 -76q0 -53 -19.5 -68.5t-62.5 -15.5h-43
q-137 0 -191 106q-54 -106 -217 -106zM880.5 1122q-51.5 0 -132.5 -35v-116h172q33 0 41 12t8 52t-18.5 63.5t-70 23.5zM896.5 1196q80.5 0 116.5 -48t36 -118t-27 -101.5t-84 -31.5h-315q-14 0 -15 14v45q0 14 15 15h24q20 0 21 22v340q0 14 16 15h47q16 0 17 -15v-172
q68 35 148.5 35z" />
    <glyph glyph-name="uniFB68" unicode="&#x679;" horiz-adv-x="542" arabic-form="initial" 
d="M0 0q-41 0 -61.5 14.5t-20.5 61.5t19.5 65.5t62.5 18.5h129q51 0 74.5 23.5t23.5 84.5v549q0 20 21 21h131q20 0 20 -21v-559q0 -133 -55 -195.5t-184 -62.5h-160zM367.5 1257q-48.5 0 -136.5 -34v-117h172q33 0 41.5 12t8.5 52t-18.5 63.5t-67 23.5zM380 1331
q81 0 116.5 -48t35.5 -118t-26.5 -101.5t-83.5 -31.5h-316q-14 0 -14 15v45q0 14 14 14h25q20 0 21 22v340q0 14 16 15h47q16 0 16 -15v-172q68 35 149 35z" />
    <glyph glyph-name="uniFB69" unicode="&#x679;" horiz-adv-x="606" arabic-form="medial" 
d="M578 0q-137 0 -191 106q-51 -106 -213 -106h-160q-41 0 -61.5 14.5t-20.5 61.5t19.5 65.5t62.5 18.5h129q51 0 75 23.5t24 84.5v549q0 20 20 21h131q20 0 21 -21v-518q0 -70 50 -104.5t134 -34.5h25q82 0 82 -76q0 -53 -19.5 -68.5t-62.5 -15.5h-45zM380.5 1257
q-49.5 0 -134.5 -34v-117h172q33 0 41 12t8 52t-18.5 63.5t-68 23.5zM394.5 1331q80.5 0 116.5 -48t36 -118t-26.5 -101.5t-84.5 -31.5h-315q-14 0 -15 15v45q0 14 15 14h24q20 0 21 22v340q0 14 16 15h47q16 0 17 -15v-172q68 35 148.5 35z" />
    <glyph glyph-name="uniFB6B" unicode="&#x6a4;" horiz-adv-x="1964" arabic-form="final" 
d="M1425.5 715q-98.5 0 -162 -57.5t-63.5 -167t65.5 -184.5t159.5 -111q94 37 160 111.5t66 184.5t-63.5 167t-162 57zM1727.5 773.5q103.5 -100.5 103.5 -271.5q0 -104 -48 -194.5t-134 -149.5q10 2 30 2h285q41 0 61.5 -14.5t20.5 -61.5t-19.5 -65.5t-62.5 -18.5h-272
q-74 0 -139.5 6t-125.5 43q-68 -37 -144.5 -43t-135.5 -6h-811q-129 0 -184.5 62.5t-55.5 195.5v428q0 20 21 21h131q20 0 20 -21v-418q0 -61 23.5 -84.5t75.5 -23.5h833q-84 59 -132 148t-48 182.5t24.5 162t74.5 117.5q106 104 305.5 104t303 -100.5zM1358 1280
q-20 0 -21 20v150q0 20 21 20h139q20 0 21 -20v-150q0 -20 -21 -20h-139zM1231 1040q-20 0 -21 21v149q0 20 21 21h139q20 0 21 -21v-149q0 -20 -21 -21h-139zM1481 1040q-20 0 -21 21v149q0 20 21 21h139q20 0 20 -21v-149q0 -20 -20 -21h-139z" />
    <glyph glyph-name="uniFB6C" unicode="&#x6a4;" horiz-adv-x="1085" arabic-form="initial" 
d="M797 428q0 287 -219 287q-109 0 -164.5 -74t-55.5 -213.5t52.5 -203.5t167 -64t167 60.5t52.5 207.5zM969 428q0 -428 -391 -428h-564q-43 0 -62.5 15.5t-19.5 68.5q0 76 82 76h232q-60 100 -60 242q-1 251 107.5 361.5t287.5 110.5t283.5 -105t104.5 -341zM504 1280
q-20 0 -21 20v150q0 20 21 20h139q20 0 21 -20v-150q0 -20 -21 -20h-139zM377 1040q-20 0 -21 21v149q0 20 21 21h139q20 0 21 -21v-149q0 -20 -21 -21h-139zM627 1040q-20 0 -21 21v149q0 20 21 21h139q20 0 20 -21v-149q0 -20 -20 -21h-139z" />
    <glyph glyph-name="uniFB6D" unicode="&#x6a4;" horiz-adv-x="1064" arabic-form="medial" 
d="M526.5 715q-98.5 0 -162 -57.5t-63.5 -167t65.5 -184.5t159.5 -111q94 37 160 111.5t66 184.5t-63.5 167t-162 57zM828.5 773.5q103.5 -100.5 103.5 -271.5q0 -104 -48 -194.5t-134 -149.5q10 2 30 2h285q41 0 61.5 -14.5t20.5 -61.5t-19.5 -65.5t-62.5 -18.5h-272
q-74 0 -139.5 6t-125.5 43q-68 -37 -144.5 -43t-135.5 -6h-248q-82 0 -82 82q0 51 19.5 64.5t62.5 13.5h301q-84 59 -132 148t-48 182.5t24.5 162t74.5 117.5q106 104 305.5 104t303 -100.5zM461 1280q-20 0 -21 20v150q0 20 21 20h139q20 0 21 -20v-150q0 -20 -21 -20h-139
zM334 1040q-20 0 -21 21v149q0 20 21 21h139q20 0 21 -21v-149q0 -20 -21 -21h-139zM584 1040q-20 0 -21 21v149q0 20 21 21h139q20 0 20 -21v-149q0 -20 -20 -21h-139z" />
    <glyph glyph-name="uniFB7B" unicode="&#x686;" horiz-adv-x="1232" arabic-form="final" 
d="M561 874q467 0 467 -520l-2 -67q4 -63 54 -95t130 -32h23q82 0 82 -76q0 -53 -19.5 -68.5t-62.5 -15.5h-43q-70 0 -125 29.5t-78 89.5q-35 -66 -97.5 -92.5t-156.5 -26.5h-387q-115 0 -115 -130q0 -58 36 -88t141 -30h84q20 0 20 -20v-119q0 -20 -20 -21h-93
q-158 0 -251 67t-93 217t99 224q79 60 192 60h324q112 0 144 39t32 137q0 187 -62.5 283t-206 96t-241.5 -107q-12 -14 -29 -2l-90 74q-18 14 -6 29q131 165 350 165zM653 -426q-14 0 -14 14v105q0 14 14 14h97q14 0 14 -14v-105q0 -14 -14 -14h-97zM565 -258q-14 0 -14 14
v105q0 14 14 14h99q14 0 14 -14v-105q0 -14 -14 -14h-99zM739 -258q-14 0 -14 14v105q0 14 14 14h99q14 0 14 -14v-105q0 -14 -14 -14h-99z" />
    <glyph glyph-name="uniFB7C" unicode="&#x686;" horiz-adv-x="1052" arabic-form="initial" 
d="M473 874q467 0 467 -520q0 -197 -68 -275.5t-227 -78.5h-645q-82 0 -82 82q0 51 19.5 64.5t62.5 13.5h582q113 0 144.5 39.5t31.5 137.5q0 186 -62.5 282t-206 96t-241.5 -107q-12 -14 -29 -2l-90 74q-18 14 -6 29q131 165 350 165zM453 -621q-20 0 -21 21v149
q0 20 21 21h139q20 0 20 -21v-149q0 -20 -20 -21h-139zM328 -381q-20 0 -21 21v149q0 20 21 21h139q20 0 20 -21v-149q0 -20 -20 -21h-139zM578 -381q-20 0 -21 21v149q0 20 21 21h139q20 0 20 -21v-149q0 -20 -20 -21h-139z" />
    <glyph glyph-name="uniFB7D" unicode="&#x686;" horiz-adv-x="1144" arabic-form="medial" 
d="M473 874q467 0 467 -520l-2 -67q4 -63 54 -95t130 -32h23q82 0 82 -76q0 -53 -19.5 -68.5t-62.5 -15.5h-43q-70 0 -125 29.5t-78 89.5q-35 -66 -97.5 -92.5t-156.5 -26.5h-645q-82 0 -82 82q0 51 19.5 64.5t62.5 13.5h582q113 0 144.5 39.5t31.5 137.5q0 186 -62.5 282
t-206 96t-241.5 -107q-12 -14 -29 -2l-90 74q-18 14 -6 29q131 165 350 165zM453 -621q-20 0 -21 21v149q0 20 21 21h139q20 0 20 -21v-149q0 -20 -20 -21h-139zM328 -381q-20 0 -21 21v149q0 20 21 21h139q20 0 20 -21v-149q0 -20 -20 -21h-139zM578 -381q-20 0 -21 21v149
q0 20 21 21h139q20 0 20 -21v-149q0 -20 -20 -21h-139z" />
    <glyph glyph-name="uniFB89" unicode="&#x688;" horiz-adv-x="1093" arabic-form="final" 
d="M1094 160q82 0 82 -76q0 -53 -19.5 -68.5t-62.5 -15.5h-43q-70 0 -125.5 29.5t-77.5 89.5q-35 -68 -96.5 -93.5t-159.5 -25.5h-455q-20 0 -20 20v119q0 20 20 21h391q112 0 144.5 38t32.5 146v164q0 207 -234 207h-238q-20 0 -20 20v119q0 20 20 20h302q156 0 254 -88
t98 -276v-211q0 -70 50 -104.5t134 -34.5h23zM513 1257q-48 0 -136 -34v-117h172q33 0 41 12t8 52t-18.5 63.5t-66.5 23.5zM525.5 1331q80.5 0 116.5 -48t36 -118t-26.5 -101.5t-84.5 -31.5h-315q-14 0 -14 15v45q0 14 14 14h24q20 0 21 22v340q0 14 16 15h47q16 0 17 -15
v-172q68 35 148.5 35z" />
    <glyph glyph-name="uniFB8B" unicode="&#x698;" horiz-adv-x="612" arabic-form="final" 
d="M612 160q82 0 82 -76q0 -53 -19.5 -68.5t-62.5 -15.5h-43q-106 0 -163 66v-136q0 -166 -84 -252t-246 -86h-56q-20 0 -20 21v119q0 20 20 20h48q166 0 165 174v891q0 20 21 21h131q20 0 21 -21v-518q0 -70 50 -104.5t134 -34.5h22zM254 1280q-20 0 -21 20v150q0 20 21 20
h139q20 0 21 -20v-150q0 -20 -21 -20h-139zM127 1040q-20 0 -21 21v149q0 20 21 21h139q20 0 21 -21v-149q0 -20 -21 -21h-139zM377 1040q-20 0 -21 21v149q0 20 21 21h139q20 0 21 -21v-149q0 -20 -21 -21h-139z" />
    <glyph glyph-name="uniFB8D" unicode="&#x691;" horiz-adv-x="612" arabic-form="final" 
d="M612 160q82 0 82 -76q0 -53 -19.5 -68.5t-62.5 -15.5h-43q-106 0 -163 66v-136q0 -166 -84 -252t-246 -86h-56q-20 0 -20 21v119q0 20 20 20h48q166 0 165 174v891q0 20 21 21h131q20 0 21 -21v-518q0 -70 50 -104.5t134 -34.5h22zM372.5 1257q-49.5 0 -134.5 -34v-117
h172q33 0 41 12t8 52t-18.5 63.5t-68 23.5zM386.5 1331q80.5 0 116.5 -48t36 -118t-27 -101.5t-84 -31.5h-315q-14 0 -15 15v45q0 14 15 14h24q20 0 21 22v340q0 14 16 15h47q16 0 17 -15v-172q68 35 148.5 35z" />
    <glyph glyph-name="uniFB8F" unicode="&#x6a9;" horiz-adv-x="1818" arabic-form="final" 
d="M1819 160q82 0 82 -76q0 -53 -19.5 -68.5t-62.5 -15.5h-43q-68 0 -123.5 29.5t-79.5 85.5q-35 -66 -95.5 -90.5t-156.5 -24.5h-985q-129 0 -184.5 62.5t-55.5 195.5v428q0 20 21 21h131q20 0 20 -21v-418q0 -61 23.5 -84.5t75.5 -23.5h890q112 0 144 38q33 38 33 146v127
q0 207 -234 207h-330q-20 0 -20 20v115q0 15 18 33l449 528q12 14 26 6l99 -82q16 -12 8 -28l-369 -432h183q156 0 254 -88t98 -277v-199q0 -57 51 -85.5t129 -28.5h23z" />
    <glyph glyph-name="uniFB90" unicode="&#x6a9;" horiz-adv-x="1009" arabic-form="initial" 
d="M545 838q156 0 254 -88t98 -277v-123q0 -198 -68 -274t-227 -76h-602q-82 0 -82 82q0 51 19.5 64.5t62.5 13.5h539q112 0 144 38t32 146v127q0 207 -234 207h-329q-20 0 -21 20v115q0 18 19 33l448 528q12 14 27 6l98 -82q16 -12 8 -28l-369 -432h183z" />
    <glyph glyph-name="uniFB91" unicode="&#x6a9;" horiz-adv-x="1101" arabic-form="medial" 
d="M1102 160q82 0 82 -76q0 -53 -19.5 -68.5t-62.5 -15.5h-43q-68 0 -124 29.5t-79 87.5q-35 -66 -96.5 -91.5t-157.5 -25.5h-602q-82 0 -82 82q0 51 19.5 64.5t62.5 13.5h539q112 0 144 38t32 146v127q0 207 -234 207h-329q-20 0 -21 20v115q0 18 19 33l448 528q12 14 27 6
l98 -82q16 -12 8 -28l-369 -432h183q156 0 254 -88t98 -277v-123l-2 -65q4 -63 54 -94t130 -31h23z" />
    <glyph glyph-name="uniFB93" unicode="&#x6af;" horiz-adv-x="1818" arabic-form="final" 
d="M1819 160q82 0 82 -76q0 -53 -19.5 -68.5t-62.5 -15.5h-43q-68 0 -123.5 29.5t-79.5 85.5q-35 -66 -95.5 -90.5t-156.5 -24.5h-985q-129 0 -184.5 62.5t-55.5 195.5v428q0 20 21 21h131q20 0 20 -21v-418q0 -61 23.5 -84.5t75.5 -23.5h890q112 0 144 38q33 38 33 146v127
q0 207 -234 207h-330q-20 0 -20 20v115q0 15 18 33l449 528q12 14 26 6l99 -82q16 -12 8 -28l-369 -432h183q156 0 254 -88t98 -277v-199q0 -57 51 -85.5t129 -28.5h23zM776 920q-12 -14 -26 -7l-99 82q-16 10 -8 29l449 528q12 14 26 7l99 -82q16 -12 8 -29z" />
    <glyph glyph-name="uniFB94" unicode="&#x6af;" horiz-adv-x="1009" arabic-form="initial" 
d="M545 838q156 0 254 -88t98 -277v-123q0 -198 -68 -274t-227 -76h-602q-82 0 -82 82q0 51 19.5 64.5t62.5 13.5h539q112 0 144 38t32 146v127q0 207 -234 207h-329q-20 0 -21 20v115q0 18 19 33l448 528q12 14 27 6l98 -82q16 -12 8 -28l-369 -432h183zM70 920
q-12 -14 -27 -7l-98 82q-16 10 -8 29l448 528q12 14 27 7l98 -82q16 -12 8 -29z" />
    <glyph glyph-name="uniFB95" unicode="&#x6af;" horiz-adv-x="1101" arabic-form="medial" 
d="M1102 160q82 0 82 -76q0 -53 -19.5 -68.5t-62.5 -15.5h-43q-68 0 -124 29.5t-79 87.5q-35 -66 -96.5 -91.5t-157.5 -25.5h-602q-82 0 -82 82q0 51 19.5 64.5t62.5 13.5h539q112 0 144 38t32 146v127q0 207 -234 207h-329q-20 0 -21 20v115q0 18 19 33l448 528q12 14 27 6
l98 -82q16 -12 8 -28l-369 -432h183q156 0 254 -88t98 -277v-123l-2 -65q4 -63 54 -94t130 -31h23zM49 920q-12 -14 -26 -7l-99 82q-16 10 -8 29l449 528q12 14 26 7l98 -82q16 -12 9 -29z" />
    <glyph glyph-name="uniFB9F" unicode="&#x6ba;" horiz-adv-x="1249" arabic-form="final" 
d="M1249 160q82 0 82 -76q0 -53 -19.5 -68.5t-62.5 -15.5h-28q-106 0 -164 66v-25q0 -211 -124 -330t-352 -119t-359 120q-130 120 -130 329q0 121 40 232.5t93 187.5q8 14 29 2l113 -62q16 -10 6 -26q-105 -162 -105 -320t107 -236q87 -63 214.5 -63t211.5 67.5t84 219.5
v598q0 20 20 21h131q20 0 21 -21v-342q0 -70 50 -104.5t134 -34.5h8z" />
    <glyph glyph-name="uniFBA5" unicode="&#x6c0;" horiz-adv-x="1026" arabic-form="final" 
d="M248 465q0 -215 214 -215q204 0 204 260v205h-201q-96 0 -156.5 -54.5t-60.5 -195.5zM451 90q-263 0 -347 208q-28 70 -28 176q0 202 110 301t279 99h201v89q0 20 20 20h131q20 0 21 -20v-695q0 -61 23.5 -84.5t74.5 -23.5h90q82 0 82 -82q0 -51 -19.5 -64.5t-62.5 -13.5
h-121q-100 0 -156.5 38t-74.5 126q-82 -74 -223 -74zM307 1274q0 100 51 161.5t160 61.5t160 -72q6 -14 0 -20l-43 -35q-14 -12 -23 -4q-42 47 -98.5 47t-84.5 -35t-28 -82q0 -75 70 -129h211q12 0 12 -14v-57q0 -14 -12 -15h-416q-12 0 -12 15v57q0 14 12 14h78
q-37 54 -37 107z" />
    <glyph glyph-name="uniFBA7" unicode="&#x6c1;" horiz-adv-x="1007" arabic-form="final" 
d="M82 455q0 383 403 383h283q20 0 20 -21v-510q0 -72 28 -109.5t114 -37.5h78q43 0 62.5 -18.5t19.5 -65.5t-20.5 -61.5t-61.5 -14.5h-97q-295 0 -295 289v377h-139q-125 0 -174 -64.5t-49 -193.5v-388q0 -20 -21 -20h-131q-20 0 -20 20v435z" />
    <glyph glyph-name="uniFBA8" unicode="&#x6c1;" horiz-adv-x="559" arabic-form="initial" 
d="M344 -299q-174 0 -238 117q-24 43 -24 93t8 89h-90q-41 0 -61.5 14.5t-20.5 61.5t19.5 65.5t62.5 18.5h129q51 0 74.5 23.5t23.5 84.5v549q0 20 21 21h131q20 0 20 -21v-559q0 -111 -35.5 -171t-119.5 -79q-8 -31 -8 -59q0 -66 49 -87.5t110 -21.5q20 0 21 -20v-96
q0 -23 -46 -23h-26z" />
    <glyph glyph-name="uniFBA9" unicode="&#x6c1;" horiz-adv-x="903" arabic-form="medial" 
d="M293 160q20 0 20 -21v-153q0 -98 38 -140.5t134 -42.5v50q0 160 81 233.5t210 73.5h127q41 0 61.5 -14.5t20.5 -61.5t-19.5 -65.5t-62.5 -18.5h-119q-66 0 -96.5 -27.5t-30.5 -101.5v-219q0 -20 -20 -21h-102q-184 0 -289 74t-105 234v61h-141q-82 0 -82 82
q0 51 19.5 64.5t62.5 13.5h293z" />
    <glyph glyph-name="uniFBAB" unicode="&#x6be;" horiz-adv-x="1230" arabic-form="final" 
d="M696 -268q111 0 156 34.5t45 98.5q-1 91 -77 123q-30 12 -77 12h-260v-115q0 -153 213 -153zM915 438q0 277 -210 277q-100 0 -161 -73t-61 -214v-268h232q101 0 150.5 81t49.5 197zM311 -115v115h-53q-47 0 -60.5 -13.5t-13.5 -56.5v-61q0 -20 -20 -21h-131
q-20 0 -21 21v154q0 137 168 137h131v268q0 222 114 334t288 112t274 -99t100 -322q0 -86 -24.5 -166t-56.5 -127h227q43 0 62.5 -13.5t19.5 -64.5q0 -82 -82 -82h-207q43 -54 43 -128q0 -142 -95.5 -221t-268.5 -79q-394 0 -394 313z" />
    <glyph glyph-name="uniFBAC" unicode="&#x6be;" horiz-adv-x="1232" arabic-form="initial" 
d="M612 308.5q0 140.5 -116 140.5q-58 0 -89.5 -38t-31.5 -108q0 -135 108 -143h23q106 8 106 148.5zM608 903q278 0 408 -170q104 -134 104 -350.5t-67 -299.5t-228 -83h-825q-82 0 -82 82q0 51 19.5 64.5t62.5 13.5h256q-29 61 -29 143q0 145 77 219t192.5 74t191.5 -76
t76 -217q0 -82 -29 -143h27q112 0 144 42.5t32 146.5t-17.5 169.5t-58.5 115.5q-89 109 -261.5 109t-315.5 -84q-24 -12 -29 -2l-57 97q-12 23 0 30q183 119 409 119z" />
    <glyph glyph-name="uniFBAD" unicode="&#x6be;" horiz-adv-x="1146" arabic-form="medial" 
d="M612 -268q111 0 156 34.5t45 98.5q-1 91 -77 123q-30 12 -77 12h-260v-115q0 -153 213 -153zM831 438q0 277 -221 277q-98 0 -154.5 -70t-56.5 -194v-291h232q101 0 150.5 81t49.5 197zM227 -115v115h-227q-82 0 -82 82q0 51 19.5 64.5t62.5 13.5h227v268
q0 223 105 334.5t285.5 111.5t283.5 -102t103 -319q0 -86 -25 -166t-57 -127h227q43 0 62.5 -13.5t19.5 -64.5q0 -82 -82 -82h-207q43 -54 43 -128q0 -142 -95.5 -221t-268.5 -79q-394 0 -394 313z" />
    <glyph glyph-name="uniFBAF" unicode="&#x6d2;" horiz-adv-x="684" arabic-form="final" 
d="M213 -127.5q0 -60.5 37 -90.5t139 -30h780q20 0 21 -20v-119q0 -20 -21 -21h-774q-263 0 -329 164q-20 49 -19 114q0 135 98.5 212.5t253.5 77.5h285q41 0 61.5 -14.5t20.5 -61.5t-19.5 -65.5t-62.5 -18.5h-305q-92 0 -129 -33.5t-37 -94z" />
    <glyph glyph-name="uniFBB1" unicode="&#x6d3;" horiz-adv-x="684" arabic-form="final" 
d="M213 -127.5q0 -60.5 37 -90.5t139 -30h780q20 0 21 -20v-119q0 -20 -21 -21h-774q-263 0 -329 164q-20 49 -19 114q0 135 98.5 212.5t253.5 77.5h285q41 0 61.5 -14.5t20.5 -61.5t-19.5 -65.5t-62.5 -18.5h-305q-92 0 -129 -33.5t-37 -94zM156 474q0 100 50.5 161t160 61
t159.5 -71q6 -14 0 -21l-43 -35q-14 -12 -22 -4q-42 47 -99 47t-84.5 -34.5t-27.5 -80.5t23.5 -80t45.5 -50h211q12 0 13 -15v-57q0 -14 -13 -14h-415q-12 0 -13 14v57q0 14 13 15h78q-37 54 -37 107z" />
    <glyph glyph-name="uniFBE8" unicode="&#x649;" horiz-adv-x="542" arabic-form="initial" 
d="M0 0q-41 0 -61.5 14.5t-20.5 61.5t19.5 65.5t62.5 18.5h129q51 0 74.5 23.5t23.5 84.5v549q0 20 21 21h131q20 0 20 -21v-559q0 -133 -55 -195.5t-184 -62.5h-160z" />
    <glyph glyph-name="uniFBE9" unicode="&#x649;" horiz-adv-x="606" arabic-form="medial" 
d="M563 0q-138 0 -190 106q-51 -106 -213 -106h-160q-41 0 -61.5 14.5t-20.5 61.5t19.5 65.5t62.5 18.5h129q51 0 74.5 23.5t23.5 84.5v549q0 20 21 21h131q20 0 20 -21v-518q0 -70 50.5 -104.5t134.5 -34.5h24q82 0 82 -76q0 -53 -19.5 -68.5t-62.5 -15.5h-45z" />
    <glyph glyph-name="uniFBFD" unicode="&#x6cc;" horiz-adv-x="1546" arabic-form="final" 
d="M1440 -124q0 -125 -92.5 -204.5t-290.5 -79.5h-479q-240 0 -365 120t-125 329q0 121 40 232.5t93 187.5q8 14 29 2l112 -62q16 -10 7 -26q-105 -162 -105 -319.5t96 -228.5t242 -71h453q123 0 171 37t48 85t-27.5 81t-82 60.5t-135.5 56t-185 67.5q-18 6 -13 25l46 123
q6 20 24 14q66 -25 127.5 -50.5t154.5 -60t197 -34.5h166q41 0 61.5 -14.5t20.5 -61.5t-19.5 -65.5t-62.5 -18.5h-145q39 -62 39 -124z" />
    <glyph glyph-name="uniFBFE" unicode="&#x6cc;" horiz-adv-x="565" arabic-form="initial" 
d="M0 0q-41 0 -61.5 14.5t-20.5 61.5t19.5 65.5t62.5 18.5h141q51 0 75 23.5t24 84.5v549q0 20 20 21h131q20 0 21 -21v-559q0 -133 -55.5 -195.5t-184.5 -62.5h-172zM68 -381q-20 0 -21 21v149q0 20 21 21h139q20 0 20 -21v-149q0 -20 -20 -21h-139zM317 -381q-20 0 -20 21
v149q0 20 20 21h140q20 0 20 -21v-149q0 -20 -20 -21h-140z" />
    <glyph glyph-name="uniFBFF" unicode="&#x6cc;" horiz-adv-x="632" arabic-form="medial" 
d="M588 0q-137 0 -191 106q-51 -106 -213 -106h-170q-41 0 -61.5 14.5t-20.5 61.5t19.5 65.5t62.5 18.5h140q51 0 74.5 23.5t23.5 84.5v549q0 20 20 21h131q20 0 21 -21v-518q0 -70 50 -104.5t134 -34.5h25q82 0 82 -76q0 -53 -19.5 -68.5t-62.5 -15.5h-45zM135 -381
q-20 0 -20 21v149q0 20 20 21h139q20 0 21 -21v-149q0 -20 -21 -21h-139zM385 -381q-20 0 -20 21v149q0 20 20 21h139q20 0 21 -21v-149q0 -20 -21 -21h-139z" />
    <glyph glyph-name="uniFC5E" unicode="&#xfc5e;" horiz-adv-x="0" arabic-form="isolated" 
d="M-260 1839q0 20 20 21h37q20 0 21 -21v-151q0 -39 19.5 -60.5t52 -21.5t52 19.5t19.5 53.5v160q0 20 21 21h36q20 0 21 -21v-160q0 -35 19.5 -54t52 -19t52 21.5t19.5 60.5v151q0 20 21 21h37q20 0 20 -21v-145q0 -72 -40 -117t-110.5 -45t-109.5 45q-39 -45 -110 -45
t-110.5 45t-39.5 117v145zM180 2181v19q0 57 -23.5 86.5t-61.5 29.5q-37 0 -57 -28t-20 -52q0 -41 29.5 -57t58.5 -16h72q2 8 2 18zM-199 2085q0 113 -73 113h-21q-20 0 -20 20v29q0 20 20 20h12q66 0 111 -43t45 -139q0 -53 31 -64.5t83 -11.5q80 0 121.5 25.5t53.5 60.5
h-68q-70 0 -109.5 37t-39.5 101.5t44 108.5t108.5 44t108.5 -44t44 -130q0 -152 -68 -212q-66 -61 -176 -61q-110 -1 -143 19q-64 38 -64 127z" />
    <glyph glyph-name="uniFC5F" unicode="&#xfc5f;" horiz-adv-x="0" arabic-form="isolated" 
d="M-260 2150q0 20 20 21h37q20 0 21 -21v-151q0 -39 19.5 -60.5t52 -21.5t52 19.5t19.5 54.5v159q0 20 21 21h36q20 0 21 -21v-159q0 -35 19.5 -54.5t52 -19.5t52 21.5t19.5 60.5v151q0 20 21 21h37q20 0 20 -21v-145q0 -72 -40 -117t-110 -45t-110 45q-39 -45 -110 -45
t-110.5 45t-39.5 117v145zM-262 1536q-20 0 -21 20v29q0 20 21 21h520q20 0 21 -21v-29q0 -20 -21 -20h-520zM-262 1675q-20 0 -21 21v28q0 20 21 21h520q20 0 21 -21v-28q0 -20 -21 -21h-520z" />
    <glyph glyph-name="uniFC60" unicode="&#xfc60;" horiz-adv-x="0" arabic-form="isolated" 
d="M-260 1839q0 20 20 21h37q20 0 21 -21v-151q0 -39 19.5 -60.5t52 -21.5t52 19.5t19.5 53.5v160q0 20 21 21h36q20 0 21 -21v-160q0 -35 19.5 -54t52 -19t52 21.5t19.5 60.5v151q0 20 21 21h37q20 0 20 -21v-145q0 -72 -40 -117t-110 -45t-110 45q-39 -45 -110 -45
t-110.5 45t-39.5 117v145zM-266 1966q-20 0 -21 21v28q0 20 21 21h520q20 0 20 -21v-28q0 -20 -20 -21h-520z" />
    <glyph glyph-name="uniFC61" unicode="&#xfc61;" horiz-adv-x="0" arabic-form="isolated" 
d="M-260 1839q0 20 20 21h37q20 0 21 -21v-151q0 -39 19.5 -60.5t52 -21.5t52 19.5t19.5 53.5v160q0 20 21 21h36q20 0 21 -21v-160q0 -35 19.5 -54t52 -19t52 21.5t19.5 60.5v151q0 20 21 21h37q20 0 20 -21v-145q0 -72 -40 -117t-110.5 -45t-109.5 45q-39 -45 -110 -45
t-110.5 45t-39.5 117v145zM-92 2023q73 0 114.5 25.5t53.5 60.5h-68q-70 0 -109.5 37t-39.5 102t44 108.5t108.5 43.5t108.5 -44t44 -130q0 -150 -66.5 -211t-189.5 -61h-58q-20 0 -20 20v29q0 20 20 20h58zM92 2196v18q0 57 -23.5 87t-61.5 30t-57.5 -28t-19.5 -52
q0 -39 28.5 -56.5t59.5 -17.5h72q2 9 2 19z" />
    <glyph glyph-name="uniFC62" unicode="&#xfc62;" horiz-adv-x="0" arabic-form="isolated" 
d="M-260 2017q0 20 20 21h37q20 0 21 -21v-151q0 -39 19.5 -60.5t52 -21.5t52 19.5t19.5 54.5v159q0 20 21 21h36q20 0 21 -21v-159q0 -35 19.5 -54.5t52 -19.5t52 21.5t19.5 60.5v151q0 20 21 21h37q20 0 20 -21v-145q0 -72 -40 -117t-110 -45t-110 45q-39 -45 -110 -45
t-110.5 45t-39.5 117v145zM-266 1540q-20 0 -21 21v28q0 20 21 21h520q20 0 20 -21v-28q0 -20 -20 -21h-520z" />
    <glyph glyph-name="uniFC63" unicode="&#xfc63;" horiz-adv-x="0" arabic-form="isolated" 
d="M-260 1839q0 20 20 21h37q20 0 21 -21v-151q0 -39 19.5 -60.5t52 -21.5t52 19.5t19.5 53.5v160q0 20 21 21h36q20 0 21 -21v-160q0 -35 19.5 -54t52 -19t52 21.5t19.5 60.5v151q0 20 21 21h37q20 0 20 -21v-145q0 -72 -40 -117t-110 -45t-110 45q-39 -45 -110 -45
t-110.5 45t-39.5 117v145zM39 1964q0 -20 -21 -20h-36q-20 0 -21 20v254q0 20 21 20h36q20 0 21 -20v-254z" />
    <glyph glyph-name="uniFDF2" unicode="&#xfdf2;" horiz-adv-x="2740" arabic-form="isolated" 
d="M2597 20q0 -20 -21 -20h-131q-20 0 -20 20v1352q0 20 20 21h131q20 0 21 -21v-1352zM248 465q0 -215 214 -215q204 0 204 260v205h-201q-96 0 -156.5 -54.5t-60.5 -195.5zM451 90q-263 0 -347 208q-28 70 -28 176q0 202 110 301t279 99h201v89q0 20 20 20h131
q20 0 21 -20v-695q0 -61 23.5 -84.5t74.5 -23.5h219q51 0 74.5 23.5t23.5 84.5v1104q0 20 21 21h131q20 0 20 -21v-1073q0 -70 50.5 -104.5t134.5 -34.5h153q51 0 75 23.5t24 84.5v1104q0 20 20 21h131q20 0 21 -21v-1114q0 -133 -55.5 -195.5t-184.5 -62.5h-205
q-138 0 -190 106q-51 -106 -213 -106h-281q-100 0 -156.5 38t-74.5 126q-82 -74 -223 -74z" />
    <glyph glyph-name="uniFDFA" unicode="&#xfdfa;" horiz-adv-x="2164" arabic-form="isolated" 
d="M1952 86q-33 0 -41 -51q8 -37 63 -37q27 -1 31 22q-12 66 -53 66zM438 -80q0 38 -59 80q-29 20 -59 20t-29 -24q0 -27 53 -55q50 -31 72 -31t22 10zM233 910q-1 -18 55 -19q56 0 101 27l-2 79q-31 -16 -84 -34q-70 -35 -70 -53zM664 1362q0 -66 -43 -66q-27 0 -43 17
q-37 -31 -62 -31q-43 0 -43 47t6 64l13 12q0 -76 34 -76q25 0 39 33l-4 47l19 29l8 -62q2 -33 30 -33q23 0 23 25l-6 51l14 21q15 -37 15 -78zM166 432q0 -20 66 -20t118 49l-4 78q-180 -70 -180 -107zM1669 1444l-12 -45l-400 -197l9 51zM1294 -248q0 -41 -4 -61
q-12 -27 -42 -27t-38 8q-52 -56 -82 -27t-42 29t-72 -36t-146 -35q-88 0 -88 15t72 15q72 -1 95 5q24 6 74 38q49 32 69 33q20 0 42.5 -16.5t26.5 -16.5q31 0 37 35q2 27 23 27q8 0 8 -12.5t-2 -18.5q2 -8 22 -12q25 1 25 29t22 28zM2025 860q1 14 -35 32t-67 19
q-31 0 -101 -44t-106 -74q8 -2 64 -2t151 18q94 18 94 51zM1233 76l-53 -64l-99 72l-57 -74l-102 74l59 72l96 -72l56 68zM975 915q-6 -135 -27 -149l-51 496l45 116zM1552 1079q0 -23 54 -51l-19 -49q-68 20 -67.5 81.5t53.5 90.5q262 152 432 209l-18 -51
q-75 -27 -255 -114t-180 -116zM1954 176q24 0 67 -51t43 -137t-82 -211t-180 -125q-47 0 -122 33t-74 47q0 8 11 8t57 -16q46 -15 73 -15q139 0 283 217l-15 45q-37 -53 -72 -53t-56 28.5t-21 67.5q0 38 32 100t56 62zM768 846q0 55 -74 284l27 68q82 -254 82 -309t-21 -103
q-20 -57 -51 -57q-10 0 -18 6q-14 -41 -15 -80q0 -154 187 -153q145 0 291 98q4 4 4 6q0 12 -100 28t-105 19q-6 3 -6 19t35 61q123 51 131 109q2 6 2 28q0 192 -41 473l34 115q49 -432 78 -524q37 -117 148 -135l-10 196l43 92l16 -286q57 20 123 73l61 -43q39 -25 80 -30
q47 49 143 119t133 71t87 -29t51 -63q0 -33 -32 -83t-64 -64q-96 -43 -238 -43h-36q-36 0 -62 4q-49 -96 -78 -97q-8 0 -8 23t45 86q-88 35 -99 53q-82 -53 -102 -53q16 -289 53 -363t176 -77q-45 35 -45 97q-1 62 57 138t124 76t117 -35q50 -35 51 -63q-53 18 -116 18
t-124 -29q-53 -29 -53 -57t50 -78q50 -51 91 -59q58 6 159 42t117 46l-34 -76q-207 -109 -399 -109t-236 150q-61 -133 -115 -133t-139 90q-133 -115 -404 -115q-58 0 -143 11q20 -166 66 -209q90 -90 340 -90t358 65q31 76 57 76q8 -1 8 -23t-24 -84q12 -26 60 -26t95 24
q43 135 68 136q8 0 8 -31t-20 -80q62 -27 84 -27t22 8t-16 78l35 74q25 -74 24 -106q0 -137 -90 -138q-47 0 -98 39q-31 -53 -125 -53t-94 53q-102 -71 -409 -71q-169 0 -263 57q-121 70 -123 258l-45 -66q-33 -49 -53 -53q25 -43 25 -90q0 -48 -25 -72q-24 -24 -58 -24
t-118 47q-27 -61 -86 -96q-10 -7 -48 -10t-45 -5l-22 -8q-12 0 -12 9t56 33t73 38l69 53q-20 35 -20 80t37 87t69 42q4 0 26 -12t52 -12t68 47l47 86q-80 25 -113 55q-59 53 -84 174q-59 -102 -162 -102q-36 0 -74 15t-38 26q0 51 88 118q70 56 174 91l-4 34l41 68
q14 -220 42 -286t116 -95l-27 270l39 88l35 -368q106 -12 194 -12q213 0 363 81q29 78 38 78t9 -19t-8 -50q76 -72 120 -72q53 0 86 88l-26 330q-150 0 -184 151q-33 -134 -84 -147l6 -6q72 0 106.5 -16.5t34.5 -69.5t-51 -86q-176 -121 -328 -121q-94 0 -151.5 48
t-57.5 124t33 147q-55 14 -78 88q-37 -104 -117 -104q-96 0 -96 158l-55 -50q-14 -14 -97 -14t-83 37q0 23 26 66t51 53l156 76v20l35 74l8 -246q2 -86 66 -86q31 0 60.5 21.5t33.5 46.5l-33 233l37 80l57 -330q19 -43 67 -43t48 27z" />
    <glyph glyph-name="uniFE82" unicode="&#x622;" horiz-adv-x="503" arabic-form="final" 
d="M143 1372q0 20 21 21h131q20 0 20 -21v-1104q0 -61 23.5 -84.5t75.5 -23.5h90q82 0 82 -82q0 -51 -19.5 -64.5t-62.5 -13.5h-121q-129 0 -184.5 62.5t-55.5 195.5v1114zM231.5 1661q130.5 -53 180 -53t62.5 15t13 44.5t21 30.5h45q20 0 20 -21q0 -84 -37.5 -127
t-97.5 -43q-84 0 -218.5 52.5t-167.5 52.5t-51.5 -11.5t-27 -39t-28.5 -21.5l-43 12q-19 7 -15 27q14 66 56.5 100.5t100 34.5t188 -53z" />
    <glyph glyph-name="uniFE84" unicode="&#x623;" horiz-adv-x="503" arabic-form="final" 
d="M143 1372q0 20 21 21h131q20 0 20 -21v-1104q0 -61 23.5 -84.5t75.5 -23.5h90q82 0 82 -82q0 -51 -19.5 -64.5t-62.5 -13.5h-121q-129 0 -184.5 62.5t-55.5 195.5v1114zM68 1687q0 101 50.5 162.5t160.5 61.5t159 -72q6 -14 0 -20l-43 -35q-14 -12 -22 -4q-42 47 -99 47
t-84.5 -35t-27.5 -81t23.5 -80t45.5 -50h211q12 0 13 -14v-58q0 -14 -13 -14h-415q-12 0 -13 14v58q0 14 13 14h77q-36 52 -36 106z" />
    <glyph glyph-name="uniFE86" unicode="&#x624;" horiz-adv-x="1038" arabic-form="final" 
d="M723 428q-1 287 -209 287q-108 0 -168.5 -82t-60.5 -222t58 -195.5t173 -55.5h207v268zM1036 160q82 0 82 -76q0 -53 -19.5 -68.5t-62.5 -15.5h-141v-49q-1 -273 -209 -339q-66 -20 -145 -20h-254q-20 0 -21 21v119q0 20 21 20h245q191 0 191 195v53h-219
q-292 0 -364 219q-26 81 -27 197q0 227 113 342.5t288.5 115.5t278 -105t102.5 -341v-268h141zM317 1214q0 94 54.5 153.5t169.5 59.5q57 0 106 -21.5t64.5 -44.5t5.5 -34l-53 -45q-6 -4 -22 10q-45 41 -105.5 41t-87.5 -32.5t-27 -71.5q0 -74 67 -111h232q12 0 12 -14v-66
q0 -14 -12 -14h-436q-12 0 -13 14v66q0 14 13 14h69q-37 46 -37 96z" />
    <glyph glyph-name="uniFE88" unicode="&#x625;" horiz-adv-x="503" arabic-form="final" 
d="M143 1372q0 20 21 21h131q20 0 20 -21v-1104q0 -61 23.5 -84.5t75.5 -23.5h90q82 0 82 -82q0 -51 -19.5 -64.5t-62.5 -13.5h-121q-129 0 -184.5 62.5t-55.5 195.5v1114zM66 -365q0 98 50.5 160t160.5 62t159 -72q6 -14 0 -21l-43 -34q-14 -12 -22 -4q-42 47 -99 47
t-84.5 -35t-27.5 -81t23.5 -80t45.5 -50h211q12 0 13 -14v-58q0 -14 -13 -14h-415q-12 0 -13 14v58q0 14 13 14h77q-36 56 -36 108z" />
    <glyph glyph-name="uniFE8A" unicode="&#x626;" horiz-adv-x="1546" arabic-form="final" 
d="M1440 -124q0 -125 -92.5 -204.5t-290.5 -79.5h-479q-240 0 -365 120t-125 329q0 121 40 232.5t93 187.5q8 14 29 2l112 -62q16 -10 7 -26q-105 -162 -105 -319.5t96 -228.5t242 -71h453q123 0 171 37t48 85t-27.5 81t-82 60.5t-135.5 56t-185 67.5q-18 6 -13 25l46 123
q6 20 24 14q66 -25 127.5 -50.5t154.5 -60t197 -34.5h166q41 0 61.5 -14.5t20.5 -61.5t-19.5 -65.5t-62.5 -18.5h-145q39 -62 39 -124zM201 852q0 96 54.5 154.5t168.5 58.5q57 0 106.5 -21.5t71.5 -56.5q8 -12 -2 -22l-53 -45q-5 -4 -21 10q-45 41 -106 41t-88 -33t-27 -72
q0 -75 68 -110h231q12 0 12 -15v-65q0 -14 -12 -14h-436q-12 0 -12 14v65q0 14 12 15h70q-37 47 -37 96z" />
    <glyph glyph-name="uniFE8B" unicode="&#x626;" horiz-adv-x="575" arabic-form="initial" 
d="M135 1214q0 94 54.5 153.5t168.5 59.5q57 0 106.5 -21.5t65 -44.5t5.5 -34l-54 -45q-6 -4 -21 10q-44 41 -105.5 41t-88 -32.5t-26.5 -71.5q0 -74 67 -111h232q12 0 12 -14v-66q0 -14 -12 -14h-437q-12 0 -12 14v66q0 14 12 14h70q-37 46 -37 96zM14 0q-41 0 -61.5 14.5
t-20.5 61.5t19.5 65.5t62.5 18.5h129q51 0 75 23.5t24 84.5v549q0 20 20 21h131q20 0 21 -21v-559q0 -133 -55.5 -195.5t-184.5 -62.5h-160z" />
    <glyph glyph-name="uniFE8C" unicode="&#x626;" horiz-adv-x="606" arabic-form="medial" 
d="M578 0q-137 0 -191 106q-51 -106 -213 -106h-160q-41 0 -61.5 14.5t-20.5 61.5t19.5 65.5t62.5 18.5h129q51 0 75 23.5t24 84.5v549q0 20 20 21h131q20 0 21 -21v-518q0 -70 50 -104.5t134 -34.5h25q82 0 82 -76q0 -53 -19.5 -68.5t-62.5 -15.5h-45zM135 1214
q0 94 54.5 153.5t168.5 59.5q57 0 106.5 -21.5t65 -44.5t5.5 -34l-54 -45q-6 -4 -21 10q-44 41 -105.5 41t-88 -32.5t-26.5 -71.5q0 -74 67 -111h232q12 0 12 -14v-66q0 -14 -12 -14h-437q-12 0 -12 14v66q0 14 12 14h70q-37 46 -37 96z" />
    <glyph glyph-name="uniFE8E" unicode="&#x627;" horiz-adv-x="503" arabic-form="final" 
d="M143 1372q0 20 21 21h131q20 0 20 -21v-1104q0 -61 23.5 -84.5t75.5 -23.5h90q82 0 82 -82q0 -51 -19.5 -64.5t-62.5 -13.5h-121q-129 0 -184.5 62.5t-55.5 195.5v1114z" />
    <glyph glyph-name="uniFE90" unicode="&#x628;" horiz-adv-x="1771" arabic-form="final" 
d="M1335 0h-985q-129 0 -184 62.5t-55 195.5v428q0 20 20 21h131q20 0 21 -21v-418q0 -61 23.5 -84.5t74.5 -23.5h926q53 0 76.5 23.5t23.5 84.5v549q0 20 20 21h132q20 0 20 -21v-526q0 -66 51 -98.5t133 -32.5h23q82 0 82 -76q0 -53 -19.5 -68.5t-62.5 -15.5h-43
q-137 0 -191 106q-54 -106 -217 -106zM768 -381q-20 0 -20 21v149q0 20 20 21h139q20 0 21 -21v-149q0 -20 -21 -21h-139z" />
    <glyph glyph-name="uniFE91" unicode="&#x628;" horiz-adv-x="542" arabic-form="initial" 
d="M0 0q-41 0 -61.5 14.5t-20.5 61.5t19.5 65.5t62.5 18.5h129q51 0 74.5 23.5t23.5 84.5v549q0 20 21 21h131q20 0 20 -21v-559q0 -133 -55 -195.5t-184 -62.5h-160zM197 -375q-20 0 -21 21v149q0 20 21 21h139q20 0 20 -21v-149q0 -20 -20 -21h-139z" />
    <glyph glyph-name="uniFE92" unicode="&#x628;" horiz-adv-x="606" arabic-form="medial" 
d="M578 0q-137 0 -191 106q-51 -106 -213 -106h-160q-41 0 -61.5 14.5t-20.5 61.5t19.5 65.5t62.5 18.5h129q51 0 75 23.5t24 84.5v549q0 20 20 21h131q20 0 21 -21v-518q0 -70 50 -104.5t134 -34.5h25q82 0 82 -76q0 -53 -19.5 -68.5t-62.5 -15.5h-45zM262 -375
q-20 0 -20 21v149q0 20 20 21h139q20 0 21 -21v-149q0 -20 -21 -21h-139z" />
    <glyph glyph-name="uniFE94" unicode="&#x629;" horiz-adv-x="1026" arabic-form="final" 
d="M248 465q0 -215 214 -215q204 0 204 260v205h-201q-96 0 -156.5 -54.5t-60.5 -195.5zM451 90q-263 0 -347 208q-28 70 -28 176q0 202 110 301t279 99h201v89q0 20 20 20h131q20 0 21 -20v-695q0 -61 23.5 -84.5t74.5 -23.5h90q82 0 82 -82q0 -51 -19.5 -64.5t-62.5 -13.5
h-121q-100 0 -156.5 38t-74.5 126q-82 -74 -223 -74zM274 1122q-20 0 -20 21v149q0 20 20 21h140q20 0 20 -21v-149q0 -20 -20 -21h-140zM524 1122q-20 0 -20 21v149q0 20 20 21h140q20 0 20 -21v-149q0 -20 -20 -21h-140z" />
    <glyph glyph-name="uniFE96" unicode="&#x62a;" horiz-adv-x="1771" arabic-form="final" 
d="M1335 0h-985q-129 0 -184 62.5t-55 195.5v428q0 20 20 21h131q20 0 21 -21v-418q0 -61 23.5 -84.5t74.5 -23.5h926q53 0 76.5 23.5t23.5 84.5v549q0 20 20 21h132q20 0 20 -21v-526q0 -66 51 -98.5t133 -32.5h23q82 0 82 -76q0 -53 -19.5 -68.5t-62.5 -15.5h-43
q-137 0 -191 106q-54 -106 -217 -106zM653 920q-20 0 -20 20v150q0 20 20 20h140q20 0 20 -20v-150q0 -20 -20 -20h-140zM903 920q-20 0 -20 20v150q0 20 20 20h139q20 0 21 -20v-150q0 -20 -21 -20h-139z" />
    <glyph glyph-name="uniFE97" unicode="&#x62a;" horiz-adv-x="565" arabic-form="initial" 
d="M0 0q-41 0 -61.5 14.5t-20.5 61.5t19.5 65.5t62.5 18.5h141q51 0 75 23.5t24 84.5v549q0 20 20 21h131q20 0 21 -21v-559q0 -133 -55.5 -195.5t-184.5 -62.5h-172zM131 1040q-20 0 -20 21v149q0 20 20 21h139q20 0 21 -21v-149q0 -20 -21 -21h-139zM381 1040
q-20 0 -21 21v149q0 20 21 21h139q20 0 21 -21v-149q0 -20 -21 -21h-139z" />
    <glyph glyph-name="uniFE98" unicode="&#x62a;" horiz-adv-x="632" arabic-form="medial" 
d="M588 0q-137 0 -191 106q-51 -106 -213 -106h-170q-41 0 -61.5 14.5t-20.5 61.5t19.5 65.5t62.5 18.5h140q51 0 74.5 23.5t23.5 84.5v549q0 20 20 21h131q20 0 21 -21v-518q0 -70 50 -104.5t134 -34.5h25q82 0 82 -76q0 -53 -19.5 -68.5t-62.5 -15.5h-45zM139 1040
q-20 0 -20 21v149q0 20 20 21h140q20 0 20 -21v-149q0 -20 -20 -21h-140zM389 1040q-20 0 -20 21v149q0 20 20 21h139q20 0 21 -21v-149q0 -20 -21 -21h-139z" />
    <glyph glyph-name="uniFE9A" unicode="&#x62b;" horiz-adv-x="1771" arabic-form="final" 
d="M1335 0h-985q-129 0 -184 62.5t-55 195.5v428q0 20 20 21h131q20 0 21 -21v-418q0 -61 23.5 -84.5t74.5 -23.5h926q53 0 76.5 23.5t23.5 84.5v549q0 20 20 21h132q20 0 20 -21v-526q0 -66 51 -98.5t133 -32.5h23q82 0 82 -76q0 -53 -19.5 -68.5t-62.5 -15.5h-43
q-137 0 -191 106q-54 -106 -217 -106zM780 1159q-20 0 -20 21v149q0 20 20 21h140q20 0 20 -21v-149q0 -20 -20 -21h-140zM653 920q-20 0 -20 20v150q0 20 20 20h140q20 0 20 -20v-150q0 -20 -20 -20h-140zM903 920q-20 0 -20 20v150q0 20 20 20h139q20 0 21 -20v-150
q0 -20 -21 -20h-139z" />
    <glyph glyph-name="uniFE9B" unicode="&#x62b;" horiz-adv-x="565" arabic-form="initial" 
d="M0 0q-41 0 -61.5 14.5t-20.5 61.5t19.5 65.5t62.5 18.5h141q51 0 75 23.5t24 84.5v549q0 20 20 21h131q20 0 21 -21v-559q0 -133 -55.5 -195.5t-184.5 -62.5h-172zM254 1280q-20 0 -21 20v150q0 20 21 20h139q20 0 21 -20v-150q0 -20 -21 -20h-139zM127 1040
q-20 0 -21 21v149q0 20 21 21h139q20 0 21 -21v-149q0 -20 -21 -21h-139zM377 1040q-20 0 -21 21v149q0 20 21 21h139q20 0 21 -21v-149q0 -20 -21 -21h-139z" />
    <glyph glyph-name="uniFE9C" unicode="&#x62b;" horiz-adv-x="632" arabic-form="medial" 
d="M588 0q-137 0 -191 106q-51 -106 -213 -106h-170q-41 0 -61.5 14.5t-20.5 61.5t19.5 65.5t62.5 18.5h140q51 0 74.5 23.5t23.5 84.5v549q0 20 20 21h131q20 0 21 -21v-518q0 -70 50 -104.5t134 -34.5h25q82 0 82 -76q0 -53 -19.5 -68.5t-62.5 -15.5h-45zM268 1280
q-20 0 -20 20v150q0 20 20 20h140q20 0 20 -20v-150q0 -20 -20 -20h-140zM141 1040q-20 0 -20 21v149q0 20 20 21h140q20 0 20 -21v-149q0 -20 -20 -21h-140zM391 1040q-20 0 -20 21v149q0 20 20 21h139q20 0 21 -21v-149q0 -20 -21 -21h-139z" />
    <glyph glyph-name="uniFE9E" unicode="&#x62c;" horiz-adv-x="1247" arabic-form="final" 
d="M614 -381q-20 0 -20 21v149q0 20 20 21h140q20 0 20 -21v-149q0 -20 -20 -21h-140zM575 874q467 0 467 -520l-2 -67q4 -63 54.5 -95t130.5 -32h22q82 0 82 -76q0 -53 -19.5 -68.5t-62.5 -15.5h-43q-70 0 -125 29.5t-78 89.5q-35 -66 -97 -92.5t-156 -26.5h-388
q-114 0 -114 -123q0 -66 35.5 -95.5t140.5 -29.5h70q20 0 20 -20v-119q0 -20 -20 -21h-84q-338 0 -338 281q0 153 98 227q79 60 192 60h324q112 0 144 39t32 137q0 187 -62.5 283t-206 96t-241.5 -107q-12 -14 -28 -2l-91 74q-18 14 -6 29q131 165 350 165z" />
    <glyph glyph-name="uniFE9F" unicode="&#x62c;" horiz-adv-x="1052" arabic-form="initial" 
d="M473 874q467 0 467 -520q0 -197 -68 -275.5t-227 -78.5h-645q-82 0 -82 82q0 51 19.5 64.5t62.5 13.5h582q113 0 144.5 39.5t31.5 137.5q0 186 -62.5 282t-206 96t-241.5 -107q-12 -14 -29 -2l-90 74q-18 14 -6 29q131 165 350 165zM442 -377q-20 0 -20 21v149
q0 20 20 21h140q20 0 20 -21v-149q0 -20 -20 -21h-140z" />
    <glyph glyph-name="uniFEA0" unicode="&#x62c;" horiz-adv-x="1144" arabic-form="medial" 
d="M473 874q467 0 467 -520l-2 -67q4 -63 54 -95t130 -32h23q82 0 82 -76q0 -53 -19.5 -68.5t-62.5 -15.5h-43q-70 0 -125 29.5t-78 89.5q-35 -66 -97.5 -92.5t-156.5 -26.5h-645q-82 0 -82 82q0 51 19.5 64.5t62.5 13.5h582q113 0 144.5 39.5t31.5 137.5q0 186 -62.5 282
t-206 96t-241.5 -107q-12 -14 -29 -2l-90 74q-18 14 -6 29q131 165 350 165zM440 -377q-20 0 -20 21v149q0 20 20 21h140q20 0 20 -21v-149q0 -20 -20 -21h-140z" />
    <glyph glyph-name="uniFEA2" unicode="&#x62d;" horiz-adv-x="1232" arabic-form="final" 
d="M561 874q467 0 467 -520l-2 -67q4 -63 54 -95t130 -32h23q82 0 82 -76q0 -53 -19.5 -68.5t-62.5 -15.5h-43q-70 0 -125 29.5t-78 89.5q-35 -66 -97.5 -92.5t-156.5 -26.5h-387q-115 0 -115 -130q0 -58 36 -88t141 -30h196q20 0 21 -20v-119q0 -20 -21 -21h-211
q-338 0 -338 281q0 153 99 227q79 60 192 60h324q112 0 144 39t32 137q0 187 -62.5 283t-206 96t-241.5 -107q-12 -14 -29 -2l-90 74q-18 14 -6 29q131 165 350 165z" />
    <glyph glyph-name="uniFEA3" unicode="&#x62d;" horiz-adv-x="1052" arabic-form="initial" 
d="M473 874q467 0 467 -520q0 -197 -68 -275.5t-227 -78.5h-645q-82 0 -82 82q0 51 19.5 64.5t62.5 13.5h582q113 0 144.5 39.5t31.5 137.5q0 186 -62.5 282t-206 96t-241.5 -107q-12 -14 -29 -2l-90 74q-18 14 -6 29q131 165 350 165z" />
    <glyph glyph-name="uniFEA4" unicode="&#x62d;" horiz-adv-x="1144" arabic-form="medial" 
d="M473 874q467 0 467 -520l-2 -67q4 -63 54 -95t130 -32h23q82 0 82 -76q0 -53 -19.5 -68.5t-62.5 -15.5h-43q-70 0 -125 29.5t-78 89.5q-35 -66 -97.5 -92.5t-156.5 -26.5h-645q-82 0 -82 82q0 51 19.5 64.5t62.5 13.5h582q113 0 144.5 39.5t31.5 137.5q0 186 -62.5 282
t-206 96t-241.5 -107q-12 -14 -29 -2l-90 74q-18 14 -6 29q131 165 350 165z" />
    <glyph glyph-name="uniFEA6" unicode="&#x62e;" horiz-adv-x="1232" arabic-form="final" 
d="M575 874q467 0 467 -520l-2 -67q4 -63 54.5 -95t130.5 -32h22q82 0 82 -76q0 -53 -19.5 -68.5t-62.5 -15.5h-43q-70 0 -125 29.5t-78 89.5q-35 -66 -97 -92.5t-156 -26.5h-388q-114 0 -114 -123q0 -66 35.5 -95.5t140.5 -29.5h196q20 0 21 -20v-119q0 -20 -21 -21h-210
q-338 0 -338 281q0 153 98 227q79 60 192 60h324q112 0 144 39t32 137q0 187 -62.5 283t-206 96t-241.5 -107q-12 -14 -28 -2l-91 74q-18 14 -6 29q131 165 350 165zM524 1040q-20 0 -20 21v149q0 20 20 21h140q20 0 20 -21v-149q0 -20 -20 -21h-140z" />
    <glyph glyph-name="uniFEA7" unicode="&#x62e;" horiz-adv-x="1052" arabic-form="initial" 
d="M473 874q467 0 467 -520q0 -197 -68 -275.5t-227 -78.5h-645q-82 0 -82 82q0 51 19.5 64.5t62.5 13.5h582q113 0 144.5 39.5t31.5 137.5q0 186 -62.5 282t-206 96t-241.5 -107q-12 -14 -29 -2l-90 74q-18 14 -6 29q131 165 350 165zM430 1038q-20 0 -20 21v149
q0 20 20 21h139q20 0 21 -21v-149q0 -20 -21 -21h-139z" />
    <glyph glyph-name="uniFEA8" unicode="&#x62e;" horiz-adv-x="1144" arabic-form="medial" 
d="M473 874q467 0 467 -520l-2 -67q4 -63 54 -95t130 -32h23q82 0 82 -76q0 -53 -19.5 -68.5t-62.5 -15.5h-43q-70 0 -125 29.5t-78 89.5q-35 -66 -97.5 -92.5t-156.5 -26.5h-645q-82 0 -82 82q0 51 19.5 64.5t62.5 13.5h582q113 0 144.5 39.5t31.5 137.5q0 186 -62.5 282
t-206 96t-241.5 -107q-12 -14 -29 -2l-90 74q-18 14 -6 29q131 165 350 165zM430 1038q-20 0 -20 21v149q0 20 20 21h139q20 0 21 -21v-149q0 -20 -21 -21h-139z" />
    <glyph glyph-name="uniFEAA" unicode="&#x62f;" horiz-adv-x="1093" arabic-form="final" 
d="M1094 160q82 0 82 -76q0 -53 -19.5 -68.5t-62.5 -15.5h-43q-70 0 -125.5 29.5t-77.5 89.5q-35 -68 -96.5 -93.5t-159.5 -25.5h-455q-20 0 -20 20v119q0 20 20 21h391q112 0 144 38q33 38 33 146v164q0 207 -234 207h-238q-20 0 -20 20v119q0 20 20 20h302q156 0 254 -88
t98 -276v-211q0 -70 50 -104.5t134 -34.5h23z" />
    <glyph glyph-name="uniFEAC" unicode="&#x630;" horiz-adv-x="1093" arabic-form="final" 
d="M1108 160q82 0 82 -76q0 -53 -19.5 -68.5t-62.5 -15.5h-43q-70 0 -125 29.5t-78 89.5q-35 -68 -96 -93.5t-160 -25.5h-454q-20 0 -21 20v119q0 20 21 21h391q112 0 144 37t32 147v164q0 207 -234 207h-237q-20 0 -21 20v119q0 20 21 20h301q156 0 254 -88t98 -276v-211
q0 -70 50 -104.5t134 -34.5h23zM362 1040q-20 0 -20 21v149q0 20 20 21h140q20 0 20 -21v-149q0 -20 -20 -21h-140z" />
    <glyph glyph-name="uniFEAE" unicode="&#x631;" horiz-adv-x="612" arabic-form="final" 
d="M612 160q82 0 82 -76q0 -53 -19.5 -68.5t-62.5 -15.5h-43q-106 0 -163 66v-136q0 -166 -84 -252t-246 -86h-56q-20 0 -20 21v119q0 20 20 20h48q166 0 165 174v891q0 20 21 21h131q20 0 21 -21v-518q0 -70 50 -104.5t134 -34.5h22z" />
    <glyph glyph-name="uniFEB0" unicode="&#x632;" horiz-adv-x="612" arabic-form="final" 
d="M612 160q82 0 82 -76q0 -53 -19.5 -68.5t-62.5 -15.5h-43q-106 0 -163 66v-136q0 -166 -84 -252t-246 -86h-56q-20 0 -20 21v119q0 20 20 20h48q166 0 165 174v891q0 20 21 21h131q20 0 21 -21v-518q0 -70 50 -104.5t134 -34.5h22zM250 1040q-20 0 -21 21v149q0 20 21 21
h139q20 0 21 -21v-149q0 -20 -21 -21h-139z" />
    <glyph glyph-name="uniFEB2" unicode="&#x633;" horiz-adv-x="2267" arabic-form="final" 
d="M1722 0q-136 0 -190 106q-51 -106 -213 -106h-98q-106 0 -164 66v-25q0 -211 -124 -330t-352 -119t-359 120q-130 120 -130 329q0 121 40 232.5t93 187.5q8 14 29 2l113 -62q16 -10 6 -26q-105 -162 -105 -320t107 -236q87 -63 214.5 -63t211.5 67.5t84 219.5v598
q0 20 20 21h131q20 0 21 -21v-342q0 -70 49 -104.5t131 -34.5h51q51 0 74.5 23.5t23.5 84.5v373q0 20 21 21h131q20 0 21 -21v-350q0 -66 51 -98.5t133 -32.5h47q51 0 74.5 23.5t23.5 84.5v549q0 20 21 21h131q20 0 20 -21v-518q0 -70 50.5 -104.5t134.5 -34.5h20
q82 0 82 -76q0 -53 -19.5 -68.5t-62.5 -15.5h-41q-138 0 -190 106q-51 -106 -213 -106h-99z" />
    <glyph glyph-name="uniFEB3" unicode="&#x633;" horiz-adv-x="1597" arabic-form="initial" 
d="M1126 0q-136 0 -190 106q-51 -106 -213 -106h-98q-137 0 -191 106q-51 -106 -213 -106h-221q-41 0 -61.5 14.5t-20.5 61.5t19.5 65.5t62.5 18.5h190q51 0 75 23.5t24 84.5v373q0 20 20 21h131q20 0 21 -21v-342q0 -70 49 -104.5t131 -34.5h51q51 0 75 23.5t24 84.5v373
q0 20 20 21h131q20 0 21 -21v-342q0 -70 49 -104.5t131 -34.5h51q51 0 74.5 23.5t23.5 84.5v549q0 20 21 21h131q20 0 20 -21v-559q0 -133 -55 -195.5t-184 -62.5h-99z" />
    <glyph glyph-name="uniFEB4" unicode="&#x633;" horiz-adv-x="1671" arabic-form="medial" 
d="M1126 0q-136 0 -190 106q-51 -106 -213 -106h-98q-137 0 -191 106q-51 -106 -213 -106h-221q-41 0 -61.5 14.5t-20.5 61.5t19.5 65.5t62.5 18.5h190q51 0 75 23.5t24 84.5v373q0 20 20 21h131q20 0 21 -21v-342q0 -70 49 -104.5t131 -34.5h51q51 0 75 23.5t24 84.5v373
q0 20 20 21h131q20 0 21 -21v-350q0 -66 51 -98.5t133 -32.5h47q51 0 74.5 23.5t23.5 84.5v549q0 20 21 21h131q20 0 20 -21v-518q0 -70 50.5 -104.5t134.5 -34.5h22q82 0 82 -76q0 -53 -19.5 -68.5t-62.5 -15.5h-43q-138 0 -190 106q-51 -106 -213 -106h-99z" />
    <glyph glyph-name="uniFEB6" unicode="&#x634;" horiz-adv-x="2267" arabic-form="final" 
d="M1722 0q-136 0 -190 106q-51 -106 -213 -106h-98q-106 0 -164 66v-25q0 -211 -124 -330t-352 -119t-359 120q-130 120 -130 329q0 121 40 232.5t93 187.5q8 14 29 2l113 -62q16 -10 6 -26q-105 -162 -105 -320t107 -236q87 -63 214.5 -63t211.5 67.5t84 219.5v598
q0 20 20 21h131q20 0 21 -21v-342q0 -70 49 -104.5t131 -34.5h51q51 0 74.5 23.5t23.5 84.5v373q0 20 21 21h131q20 0 21 -21v-350q0 -66 51 -98.5t133 -32.5h47q51 0 74.5 23.5t23.5 84.5v549q0 20 21 21h131q20 0 20 -21v-518q0 -70 50.5 -104.5t134.5 -34.5h20
q82 0 82 -76q0 -53 -19.5 -68.5t-62.5 -15.5h-41q-138 0 -190 106q-51 -106 -213 -106h-99zM1401 1280q-20 0 -21 20v150q0 20 21 20h139q20 0 21 -20v-150q0 -20 -21 -20h-139zM1274 1040q-20 0 -21 21v149q0 20 21 21h139q20 0 21 -21v-149q0 -20 -21 -21h-139zM1524 1040
q-20 0 -21 21v149q0 20 21 21h139q20 0 20 -21v-149q0 -20 -20 -21h-139z" />
    <glyph glyph-name="uniFEB7" unicode="&#x634;" horiz-adv-x="1597" arabic-form="initial" 
d="M1126 0q-136 0 -190 106q-51 -106 -213 -106h-98q-137 0 -191 106q-51 -106 -213 -106h-221q-41 0 -61.5 14.5t-20.5 61.5t19.5 65.5t62.5 18.5h190q51 0 75 23.5t24 84.5v373q0 20 20 21h131q20 0 21 -21v-342q0 -70 49 -104.5t131 -34.5h51q51 0 75 23.5t24 84.5v373
q0 20 20 21h131q20 0 21 -21v-342q0 -70 49 -104.5t131 -34.5h51q51 0 74.5 23.5t23.5 84.5v549q0 20 21 21h131q20 0 20 -21v-559q0 -133 -55 -195.5t-184 -62.5h-99zM805 1280q-20 0 -21 20v150q0 20 21 20h139q20 0 21 -20v-150q0 -20 -21 -20h-139zM678 1040
q-20 0 -21 21v149q0 20 21 21h139q20 0 21 -21v-149q0 -20 -21 -21h-139zM928 1040q-20 0 -21 21v149q0 20 21 21h139q20 0 20 -21v-149q0 -20 -20 -21h-139z" />
    <glyph glyph-name="uniFEB8" unicode="&#x634;" horiz-adv-x="1671" arabic-form="medial" 
d="M1141 0q-137 0 -191 106q-51 -106 -213 -106h-98q-138 0 -190 106q-51 -106 -213 -106h-222q-41 0 -61.5 14.5t-20.5 61.5t19.5 65.5t62.5 18.5h191q51 0 74.5 23.5t23.5 84.5v373q0 20 21 21h131q20 0 20 -21v-342q0 -70 49 -104.5t131 -34.5h52q51 0 74.5 23.5
t23.5 84.5v373q0 20 20 21h131q20 0 21 -21v-350q0 -66 51 -98.5t133 -32.5h47q51 0 75 23.5t24 84.5v549q0 20 20 21h131q20 0 21 -21v-518q0 -70 50 -104.5t134 -34.5h23q41 0 61 -17.5t20 -64.5t-19 -62.5t-62 -15.5h-44q-136 0 -190 106q-51 -106 -213 -106h-98z
M819 1280q-20 0 -20 20v150q0 20 20 20h139q20 0 21 -20v-150q0 -20 -21 -20h-139zM692 1040q-20 0 -20 21v149q0 20 20 21h139q20 0 21 -21v-149q0 -20 -21 -21h-139zM942 1040q-20 0 -20 21v149q0 20 20 21h139q20 0 21 -21v-149q0 -20 -21 -21h-139z" />
    <glyph glyph-name="uniFEBA" unicode="&#x635;" horiz-adv-x="2226" arabic-form="final" 
d="M1057 160h596q115 0 150.5 44t35.5 155.5t-15.5 171t-51.5 100.5q-75 84 -265 84t-450 -127v-428zM1532 874q489 0 489 -485l-2 -90q0 -70 50.5 -104.5t134.5 -34.5h20q82 0 82 -76q0 -53 -19.5 -68.5t-62.5 -15.5h-41q-72 0 -128 33t-79 94q-35 -70 -99.5 -98.5
t-164.5 -28.5h-657q-12 -193 -135 -300.5t-345.5 -107.5t-352.5 119.5t-130 329.5q0 121 40 232.5t93 187.5q8 14 29 2l113 -62q16 -10 6 -26q-105 -162 -105 -320.5t107 -235.5q87 -63 214.5 -63t211.5 67.5t84 219.5v776q0 20 20 21h131q20 0 21 -21v-71q238 126 475 126z
" />
    <glyph glyph-name="uniFEBB" unicode="&#x635;" horiz-adv-x="1476" arabic-form="initial" 
d="M399 258q0 -51 -10 -98h606q115 0 151 45t36 155.5t-15.5 170t-52.5 100.5q-76 84 -265.5 84t-449.5 -127v-330zM874 874q490 0 490 -485q0 -214 -70 -301.5t-239 -87.5h-688q-49 0 -70 27q-51 -27 -137 -27h-160q-41 0 -61.5 14.5t-20.5 61.5t19.5 65.5t62.5 18.5h129
q51 0 74.5 23.5t23.5 84.5v549q0 20 21 21h131q20 0 20 -21v-69q238 126 475 126z" />
    <glyph glyph-name="uniFEBC" unicode="&#x635;" horiz-adv-x="1568" arabic-form="medial" 
d="M399 258q0 -51 -10 -98h606q115 0 151 45t36 155.5t-15.5 170t-52.5 100.5q-76 84 -265.5 84t-449.5 -127v-330zM874 874q490 0 490 -485l-2 -90q0 -70 50 -104.5t134 -34.5h23q82 0 82 -76q0 -53 -19.5 -68.5t-62.5 -15.5h-43q-72 0 -128.5 33t-78.5 94
q-35 -70 -99.5 -98.5t-164.5 -28.5h-688q-49 0 -70 27q-51 -27 -137 -27h-160q-41 0 -61.5 14.5t-20.5 61.5t19.5 65.5t62.5 18.5h129q51 0 74.5 23.5t23.5 84.5v549q0 20 21 21h131q20 0 20 -21v-69q238 126 475 126z" />
    <glyph glyph-name="uniFEBE" unicode="&#x636;" horiz-adv-x="2226" arabic-form="final" 
d="M1057 160h596q115 0 150.5 44t35.5 155.5t-15.5 171t-51.5 100.5q-75 84 -265 84t-450 -127v-428zM1532 874q489 0 489 -485l-2 -90q0 -70 50.5 -104.5t134.5 -34.5h20q82 0 82 -76q0 -53 -19.5 -68.5t-62.5 -15.5h-41q-72 0 -128 33t-79 94q-35 -70 -99.5 -98.5
t-164.5 -28.5h-657q-12 -193 -135 -300.5t-345.5 -107.5t-352.5 119.5t-130 329.5q0 121 40 232.5t93 187.5q8 14 29 2l113 -62q16 -10 6 -26q-105 -162 -105 -320.5t107 -235.5q87 -63 214.5 -63t211.5 67.5t84 219.5v776q0 20 20 21h131q20 0 21 -21v-71q238 126 475 126z
M1456 1040q-20 0 -20 21v149q0 20 20 21h139q20 0 21 -21v-149q0 -20 -21 -21h-139z" />
    <glyph glyph-name="uniFEBF" unicode="&#x636;" horiz-adv-x="1476" arabic-form="initial" 
d="M399 258q0 -51 -10 -98h606q115 0 151 45t36 155.5t-15.5 170t-52.5 100.5q-76 84 -265.5 84t-449.5 -127v-330zM874 874q490 0 490 -485q0 -214 -70 -301.5t-239 -87.5h-688q-49 0 -70 27q-51 -27 -137 -27h-160q-41 0 -61.5 14.5t-20.5 61.5t19.5 65.5t62.5 18.5h129
q51 0 74.5 23.5t23.5 84.5v549q0 20 21 21h131q20 0 20 -21v-69q238 126 475 126zM803 1040q-20 0 -21 21v149q0 20 21 21h139q20 0 21 -21v-149q0 -20 -21 -21h-139z" />
    <glyph glyph-name="uniFEC0" unicode="&#x636;" horiz-adv-x="1568" arabic-form="medial" 
d="M414 258q0 -51 -11 -98h607q115 0 150.5 44t35.5 156q0 110 -16 170t-52 101q-75 84 -264.5 84t-449.5 -127v-330zM889 874q489 0 489 -485l-2 -90q0 -70 50.5 -104.5t134.5 -34.5h22q82 0 82 -76q0 -53 -19.5 -68.5t-62.5 -15.5h-43q-72 0 -128 33t-79 94
q-35 -70 -99.5 -98.5t-164.5 -28.5h-688q-49 0 -70 27q-51 -27 -137 -27h-160q-41 0 -61.5 14.5t-20.5 61.5t19.5 65.5t62.5 18.5h129q51 0 75 23.5t24 84.5v549q0 20 20 21h131q20 0 21 -21v-69q238 126 475 126zM817 1040q-20 0 -20 21v149q0 20 20 21h139q20 0 21 -21
v-149q0 -20 -21 -21h-139z" />
    <glyph glyph-name="uniFEC2" unicode="&#x637;" horiz-adv-x="1597" arabic-form="final" 
d="M428 258q0 -51 -10 -98h606q115 0 150.5 44t35.5 155.5t-15 171t-52 100.5q-76 84 -265.5 84t-449.5 -127v-330zM903 874q490 0 490 -485l-2 -90q0 -70 50 -104.5t134 -34.5h20q82 0 82 -76q0 -53 -19.5 -68.5t-62.5 -15.5h-41q-72 0 -128 33t-78 94q-35 -70 -99.5 -98.5
t-165.5 -28.5h-688q-49 0 -69 27q-51 -27 -138 -27h-112q-20 0 -21 20v119q0 20 21 21h82q51 0 74.5 23.5t23.5 84.5v1104q0 20 20 21h132q20 0 20 -21v-624q238 126 475 126z" />
    <glyph glyph-name="uniFEC3" unicode="&#x637;" horiz-adv-x="1476" arabic-form="initial" 
d="M399 258q0 -51 -10 -98h606q115 0 151 45t36 155.5t-15.5 170t-52.5 100.5q-76 84 -265.5 84t-449.5 -127v-330zM874 874q490 0 490 -485q0 -214 -70 -301.5t-239 -87.5h-688q-49 0 -70 27q-51 -27 -137 -27h-160q-41 0 -61.5 14.5t-20.5 61.5t19.5 65.5t62.5 18.5h129
q51 0 74.5 23.5t23.5 84.5v1102q0 20 21 21h131q20 0 20 -21v-622q238 126 475 126z" />
    <glyph glyph-name="uniFEC4" unicode="&#x637;" horiz-adv-x="1568" arabic-form="medial" 
d="M399 258q0 -51 -10 -98h606q115 0 151 45t36 155.5t-15.5 170t-52.5 100.5q-76 84 -265.5 84t-449.5 -127v-330zM874 874q490 0 490 -485l-2 -90q0 -70 50 -104.5t134 -34.5h23q82 0 82 -76q0 -53 -19.5 -68.5t-62.5 -15.5h-43q-72 0 -128.5 33t-78.5 94
q-35 -70 -99.5 -98.5t-164.5 -28.5h-688q-49 0 -70 27q-51 -27 -137 -27h-160q-41 0 -61.5 14.5t-20.5 61.5t19.5 65.5t62.5 18.5h129q51 0 74.5 23.5t23.5 84.5v1104q0 20 21 21h131q20 0 20 -21v-624q238 126 475 126z" />
    <glyph glyph-name="uniFEC6" unicode="&#x638;" horiz-adv-x="1597" arabic-form="final" 
d="M442 258q0 -51 -10 -98h606q115 0 151 45t36 155.5t-15.5 170t-52.5 100.5q-76 84 -265.5 84t-449.5 -127v-330zM918 874q489 0 489 -485l-2 -90q0 -70 50 -104.5t134 -34.5h21q82 0 82 -76q0 -53 -19.5 -68.5t-62.5 -15.5h-41q-72 0 -128.5 33t-78.5 94
q-35 -70 -99.5 -98.5t-164.5 -28.5h-688q-49 0 -70 27q-51 -27 -137 -27h-113q-20 0 -20 20v119q0 20 20 21h82q51 0 74.5 23.5t23.5 84.5v1104q0 20 21 21h131q20 0 20 -21v-624q238 126 476 126zM840 1040q-20 0 -21 21v149q0 20 21 21h139q20 0 20 -21v-149
q0 -20 -20 -21h-139z" />
    <glyph glyph-name="uniFEC7" unicode="&#x638;" horiz-adv-x="1476" arabic-form="initial" 
d="M399 258q0 -51 -10 -98h606q115 0 151 45t36 155.5t-15.5 170t-52.5 100.5q-76 84 -265.5 84t-449.5 -127v-330zM874 874q490 0 490 -485q0 -214 -70 -301.5t-239 -87.5h-688q-49 0 -70 27q-51 -27 -137 -27h-160q-41 0 -61.5 14.5t-20.5 61.5t19.5 65.5t62.5 18.5h129
q51 0 74.5 23.5t23.5 84.5v1102q0 20 21 21h131q20 0 20 -21v-622q238 126 475 126zM803 1040q-20 0 -21 21v149q0 20 21 21h139q20 0 21 -21v-149q0 -20 -21 -21h-139z" />
    <glyph glyph-name="uniFEC8" unicode="&#x638;" horiz-adv-x="1568" arabic-form="medial" 
d="M414 258q0 -51 -11 -98h607q115 0 150.5 44t35.5 156q0 110 -16 170t-52 101q-75 84 -264.5 84t-449.5 -127v-330zM889 874q489 0 489 -485l-2 -90q0 -70 50.5 -104.5t134.5 -34.5h22q82 0 82 -76q0 -53 -19.5 -68.5t-62.5 -15.5h-43q-72 0 -128 33t-79 94
q-35 -70 -99.5 -98.5t-164.5 -28.5h-688q-49 0 -70 27q-51 -27 -137 -27h-160q-41 0 -61.5 14.5t-20.5 61.5t19.5 65.5t62.5 18.5h129q51 0 75 23.5t24 84.5v1104q0 20 20 21h131q20 0 21 -21v-624q238 126 475 126zM817 1040q-20 0 -20 21v149q0 20 20 21h139q20 0 21 -21
v-149q0 -20 -21 -21h-139z" />
    <glyph glyph-name="uniFECA" unicode="&#x639;" horiz-adv-x="1173" arabic-form="final" 
d="M561.5 715q-71.5 0 -141.5 -19.5t-92 -33.5q104 -59 183 -166t114 -254q134 82 185 206q19 46 19 96t-19 82.5t-52 52t-79 28t-117.5 8.5zM866 0q-148 0 -248 63q-59 -23 -124.5 -40t-118.5 -37.5t-88 -51t-35 -80.5t38 -76t138 -26h197q20 0 20 -20v-119q0 -20 -20 -21
h-211q-166 0 -252 59.5t-86 208t133 230.5q88 54 254 86q-35 204 -190 322q-44 34 -75.5 56.5t-36.5 32t-5 19.5v123q0 29 22 42q178 103 400.5 103t327 -86t104.5 -218t-65.5 -233t-160.5 -167q57 -10 88 -10h299q41 0 61.5 -14.5t20.5 -61.5t-19.5 -65.5t-62.5 -18.5h-305
z" />
    <glyph glyph-name="uniFECB" unicode="&#x639;" horiz-adv-x="1056" arabic-form="initial" 
d="M121 451q0 273 220 381q85 42 212 42q242 0 356 -165q10 -16 -6 -29l-90 -74q-16 -12 -29 2q-92 106 -225 106.5t-194.5 -74.5t-61.5 -169q0 -147 81 -235q51 -55 116 -76h444q20 0 21 -21v-119q0 -20 -21 -20h-944q-82 0 -82 82q0 51 19.5 64.5t62.5 13.5h233
q-112 112 -112 291z" />
    <glyph glyph-name="uniFECC" unicode="&#x639;" horiz-adv-x="1112" arabic-form="medial" 
d="M805 543q0 172 -248 172q-92 0 -161.5 -19.5t-92.5 -33.5q104 -59 183 -166t114 -254q134 82 186 206q20 46 19 95zM0 0q-82 0 -82 82q0 51 19.5 64.5t62.5 13.5h264q93 0 174 22q-41 208 -189 318q-44 32 -75.5 54.5t-37 32t-5.5 19.5v123q0 29 23 42q182 103 402 103
t324.5 -86t104.5 -233q-1 -180 -153 -327q-42 -40 -82 -64q14 -4 30 -4h332q41 0 61.5 -14.5t20.5 -61.5t-19.5 -65.5t-62.5 -18.5h-289q-163 0 -266 63q-116 -63 -278 -63h-279z" />
    <glyph glyph-name="uniFECE" unicode="&#x63a;" horiz-adv-x="1173" arabic-form="final" 
d="M561.5 715q-71.5 0 -141.5 -19.5t-92 -33.5q104 -59 183 -166t114 -254q134 82 185 206q19 46 19 96t-19 82.5t-52 52t-79 28t-117.5 8.5zM866 0q-148 0 -248 63q-59 -23 -124.5 -40t-118.5 -37.5t-88 -51t-35 -80.5t38 -76t138 -26h197q20 0 20 -20v-119q0 -20 -20 -21
h-211q-166 0 -252 59.5t-86 208t133 230.5q88 54 254 86q-35 204 -190 322q-44 34 -75.5 56.5t-36.5 32t-5 19.5v123q0 29 22 42q178 103 400.5 103t327 -86t104.5 -218t-65.5 -233t-160.5 -167q57 -10 88 -10h299q41 0 61.5 -14.5t20.5 -61.5t-19.5 -65.5t-62.5 -18.5h-305
zM549 1040q-20 0 -21 21v149q0 20 21 21h139q20 0 21 -21v-149q0 -20 -21 -21h-139z" />
    <glyph glyph-name="uniFECF" unicode="&#x63a;" horiz-adv-x="1056" arabic-form="initial" 
d="M121 451q0 273 220 381q85 42 212 42q242 0 356 -165q10 -16 -6 -29l-90 -74q-16 -12 -29 2q-92 106 -225 106.5t-194.5 -74.5t-61.5 -169q0 -147 81 -235q51 -55 116 -76h444q20 0 21 -21v-119q0 -20 -21 -20h-944q-82 0 -82 82q0 51 19.5 64.5t62.5 13.5h233
q-112 112 -112 291zM477 1040q-20 0 -20 21v149q0 20 20 21h139q20 0 21 -21v-149q0 -20 -21 -21h-139z" />
    <glyph glyph-name="uniFED0" unicode="&#x63a;" horiz-adv-x="1112" arabic-form="medial" 
d="M805 543q0 172 -248 172q-92 0 -161.5 -19.5t-92.5 -33.5q104 -59 183 -166t114 -254q134 82 186 206q20 46 19 95zM0 0q-82 0 -82 82q0 51 19.5 64.5t62.5 13.5h264q93 0 174 22q-41 208 -189 318q-44 32 -75.5 54.5t-37 32t-5.5 19.5v123q0 29 23 42q182 103 402 103
t324.5 -86t104.5 -233q-1 -180 -153 -327q-42 -40 -82 -64q14 -4 30 -4h332q41 0 61.5 -14.5t20.5 -61.5t-19.5 -65.5t-62.5 -18.5h-289q-163 0 -266 63q-116 -63 -278 -63h-279zM487 1040q-20 0 -20 21v149q0 20 20 21h140q20 0 20 -21v-149q0 -20 -20 -21h-140z" />
    <glyph glyph-name="uniFED2" unicode="&#x641;" horiz-adv-x="1964" arabic-form="final" 
d="M1425.5 715q-98.5 0 -162 -57.5t-63.5 -167t65.5 -184.5t159.5 -111q94 37 160 111.5t66 184.5t-63.5 167t-162 57zM1727.5 773.5q103.5 -100.5 103.5 -271.5q0 -104 -48 -194.5t-134 -149.5q10 2 30 2h285q41 0 61.5 -14.5t20.5 -61.5t-19.5 -65.5t-62.5 -18.5h-272
q-74 0 -139.5 6t-125.5 43q-68 -37 -144.5 -43t-135.5 -6h-811q-129 0 -184.5 62.5t-55.5 195.5v428q0 20 21 21h131q20 0 20 -21v-418q0 -61 23.5 -84.5t75.5 -23.5h833q-84 59 -132 148t-48 182.5t24.5 162t74.5 117.5q106 104 305.5 104t303 -100.5zM1356 1040
q-20 0 -21 21v149q0 20 21 21h139q20 0 21 -21v-149q0 -20 -21 -21h-139z" />
    <glyph glyph-name="uniFED3" unicode="&#x641;" horiz-adv-x="1085" arabic-form="initial" 
d="M797 428q0 287 -219 287q-109 0 -164.5 -74t-55.5 -213.5t52.5 -203.5t167 -64t167 60.5t52.5 207.5zM969 428q0 -428 -391 -428h-564q-43 0 -62.5 15.5t-19.5 68.5q0 76 82 76h232q-60 100 -60 242q-1 251 107.5 361.5t287.5 110.5t283.5 -105t104.5 -341zM506 1040
q-20 0 -21 21v149q0 20 21 21h139q20 0 21 -21v-149q0 -20 -21 -21h-139z" />
    <glyph glyph-name="uniFED4" unicode="&#x641;" horiz-adv-x="1064" arabic-form="medial" 
d="M526.5 715q-98.5 0 -162 -57.5t-63.5 -167t65.5 -184.5t159.5 -111q94 37 160 111.5t66 184.5t-63.5 167t-162 57zM828.5 773.5q103.5 -100.5 103.5 -271.5q0 -104 -48 -194.5t-134 -149.5q10 2 30 2h285q41 0 61.5 -14.5t20.5 -61.5t-19.5 -65.5t-62.5 -18.5h-272
q-74 0 -139.5 6t-125.5 43q-68 -37 -144.5 -43t-135.5 -6h-248q-82 0 -82 82q0 51 19.5 64.5t62.5 13.5h301q-84 59 -132 148t-48 182.5t24.5 162t74.5 117.5q106 104 305.5 104t303 -100.5zM457 1040q-20 0 -21 21v149q0 20 21 21h139q20 0 20 -21v-149q0 -20 -20 -21h-139
z" />
    <glyph glyph-name="uniFED6" unicode="&#x642;" horiz-adv-x="1574" arabic-form="final" 
d="M1274 428q0 287 -219 287q-104 0 -161.5 -76t-57.5 -217t58 -201.5t173 -60.5h207v268zM1589 160q82 0 82 -76q0 -53 -19.5 -68.5t-62.5 -15.5h-143v-121q0 -193 -208 -262q-75 -25 -181 -25h-479q-240 0 -365 120t-125 329q0 121 40 232.5t93 187.5q8 14 29 2l112 -62
q16 -10 7 -26q-105 -162 -105 -319.5t96 -228.5t242 -71h453q123 0 171 37t48 88v119h-219q-291 0 -365 229q-26 82 -26 199q0 225 108.5 335.5t286.5 110.5t282.5 -105t104.5 -341v-268h143zM856 1040q-20 0 -20 21v149q0 20 20 21h139q20 0 21 -21v-149q0 -20 -21 -21
h-139zM1106 1040q-20 0 -21 21v149q0 20 21 21h139q20 0 21 -21v-149q0 -20 -21 -21h-139z" />
    <glyph glyph-name="uniFED7" unicode="&#x642;" horiz-adv-x="1105" arabic-form="initial" 
d="M592 715q-219 1 -219 -287q0 -140 52 -204t167 -64t167 60.5t52 207.5q0 287 -219 287zM983 428q0 -428 -391 -428h-563q-43 0 -62.5 15.5t-19.5 68.5q0 76 82 76h231q-59 100 -59 242q0 253 108.5 362.5t286.5 109.5t282.5 -105t104.5 -341zM393 1040q-20 0 -20 21v149
q0 20 20 21h139q20 0 21 -21v-149q0 -20 -21 -21h-139zM643 1040q-20 0 -20 21v149q0 20 20 21h139q20 0 21 -21v-149q0 -20 -21 -21h-139z" />
    <glyph glyph-name="uniFED8" unicode="&#x642;" horiz-adv-x="1064" arabic-form="medial" 
d="M526.5 715q-98.5 0 -162 -57.5t-63.5 -167t65.5 -184.5t159.5 -111q94 37 160 111.5t66 184.5t-63.5 167t-162 57zM828.5 773.5q103.5 -100.5 103.5 -271.5q0 -104 -48 -194.5t-134 -149.5q10 2 30 2h285q41 0 61.5 -14.5t20.5 -61.5t-19.5 -65.5t-62.5 -18.5h-272
q-74 0 -139.5 6t-125.5 43q-68 -37 -144.5 -43t-135.5 -6h-248q-82 0 -82 82q0 51 19.5 64.5t62.5 13.5h301q-84 59 -132 148t-48 182.5t24.5 162t74.5 117.5q106 104 305.5 104t303 -100.5zM332 1040q-20 0 -21 21v149q0 20 21 21h139q20 0 21 -21v-149q0 -20 -21 -21h-139
zM582 1040q-20 0 -21 21v149q0 20 21 21h139q20 0 20 -21v-149q0 -20 -20 -21h-139z" />
    <glyph glyph-name="uniFEDA" unicode="&#x643;" horiz-adv-x="1771" arabic-form="final" 
d="M874 662q25 0 31 10t6 33v40q0 51 -55 52h-111q-29 0 -28 28v35q0 15 10 25l162 192q18 18 33 4l41 -34q14 -14 0 -35l-105 -123h33q121 0 121 -144v-36q0 -82 -28 -111t-91 -29h-231q-20 0 -21 21v51q0 20 21 21h212zM1321 0h-985q-129 0 -184.5 62.5t-55.5 195.5v428
q0 20 21 21h131q20 0 20 -21v-418q0 -61 23.5 -84.5t75.5 -23.5h925q53 0 77 23.5t24 84.5v1104q0 20 20 21h131q20 0 21 -21v-1073q0 -70 50 -104.5t134 -34.5h23q41 0 61 -17.5t20 -64.5t-19 -62.5t-62 -15.5h-43q-137 0 -191 106q-54 -106 -217 -106z" />
    <glyph glyph-name="uniFEDB" unicode="&#x643;" horiz-adv-x="1009" arabic-form="initial" 
d="M545 838q156 0 254 -88t98 -277v-123q0 -198 -68 -274t-227 -76h-602q-82 0 -82 82q0 51 19.5 64.5t62.5 13.5h539q112 0 144 38t32 146v127q0 207 -234 207h-329q-20 0 -21 20v115q0 18 19 33l448 528q12 14 27 6l98 -82q16 -12 8 -28l-369 -432h183z" />
    <glyph glyph-name="uniFEDC" unicode="&#x643;" horiz-adv-x="1101" arabic-form="medial" 
d="M1102 160q82 0 82 -76q0 -53 -19.5 -68.5t-62.5 -15.5h-43q-68 0 -124 29.5t-79 87.5q-35 -66 -96.5 -91.5t-157.5 -25.5h-602q-82 0 -82 82q0 51 19.5 64.5t62.5 13.5h539q112 0 144 38t32 146v127q0 207 -234 207h-329q-20 0 -21 20v115q0 18 19 33l448 528q12 14 27 6
l98 -82q16 -12 8 -28l-369 -432h183q156 0 254 -88t98 -277v-123l-2 -65q4 -63 54 -94t130 -31h23z" />
    <glyph glyph-name="uniFEDE" unicode="&#x644;" horiz-adv-x="1263" arabic-form="final" 
d="M1264 160q82 0 82 -76q0 -53 -19.5 -68.5t-62.5 -15.5h-43q-106 0 -164 66v-25q0 -211 -124 -330t-352 -119t-359 120q-130 120 -130 329q0 121 40 232.5t93 187.5q8 14 29 2l113 -62q16 -10 6 -26q-105 -162 -105 -320t107 -236q87 -63 214.5 -63t211.5 67.5t84 219.5
v1329q0 20 20 21h131q20 0 21 -21v-1073q0 -70 50 -104.5t134 -34.5h23z" />
    <glyph glyph-name="uniFEDF" unicode="&#x644;" horiz-adv-x="542" arabic-form="initial" 
d="M0 0q-41 0 -61.5 14.5t-20.5 61.5t19.5 65.5t62.5 18.5h129q51 0 74.5 23.5t23.5 84.5v1104q0 20 21 21h131q20 0 20 -21v-1114q0 -133 -55 -195.5t-184 -62.5h-160z" />
    <glyph glyph-name="uniFEE0" unicode="&#x644;" horiz-adv-x="606" arabic-form="medial" 
d="M563 0q-138 0 -190 106q-51 -106 -213 -106h-160q-41 0 -61.5 14.5t-20.5 61.5t19.5 65.5t62.5 18.5h129q51 0 74.5 23.5t23.5 84.5v1104q0 20 21 21h131q20 0 20 -21v-1073q0 -70 50.5 -104.5t134.5 -34.5h24q82 0 82 -76q0 -53 -19.5 -68.5t-62.5 -15.5h-45z" />
    <glyph glyph-name="uniFEE2" unicode="&#x645;" horiz-adv-x="1280" arabic-form="final" 
d="M930 428q0 287 -219 287t-219 -287q0 -147 52 -215t166.5 -68t167 68t52.5 215zM227 -74v-334h-172v377q1 151 129 221q84 47 109.5 75t30.5 67q-5 58 -5 96q0 236 104.5 341t287 105t287 -105t104.5 -341q0 -48 -4 -88q2 -104 42 -142t85 -38h57q82 0 82 -76
q0 -53 -19.5 -68.5t-62.5 -15.5h-43q-174 0 -235 98q-97 -112 -306.5 -112t-306.5 145q-20 -33 -48 -47t-53.5 -30.5t-44 -43t-18.5 -84.5z" />
    <glyph glyph-name="uniFEE3" unicode="&#x645;" horiz-adv-x="1122" arabic-form="initial" 
d="M838 428q0 287 -219.5 287t-219.5 -287q0 -147 52.5 -215t167 -68t167 68t52.5 215zM618 -14q-195 0 -294 114q-43 -66 -111 -83t-125 -17h-88q-82 0 -82 82q0 51 19.5 64.5t62.5 13.5h102q86 0 116 97q11 36 10 72.5t-1 56.5v42q0 236 104.5 341t287 105t287 -105
t104.5 -341q0 -336 -229 -416q-73 -26 -163 -26z" />
    <glyph glyph-name="uniFEE4" unicode="&#x645;" horiz-adv-x="1189" arabic-form="medial" 
d="M838 428q0 287 -219.5 287t-219.5 -287q0 -147 52.5 -215t167 -68t167 68t52.5 215zM88 0h-88q-82 0 -82 82q0 51 19.5 64.5t62.5 13.5h102q86 0 116 97q11 36 10 72.5t-1 56.5v42q0 236 104.5 341t287 105t287 -105t104.5 -341q0 -48 -4 -88q2 -104 41.5 -142t85.5 -38
h59q82 0 82 -76q0 -53 -19.5 -68.5t-62.5 -15.5h-45q-172 0 -236 98q-97 -112 -292.5 -112t-294.5 114q-43 -66 -111 -83t-125 -17z" />
    <glyph glyph-name="uniFEE6" unicode="&#x646;" horiz-adv-x="1249" arabic-form="final" 
d="M1249 160q82 0 82 -76q0 -53 -19.5 -68.5t-62.5 -15.5h-28q-106 0 -164 66v-25q0 -211 -124 -330t-352 -119t-359 120q-130 120 -130 329q0 121 40 232.5t93 187.5q8 14 29 2l113 -62q16 -10 6 -26q-105 -162 -105 -320t107 -236q87 -63 214.5 -63t211.5 67.5t84 219.5
v598q0 20 20 21h131q20 0 21 -21v-342q0 -70 50 -104.5t134 -34.5h8zM575 713q-20 0 -20 20v150q0 20 20 20h140q20 0 20 -20v-150q0 -20 -20 -20h-140z" />
    <glyph glyph-name="uniFEE7" unicode="&#x646;" horiz-adv-x="516" arabic-form="initial" 
d="M14 0q-41 0 -61.5 14.5t-20.5 61.5t19.5 65.5t62.5 18.5h129q51 0 75 23.5t24 84.5v549q0 20 20 21h131q20 0 21 -21v-559q0 -133 -55.5 -195.5t-184.5 -62.5h-160zM258 1040q-20 0 -20 21v149q0 20 20 21h139q20 0 21 -21v-149q0 -20 -21 -21h-139z" />
    <glyph glyph-name="uniFEE8" unicode="&#x646;" horiz-adv-x="606" arabic-form="medial" 
d="M578 0q-137 0 -191 106q-51 -106 -213 -106h-160q-41 0 -61.5 14.5t-20.5 61.5t19.5 65.5t62.5 18.5h129q51 0 75 23.5t24 84.5v549q0 20 20 21h131q20 0 21 -21v-518q0 -70 50 -104.5t134 -34.5h25q82 0 82 -76q0 -53 -19.5 -68.5t-62.5 -15.5h-45zM258 1040
q-20 0 -20 21v149q0 20 20 21h139q20 0 21 -21v-149q0 -20 -21 -21h-139z" />
    <glyph glyph-name="uniFEE9" unicode="&#x647;" horiz-adv-x="1355" arabic-form="isolated" 
d="M467 303q0 -143 119 -143t119 144q1 144 -117 145q-58 0 -89.5 -38t-31.5 -108zM848 303q0 -85 -27 -143h33q112 0 144 42.5t32 146.5q0 190 -78.5 292t-254.5 102t-312 -110q-16 -12 -29 -2l-71 84q-18 16 -6 28q164 160 432 160t398 -170q103 -135 103 -351.5
t-67.5 -299t-226.5 -82.5h-660q-47 0 -60.5 -13.5t-13.5 -56.5v-61q0 -20 -20 -21h-131q-20 0 -21 21v154q0 137 168 137h174q-27 55 -26 143q0 145 72.5 212t186.5 67t187.5 -66.5t73.5 -212.5z" />
    <glyph glyph-name="uniFEEA" unicode="&#x647;" horiz-adv-x="1026" arabic-form="final" 
d="M248 465q0 -215 214 -215q204 0 204 260v205h-201q-96 0 -156.5 -54.5t-60.5 -195.5zM451 90q-263 0 -347 208q-28 70 -28 176q0 202 110 301t279 99h201v89q0 20 20 20h131q20 0 21 -20v-695q0 -61 23.5 -84.5t74.5 -23.5h90q82 0 82 -82q0 -51 -19.5 -64.5t-62.5 -13.5
h-121q-100 0 -156.5 38t-74.5 126q-82 -74 -223 -74z" />
    <glyph glyph-name="uniFEEB" unicode="&#x647;" horiz-adv-x="1232" arabic-form="initial" 
d="M612 308.5q0 140.5 -116 140.5q-58 0 -89.5 -38t-31.5 -108q0 -135 108 -143h23q106 8 106 148.5zM608 903q278 0 408 -170q104 -134 104 -350.5t-67 -299.5t-228 -83h-825q-82 0 -82 82q0 51 19.5 64.5t62.5 13.5h256q-29 61 -29 143q0 145 77 219t192.5 74t191.5 -76
t76 -217q0 -82 -29 -143h27q112 0 144 42.5t32 146.5t-17.5 169.5t-58.5 115.5q-89 109 -261.5 109t-315.5 -84q-24 -12 -29 -2l-57 97q-12 23 0 30q183 119 409 119z" />
    <glyph glyph-name="uniFEEC" unicode="&#x647;" horiz-adv-x="1146" arabic-form="medial" 
d="M612 -268q111 0 156 34.5t45 98.5q-1 91 -77 123q-30 12 -77 12h-260v-115q0 -153 213 -153zM831 438q0 277 -221 277q-98 0 -154.5 -70t-56.5 -194v-291h232q101 0 150.5 81t49.5 197zM227 -115v115h-227q-82 0 -82 82q0 51 19.5 64.5t62.5 13.5h227v268
q0 223 105 334.5t285.5 111.5t283.5 -102t103 -319q0 -86 -25 -166t-57 -127h227q43 0 62.5 -13.5t19.5 -64.5q0 -82 -82 -82h-207q43 -54 43 -128q0 -142 -95.5 -221t-268.5 -79q-394 0 -394 313z" />
    <glyph glyph-name="uniFEEE" unicode="&#x648;" horiz-adv-x="1038" arabic-form="final" 
d="M723 428q-1 287 -209 287q-108 0 -168.5 -82t-60.5 -222t58 -195.5t173 -55.5h207v268zM1036 160q82 0 82 -76q0 -53 -19.5 -68.5t-62.5 -15.5h-141v-49q-1 -273 -209 -339q-66 -20 -145 -20h-254q-20 0 -21 21v119q0 20 21 20h245q191 0 191 195v53h-219
q-292 0 -364 219q-26 81 -27 197q0 227 113 342.5t288.5 115.5t278 -105t102.5 -341v-268h141z" />
    <glyph glyph-name="uniFEF0" unicode="&#x649;" horiz-adv-x="1531" arabic-form="final" 
d="M1425 -124q0 -125 -92.5 -204.5t-290.5 -79.5h-479q-240 0 -364.5 120t-124.5 329q0 121 40 232.5t93 187.5q8 14 29 2l112 -62q16 -10 6 -26q-104 -160 -104 -318.5t95.5 -229.5t242.5 -71h452q123 0 171.5 37t48.5 85t-28 81t-82 60.5t-135 56t-186 67.5q-18 6 -12 25
l45 123q7 20 25 14q66 -25 127 -50.5t155 -60t197 -34.5h166q41 0 61.5 -14.5t20.5 -61.5t-19.5 -65.5t-62.5 -18.5h-146q39 -62 39 -124z" />
    <glyph glyph-name="uniFEF2" unicode="&#x64a;" horiz-adv-x="1546" arabic-form="final" 
d="M1440 -124q0 -125 -92.5 -204.5t-290.5 -79.5h-479q-240 0 -365 120t-125 329q0 121 40 232.5t93 187.5q8 14 29 2l112 -62q16 -10 7 -26q-105 -162 -105 -319.5t96 -228.5t242 -71h453q123 0 171 37t48 85t-27.5 81t-82 60.5t-135.5 56t-185 67.5q-18 6 -13 25l46 123
q6 20 24 14q66 -25 127.5 -50.5t154.5 -60t197 -34.5h166q41 0 61.5 -14.5t20.5 -61.5t-19.5 -65.5t-62.5 -18.5h-145q39 -62 39 -124zM565 -762q-20 0 -20 21v149q0 20 20 21h140q20 0 20 -21v-149q0 -20 -20 -21h-140zM815 -762q-20 0 -20 21v149q0 20 20 21h139
q20 0 21 -21v-149q0 -20 -21 -21h-139z" />
    <glyph glyph-name="uniFEF3" unicode="&#x64a;" horiz-adv-x="565" arabic-form="initial" 
d="M0 0q-41 0 -61.5 14.5t-20.5 61.5t19.5 65.5t62.5 18.5h141q51 0 75 23.5t24 84.5v549q0 20 20 21h131q20 0 21 -21v-559q0 -133 -55.5 -195.5t-184.5 -62.5h-172zM88 -381q-20 0 -20 21v149q0 20 20 21h139q20 0 21 -21v-149q0 -20 -21 -21h-139zM338 -381q-20 0 -21 21
v149q0 20 21 21h139q20 0 21 -21v-149q0 -20 -21 -21h-139z" />
    <glyph glyph-name="uniFEF4" unicode="&#x64a;" horiz-adv-x="632" arabic-form="medial" 
d="M588 0q-137 0 -191 106q-51 -106 -213 -106h-170q-41 0 -61.5 14.5t-20.5 61.5t19.5 65.5t62.5 18.5h140q51 0 74.5 23.5t23.5 84.5v549q0 20 20 21h131q20 0 21 -21v-518q0 -70 50 -104.5t134 -34.5h25q82 0 82 -76q0 -53 -19.5 -68.5t-62.5 -15.5h-45zM119 -381
q-20 0 -21 21v149q0 20 21 21h139q20 0 21 -21v-149q0 -20 -21 -21h-139zM369 -381q-20 0 -21 21v149q0 20 21 21h139q20 0 20 -21v-149q0 -20 -20 -21h-139z" />
    <glyph glyph-name=".notdef" horiz-adv-x="776" 
d="M326 226q0 24 15 40.5t37 16.5t38 -17.5t16 -39.5t-16 -38t-38 -16t-37 15t-15 39zM504 735q0 45 -35 81t-81 36t-81 -35t-45 -110l-74 12q12 104 68.5 156.5t136.5 52.5t134.5 -52.5t54.5 -146.5q0 -51 -20 -89t-76 -92t-65 -86t-9 -102l-70 -6l-2 27q0 102 31 143
t68 79q38 38 51.5 62.5t13.5 69.5zM702 76v940h-626v-940h626zM776 1092v-1092h-776v1092h776z" />
    <glyph glyph-name="glyph1" horiz-adv-x="1024" 
 />
    <glyph glyph-name="glyph1" horiz-adv-x="1024" 
 />
    <glyph glyph-name="uni000D" unicode="&#xd;" horiz-adv-x="409" 
 />
    <glyph glyph-name="space" unicode=" " horiz-adv-x="491" 
 />
    <glyph glyph-name="space" unicode="&#xa0;" horiz-adv-x="491" 
 />
    <glyph glyph-name="exclam" unicode="!" horiz-adv-x="589" 
d="M197 197q0 20 20 20h156q20 0 20 -20v-177q0 -20 -20 -20h-156q-20 0 -20 20v177zM252 377q-20 0 -21 20l-32 975q0 20 20 21h152q20 0 20 -21l-33 -975q0 -20 -20 -20h-86z" />
    <glyph glyph-name="quotedbl" unicode="&#x22;" horiz-adv-x="673" 
d="M158 1030q-20 0 -21 21v321q0 20 21 21h90q20 0 20 -21v-321q0 -20 -20 -21h-90zM426 1030q-20 0 -20 21v321q0 20 20 21h90q20 0 21 -21v-321q0 -20 -21 -21h-90z" />
    <glyph glyph-name="numbersign" unicode="#" horiz-adv-x="1058" 
d="M641 567l39 287h-272l-39 -287h272zM70 438q-20 0 -21 21v88q0 20 21 20h166l38 287h-153q-20 0 -21 20v87q0 20 21 20h172l53 391q4 20 23 21h92q23 0 18 -21l-53 -391h272l54 391q4 20 22 21h92q23 0 19 -21l-54 -391h158q20 0 21 -20v-87q0 -20 -21 -20h-176l-39 -287
h162q20 0 20 -20v-88q0 -20 -20 -21h-178l-58 -418q-4 -20 -22 -20h-92q-23 0 -19 20l58 418h-273l-57 -418q-4 -20 -23 -20h-92q-23 0 -18 20l57 418h-149z" />
    <glyph glyph-name="dollar" unicode="$" 
d="M821 379q0 94 -46 149.5t-159 81.5v-467q96 16 150.5 79t54.5 157zM315 1028q0 -90 43 -145.5t158 -83.5v452q-92 -12 -146.5 -72.5t-54.5 -150.5zM147 1010q0 170 102.5 278.5t266.5 124.5v105q0 20 21 20h59q20 0 20 -20v-105q176 -16 306 -102q14 -12 4 -29l-66 -100
q-12 -16 -29 -6q-109 63 -215 75v-471q373 -65 373 -381q0 -172 -98 -283.5t-275 -131.5v-109q0 -20 -20 -20h-59q-20 0 -21 20v102q-217 7 -391 138q-6 4 -7 13t5 15l76 103q12 14 28 2q137 -101 289 -111v492q-369 69 -369 381z" />
    <glyph glyph-name="percent" unicode="%" horiz-adv-x="1593" 
d="M1298 172q11 44 11 133.5t-1 120.5t-1.5 50.5t-10.5 51.5q-21 68 -106.5 68t-112.5 -72q-10 -40 -10 -177.5t11 -173.5q22 -73 108.5 -73t111.5 72zM1188 715q88 0 162.5 -52t82 -132.5t7.5 -182.5t-3 -135.5t-14 -73.5q-25 -72 -86 -114.5t-149 -42.5t-162.5 51.5
t-82 132t-7.5 208t16 183.5q25 72 86.5 115t149.5 43zM516 866q10 40 10 176t-11 174q-21 74 -108 74t-112 -71q-10 -40 -10 -178t11 -174q22 -72 109 -72t111 71zM405.5 676q-88.5 0 -162.5 52t-81.5 133t-7.5 207.5t16 182.5q25 72 86 115t149.5 43t162.5 -52t81.5 -132.5
t7.5 -207.5t-16 -183q-25 -72 -86 -115t-149.5 -43zM1163 1415h99q20 0 10 -20l-809 -1397q-12 -20 -31 -21h-98q-10 0 -13.5 6.5t1.5 14.5l808 1397q12 20 33 20z" />
    <glyph glyph-name="ampersand" unicode="&#x26;" horiz-adv-x="1296" 
d="M305 339q0 -91 56.5 -150.5t144.5 -59.5t150.5 37t138.5 123l-283 368q-111 -86 -159 -156.5t-48 -161.5zM564 1270q-73 0 -112.5 -43t-39.5 -108t48 -127t87 -113q115 91 146.5 138.5t31.5 106.5t-44 102.5t-117 43.5zM246 1113q0 134 90.5 218t231.5 84
q140 0 228.5 -86.5t88.5 -214.5t-89 -215.5t-159 -142.5l264 -340l141 174q12 16 29 4l80 -70q16 -12 4 -28l-160 -203l68 -88q39 -49 82 -49h31q20 0 20 -21v-115q0 -20 -20 -20h-56q-61 0 -98 18.5t-80 77.5l-55 72q-92 -98 -178.5 -144.5t-186.5 -46.5q-183 0 -281 102
t-98 291q0 188 277 408q-97 122 -135.5 195.5t-38.5 139.5z" />
    <glyph glyph-name="quotesingle" unicode="'" horiz-adv-x="405" 
d="M158 1030q-20 0 -21 21v321q0 20 21 21h90q20 0 20 -21v-321q0 -20 -20 -21h-90z" />
    <glyph glyph-name="parenleft" unicode="(" horiz-adv-x="583" 
d="M129 672q0 211 60.5 424t183.5 399q14 20 33 21h71q23 0 12 -21q-194 -392 -194 -713t51 -536t143 -398q10 -20 -12 -20h-71q-19 0 -33 20q-123 186 -183.5 399.5t-60.5 424.5z" />
    <glyph glyph-name="parenright" unicode=")" horiz-adv-x="583" 
d="M289 781q0 320 -195 714q-10 20 12 21h72q18 0 33 -21q123 -186 183.5 -399t60.5 -424t-60.5 -424t-183.5 -400q-14 -20 -33 -20h-72q-22 0 -12 20q92 182 143.5 397.5t51.5 535.5z" />
    <glyph glyph-name="asterisk" unicode="*" horiz-adv-x="700" 
d="M319 811q-20 0 -20 20v183l-156 -92q-18 -14 -28 6l-31 57q-12 18 8 29l156 86l-156 90q-20 10 -8 29l31 57q10 20 28 6l156 -94v184q0 20 20 21h62q20 0 20 -21l-2 -184l158 94q19 14 29 -6l30 -57q12 -18 -8 -29l-155 -90l155 -86q20 -10 8 -29l-30 -57q-11 -22 -29 -6
l-158 92l2 -183q0 -20 -20 -20h-62z" />
    <glyph glyph-name="plus" unicode="+" 
d="M477 477q0 12 -12 12h-320q-20 0 -20 21v111q0 20 20 20h320q12 0 12 12v324q0 20 21 20h114q20 0 21 -20v-324q0 -12 12 -12h320q20 0 20 -20v-111q0 -20 -20 -21h-320q-12 0 -12 -12v-323q0 -20 -21 -21h-114q-20 0 -21 21v323z" />
    <glyph glyph-name="comma" unicode="," horiz-adv-x="471" 
d="M143 197q0 20 21 20h143q20 0 21 -20v-191q0 -31 -13 -45l-127 -168q-12 -14 -28 -14t-17 18v400z" />
    <glyph glyph-name="hyphen" unicode="-" horiz-adv-x="778" 
d="M117 465q-20 0 -21 20v119q0 20 21 21h545q20 0 20 -21v-119q0 -20 -20 -20h-545z" />
    <glyph glyph-name="hyphen" unicode="&#x2010;" horiz-adv-x="778" 
d="M117 465q-20 0 -21 20v119q0 20 21 21h545q20 0 20 -21v-119q0 -20 -20 -20h-545z" />
    <glyph glyph-name="hyphen" unicode="&#xad;" horiz-adv-x="778" 
d="M117 465q-20 0 -21 20v119q0 20 21 21h545q20 0 20 -21v-119q0 -20 -20 -20h-545z" />
    <glyph glyph-name="period" unicode="." horiz-adv-x="483" 
d="M143 197q0 20 21 20h155q20 0 21 -20v-177q0 -20 -21 -20h-155q-20 0 -21 20v177z" />
    <glyph glyph-name="slash" unicode="/" horiz-adv-x="854" 
d="M604 1415h111q20 0 14 -20l-455 -1397q-6 -20 -26 -21h-109q-20 0 -14 21l453 1397q6 20 26 20z" />
    <glyph glyph-name="zero" unicode="0" 
d="M766 1116q-50 139 -211 139t-211 -139q-19 -50 -20.5 -175.5t-1.5 -304t5 -253.5t17 -107q50 -139 211 -139t211 139q19 50 20.5 176t1.5 365.5t-22 298.5zM555 1415q145 0 254 -75.5t133.5 -212t24.5 -406t-9.5 -354t-21.5 -125.5q-41 -129 -138.5 -197t-242.5 -68
t-254 76t-133.5 211.5t-24.5 406t9.5 354t21.5 126.5q41 129 138.5 196.5t242.5 67.5z" />
    <glyph glyph-name="one" unicode="1" 
d="M500 1176h-4l-232 -162q-23 -14 -22 12v152q0 16 14 28l240 174q14 12 32 13h123q20 0 21 -21v-1352q0 -20 -21 -20h-131q-20 0 -20 20v1156z" />
    <glyph glyph-name="two" unicode="2" 
d="M162 127q0 16 10 29l502 639q98 123 98 229t-58.5 168.5t-159.5 62.5t-156.5 -55t-71.5 -149q-4 -20 -23 -17l-125 27q-18 6 -16 24q13 135 118 232.5t281 97.5t281.5 -107t105.5 -272t-135 -334l-430 -540v-2h545q20 0 20 -21v-119q0 -20 -20 -20h-746q-20 0 -20 20v107
z" />
    <glyph glyph-name="three" unicode="3" 
d="M791 388q0 112 -70 182.5t-186 70.5h-62q-20 0 -20 21v118q0 20 20 21h59q104 0 168 63.5t64 165.5t-59.5 163.5t-160.5 61.5t-153.5 -49t-71.5 -121q-6 -18 -24 -16l-123 31q-20 4 -16 24q21 122 125.5 206.5t275.5 84.5t277 -103t106 -274q0 -104 -50 -179t-122 -120
v-4q123 -52 161 -163t38 -193q0 -173 -116.5 -287.5t-293.5 -114.5q-176 0 -283.5 83t-136.5 212q-2 18 17 25l125 31q18 6 26 -21q20 -68 82.5 -119t169.5 -51t170.5 69.5t63.5 181.5z" />
    <glyph glyph-name="four" unicode="4" 
d="M129 244q-20 0 -20 20v113q0 12 6 24l450 975q8 16 29 17h137q23 0 14 -19l-444 -968v-5h369q12 0 12 13v364q0 20 20 21h132q20 0 20 -21v-364q0 -12 12 -13h127q20 0 21 -20v-117q0 -20 -21 -20h-127q-12 0 -12 -13v-211q0 -20 -20 -20h-132q-20 0 -20 20v211
q0 12 -12 13h-541z" />
    <glyph glyph-name="five" unicode="5" 
d="M554 137q210 0 223.5 125t13.5 214t-22 155q-43 129 -202 129q-84 0 -136 -40t-69 -89q-8 -20 -24 -21h-121q-20 0 -20 21v741q0 20 20 21h701q20 0 20 -21v-119q0 -20 -20 -20h-549q-12 0 -13 -12v-392h6q25 33 84.5 62t167.5 29t230.5 -81t122.5 -390q0 -141 -29 -226
q-39 -119 -138.5 -182.5t-245.5 -63.5t-252 81t-126 210q-4 20 17 25l120 31q20 2 27 -17q16 -74 72.5 -122t141.5 -48z" />
    <glyph glyph-name="six" unicode="6" 
d="M305 401.5q0 -116.5 67.5 -190.5t182.5 -74t183.5 74t68.5 190.5t-68.5 189.5t-183.5 73t-182.5 -73t-67.5 -189.5zM581 823q175 0 288.5 -113.5t113.5 -306.5t-121.5 -309.5t-308.5 -116.5t-305.5 116.5t-118.5 309.5q0 152 92 318l354 657q6 14 27 15h139q23 0 13 -21
l-312 -577l4 -4q46 32 135 32z" />
    <glyph glyph-name="seven" unicode="7" 
d="M776 1233h-424q-12 0 -12 -12v-174q0 -20 -21 -21h-122q-20 0 -21 21v325q0 20 21 21h743q20 0 21 -21v-127q0 -8 -5 -20l-479 -1207q-7 -18 -26 -18h-138q-23 0 -12 23l475 1204v6z" />
    <glyph glyph-name="eight" unicode="8" 
d="M301 394q0 -112 69.5 -184.5t185.5 -72.5t184.5 72.5t68.5 184.5t-68.5 184.5t-185.5 72.5t-185.5 -72.5t-68.5 -184.5zM555 811q102 0 161.5 65.5t59.5 157.5t-60.5 156.5t-160.5 64.5t-160.5 -64.5t-60.5 -156.5t59.5 -157.5t161.5 -65.5zM125 402q0 108 56.5 196
t140.5 133v4q-66 37 -115 114t-49 168q0 175 108 286.5t290 111.5t289 -110.5t107 -274.5q0 -104 -49 -181t-115 -114v-4q84 -45 140.5 -133t56.5 -196q0 -197 -119.5 -311t-310.5 -114t-310.5 114t-119.5 311z" />
    <glyph glyph-name="nine" unicode="9" 
d="M555 729q115 0 182.5 72.5t67.5 189.5t-67.5 190.5t-182.5 73.5t-183.5 -73.5t-68.5 -190.5t68.5 -189.5t183.5 -72.5zM528 569q-173 0 -287 113t-114 306t120.5 310t309.5 117t306.5 -116.5t117.5 -309.5q0 -153 -92 -317l-354 -658q-8 -14 -27 -14h-139q-23 0 -13 20
l312 578l-4 4q-48 -33 -136 -33z" />
    <glyph glyph-name="colon" unicode=":" horiz-adv-x="499" 
d="M152 197q0 20 20 20h156q20 0 20 -20v-177q0 -20 -20 -20h-156q-20 0 -20 20v177zM172 764q-20 0 -20 20v177q0 20 20 20h156q20 0 20 -20v-177q0 -20 -20 -20h-156z" />
    <glyph glyph-name="semicolon" unicode=";" horiz-adv-x="499" 
d="M158 197q0 20 20 20h144q20 0 20 -20v-191q0 -28 -12 -43l-127 -170q-13 -14 -29 -14t-16 18v400zM172 764q-20 0 -20 20v177q0 20 20 20h156q20 0 20 -20v-177q0 -20 -20 -20h-156z" />
    <glyph glyph-name="less" unicode="&#x3c;" 
d="M125 516v96q0 20 20 29l820 336q20 6 20 -12v-127q0 -18 -20 -27l-617 -244v-4l617 -244q20 -8 20 -26v-127q0 -18 -20 -12l-820 335q-20 6 -20 27z" />
    <glyph glyph-name="equal" unicode="=" 
d="M145 285q-20 0 -20 20v111q0 20 20 20h820q20 0 20 -20v-111q0 -20 -20 -20h-820zM145 694q-20 0 -20 21v110q0 20 20 21h820q20 0 20 -21v-110q0 -20 -20 -21h-820z" />
    <glyph glyph-name="greater" unicode="&#x3e;" 
d="M125 293q0 18 20 26l617 244v4l-617 244q-20 8 -20 27v127q0 18 20 12l820 -336q20 -8 20 -29v-96q0 -20 -20 -27l-820 -335q-20 -6 -20 12v127z" />
    <glyph glyph-name="question" unicode="?" horiz-adv-x="933" 
d="M358 197q0 20 21 20h156q20 0 20 -20v-177q0 -20 -20 -20h-156q-20 0 -21 20v177zM389 373q-20 0 -20 20v84q0 61 14 100t47 85l137 188q77 105 87 146.5t10 68.5q0 88 -55.5 139t-142.5 51q-177 0 -214 -194q-4 -20 -23 -17l-129 23q-20 4 -16 23q23 147 124 236t263 89
t265.5 -97t103.5 -251q0 -74 -26 -134.5t-79 -131.5l-137 -189q-31 -41 -42 -71.5t-11 -81.5v-66q0 -20 -21 -20h-135z" />
    <glyph glyph-name="at" unicode="@" horiz-adv-x="1816" 
d="M895 250q203 0 203 203.5t-17 246.5q-45 127 -202.5 127t-172 -113.5t-14.5 -288.5t203 -175zM1386 246q181 0 181 301t-182 486.5t-482 185.5t-480.5 -184.5t-180.5 -484.5t179 -486.5t484 -186.5q251 0 443 94q20 10 28 -8l33 -82q10 -16 -8 -26q-210 -111 -496 -111
q-178 0 -327.5 58.5t-256 165t-166 255t-59.5 326.5t59.5 325.5t166 253t256 165t416.5 59.5t492.5 -225.5t225.5 -577.5q0 -219 -92 -327.5t-234 -108.5q-90 0 -152.5 40t-90.5 105h-2q-74 -143 -288 -143t-282 200q-26 89 -26 223.5t26 223.5q69 201 287 201
q92 0 150.5 -33t85.5 -78h4v72q0 18 16 18h109q18 0 18 -18v-504q0 -92 44 -133t101 -41z" />
    <glyph glyph-name="A" unicode="A" horiz-adv-x="1243" 
d="M844 492l-219 632h-4l-222 -632h445zM690 1393q20 0 27 -21l477 -1352q6 -20 -14 -20h-144q-20 0 -26 20l-107 304h-563l-107 -304q-8 -20 -26 -20h-144q-20 0 -14 20l483 1352q6 20 25 21h133z" />
    <glyph glyph-name="B" unicode="B" horiz-adv-x="1236" 
d="M354 178q0 -12 13 -12h325q125 0 190.5 62.5t65.5 167t-65.5 167t-190.5 62.5h-325q-12 0 -13 -13v-434zM682 791q117 0 180.5 58.5t63.5 158.5t-63.5 159.5t-180.5 59.5h-315q-12 0 -13 -13v-411q0 -12 13 -12h315zM172 1372q0 20 21 21h493q211 0 315.5 -99.5
t104.5 -267.5q0 -123 -52.5 -196.5t-133.5 -106.5v-4q79 -23 144.5 -106t65.5 -216q0 -197 -117.5 -297t-336.5 -100h-483q-20 0 -21 20v1352z" />
    <glyph glyph-name="C" unicode="C" horiz-adv-x="1159" 
d="M623 1415q156 0 271.5 -72.5t174.5 -207.5q6 -18 -8 -27l-123 -59q-20 -10 -29 10q-93 186 -286 186q-217 0 -289 -205q-27 -104 -27 -295.5t6 -265t21 -127.5q73 -205 289 -205q111 0 178 52.5t108 134.5q8 20 29 10l123 -59q14 -8 8 -27q-59 -135 -175 -208t-280 -73
t-292 87.5t-163.5 236t-35.5 354.5t7 285t30 147q105 328 463 328z" />
    <glyph glyph-name="D" unicode="D" horiz-adv-x="1275" 
d="M354 182q0 -12 13 -12h256q127 0 224 55t109.5 188.5t12.5 283t-12 282t-109.5 188.5t-224.5 56h-256q-12 0 -13 -13v-1028zM172 1372q0 20 21 21h469q358 0 454 -297q31 -112 34 -210t3 -235.5t-7.5 -206t-29.5 -147.5q-96 -297 -454 -297h-469q-20 0 -21 20v1352z" />
    <glyph glyph-name="E" unicode="E" horiz-adv-x="1153" 
d="M172 1372q0 20 21 21h837q20 0 21 -21v-129q0 -20 -21 -20h-663q-12 0 -13 -13v-409q0 -12 13 -13h563q20 0 20 -20v-129q0 -20 -20 -21h-563q-12 0 -13 -12v-424q0 -12 13 -12h663q20 0 21 -20v-130q0 -20 -21 -20h-837q-20 0 -21 20v1352z" />
    <glyph glyph-name="F" unicode="F" horiz-adv-x="1138" 
d="M172 1372q0 20 21 21h837q20 0 21 -21v-129q0 -20 -21 -20h-663q-12 0 -13 -13v-424q0 -12 13 -12h563q20 0 20 -20v-129q0 -20 -20 -21h-563q-12 0 -13 -12v-572q0 -20 -20 -20h-141q-20 0 -21 20v1352z" />
    <glyph glyph-name="G" unicode="G" horiz-adv-x="1267" 
d="M637 1415q332 0 463 -276q10 -18 -6 -29l-123 -59q-18 -10 -29 10q-51 94 -122.5 139t-186.5 45q-229 0 -297 -207q-29 -87 -29 -329t11.5 -289t17.5 -66q68 -207 301 -207q106 0 186 51.5t113 149.5q27 94 27 219q0 12 -13 13h-270q-20 0 -21 20v119q0 20 21 20h444
q20 0 21 -20v-105q0 -195 -35 -307q-51 -160 -175 -245t-300 -85t-324.5 99t-168 272.5t-19.5 347.5t20 348.5t168 272.5t326 98z" />
    <glyph glyph-name="H" unicode="H" horiz-adv-x="1337" 
d="M172 1372q0 20 21 21h141q20 0 20 -21v-571q0 -12 13 -13h604q12 0 12 13v571q0 20 21 21h141q20 0 20 -21v-1352q0 -20 -20 -20h-141q-20 0 -21 20v586q0 12 -12 12h-604q-12 0 -13 -12v-586q0 -20 -20 -20h-141q-20 0 -21 20v1352z" />
    <glyph glyph-name="I" unicode="I" horiz-adv-x="526" 
d="M172 1372q0 20 21 21h141q20 0 20 -21v-1352q0 -20 -20 -20h-141q-20 0 -21 20v1352z" />
    <glyph glyph-name="J" unicode="J" horiz-adv-x="1005" 
d="M403 147q123 0 191 73t68 226v926q0 20 20 21h141q20 0 21 -21v-926q0 -233 -121 -351t-326 -118q-102 0 -190 41.5t-139 102.5q-14 14 0 29l102 88q14 12 39 -12t77 -51.5t117 -27.5z" />
    <glyph glyph-name="K" unicode="K" horiz-adv-x="1261" 
d="M172 1372q0 20 21 21h141q20 0 20 -21v-725l592 727q12 18 33 19h168q10 0 13 -7.5t-5 -17.5l-434 -522l477 -823q14 -23 -12 -23h-164q-18 0 -29 18l-391 687l-248 -299v-386q0 -20 -20 -20h-141q-20 0 -21 20v1352z" />
    <glyph glyph-name="L" unicode="L" horiz-adv-x="1101" 
d="M172 1372q0 20 21 21h141q20 0 20 -21v-1190q0 -12 13 -12h663q20 0 21 -20v-130q0 -20 -21 -20h-837q-20 0 -21 20v1352z" />
    <glyph glyph-name="M" unicode="M" horiz-adv-x="1546" 
d="M172 1372q0 20 21 21h133q25 0 32 -21l416 -938h6l408 938q8 20 33 21h133q20 0 20 -21v-1352q0 -20 -20 -20h-129q-20 0 -21 20v969h-6l-346 -766q-10 -25 -37 -24h-82q-29 0 -39 24l-346 766h-6v-969q0 -20 -20 -20h-129q-20 0 -21 20v1352z" />
    <glyph glyph-name="N" unicode="N" horiz-adv-x="1339" 
d="M172 1372q0 20 21 21h131q25 0 34 -21l631 -1044h8v1044q0 20 21 21h129q20 0 20 -21v-1352q0 -20 -20 -20h-131q-25 0 -35 20l-633 1041h-6v-1041q0 -20 -20 -20h-129q-20 0 -21 20v1352z" />
    <glyph glyph-name="O" unicode="O" horiz-adv-x="1267" 
d="M930 354q31 93 31 342.5t-32 345.5q-67 204 -336 203.5t-277.5 -237t-8.5 -396.5t31 -258q68 -207 296 -207t296 207zM634 -23q-177 0 -310 89.5t-167 237t-34 352.5t16 381t167 277t328 101t310.5 -89.5t167 -237.5t33.5 -352.5t-16 -380t-167 -277t-328 -101.5z" />
    <glyph glyph-name="P" unicode="P" horiz-adv-x="1212" 
d="M678 731q129 0 200.5 65.5t71.5 180.5t-71.5 180.5t-200.5 65.5h-311q-12 0 -13 -13v-467q0 -12 13 -12h311zM193 0q-20 0 -21 20v1352q0 20 21 21h495q200 0 321 -113.5t121 -302.5t-121 -302.5t-321 -113.5h-321q-12 0 -13 -12v-529q0 -20 -20 -20h-141z" />
    <glyph glyph-name="Q" unicode="Q" horiz-adv-x="1267" 
d="M626 147q110 0 183 43l-152 154q-12 12 0 29l91 98q16 12 28 0l144 -145l10 28q31 93 31 342.5t-32 345.5q-67 204 -336 203.5t-277.5 -237t-8.5 -396.5t31 -258q68 -207 288 -207zM636 -23q-179 0 -312 89.5t-167 237t-34 352.5t16 381t167 277t328 101t310.5 -89.5
t167 -237.5t33.5 -352.5t-10.5 -317.5t-79.5 -230l145 -143q12 -12 0 -29l-90 -96q-16 -16 -31 0l-143 141q-121 -84 -300 -84z" />
    <glyph glyph-name="R" unicode="R" horiz-adv-x="1263" 
d="M692 760q123 0 190.5 60.5t67.5 171t-67.5 171t-190.5 60.5h-325q-12 0 -13 -13v-438q0 -12 13 -12h325zM979 0q-18 0 -27 20l-278 570h-307q-12 0 -13 -12v-558q0 -20 -20 -20h-141q-20 0 -21 20v1352q0 20 21 21h503q194 0 315.5 -110t121.5 -292q0 -141 -74 -239.5
t-201 -139.5l297 -587q6 -10 2 -17.5t-14 -7.5h-164z" />
    <glyph glyph-name="S" unicode="S" horiz-adv-x="1210" 
d="M322 26q-133 49 -218 126q-14 14 -2 30l91 107q12 14 28 2q185 -144 389 -144q145 0 226.5 66t81.5 166t-68 157.5t-223 75.5l-70 11q-410 55 -410 385q0 185 123 296t332 111q123 0 234.5 -36t189.5 -93q16 -12 4 -29l-69 -112q-12 -14 -29 -4q-169 104 -317 104
t-215.5 -62.5t-67.5 -156.5t65.5 -150.5t227.5 -78.5l67 -11q205 -29 307.5 -123t102.5 -275t-96.5 -264t-191.5 -115t-227 -32t-265 49z" />
    <glyph glyph-name="T" unicode="T" horiz-adv-x="1099" 
d="M479 0q-20 0 -20 20v1190q0 12 -13 13h-380q-20 0 -21 20v129q0 20 21 21h968q20 0 21 -21v-129q0 -20 -21 -20h-381q-12 0 -12 -13v-1190q0 -20 -20 -20h-142z" />
    <glyph glyph-name="U" unicode="U" horiz-adv-x="1308" 
d="M654 -23q-230 0 -361 130.5t-131 377.5v887q0 20 20 21h142q20 0 20 -21v-885q0 -170 85 -255t225 -85t225.5 85t85.5 255v885q0 20 20 21h141q20 0 21 -21v-887q0 -248 -131.5 -378t-361.5 -130z" />
    <glyph glyph-name="V" unicode="V" horiz-adv-x="1150" 
d="M516 0q-18 0 -24 20l-451 1348q-8 25 14 25h140q23 0 28 -21l357 -1075h4l344 1075q6 20 26 21h142q23 0 14 -25l-448 -1348q-6 -20 -25 -20h-121z" />
    <glyph glyph-name="W" unicode="W" horiz-adv-x="1685" 
d="M1163 0q-16 0 -22 20l-297 1039h-4l-295 -1039q-6 -20 -25 -20h-112q-18 0 -23 20l-336 1352q-6 20 17 21h135q23 0 24 -21l248 -1034h4l289 1034q6 20 25 21h104q18 0 25 -21l294 -1034h5l241 1034q6 20 27 21h133q20 0 16 -21l-336 -1352q-4 -20 -24 -20h-113z" />
    <glyph glyph-name="X" unicode="X" horiz-adv-x="1142" 
d="M920 0q-20 0 -29 18l-320 531h-2l-319 -531q-12 -18 -31 -18h-160q-24 0 -10 25l420 700l-383 643q-6 10 -3 17.5t13 7.5h160q20 0 31 -19l282 -471h2l285 471q8 18 29 19h159q23 0 13 -25l-385 -643l422 -700q10 -25 -13 -25h-161z" />
    <glyph glyph-name="Y" unicode="Y" horiz-adv-x="1077" 
d="M469 0q-20 0 -20 20v549l-412 801q-8 23 16 23h146q18 0 30 -21l312 -596h4l309 596q8 20 29 21h141q25 0 16 -23l-411 -801v-549q0 -20 -21 -20h-139z" />
    <glyph glyph-name="Z" unicode="Z" horiz-adv-x="1097" 
d="M121 0q-20 0 -21 20v130q0 12 9 22l679 1049v2h-643q-20 0 -20 20v129q0 20 20 21h832q20 0 20 -21v-129q0 -12 -8 -22l-682 -1049v-2h670q20 0 20 -20v-130q0 -20 -20 -20h-856z" />
    <glyph glyph-name="bracketleft" unicode="[" horiz-adv-x="575" 
d="M184 -172q-20 0 -20 20v1647q0 20 20 21h295q20 0 21 -21v-98q0 -20 -21 -21h-141q-12 0 -12 -12v-1384q0 -12 12 -13h141q20 0 21 -20v-99q0 -20 -21 -20h-295z" />
    <glyph glyph-name="backslash" unicode="\" horiz-adv-x="854" 
d="M604 -23q-20 0 -26 21l-453 1397q-6 20 14 20h109q20 0 26 -20l455 -1397q6 -20 -14 -21h-111z" />
    <glyph glyph-name="bracketright" unicode="]" horiz-adv-x="575" 
d="M96 -172q-20 0 -20 20v99q0 20 20 20h142q12 0 12 13v1384q0 12 -12 12h-142q-20 0 -20 21v98q0 20 20 21h295q20 0 21 -21v-1647q0 -20 -21 -20h-295z" />
    <glyph glyph-name="asciicircum" unicode="^" 
d="M852 557q-20 0 -29 21l-266 598h-4l-266 -598q-8 -20 -27 -21h-121q-23 0 -12 21l354 794q10 20 29 21h90q18 0 29 -21l354 -794q10 -20 -12 -21h-119z" />
    <glyph glyph-name="underscore" unicode="_" horiz-adv-x="974" 
d="M0 -270v114h975v-114h-975z" />
    <glyph glyph-name="grave" unicode="`" horiz-adv-x="862" 
d="M489 1141q-25 0 -38 20l-189 252q-6 8 -3 14.5t13 6.5h136q25 0 36 -21l154 -252q10 -20 -12 -20h-97z" />
    <glyph glyph-name="a" unicode="a" horiz-adv-x="1062" 
d="M285 279q-1 -154 213 -154q108 0 173.5 50t65.5 142v109q0 12 -12 12h-197q-129 0 -186 -38t-57 -121zM762 0q-20 0 -21 20v86h-2q-35 -55 -106.5 -92t-162.5 -37q-168 0 -259.5 77t-91.5 225q0 149 101.5 222.5t281.5 73.5h223q12 0 12 13v71q0 102 -49.5 147.5
t-159.5 45.5t-166 -20t-86 -42t-40 -6l-56 95q-8 16 4 28q124 97 334 97q209 0 297 -77t88 -257v-650q0 -20 -20 -20h-121z" />
    <glyph glyph-name="b" unicode="b" horiz-adv-x="1101" 
d="M802.5 280.5q14.5 143.5 14.5 241.5t-22 174q-51 148 -217 148q-208 1 -223 -139t-15 -213.5t14.5 -214t223.5 -140.5q210 0 224.5 143.5zM340 115v-95q0 -20 -21 -20h-131q-20 0 -20 20v1352q0 20 20 21h131q20 0 21 -21v-504h2q81 136 279 136q264 0 337 -236
q35 -103 35 -236t-7 -196.5t-28 -122.5q-75 -236 -337 -236q-198 0 -279 138h-2z" />
    <glyph glyph-name="c" unicode="c" horiz-adv-x="966" 
d="M144 226q-36 112 -35 264q-1 152 35 265t138.5 181t229.5 68q236 0 350 -166q10 -16 -6 -29l-90 -74q-16 -12 -29 2q-43 53 -90 80t-124 27q-207 0 -222.5 -143.5t-16 -241t23.5 -171.5q47 -151 218 -151q74 0 121 26.5t90 80.5q12 14 29 2l90 -74q16 -12 6 -29
q-113 -166 -336 -166q-141 0 -243.5 68t-138.5 181z" />
    <glyph glyph-name="d" unicode="d" horiz-adv-x="1101" 
d="M746 277.5q16 140.5 16 247t-23 171.5q-49 148 -215 148q-210 1 -224.5 -143.5t-14.5 -210.5t14.5 -209.5t222.5 -143.5t224 140.5zM481 1004q200 0 279 -136h2v504q0 20 20 21h131q20 0 21 -21v-1352q0 -20 -21 -20h-131q-20 0 -20 20v95h-2q-82 -138 -279 -138
q-263 0 -338 236q-34 100 -34 235.5t15.5 272t121.5 210t235 73.5z" />
    <glyph glyph-name="e" unicode="e" horiz-adv-x="1048" 
d="M752 575q12 0 12 13q0 68 -20 126t-78 98t-142 40t-161.5 -53.5t-77.5 -210.5q0 -12 12 -13h455zM127.5 272.5q-18.5 133.5 -18.5 258t30 208.5q41 129 142.5 197t243 68t271 -88.5t137 -245t7.5 -211.5q0 -20 -22 -21h-621q-12 0 -12 -12q0 -175 86 -232t176 -57
q159 0 254 109q16 16 30 4l84 -76q14 -12 3 -29q-134 -168 -394 -168q-140 0 -259 81t-137.5 214.5z" />
    <glyph glyph-name="f" unicode="f" horiz-adv-x="651" 
d="M221 0q-20 0 -20 20v809q0 12 -13 13h-84q-20 0 -20 20v99q0 20 20 20h84q12 0 13 12v84q0 174 72.5 245t226.5 71h75q20 0 21 -21v-119q0 -20 -21 -20h-53q-92 0 -114.5 -22.5t-28.5 -51.5t-6 -74v-92q0 -12 12 -12h190q20 0 21 -20v-99q0 -20 -21 -20h-190
q-12 0 -12 -13v-809q0 -20 -21 -20h-131z" />
    <glyph glyph-name="g" unicode="g" horiz-adv-x="1083" 
d="M513 170q200 0 215 137t15 228t-22 163q-51 146 -208 146q-232 1 -232 -336q0 -117 24 -191q51 -147 208 -147zM469 1004q197 0 272 -136h2v93q0 20 21 20h131q20 0 20 -20v-918q0 -211 -109.5 -322.5t-318.5 -111.5q-104 0 -197 40t-143 105q-12 14 3 29l83 84
q14 14 31 0q106 -98 232 -98q247 0 247 264v114h-2q-77 -135 -272 -135q-363 0 -363 496t363 496z" />
    <glyph glyph-name="h" unicode="h" horiz-adv-x="1114" 
d="M784 594q0 250 -219 250q-100 0 -162.5 -64.5t-62.5 -175.5v-584q0 -20 -21 -20h-131q-20 0 -20 20v1352q0 20 20 21h131q20 0 21 -21v-502h2q35 57 104.5 95.5t169.5 38.5q160 0 250 -100.5t90 -268.5v-615q0 -20 -20 -20h-131q-20 0 -21 20v574z" />
    <glyph glyph-name="i" unicode="i" horiz-adv-x="507" 
d="M188 0q-20 0 -20 20v941q0 20 20 20h131q20 0 21 -20v-941q0 -20 -21 -20h-131zM184 1202q-20 0 -20 21v149q0 20 20 21h140q20 0 20 -21v-149q0 -20 -20 -21h-140z" />
    <glyph glyph-name="j" unicode="j" horiz-adv-x="507" 
d="M6 -369q-20 0 -20 21v119q0 20 20 20h33q72 0 100.5 26.5t28.5 104.5v1039q0 20 20 20h131q20 0 21 -20v-1035q0 -160 -71.5 -227.5t-221.5 -67.5h-41zM184 1202q-20 0 -20 21v149q0 20 20 21h140q20 0 20 -21v-149q0 -20 -20 -21h-140z" />
    <glyph glyph-name="k" unicode="k" horiz-adv-x="1046" 
d="M821 0q-20 0 -33 20l-278 457l-170 -198v-259q0 -20 -21 -20h-131q-20 0 -20 20v1352q0 20 20 21h131q20 0 21 -21v-866l387 457q16 18 37 18h151q10 0 12.5 -6t-3.5 -14l-301 -351l362 -590q4 -6 1 -13t-13 -7h-152z" />
    <glyph glyph-name="l" unicode="l" horiz-adv-x="567" 
d="M403 -10q-129 0 -184 62.5t-55 195.5v1124q0 20 20 21h131q20 0 21 -21v-1114q0 -61 23.5 -84.5t74.5 -23.5h39q20 0 21 -21v-119q0 -20 -21 -20h-70z" />
    <glyph glyph-name="m" unicode="m" horiz-adv-x="1730" 
d="M1223 1004q172 0 261 -100.5t89 -268.5v-615q0 -20 -21 -20h-131q-20 0 -20 20v574q0 119 -54.5 184.5t-158.5 65.5t-168 -64.5t-64 -175.5v-584q0 -20 -20 -20h-131q-20 0 -21 20v574q0 250 -219 250q-100 0 -162.5 -64.5t-62.5 -175.5v-584q0 -20 -21 -20h-131
q-20 0 -20 20v941q0 20 20 20h131q20 0 21 -20v-91h2q35 57 104.5 95.5t220.5 38.5t236 -154h2q109 154 318 154z" />
    <glyph glyph-name="n" unicode="n" horiz-adv-x="1114" 
d="M784 594q0 250 -219 250q-100 0 -162.5 -64.5t-62.5 -175.5v-584q0 -20 -21 -20h-131q-20 0 -20 20v941q0 20 20 20h131q20 0 21 -20v-91h2q35 57 104.5 95.5t169.5 38.5q160 0 250 -100.5t90 -268.5v-615q0 -20 -20 -20h-131q-20 0 -21 20v574z" />
    <glyph glyph-name="o" unicode="o" horiz-adv-x="1056" 
d="M528 137q82 0 140 39.5t76 97.5q28 89 28 215t-24 200q-24 75 -81 115t-139 40t-139 -40t-75 -98q-28 -89 -29 -214.5t23 -199.5q24 -75 81 -115t139 -40zM528.5 -23q-143.5 0 -263 82.5t-138 214.5t-18 248t36.5 230t137.5 183t245 69t281.5 -94.5t138 -331.5t-37 -349
t-138 -182t-244.5 -70z" />
    <glyph glyph-name="p" unicode="p" horiz-adv-x="1101" 
d="M802.5 280.5q14.5 143.5 14.5 241.5t-22 174q-51 148 -217 148q-208 1 -223 -139t-15 -213.5t14.5 -214t223.5 -140.5q210 0 224.5 143.5zM340 115v-463q0 -20 -21 -21h-131q-20 0 -20 21v1309q0 20 20 20h131q20 0 21 -20v-93h2q81 136 279 136q264 0 337 -236
q35 -103 35 -236t-7 -196.5t-28 -122.5q-75 -236 -337 -236q-198 0 -279 138h-2z" />
    <glyph glyph-name="q" unicode="q" horiz-adv-x="1101" 
d="M746 277.5q16 140.5 16 247t-23 171.5q-49 148 -215 148q-210 1 -224.5 -143.5t-14.5 -210.5t14.5 -209.5t222.5 -143.5t224 140.5zM481 1004q200 0 279 -136h2v93q0 20 20 20h131q20 0 21 -20v-1309q0 -20 -21 -21h-131q-20 0 -20 21v463h-2q-82 -138 -279 -138
q-263 0 -338 236q-34 100 -34 235.5t15.5 272t121.5 210t235 73.5z" />
    <glyph glyph-name="r" unicode="r" horiz-adv-x="839" 
d="M340 557v-537q0 -20 -21 -20h-131q-20 0 -20 20v941q0 20 20 20h131q20 0 21 -20v-101h2q33 63 97.5 103.5t142.5 40.5q142 0 221 -74q14 -14 4 -29l-76 -100q-12 -17 -38 1q-62 42 -142 42q-211 0 -211 -287z" />
    <glyph glyph-name="s" unicode="s" horiz-adv-x="1003" 
d="M506 -23q-236 0 -406 148q-14 14 0 29l84 90q14 14 29 0q132 -113 303 -113q109 0 162 41.5t53 103.5t-38 96t-152 46l-105 10q-293 32 -293 277q0 141 95.5 220t285.5 79t332 -109q16 -10 4 -29l-69 -88q-12 -14 -29 -4q-121 80 -264 80q-92 0 -139.5 -38t-47.5 -97.5
t41 -91t152 -41.5l102 -11q295 -28 295 -289q0 -132 -101 -220.5t-294 -88.5z" />
    <glyph glyph-name="t" unicode="t" horiz-adv-x="647" 
d="M453 -10q-143 0 -204 66.5t-61 211.5v561q0 12 -12 13h-82q-20 0 -20 20v99q0 20 20 20h82q12 0 12 12v277q0 20 21 20h131q20 0 20 -20v-277q0 -12 13 -12h155q20 0 21 -20v-99q0 -20 -21 -20h-155q-12 0 -13 -13v-555q0 -74 30 -99t95 -25h43q20 0 21 -21v-119
q0 -20 -21 -20h-75z" />
    <glyph glyph-name="u" unicode="u" horiz-adv-x="1103" 
d="M326 389q0 -252 217 -252q100 0 160.5 65.5t60.5 176.5v582q0 20 20 20h131q20 0 21 -20v-941q0 -20 -21 -20h-131q-20 0 -20 20v93h-2q-87 -136 -258 -136q-172 0 -261 101.5t-89 269.5v613q0 20 20 20h131q20 0 21 -20v-572z" />
    <glyph glyph-name="v" unicode="v" horiz-adv-x="976" 
d="M430 0q-18 0 -24 20l-353 941q-6 20 17 20h141q18 0 27 -20l254 -705h4l247 705q6 20 25 20h139q23 0 17 -20l-351 -941q-6 -20 -26 -20h-117z" />
    <glyph glyph-name="w" unicode="w" horiz-adv-x="1525" 
d="M1012 0q-18 0 -25 20l-221 703h-4l-223 -703q-6 -20 -25 -20h-119q-18 0 -24 20l-308 941q-6 20 15 20h139q18 0 27 -20l217 -709h4l221 709q6 20 25 20h106q20 0 27 -20l223 -709h4l211 709q4 20 27 20h139q20 0 14 -20l-309 -941q-6 -20 -25 -20h-116z" />
    <glyph glyph-name="x" unicode="x" horiz-adv-x="983" 
d="M760 0q-18 0 -31 18l-237 347h-3l-237 -347q-10 -18 -31 -18h-145q-25 0 -15 20l334 492l-305 449q-10 20 14 20h148q20 0 31 -18l206 -306h3l210 306q10 18 29 18h148q24 0 14 -20l-307 -449l336 -492q10 -20 -15 -20h-147z" />
    <glyph glyph-name="y" unicode="y" horiz-adv-x="976" 
d="M176 -369q-20 0 -20 21v119q0 20 20 20h37q59 0 96 32t70 116l33 90l-361 932q-6 20 17 20h143q18 0 25 -20l258 -709h4l247 709q6 20 25 20h139q23 0 17 -20l-387 -1037q-66 -171 -131.5 -232t-178.5 -61h-53z" />
    <glyph glyph-name="z" unicode="z" horiz-adv-x="976" 
d="M133 0q-20 0 -20 20v109q0 14 8 23l538 669v4h-499q-20 0 -21 21v115q0 20 21 20h684q20 0 20 -20v-115q0 -12 -8 -23l-534 -663v-4h522q20 0 20 -21v-115q0 -20 -20 -20h-711z" />
    <glyph glyph-name="braceleft" unicode="{" horiz-adv-x="681" 
d="M434 68q0 -101 92 -101h60q20 0 20 -20v-99q0 -20 -20 -20h-94q-219 0 -220 231v373q0 88 -31.5 126t-95.5 40q-20 0 -20 20v117q0 20 20 21q63 2 95 40t32 124v364q0 231 220 232h94q20 0 20 -21v-98q0 -20 -20 -21h-60q-92 0 -92 -100v-354q0 -115 -29.5 -167.5
t-97.5 -76.5v-2q68 -25 97.5 -77t29.5 -167v-364z" />
    <glyph glyph-name="bar" unicode="|" horiz-adv-x="593" 
d="M244 -172q-20 0 -21 20v1647q0 20 21 21h106q20 0 21 -21v-1647q0 -20 -21 -20h-106z" />
    <glyph glyph-name="braceright" unicode="}" horiz-adv-x="681" 
d="M248 1276q0 100 -92 100h-60q-20 0 -20 21v98q0 20 20 21h94q219 0 220 -232v-364q0 -86 31.5 -124t95.5 -40q20 0 20 -21v-117q0 -20 -20 -20q-63 -2 -95 -40t-32 -126v-373q0 -231 -220 -231h-94q-20 0 -20 20v99q0 20 20 20h60q47 0 69.5 23.5t22.5 77.5v364
q0 115 29.5 167t97.5 77v2q-68 25 -97.5 77t-29.5 167v354z" />
    <glyph glyph-name="asciitilde" unicode="~" 
d="M731 569q53 0 87 29t67 82q10 16 28 4l78 -45q16 -10 8 -29q-41 -86 -113 -135t-146 -49t-124.5 23.5t-88.5 49.5q-91 62 -146 62t-89 -28.5t-67 -81.5q-10 -16 -28 -5l-78 46q-16 10 -8 28q41 86 113 135.5t146 49.5t124.5 -23.5t116.5 -67.5q67 -44 120 -45z" />
    <glyph glyph-name="exclamdown" unicode="&#xa1;" horiz-adv-x="589" 
d="M393 784q0 -20 -20 -20h-156q-20 0 -20 20v177q0 20 20 20h156q20 0 20 -20v-177zM338 604q20 0 20 -20l33 -975q0 -20 -20 -21h-152q-20 0 -20 21l32 975q0 20 21 20h86z" />
    <glyph glyph-name="cent" unicode="&#xa2;" 
d="M352 461.5q0 -95.5 23 -170.5q39 -127 172 -150v699q-165 -29 -180 -156t-15 -222.5zM641 -184q0 -20 -20 -21h-54q-20 0 -20 21v166q-127 12 -249 103t-122 407q0 147 34 256q34 108 122 173.5t215 77.5v168q0 20 20 21h54q20 0 20 -21v-166q200 -12 305 -163
q10 -16 -6 -29l-90 -74q-16 -12 -29 2q-39 47 -79 73t-101 32v-703q61 6 101 32t79 73q12 14 29 2l90 -74q16 -12 6 -29q-103 -151 -305 -163v-164z" />
    <glyph glyph-name="sterling" unicode="&#xa3;" 
d="M461 383q0 -143 -58 -221v-2h525q20 0 20 -21v-119q0 -20 -20 -20h-707q-20 0 -20 20v115q0 15 14 29q38 39 54 77.5t16 114.5v215q0 12 -13 13h-98q-20 0 -20 20v96q0 20 20 21h98q12 0 13 12v311q0 180 91.5 275.5t233.5 95.5t223.5 -70.5t108.5 -183.5q4 -18 -18 -22
l-125 -33q-18 -4 -23 16q-14 59 -53 96t-107 37t-111.5 -46t-43.5 -138v-338q0 -12 12 -12h260q20 0 21 -21v-96q0 -20 -21 -20h-260q-12 0 -12 -13v-188z" />
    <glyph glyph-name="currency" unicode="&#xa4;" horiz-adv-x="1101" 
d="M549 401q55 0 103 19.5t82 55.5t53.5 83t19.5 102.5t-19.5 102.5t-53.5 83t-82 55.5t-103 19.5t-102.5 -19.5t-81 -55.5t-53 -83t-19.5 -102.5t19.5 -102.5t53 -83t81 -55.5t102.5 -19.5zM147 661.5q0 131.5 66 227.5l-123 125q-14 14 0 28l76 80q14 14 29 0l124 -127
q104 70 229.5 70t229.5 -70l125 127q16 16 29 0l78 -80q14 -14 0 -28l-125 -125q65 -99 65 -225t-65 -228l125 -125q16 -16 0 -28l-76 -82q-16 -12 -29 0l-127 125q-97 -68 -228 -68q-132 0 -231 70l-124 -125q-12 -12 -29 0l-76 80q-12 16 0 28l123 123q-66 96 -66 227.5z
" />
    <glyph glyph-name="yen" unicode="&#xa5;" 
d="M489 0q-20 0 -20 20v271q0 12 -12 12h-258q-20 0 -21 21v86q0 20 21 20h258q12 0 12 12v105q0 12 -12 12h-258q-20 0 -21 21v86q0 20 21 20h221v4l-318 680q-12 23 15 23h139q23 0 29 -21l272 -610h6l264 610q8 20 29 21h137q25 0 15 -23l-318 -680v-4h221q20 0 21 -20
v-86q0 -20 -21 -21h-258q-12 0 -12 -12v-105q0 -12 12 -12h258q20 0 21 -20v-86q0 -20 -21 -21h-258q-12 0 -12 -12v-271q0 -20 -20 -20h-132z" />
    <glyph glyph-name="brokenbar" unicode="&#xa6;" horiz-adv-x="593" 
d="M244 -172q-20 0 -21 20v689q0 20 21 20h106q20 0 21 -20v-689q0 -20 -21 -20h-106zM244 795q-20 0 -21 20v680q0 20 21 21h106q20 0 21 -21v-680q0 -20 -21 -20h-106z" />
    <glyph glyph-name="section" unicode="&#xa7;" horiz-adv-x="1138" 
d="M569.5 289q98.5 0 157.5 58.5t59 169t-59 168.5t-157.5 58t-158 -58t-59.5 -168.5t59.5 -169t158 -58.5zM745 188q166 -78 166 -252q0 -154 -96.5 -240.5t-257.5 -86.5q-160 0 -245 79t-95 208q-4 20 14 22l119 27q18 4 23 -15q8 -176 188 -176q88 0 138.5 44t50.5 128
t-59.5 136t-209.5 84q-291 63 -291 370q0 115 52.5 204t152.5 124v2q-157 82 -157 248q0 144 94.5 232.5t245.5 88.5t238 -80.5t91 -195.5q0 -20 -14 -23l-117 -24q-10 -4 -16 1t-6 13q-4 72 -48 118t-127 46t-131.5 -42t-48.5 -124t56.5 -131t202.5 -84q290 -69 290 -373
q0 -117 -54 -204t-149 -122v-2z" />
    <glyph glyph-name="dieresis" unicode="&#xa8;" horiz-adv-x="862" 
d="M170 1202q-20 0 -20 21v149q0 20 20 21h121q20 0 20 -21v-149q0 -20 -20 -21h-121zM573 1202q-20 0 -20 21v149q0 20 20 21h121q20 0 21 -21v-149q0 -20 -21 -21h-121z" />
    <glyph glyph-name="copyright" unicode="&#xa9;" horiz-adv-x="1695" 
d="M530 627q0 187 29 275q29 89 110 143.5t185 54.5q186 0 279 -129q12 -16 -5 -29l-65 -59q-14 -10 -29 4q-31 41 -68.5 63.5t-97.5 22.5q-141 0 -184 -127q-14 -40 -14 -150t14 -149q43 -127 184 -127q103 0 166 86q14 14 29 4l65 -59q16 -12 5 -29q-93 -129 -279 -129
q-104 0 -214 73.5t-110 260.5zM1269.5 1119.5q-168.5 170.5 -421.5 170.5t-421.5 -170.5t-168.5 -423.5t169 -423.5t420 -170.5q253 0 422 170.5t169 423.5t-168.5 423.5zM847.5 -23q-151.5 0 -283.5 55.5t-228 152t-151.5 228.5t-55.5 283.5t55.5 282.5t151.5 228.5
t228 152.5t283.5 55t283 -55t228.5 -152.5t152.5 -228.5t55.5 -282.5t-55.5 -283.5t-152.5 -228.5t-228.5 -152t-283 -55.5z" />
    <glyph glyph-name="ordfeminine" unicode="&#xaa;" horiz-adv-x="702" 
d="M344 1057q-127 0 -127 -76t109 -76q143 0 143 94v45q0 12 -12 13h-113zM80 969q0 190 254 190h123q12 0 12 12v29q0 45 -29.5 65.5t-113.5 20.5t-140 -35q-18 -10 -28 4l-39 72q-12 16 4 29q83 53 225 53q143 0 200.5 -48t57.5 -159v-379q0 -20 -20 -20h-94q-20 0 -21 20
v35h-2q-52 -65 -180 -65q-86 0 -147.5 43t-61.5 133z" />
    <glyph glyph-name="guillemotleft" unicode="&#xab;" horiz-adv-x="1095" 
d="M512 940v-149q0 -20 -18 -41l-203 -201q-8 -8 0 -17l203 -200q18 -20 18 -41v-150q0 -10 -7 -12t-13 4l-388 393q-14 14 0 29l388 393q6 6 13 4t7 -12zM952 940v-149q0 -20 -18 -41l-203 -201q-8 -8 0 -17l203 -200q18 -20 18 -41v-150q0 -10 -7 -12t-13 4l-387 393
q-14 14 0 29l387 393q6 6 13 4t7 -12z" />
    <glyph glyph-name="logicalnot" unicode="&#xac;" 
d="M850 211q-20 0 -21 20v246q0 12 -12 12h-672q-20 0 -20 21v111q0 20 20 20h820q20 0 20 -20v-390q0 -20 -20 -20h-115z" />
    <glyph glyph-name="registered" unicode="&#xae;" horiz-adv-x="925" 
d="M489 1038q72 0 72 60t-72 61h-92q-8 0 -8 -8v-104q0 -8 8 -9h92zM639 1100q0 -92 -86 -121l88 -170q6 -14 -8 -14h-58q-12 0 -18 14l-82 160h-78q-8 0 -8 -8v-152q0 -14 -14 -14h-49q-14 0 -15 14v405q0 14 15 15h163q72 0 111 -34t39 -95zM462.5 684q69.5 0 128 24.5
t101.5 68.5t67.5 103.5t24.5 129t-24.5 129t-67.5 102.5t-101.5 67.5t-128 24.5t-128 -24.5t-101.5 -67.5t-67.5 -102.5t-24.5 -129t24.5 -129t67.5 -103.5t101.5 -68.5t128 -24.5zM185.5 728q-113.5 112 -113.5 280t113.5 280.5t279.5 112.5t277.5 -113.5t111.5 -279.5
q0 -167 -111.5 -279.5t-277.5 -112.5t-279.5 112z" />
    <glyph glyph-name="macron" unicode="&#xaf;" horiz-adv-x="862" 
d="M170 1231q-20 0 -20 20v92q0 20 20 21h522q20 0 21 -21v-92q0 -20 -21 -20h-522z" />
    <glyph glyph-name="degree" unicode="&#xb0;" horiz-adv-x="933" 
d="M467 920q82 0 134 54t52 138t-52 138.5t-134 54.5t-134 -54.5t-52 -138.5t52 -138t134 -54zM253 898q-85 85 -85 214t85 214t214 85t214 -85t85 -214t-85 -214t-214 -85t-214 85z" />
    <glyph glyph-name="plusminus" unicode="&#xb1;" 
d="M145 0q-20 0 -20 20v111q0 20 20 21h820q20 0 20 -21v-111q0 -20 -20 -20h-820zM498 274q-20 0 -21 21v323q0 12 -12 13h-320q-20 0 -20 20v111q0 20 20 20h320q12 0 12 13v323q0 20 21 21h114q20 0 21 -21v-323q0 -12 12 -13h320q20 0 20 -20v-111q0 -20 -20 -20h-320
q-12 0 -12 -13v-323q0 -20 -21 -21h-114z" />
    <glyph glyph-name="uni00B2" unicode="&#xb2;" horiz-adv-x="698" 
d="M106 881q-20 0 -20 20v84q0 16 14 29l306 346q63 64 63 122t-31.5 89t-85.5 31q-102 0 -125 -103q-4 -20 -22 -16l-92 20q-38 8 18 115.5t223 107.5q119 0 185.5 -69t66.5 -171t-90 -200l-250 -276v-4h324q20 0 20 -21v-84q0 -20 -20 -20h-484z" />
    <glyph glyph-name="uni00B3" unicode="&#xb3;" horiz-adv-x="698" 
d="M600 1492q0 -107 -94 -171v-2q37 -16 74.5 -67.5t37.5 -131.5q0 -117 -72 -185.5t-186 -68.5q-236 0 -280 178q-6 20 12 25l92 25q16 2 25 -15q16 -35 51 -61.5t91 -26.5t93 36t37 92t-37.5 91t-103.5 35h-39q-20 0 -20 21v84q0 20 20 20h31q59 0 94 32t35 85t-32 84
t-87 31t-82 -21.5t-43 -54.5q-6 -18 -24 -15l-87 21q-18 2 -14 24q16 70 78.5 120t178.5 50t183.5 -63.5t67.5 -170.5z" />
    <glyph glyph-name="acute" unicode="&#xb4;" horiz-adv-x="862" 
d="M276 1141q-23 0 -12 20l156 252q12 20 35 21h135q10 0 13 -6.5t-3 -14.5l-188 -252q-16 -20 -39 -20h-97z" />
    <glyph glyph-name="mu" unicode="&#xb5;" horiz-adv-x="1118" 
d="M340 53v-401q0 -20 -21 -21h-131q-20 0 -20 21v1309q0 20 20 20h131q20 0 21 -20v-582q0 -115 54.5 -178.5t158.5 -63.5t164.5 64.5t60.5 177.5v582q0 20 21 20h131q20 0 20 -20v-941q0 -20 -20 -20h-131q-20 0 -21 20v93h-2q-67 -136 -262 -136q-107 0 -170 76h-4z" />
    <glyph glyph-name="paragraph" unicode="&#xb6;" horiz-adv-x="1234" 
d="M924 -369q-20 0 -21 21v1577q0 12 -12 12h-172q-12 0 -12 -12v-1577q0 -20 -21 -21h-111q-20 0 -20 21v885q-184 12 -292.5 130t-108.5 301.5t122.5 304t333.5 120.5h424q20 0 21 -21v-1720q0 -20 -21 -21h-110z" />
    <glyph glyph-name="periodcentered" unicode="&#xb7;" horiz-adv-x="483" 
d="M164 434q-20 0 -21 21v176q0 20 21 20h155q20 0 21 -20v-176q0 -20 -21 -21h-155z" />
    <glyph glyph-name="cedilla" unicode="&#xb8;" horiz-adv-x="862" 
d="M322 -311q-20 0 -15 20l117 291q8 20 27 20h96q20 0 14 -20l-94 -291q-6 -20 -33 -20h-112z" />
    <glyph glyph-name="uni00B9" unicode="&#xb9;" horiz-adv-x="698" 
d="M354 881q-20 0 -20 20v645h-4l-135 -90q-21 -10 -21 12v109q0 20 16 31l134 90q16 14 32 14h95q20 0 20 -20v-791q0 -20 -20 -20h-97z" />
    <glyph glyph-name="ordmasculine" unicode="&#xba;" horiz-adv-x="718" 
d="M223.5 1097.5q-1.5 -182.5 134.5 -182.5t137.5 182.5t-137.5 182.5q-133 0 -134.5 -182.5zM78 1097.5q0 311.5 282 311.5t282 -311.5t-282 -311.5t-282 311.5z" />
    <glyph glyph-name="guillemotright" unicode="&#xbb;" horiz-adv-x="1095" 
d="M143 141v150q0 20 19 41l203 200q8 8 0 17l-203 201q-18 20 -19 41v149q0 10 7.5 12t13.5 -4l387 -393q14 -14 0 -29l-387 -393q-6 -6 -13.5 -4t-7.5 12zM584 141v150q0 20 18 41l203 200q8 8 0 17l-203 201q-18 20 -18 41v149q0 10 7 12t13 -4l387 -393q14 -14 0 -29
l-387 -393q-6 -6 -13 -4t-7 12z" />
    <glyph glyph-name="onequarter" unicode="&#xbc;" horiz-adv-x="1710" 
d="M367 -23q-22 0 -11 21l807 1397q12 20 31 20h96q23 0 13 -20l-809 -1397q-13 -21 -31 -21h-96zM1319 0q-20 0 -21 20v105q0 12 -12 12h-332q-20 0 -20 21v82q0 16 8 32l262 539q10 20 29 20h106q23 0 13 -20l-262 -547v-2h196q12 0 12 12v183q0 20 21 20h92q20 0 21 -20
v-183q0 -12 12 -12h53q20 0 21 -20v-84q0 -20 -21 -21h-53q-12 0 -12 -12v-105q0 -20 -21 -20h-92zM373 561q-20 0 -21 21v645h-4l-135 -90q-20 -10 -20 12v108q0 20 16 31l133 90q16 14 33 15h94q20 0 20 -21v-790q0 -20 -20 -21h-96z" />
    <glyph glyph-name="onehalf" unicode="&#xbd;" horiz-adv-x="1781" 
d="M367 -23q-22 0 -11 21l807 1397q12 20 31 20h96q23 0 13 -20l-809 -1397q-13 -21 -31 -21h-96zM1085 0q-20 0 -20 20v84q0 16 14 29l305 346q64 64 64 122t-32 89t-85 31q-102 0 -125 -103q-4 -20 -22 -16l-92 21q-37 7 4.5 88t108.5 108t128 27q119 0 185.5 -69
t66.5 -171t-90 -200l-250 -277v-4h324q20 0 20 -21v-84q0 -20 -20 -20h-484zM373 561q-20 0 -21 21v645h-4l-135 -90q-20 -10 -20 12v108q0 20 16 31l133 90q16 14 33 15h94q20 0 20 -21v-790q0 -20 -20 -21h-96z" />
    <glyph glyph-name="threequarters" unicode="&#xbe;" horiz-adv-x="1855" 
d="M715 1173q0 -107 -94 -172v-2q37 -16 74.5 -67t37.5 -131q0 -117 -71.5 -185.5t-185.5 -68.5q-236 0 -281 178q-6 20 12 25l92 24q16 2 25 -14q16 -35 51 -61.5t91 -26.5t93 36t37 92t-38 91t-103 35h-39q-20 0 -21 20v84q0 20 21 21h30q59 0 94 31.5t35 85t-31.5 84
t-86.5 30.5t-82 -21.5t-43 -54.5q-6 -18 -25 -14l-86 20q-18 2 -14 25q16 70 78.5 120t178.5 50t183.5 -63.5t67.5 -170.5zM514 -23q-20 0 -10 21l807 1397q12 20 30 20h97q22 0 12 -20l-809 -1397q-13 -21 -31 -21h-96zM1464 0q-20 0 -20 20v105q0 12 -12 12h-332
q-20 0 -21 21v82q0 16 8 32l263 539q10 20 28 20h107q23 0 12 -20l-262 -547v-2h197q12 0 12 12v183q0 20 20 20h92q20 0 21 -20v-183q0 -12 12 -12h53q20 0 21 -20v-84q0 -20 -21 -21h-53q-12 0 -12 -12v-105q0 -20 -21 -20h-92z" />
    <glyph glyph-name="questiondown" unicode="&#xbf;" horiz-adv-x="933" 
d="M575 784q0 -20 -20 -20h-156q-20 0 -20 20v177q0 20 20 20h156q20 0 20 -20v-177zM545 608q20 0 20 -20v-84q0 -61 -14 -100t-47 -85l-137 -188q-53 -74 -75 -119t-22 -96q0 -88 55.5 -139t142.5 -51q177 0 214 194q4 20 23 17l129 -23q20 -4 16 -23q-23 -147 -124 -236
t-263 -89t-265.5 96t-103.5 252q0 74 25.5 134.5t79.5 131.5l137 189q43 61 48 94t5 59v66q0 20 21 20h135z" />
    <glyph glyph-name="Agrave" unicode="&#xc0;" horiz-adv-x="1243" 
d="M567 1561q-20 0 -37 18l-219 219q-8 8 -5 14.5t13 6.5h144q23 0 39 -21l174 -217q8 -8 5 -14t-13 -6h-101zM844 492l-219 632h-4l-222 -632h445zM690 1393q20 0 27 -21l477 -1352q6 -20 -14 -20h-144q-20 0 -26 20l-107 304h-563l-107 -304q-8 -20 -26 -20h-144
q-20 0 -14 20l483 1352q6 20 25 21h133z" />
    <glyph glyph-name="Aacute" unicode="&#xc1;" horiz-adv-x="1243" 
d="M575 1561q-23 0 -8 20l176 217q17 21 37 21h144q10 0 13 -6.5t-3 -14.5l-219 -219q-15 -18 -37 -18h-103zM844 492l-219 632h-4l-222 -632h445zM690 1393q20 0 27 -21l477 -1352q6 -20 -14 -20h-144q-20 0 -26 20l-107 304h-563l-107 -304q-8 -20 -26 -20h-144
q-20 0 -14 20l483 1352q6 20 25 21h133z" />
    <glyph glyph-name="Acircumflex" unicode="&#xc2;" horiz-adv-x="1243" 
d="M791 1544q-20 0 -39 21l-129 143h-5l-131 -143q-18 -21 -38 -21h-93q-22 0 -8 21l195 252q14 20 32 20h89q18 0 32 -20l195 -252q6 -8 4 -14.5t-12 -6.5h-92zM844 492l-219 632h-4l-222 -632h445zM690 1393q20 0 27 -21l477 -1352q6 -20 -14 -20h-144q-20 0 -26 20
l-107 304h-563l-107 -304q-8 -20 -26 -20h-144q-20 0 -14 20l483 1352q6 20 25 21h133z" />
    <glyph glyph-name="Atilde" unicode="&#xc3;" horiz-adv-x="1243" 
d="M872 1638q-67 -67 -130 -67q-63 -1 -115 29t-76.5 40.5t-69.5 10.5t-114 -66q-6 -6 -11.5 -4t-5.5 8v99q0 41 56.5 71.5t96.5 30.5q52 0 125 -39t126 -39q52 0 116 66q6 6 11.5 4t5.5 -10v-99q0 -20 -15 -35zM844 492l-219 632h-4l-222 -632h445zM690 1393q20 0 27 -21
l477 -1352q6 -20 -14 -20h-144q-20 0 -26 20l-107 304h-563l-107 -304q-8 -20 -26 -20h-144q-20 0 -14 20l483 1352q6 20 25 21h133z" />
    <glyph glyph-name="Adieresis" unicode="&#xc4;" horiz-adv-x="1243" 
d="M356 1591q-20 0 -20 21v147q0 20 20 21h115q20 0 21 -21v-147q0 -20 -21 -21h-115zM766 1591q-20 0 -21 21v147q0 20 21 21h115q20 0 20 -21v-147q0 -20 -20 -21h-115zM844 492l-219 632h-4l-222 -632h445zM690 1393q20 0 27 -21l477 -1352q6 -20 -14 -20h-144
q-20 0 -26 20l-107 304h-563l-107 -304q-8 -20 -26 -20h-144q-20 0 -14 20l483 1352q6 20 25 21h133z" />
    <glyph glyph-name="Aring" unicode="&#xc5;" horiz-adv-x="1243" 
d="M620.5 1577q45.5 0 75 30.5t29.5 78t-29.5 78t-75 30.5t-75 -30.5t-29.5 -78t29.5 -78t75 -30.5zM620.5 1493q-81.5 0 -138 54.5t-56.5 138t56.5 138t138 54.5t138 -54.5t56.5 -138t-56.5 -138t-138 -54.5zM844 492l-219 632h-4l-222 -632h445zM690 1393q20 0 27 -21
l477 -1352q6 -20 -14 -20h-144q-20 0 -26 20l-107 304h-563l-107 -304q-8 -20 -26 -20h-144q-20 0 -14 20l483 1352q6 20 25 21h133z" />
    <glyph glyph-name="AE" unicode="&#xc6;" horiz-adv-x="1910" 
d="M918 492q12 0 12 12v717h-4l-408 -729h400zM950 0q-20 0 -20 20v291q0 12 -12 13h-494l-168 -304q-12 -20 -29 -20h-164q-23 0 -12 20l756 1354q8 18 29 19h950q20 0 20 -21v-129q0 -20 -20 -20h-662q-12 0 -12 -13v-409q0 -12 12 -13h564q20 0 20 -20v-129
q0 -20 -20 -21h-564q-12 0 -12 -12v-424q0 -12 12 -12h662q20 0 20 -20v-130q0 -20 -20 -20h-836z" />
    <glyph glyph-name="Ccedilla" unicode="&#xc7;" horiz-adv-x="1159" 
d="M451 -311q-20 0 -15 20l109 273q-296 42 -385 323q-30 93 -33.5 199t-3.5 231.5t7 204.5t30 147q105 328 463 328q156 0 271.5 -72.5t174.5 -207.5q6 -18 -8 -27l-123 -59q-20 -10 -29 10q-93 186 -286 186q-217 0 -289 -205q-27 -104 -27 -295.5t6 -265t21 -127.5
q73 -205 289 -205q111 0 178 52.5t108 134.5q8 20 29 10l123 -59q14 -8 8 -27q-53 -117 -151.5 -189.5t-233.5 -88.5l-88 -271q-6 -20 -33 -20h-112z" />
    <glyph glyph-name="Egrave" unicode="&#xc8;" horiz-adv-x="1153" 
d="M172 1372q0 20 21 21h837q20 0 21 -21v-129q0 -20 -21 -20h-663q-12 0 -13 -13v-409q0 -12 13 -13h563q20 0 20 -20v-129q0 -20 -20 -21h-563q-12 0 -13 -12v-424q0 -12 13 -12h663q20 0 21 -20v-130q0 -20 -21 -20h-837q-20 0 -21 20v1352zM598 1561q-22 0 -37 18
l-219 219q-8 8 -5 14.5t13 6.5h144q23 0 38 -21l175 -217q8 -8 5 -14t-14 -6h-100z" />
    <glyph glyph-name="Eacute" unicode="&#xc9;" horiz-adv-x="1153" 
d="M172 1372q0 20 21 21h837q20 0 21 -21v-129q0 -20 -21 -20h-663q-12 0 -13 -13v-409q0 -12 13 -13h563q20 0 20 -20v-129q0 -20 -20 -21h-563q-12 0 -13 -12v-424q0 -12 13 -12h663q20 0 21 -20v-130q0 -20 -21 -20h-837q-20 0 -21 20v1352zM502 1561q-10 0 -12.5 6
t4.5 14l176 217q17 21 37 21h143q10 0 13 -6.5t-3 -14.5l-219 -219q-15 -18 -37 -18h-102z" />
    <glyph glyph-name="Ecircumflex" unicode="&#xca;" horiz-adv-x="1153" 
d="M782 1544q-20 0 -39 21l-129 143h-4l-131 -143q-18 -21 -39 -21h-92q-22 0 -8 21l195 252q14 20 32 20h88q18 0 33 -20l195 -252q6 -8 4 -14.5t-13 -6.5h-92zM172 1372q0 20 21 21h837q20 0 21 -21v-129q0 -20 -21 -20h-663q-12 0 -13 -13v-409q0 -12 13 -13h563
q20 0 20 -20v-129q0 -20 -20 -21h-563q-12 0 -13 -12v-424q0 -12 13 -12h663q20 0 21 -20v-130q0 -20 -21 -20h-837q-20 0 -21 20v1352z" />
    <glyph glyph-name="Edieresis" unicode="&#xcb;" horiz-adv-x="1153" 
d="M172 1372q0 20 21 21h837q20 0 21 -21v-129q0 -20 -21 -20h-663q-12 0 -13 -13v-409q0 -12 13 -13h563q20 0 20 -20v-129q0 -20 -20 -21h-563q-12 0 -13 -12v-424q0 -12 13 -12h663q20 0 21 -20v-130q0 -20 -21 -20h-837q-20 0 -21 20v1352zM342 1591q-20 0 -20 21v147
q0 20 20 21h115q20 0 20 -21v-147q0 -20 -20 -21h-115zM752 1591q-20 0 -21 21v147q0 20 21 21h114q20 0 21 -21v-147q0 -20 -21 -21h-114z" />
    <glyph glyph-name="Igrave" unicode="&#xcc;" horiz-adv-x="526" 
d="M217 1561q-22 0 -37 18l-219 219q-8 8 -5 14.5t13 6.5h144q23 0 39 -21l174 -217q8 -8 5 -14t-14 -6h-100zM172 1372q0 20 21 21h141q20 0 20 -21v-1352q0 -20 -20 -20h-141q-20 0 -21 20v1352z" />
    <glyph glyph-name="Iacute" unicode="&#xcd;" horiz-adv-x="526" 
d="M217 1561q-23 0 -8 20l176 217q17 21 37 21h143q10 0 13.5 -6.5t-3.5 -14.5l-219 -219q-15 -18 -37 -18h-102zM172 1372q0 20 21 21h141q20 0 20 -21v-1352q0 -20 -20 -20h-141q-20 0 -21 20v1352z" />
    <glyph glyph-name="Icircumflex" unicode="&#xce;" horiz-adv-x="526" 
d="M436 1544q-20 0 -39 21l-129 143h-4l-131 -143q-18 -21 -39 -21h-92q-22 0 -8 21l194 252q14 20 33 20h88q18 0 33 -20l195 -252q6 -8 4 -14.5t-13 -6.5h-92zM172 1372q0 20 21 21h141q20 0 20 -21v-1352q0 -20 -20 -20h-141q-20 0 -21 20v1352z" />
    <glyph glyph-name="Idieresis" unicode="&#xcf;" horiz-adv-x="526" 
d="M2 1591q-20 0 -20 21v147q0 20 20 21h115q20 0 20 -21v-147q0 -20 -20 -21h-115zM412 1591q-20 0 -21 21v147q0 20 21 21h114q20 0 21 -21v-147q0 -20 -21 -21h-114zM172 1372q0 20 21 21h141q20 0 20 -21v-1352q0 -20 -20 -20h-141q-20 0 -21 20v1352z" />
    <glyph glyph-name="Eth" unicode="&#xd0;" horiz-adv-x="1273" 
d="M623 170q127 0 224 55t109.5 188.5t12.5 283t-12 282t-109.5 188.5t-224.5 56h-256q-12 0 -13 -13v-419q0 -12 13 -13h231q20 0 20 -20v-107q0 -20 -20 -20h-231q-12 0 -13 -13v-436q0 -12 13 -12h256zM193 0q-20 0 -21 20v598q0 12 -12 13h-66q-20 0 -20 20v107
q0 20 20 20h66q12 0 12 13v581q0 20 21 21h469q358 0 454 -297q31 -112 34 -210t3 -235.5t-7.5 -206t-29.5 -147.5q-96 -297 -454 -297h-469z" />
    <glyph glyph-name="Ntilde" unicode="&#xd1;" horiz-adv-x="1339" 
d="M172 1372q0 20 21 21h131q25 0 34 -21l631 -1044h8v1044q0 20 21 21h129q20 0 20 -21v-1352q0 -20 -20 -20h-131q-25 0 -35 20l-633 1041h-6v-1041q0 -20 -20 -20h-129q-20 0 -21 20v1352zM922 1638q-67 -67 -131 -67q-64 -1 -115 29q-52 30 -76.5 40.5t-69.5 10.5
t-114 -66q-6 -6 -11.5 -4t-5.5 8v99q0 41 56.5 71.5t96.5 30.5q52 0 125 -39t125 -39t118 66q6 6 11 4t5 -10v-99q0 -20 -14 -35z" />
    <glyph glyph-name="Ograve" unicode="&#xd2;" horiz-adv-x="1267" 
d="M930 354q31 93 31 342.5t-32 345.5q-67 204 -336 203.5t-277.5 -237t-8.5 -396.5t31 -258q68 -207 296 -207t296 207zM634 -23q-177 0 -310 89.5t-167 237t-34 352.5t16 381t167 277t328 101t310.5 -89.5t167 -237.5t33.5 -352.5t-16 -380t-167 -277t-328 -101.5z
M618 1561q-21 0 -36 18l-220 219q-8 8 -5 14.5t14 6.5h143q23 0 39 -21l174 -217q8 -8 5 -14t-13 -6h-101z" />
    <glyph glyph-name="Oacute" unicode="&#xd3;" horiz-adv-x="1267" 
d="M930 354q31 93 31 342.5t-32 345.5q-67 204 -336 203.5t-277.5 -237t-8.5 -396.5t31 -258q68 -207 296 -207t296 207zM634 -23q-177 0 -310 89.5t-167 237t-34 352.5t16 381t167 277t328 101t310.5 -89.5t167 -237.5t33.5 -352.5t-16 -380t-167 -277t-328 -101.5z
M547 1561q-10 0 -12.5 6t4.5 14l176 217q17 21 37 21h143q10 0 13 -6.5t-3 -14.5l-219 -219q-15 -18 -37 -18h-102z" />
    <glyph glyph-name="Ocircumflex" unicode="&#xd4;" horiz-adv-x="1267" 
d="M803 1544q-20 0 -39 21l-129 143h-4l-131 -143q-18 -21 -39 -21h-92q-23 0 -9 21l195 252q14 20 33 20h88q18 0 33 -20l194 -252q6 -8 4 -14.5t-12 -6.5h-92zM930 354q31 93 31 342.5t-32 345.5q-67 204 -336 203.5t-277.5 -237t-8.5 -396.5t31 -258q68 -207 296 -207
t296 207zM634 -23q-177 0 -310 89.5t-167 237t-34 352.5t16 381t167 277t328 101t310.5 -89.5t167 -237.5t33.5 -352.5t-16 -380t-167 -277t-328 -101.5z" />
    <glyph glyph-name="Otilde" unicode="&#xd5;" horiz-adv-x="1267" 
d="M930 354q31 93 31 342.5t-32 345.5q-67 204 -336 203.5t-277.5 -237t-8.5 -396.5t31 -258q68 -207 296 -207t296 207zM634 -23q-177 0 -310 89.5t-167 237t-34 352.5t16 381t167 277t328 101t310.5 -89.5t167 -237.5t33.5 -352.5t-16 -380t-167 -277t-328 -101.5z
M885 1638q-67 -67 -131 -67q-64 -1 -115 29q-52 30 -76 40.5t-69 10.5t-115 -66q-6 -6 -11.5 -4t-5.5 8v99q0 41 56.5 71.5t96.5 30.5q52 0 125 -39t125 -39t118 66q6 6 11 4t5 -10v-99q0 -20 -14 -35z" />
    <glyph glyph-name="Odieresis" unicode="&#xd6;" horiz-adv-x="1267" 
d="M930 354q31 93 31 342.5t-32 345.5q-67 204 -336 203.5t-277.5 -237t-8.5 -396.5t31 -258q68 -207 296 -207t296 207zM634 -23q-177 0 -310 89.5t-167 237t-34 352.5t16 381t167 277t328 101t310.5 -89.5t167 -237.5t33.5 -352.5t-16 -380t-167 -277t-328 -101.5z
M371 1591q-20 0 -21 21v147q0 20 21 21h114q20 0 21 -21v-147q0 -20 -21 -21h-114zM780 1591q-20 0 -20 21v147q0 20 20 21h115q20 0 20 -21v-147q0 -20 -20 -21h-115z" />
    <glyph glyph-name="multiply" unicode="&#xd7;" 
d="M844 199q-14 -14 -29 0l-252 247q-8 8 -16 0l-250 -247q-14 -14 -29 0l-78 80q-14 14 0 28l250 250q8 8 0 16l-250 250q-14 14 0 29l78 80q14 14 29 0l250 -248q8 -10 18 0l250 248q14 14 29 0l76 -80q14 -14 0 -29l-250 -248q-10 -10 0 -18l250 -250q14 -14 0 -28z" />
    <glyph glyph-name="Oslash" unicode="&#xd8;" horiz-adv-x="1267" 
d="M627 147q235 0 303 207q31 93 31 334t-15.5 295.5t-27.5 85.5l-496 -852q82 -70 205 -70zM314 460q7 -76 34 -138l496 854q-82 70 -205 70q-315 -1 -323.5 -237.5t-8.5 -354.5t7 -194zM145 -61q-22 0 -12 20l109 186q-95 118 -107 252t-12 299t16 341t167 277t330 101
t302 -86l61 107q10 18 31 18h92q21 0 11 -20l-109 -187q97 -126 109 -256t12 -295t-16 -340.5t-167 -277t-332 -101.5t-300 86l-62 -106q-10 -18 -30 -18h-93z" />
    <glyph glyph-name="Ugrave" unicode="&#xd9;" horiz-adv-x="1308" 
d="M654 -23q-230 0 -361 130.5t-131 377.5v887q0 20 20 21h142q20 0 20 -21v-885q0 -170 85 -255t225 -85t225.5 85t85.5 255v885q0 20 20 21h141q20 0 21 -21v-887q0 -248 -131.5 -378t-361.5 -130zM635 1561q-22 0 -37 18l-219 219q-8 8 -5 14.5t13 6.5h143q23 0 39 -21
l174 -217q8 -8 5 -14t-13 -6h-100z" />
    <glyph glyph-name="Uacute" unicode="&#xda;" horiz-adv-x="1308" 
d="M654 -23q-230 0 -361 130.5t-131 377.5v887q0 20 20 21h142q20 0 20 -21v-885q0 -170 85 -255t225 -85t225.5 85t85.5 255v885q0 20 20 21h141q20 0 21 -21v-887q0 -248 -131.5 -378t-361.5 -130zM571 1561q-23 0 -8 20l176 217q17 21 37 21h144q10 0 13 -6.5t-3 -14.5
l-219 -219q-15 -18 -37 -18h-103z" />
    <glyph glyph-name="Ucircumflex" unicode="&#xdb;" horiz-adv-x="1308" 
d="M823 1544q-20 0 -39 21l-129 143h-4l-131 -143q-18 -21 -39 -21h-92q-22 0 -8 21l194 252q14 20 33 20h88q18 0 33 -20l195 -252q6 -8 4 -14.5t-13 -6.5h-92zM654 -23q-230 0 -361 130.5t-131 377.5v887q0 20 20 21h142q20 0 20 -21v-885q0 -170 85 -255t225 -85
t225.5 85t85.5 255v885q0 20 20 21h141q20 0 21 -21v-887q0 -248 -131.5 -378t-361.5 -130z" />
    <glyph glyph-name="Udieresis" unicode="&#xdc;" horiz-adv-x="1308" 
d="M654 -23q-230 0 -361 130.5t-131 377.5v887q0 20 20 21h142q20 0 20 -21v-885q0 -170 85 -255t225 -85t225.5 85t85.5 255v885q0 20 20 21h141q20 0 21 -21v-887q0 -248 -131.5 -378t-361.5 -130zM391 1591q-20 0 -20 21v147q0 20 20 21h115q20 0 20 -21v-147
q0 -20 -20 -21h-115zM801 1591q-20 0 -21 21v147q0 20 21 21h114q20 0 21 -21v-147q0 -20 -21 -21h-114z" />
    <glyph glyph-name="Yacute" unicode="&#xdd;" horiz-adv-x="1077" 
d="M471 1561q-23 0 -8 20l176 217q17 21 37 21h143q10 0 13.5 -6.5t-3.5 -14.5l-219 -219q-15 -18 -37 -18h-102zM469 0q-20 0 -20 20v549l-412 801q-8 23 16 23h146q18 0 30 -21l312 -596h4l309 596q8 20 29 21h141q25 0 16 -23l-411 -801v-549q0 -20 -21 -20h-139z" />
    <glyph glyph-name="Thorn" unicode="&#xde;" horiz-adv-x="1212" 
d="M678 473q129 0 200.5 65.5t71.5 180.5t-71.5 180.5t-200.5 65.5h-311q-12 0 -13 -13v-467q0 -12 13 -12h311zM193 0q-20 0 -21 20v1352q0 20 21 21h141q20 0 20 -21v-225q0 -12 13 -12h321q200 0 321 -113.5t121 -302t-120 -302.5t-322 -114h-321q-12 0 -13 -12v-271
q0 -20 -20 -20h-141z" />
    <glyph glyph-name="germandbls" unicode="&#xdf;" horiz-adv-x="1103" 
d="M580 -8q-20 0 -21 20v119q0 20 21 21h41q74 0 117.5 22.5t64.5 81.5q2 10 5 23.5t5 57t2 107.5q0 84 -4 175.5t-66.5 125t-142.5 33.5h-22q-20 0 -21 21v119q0 20 21 20h41q92 0 135 37t43 118q0 164 -219 164q-129 0 -184.5 -57t-55.5 -186v-994q0 -20 -21 -20h-131
q-20 0 -20 20v988q0 301 148.5 354t258.5 53q195 0 295.5 -83.5t100.5 -239.5t-129 -226v-4q90 -42 125 -139q19 -62 20.5 -134.5t1.5 -132.5q0 -108 -12.5 -233t-113.5 -178t-238 -53h-45z" />
    <glyph glyph-name="agrave" unicode="&#xe0;" horiz-adv-x="1062" 
d="M551 1141q-25 0 -39 20l-188 252q-6 8 -3 14.5t13 6.5h135q25 0 37 -21l153 -252q10 -20 -12 -20h-96zM285 279q-1 -154 213 -154q108 0 173.5 50t65.5 142v109q0 12 -12 12h-197q-129 0 -186 -38t-57 -121zM762 0q-20 0 -21 20v86h-2q-35 -55 -106.5 -92t-162.5 -37
q-168 0 -259.5 77t-91.5 225q0 149 101.5 222.5t281.5 73.5h223q12 0 12 13v71q0 102 -49.5 147.5t-159.5 45.5t-166 -20t-86 -42t-40 -6l-56 95q-8 16 4 28q124 97 334 97q209 0 297 -77t88 -257v-650q0 -20 -20 -20h-121z" />
    <glyph glyph-name="aacute" unicode="&#xe1;" horiz-adv-x="1062" 
d="M461 1141q-23 0 -12 20l155 252q12 20 35 21h135q10 0 13.5 -6.5t-3.5 -14.5l-188 -252q-16 -20 -39 -20h-96zM285 279q-1 -154 213 -154q108 0 173.5 50t65.5 142v109q0 12 -12 12h-197q-129 0 -186 -38t-57 -121zM762 0q-20 0 -21 20v86h-2q-35 -55 -106.5 -92
t-162.5 -37q-168 0 -259.5 77t-91.5 225q0 149 101.5 222.5t281.5 73.5h223q12 0 12 13v71q0 102 -49.5 147.5t-159.5 45.5t-166 -20t-86 -42t-40 -6l-56 95q-8 16 4 28q124 97 334 97q209 0 297 -77t88 -257v-650q0 -20 -20 -20h-121z" />
    <glyph glyph-name="acircumflex" unicode="&#xe2;" horiz-adv-x="1062" 
d="M700 1141q-20 0 -38 20l-130 144h-4l-131 -144q-17 -20 -39 -20h-92q-23 0 -8 20l195 252q14 20 32 21h88q18 0 33 -21l195 -252q15 -20 -8 -20h-93zM285 279q-1 -154 213 -154q108 0 173.5 50t65.5 142v109q0 12 -12 12h-197q-129 0 -186 -38t-57 -121zM762 0
q-20 0 -21 20v86h-2q-35 -55 -106.5 -92t-162.5 -37q-168 0 -259.5 77t-91.5 225q0 149 101.5 222.5t281.5 73.5h223q12 0 12 13v71q0 102 -49.5 147.5t-159.5 45.5t-166 -20t-86 -42t-40 -6l-56 95q-8 16 4 28q124 97 334 97q209 0 297 -77t88 -257v-650q0 -20 -20 -20
h-121z" />
    <glyph glyph-name="atilde" unicode="&#xe3;" horiz-adv-x="1062" 
d="M782 1245q-65 -65 -129 -65t-116 30t-76.5 40t-69.5 10t-115 -66q-6 -6 -11 -4t-5 8v98q0 43 56.5 73t104.5 30q48 1 99 -29q52 -30 77 -40.5t69 -10.5t114 65q6 6 11.5 4t5.5 -8v-98q0 -23 -15 -37zM285 279q-1 -154 213 -154q108 0 173.5 50t65.5 142v109q0 12 -12 12
h-197q-129 0 -186 -38t-57 -121zM762 0q-20 0 -21 20v86h-2q-35 -55 -106.5 -92t-162.5 -37q-168 0 -259.5 77t-91.5 225q0 149 101.5 222.5t281.5 73.5h223q12 0 12 13v71q0 102 -49.5 147.5t-159.5 45.5t-166 -20t-86 -42t-40 -6l-56 95q-8 16 4 28q124 97 334 97
q209 0 297 -77t88 -257v-650q0 -20 -20 -20h-121z" />
    <glyph glyph-name="adieresis" unicode="&#xe4;" horiz-adv-x="1062" 
d="M266 1202q-20 0 -20 21v149q0 20 20 21h121q20 0 21 -21v-149q0 -20 -21 -21h-121zM670 1202q-20 0 -21 21v149q0 20 21 21h121q20 0 20 -21v-149q0 -20 -20 -21h-121zM285 279q-1 -154 213 -154q108 0 173.5 50t65.5 142v109q0 12 -12 12h-197q-129 0 -186 -38t-57 -121
zM762 0q-20 0 -21 20v86h-2q-35 -55 -106.5 -92t-162.5 -37q-168 0 -259.5 77t-91.5 225q0 149 101.5 222.5t281.5 73.5h223q12 0 12 13v71q0 102 -49.5 147.5t-159.5 45.5t-166 -20t-86 -42t-40 -6l-56 95q-8 16 4 28q124 97 334 97q209 0 297 -77t88 -257v-650
q0 -20 -20 -20h-121z" />
    <glyph glyph-name="aring" unicode="&#xe5;" horiz-adv-x="1062" 
d="M539 1180q45 0 74.5 30.5t29.5 77.5t-29.5 78t-74.5 31t-75 -31t-30 -78t30 -77.5t75 -30.5zM539 1096q-82 0 -138.5 54t-56.5 138t56.5 138.5t138.5 54.5t138 -54.5t56 -138.5t-56 -138t-138 -54zM285 279q-1 -154 213 -154q108 0 173.5 50t65.5 142v109q0 12 -12 12
h-197q-129 0 -186 -38t-57 -121zM762 0q-20 0 -21 20v86h-2q-35 -55 -106.5 -92t-162.5 -37q-168 0 -259.5 77t-91.5 225q0 149 101.5 222.5t281.5 73.5h223q12 0 12 13v71q0 102 -49.5 147.5t-159.5 45.5t-166 -20t-86 -42t-40 -6l-56 95q-8 16 4 28q124 97 334 97
q209 0 297 -77t88 -257v-650q0 -20 -20 -20h-121z" />
    <glyph glyph-name="ae" unicode="&#xe6;" horiz-adv-x="1667" 
d="M285 279q-1 -154 213 -154q108 0 173.5 50t65.5 142v109q0 12 -12 12h-197q-129 0 -186 -38t-57 -121zM1370 575q12 0 12 13q0 68 -20 126t-77.5 98t-141.5 40t-142.5 -40t-77.5 -98t-20 -126q0 -12 12 -13h455zM1559 459q0 -20 -23 -21h-621q-12 0 -12 -12
q0 -72 17 -119q57 -170 247 -170q157 0 252 109q16 16 31 4l84 -76q14 -12 2 -29q-59 -74 -156.5 -121t-224.5 -47q-235 0 -342 173h-2q-86 -173 -362 -173q-228 0 -279 111t-51 184q0 156 101.5 229.5t281.5 73.5h223q12 0 12 13v71q0 102 -49.5 147.5t-159.5 45.5
t-166 -20t-86 -42t-40 -6l-56 95q-8 16 4 28q124 97 334 97q260 0 326 -132h4q94 132 295 132q143 0 262.5 -82t136.5 -223.5t17 -239.5z" />
    <glyph glyph-name="ccedilla" unicode="&#xe7;" horiz-adv-x="966" 
d="M449 -16q-340 49 -340 508q-1 151 35 263q36 113 138.5 181t229.5 68q236 0 350 -166q10 -16 -6 -29l-90 -74q-16 -12 -29 2q-43 53 -90 80t-124 27q-207 0 -222.5 -143.5t-16 -241t23.5 -171.5q47 -151 218 -151q74 0 121 26.5t90 80.5q12 14 29 2l90 -74q16 -12 6 -29
q-98 -138 -274 -161l-88 -273q-6 -20 -33 -20h-113q-20 0 -14 20z" />
    <glyph glyph-name="egrave" unicode="&#xe8;" horiz-adv-x="1048" 
d="M512 1141q-25 0 -39 20l-188 252q-6 8 -3 14.5t13 6.5h135q25 0 37 -21l154 -252q10 -20 -13 -20h-96zM752 575q12 0 12 13q0 68 -20 126t-78 98t-142 40t-161.5 -53.5t-77.5 -210.5q0 -12 12 -13h455zM127.5 272.5q-18.5 133.5 -18.5 258t30 208.5q41 129 142.5 197
t243 68t271 -88.5t137 -245t7.5 -211.5q0 -20 -22 -21h-621q-12 0 -12 -12q0 -175 86 -232t176 -57q159 0 254 109q16 16 30 4l84 -76q14 -12 3 -29q-134 -168 -394 -168q-140 0 -259 81t-137.5 214.5z" />
    <glyph glyph-name="eacute" unicode="&#xe9;" horiz-adv-x="1048" 
d="M752 575q12 0 12 13q0 68 -20 126t-78 98t-142 40t-161.5 -53.5t-77.5 -210.5q0 -12 12 -13h455zM127.5 272.5q-18.5 133.5 -18.5 258t30 208.5q41 129 142.5 197t243 68t271 -88.5t137 -245t7.5 -211.5q0 -20 -22 -21h-621q-12 0 -12 -12q0 -175 86 -232t176 -57
q159 0 254 109q16 16 30 4l84 -76q14 -12 3 -29q-134 -168 -394 -168q-140 0 -259 81t-137.5 214.5zM446 1141q-23 0 -12 20l156 252q12 20 35 21h135q10 0 13 -6.5t-3 -14.5l-188 -252q-16 -20 -39 -20h-97z" />
    <glyph glyph-name="ecircumflex" unicode="&#xea;" horiz-adv-x="1048" 
d="M752 575q12 0 12 13q0 68 -20 126t-78 98t-142 40t-161.5 -53.5t-77.5 -210.5q0 -12 12 -13h455zM127.5 272.5q-18.5 133.5 -18.5 258t30 208.5q41 129 142.5 197t243 68t271 -88.5t137 -245t7.5 -211.5q0 -20 -22 -21h-621q-12 0 -12 -12q0 -175 86 -232t176 -57
q159 0 254 109q16 16 30 4l84 -76q14 -12 3 -29q-134 -168 -394 -168q-140 0 -259 81t-137.5 214.5zM694 1141q-20 0 -39 20l-129 144h-4l-131 -144q-17 -20 -39 -20h-92q-23 0 -8 20l194 252q14 20 33 21h88q18 0 33 -21l195 -252q15 -20 -9 -20h-92z" />
    <glyph glyph-name="edieresis" unicode="&#xeb;" horiz-adv-x="1048" 
d="M752 575q12 0 12 13q0 68 -20 126t-78 98t-142 40t-161.5 -53.5t-77.5 -210.5q0 -12 12 -13h455zM127.5 272.5q-18.5 133.5 -18.5 258t30 208.5q41 129 142.5 197t243 68t271 -88.5t137 -245t7.5 -211.5q0 -20 -22 -21h-621q-12 0 -12 -12q0 -175 86 -232t176 -57
q159 0 254 109q16 16 30 4l84 -76q14 -12 3 -29q-134 -168 -394 -168q-140 0 -259 81t-137.5 214.5zM260 1202q-20 0 -20 21v149q0 20 20 21h121q20 0 20 -21v-149q0 -20 -20 -21h-121zM664 1202q-20 0 -21 21v149q0 20 21 21h120q20 0 21 -21v-149q0 -20 -21 -21h-120z" />
    <glyph glyph-name="igrave" unicode="&#xec;" horiz-adv-x="507" 
d="M213 1141q-25 0 -39 20l-188 252q-6 8 -3 14.5t13 6.5h135q25 0 37 -21l154 -252q10 -20 -13 -20h-96zM188 0q-20 0 -20 20v941q0 20 20 20h131q20 0 21 -20v-941q0 -20 -21 -20h-131z" />
    <glyph glyph-name="iacute" unicode="&#xed;" horiz-adv-x="507" 
d="M188 0q-20 0 -20 20v941q0 20 20 20h131q20 0 21 -20v-941q0 -20 -21 -20h-131zM205 1141q-23 0 -12 20l155 252q12 20 35 21h135q10 0 13.5 -6.5t-3.5 -14.5l-188 -252q-16 -20 -39 -20h-96z" />
    <glyph glyph-name="icircumflex" unicode="&#xee;" horiz-adv-x="507" 
d="M188 0q-20 0 -20 20v941q0 20 20 20h131q20 0 21 -20v-941q0 -20 -21 -20h-131zM426 1141q-20 0 -39 20l-129 144h-4l-131 -144q-17 -20 -39 -20h-92q-10 0 -12.5 6t4.5 14l194 252q14 20 33 21h88q18 0 33 -21l194 -252q15 -20 -8 -20h-92z" />
    <glyph glyph-name="idieresis" unicode="&#xef;" horiz-adv-x="507" 
d="M188 0q-20 0 -20 20v941q0 20 20 20h131q20 0 21 -20v-941q0 -20 -21 -20h-131zM-8 1202q-20 0 -21 21v149q0 20 21 21h121q20 0 20 -21v-149q0 -20 -20 -21h-121zM395 1202q-20 0 -20 21v149q0 20 20 21h121q20 0 21 -21v-149q0 -20 -21 -21h-121z" />
    <glyph glyph-name="eth" unicode="&#xf0;" horiz-adv-x="1056" 
d="M528 137q168 0 222 154q22 68 22 178t-24 182t-75.5 111t-144.5 39q-211 0 -227 -138.5t-16 -221t22 -150.5q53 -154 221 -154zM465 954q107 0 176 -47h2l-156 205l-192 -59q-20 -6 -27 14l-24 86q-6 20 14 27l145 43l-112 149q-6 8 -3 14.5t13 6.5h148q23 0 36 -21
l78 -100l191 57q20 6 26 -12l25 -88q6 -18 -14 -25l-144 -45l60 -78q241 -317 241 -561q0 -180 -37 -292q-37 -113 -138 -182t-244.5 -69t-281.5 94t-138 398q0 299 124.5 392t231.5 93z" />
    <glyph glyph-name="ntilde" unicode="&#xf1;" horiz-adv-x="1114" 
d="M809 1245q-65 -65 -130 -65t-135 40t-112 40q-60 0 -118 -56q-28 -26 -27 -6v98q0 43 56 73t105 30t119 -40q69 -40 111 -40q58 0 118 55q28 25 27 6v-98q0 -23 -14 -37zM784 594q0 250 -219 250q-100 0 -162.5 -64.5t-62.5 -175.5v-584q0 -20 -21 -20h-131q-20 0 -20 20
v941q0 20 20 20h131q20 0 21 -20v-91h2q35 57 104.5 95.5t169.5 38.5q160 0 250 -100.5t90 -268.5v-615q0 -20 -20 -20h-131q-20 0 -21 20v574z" />
    <glyph glyph-name="ograve" unicode="&#xf2;" horiz-adv-x="1056" 
d="M506 1141q-25 0 -39 20l-188 252q-6 8 -3 14.5t13 6.5h135q25 0 37 -21l153 -252q10 -20 -12 -20h-96zM528 137q82 0 140 39.5t76 97.5q28 89 28 215t-24 200q-24 75 -81 115t-139 40t-139 -40t-75 -98q-28 -89 -29 -214.5t23 -199.5q24 -75 81 -115t139 -40zM528.5 -23
q-143.5 0 -263 82.5t-138 214.5t-18 248t36.5 230t137.5 183t245 69t281.5 -94.5t138 -331.5t-37 -349t-138 -182t-244.5 -70z" />
    <glyph glyph-name="oacute" unicode="&#xf3;" horiz-adv-x="1056" 
d="M528 137q82 0 140 39.5t76 97.5q28 89 28 215t-24 200q-24 75 -81 115t-139 40t-139 -40t-75 -98q-28 -89 -29 -214.5t23 -199.5q24 -75 81 -115t139 -40zM528.5 -23q-143.5 0 -263 82.5t-138 214.5t-18 248t36.5 230t137.5 183t245 69t281.5 -94.5t138 -331.5t-37 -349
t-138 -182t-244.5 -70zM455 1141q-23 0 -13 20l156 252q12 20 35 21h135q10 0 13 -6.5t-3 -14.5l-188 -252q-16 -20 -39 -20h-96z" />
    <glyph glyph-name="ocircumflex" unicode="&#xf4;" horiz-adv-x="1056" 
d="M528 137q82 0 140 39.5t76 97.5q28 89 28 215t-24 200q-24 75 -81 115t-139 40t-139 -40t-75 -98q-28 -89 -29 -214.5t23 -199.5q24 -75 81 -115t139 -40zM528.5 -23q-143.5 0 -263 82.5t-138 214.5t-18 248t36.5 230t137.5 183t245 69t281.5 -94.5t138 -331.5t-37 -349
t-138 -182t-244.5 -70zM698 1141q-20 0 -39 20l-129 144h-4l-131 -144q-17 -20 -39 -20h-92q-23 0 -8 20l195 252q14 20 32 21h88q18 0 33 -21l195 -252q15 -20 -8 -20h-93z" />
    <glyph glyph-name="otilde" unicode="&#xf5;" horiz-adv-x="1056" 
d="M780 1245q-65 -65 -129 -65t-116 30t-76.5 40t-69.5 10t-115 -66q-6 -6 -11 -4t-5 8v98q0 43 56.5 73t104.5 30q48 1 99 -29q52 -30 76 -40.5t69 -10.5t115 65q6 6 11.5 4t5.5 -8v-98q0 -23 -15 -37zM528 137q82 0 140 39.5t76 97.5q28 89 28 215t-24 200q-24 75 -81 115
t-139 40t-139 -40t-75 -98q-28 -89 -29 -214.5t23 -199.5q24 -75 81 -115t139 -40zM528.5 -23q-143.5 0 -263 82.5t-138 214.5t-18 248t36.5 230t137.5 183t245 69t281.5 -94.5t138 -331.5t-37 -349t-138 -182t-244.5 -70z" />
    <glyph glyph-name="odieresis" unicode="&#xf6;" horiz-adv-x="1056" 
d="M528 137q82 0 140 39.5t76 97.5q28 89 28 215t-24 200q-24 75 -81 115t-139 40t-139 -40t-75 -98q-28 -89 -29 -214.5t23 -199.5q24 -75 81 -115t139 -40zM528.5 -23q-143.5 0 -263 82.5t-138 214.5t-18 248t36.5 230t137.5 183t245 69t281.5 -94.5t138 -331.5t-37 -349
t-138 -182t-244.5 -70zM264 1202q-20 0 -20 21v149q0 20 20 21h121q20 0 21 -21v-149q0 -20 -21 -21h-121zM668 1202q-20 0 -21 21v149q0 20 21 21h120q20 0 21 -21v-149q0 -20 -21 -21h-120z" />
    <glyph glyph-name="divide" unicode="&#xf7;" 
d="M440 233.5q0 47.5 34 81t81 33.5t81 -33.5t34 -81t-34 -81t-81 -33.5t-81 33.5t-34 81zM145 489q-20 0 -20 21v111q0 20 20 20h820q20 0 20 -20v-111q0 -20 -20 -21h-820zM440 897q0 47 34 81t81 34t81 -34t34 -81t-34 -81t-81 -34t-81 34t-34 81z" />
    <glyph glyph-name="oslash" unicode="&#xf8;" horiz-adv-x="1056" 
d="M532 844q-175 0 -227 -154q-22 -75 -22 -172.5t6 -152t28 -107.5l363 537q-62 49 -148 49zM523 137q177 0 229 154q22 75 22 177t-8 154t-29 101l-362 -537q61 -49 148 -49zM948 545q0 -204 -37 -316t-138.5 -182t-246.5 -70t-245 72l-62 -90q-14 -20 -37 -20h-59
q-20 0 -10 20l100 150q-104 126 -103.5 327.5t36.5 315.5t137.5 183t245.5 69t247 -72l62 90q12 20 36 20h60q20 0 10 -20l-100 -152q104 -121 104 -325z" />
    <glyph glyph-name="ugrave" unicode="&#xf9;" horiz-adv-x="1103" 
d="M532 1141q-25 0 -38 20l-189 252q-6 8 -3 14.5t13 6.5h136q25 0 36 -21l154 -252q10 -20 -12 -20h-97zM326 389q0 -252 217 -252q100 0 160.5 65.5t60.5 176.5v582q0 20 20 20h131q20 0 21 -20v-941q0 -20 -21 -20h-131q-20 0 -20 20v93h-2q-87 -136 -258 -136
q-172 0 -261 101.5t-89 269.5v613q0 20 20 20h131q20 0 21 -20v-572z" />
    <glyph glyph-name="uacute" unicode="&#xfa;" horiz-adv-x="1103" 
d="M326 389q0 -252 217 -252q100 0 160.5 65.5t60.5 176.5v582q0 20 20 20h131q20 0 21 -20v-941q0 -20 -21 -20h-131q-20 0 -20 20v93h-2q-87 -136 -258 -136q-172 0 -261 101.5t-89 269.5v613q0 20 20 20h131q20 0 21 -20v-572zM477 1141q-23 0 -12 20l156 252
q12 20 34 21h136q10 0 13 -6.5t-3 -14.5l-189 -252q-16 -20 -39 -20h-96z" />
    <glyph glyph-name="ucircumflex" unicode="&#xfb;" horiz-adv-x="1103" 
d="M326 389q0 -252 217 -252q100 0 160.5 65.5t60.5 176.5v582q0 20 20 20h131q20 0 21 -20v-941q0 -20 -21 -20h-131q-20 0 -20 20v93h-2q-87 -136 -258 -136q-172 0 -261 101.5t-89 269.5v613q0 20 20 20h131q20 0 21 -20v-572zM721 1141q-20 0 -39 20l-129 144h-4
l-131 -144q-17 -20 -39 -20h-92q-10 0 -12.5 6t4.5 14l194 252q14 20 33 21h88q18 0 33 -21l194 -252q15 -20 -8 -20h-92z" />
    <glyph glyph-name="udieresis" unicode="&#xfc;" horiz-adv-x="1103" 
d="M326 389q0 -252 217 -252q100 0 160.5 65.5t60.5 176.5v582q0 20 20 20h131q20 0 21 -20v-941q0 -20 -21 -20h-131q-20 0 -20 20v93h-2q-87 -136 -258 -136q-172 0 -261 101.5t-89 269.5v613q0 20 20 20h131q20 0 21 -20v-572zM289 1202q-20 0 -21 21v149q0 20 21 21h121
q20 0 20 -21v-149q0 -20 -20 -21h-121zM692 1202q-20 0 -20 21v149q0 20 20 21h121q20 0 21 -21v-149q0 -20 -21 -21h-121z" />
    <glyph glyph-name="yacute" unicode="&#xfd;" horiz-adv-x="976" 
d="M424 1141q-23 0 -12 20l155 252q12 20 35 21h135q10 0 13.5 -6.5t-2.5 -14.5l-189 -252q-16 -20 -39 -20h-96zM176 -369q-20 0 -20 21v119q0 20 20 20h37q59 0 96 32t70 116l33 90l-361 932q-6 20 17 20h143q18 0 25 -20l258 -709h4l247 709q6 20 25 20h139q23 0 17 -20
l-387 -1037q-66 -171 -131.5 -232t-178.5 -61h-53z" />
    <glyph glyph-name="thorn" unicode="&#xfe;" horiz-adv-x="1101" 
d="M802.5 280.5q14.5 143.5 14.5 241.5t-22 174q-51 148 -217 148q-208 1 -223 -139t-15 -213.5t14.5 -214t223.5 -140.5q210 0 224.5 143.5zM340 115v-463q0 -20 -21 -21h-131q-20 0 -20 21v1720q0 20 20 21h131q20 0 21 -21v-504h2q81 136 279 136q264 0 337 -236
q35 -103 35 -236t-7 -196.5t-28 -122.5q-75 -236 -337 -236q-198 0 -279 138h-2z" />
    <glyph glyph-name="ydieresis" unicode="&#xff;" horiz-adv-x="976" 
d="M229 1202q-20 0 -20 21v149q0 20 20 21h121q20 0 21 -21v-149q0 -20 -21 -21h-121zM633 1202q-20 0 -21 21v149q0 20 21 21h121q20 0 20 -21v-149q0 -20 -20 -21h-121zM176 -369q-20 0 -20 21v119q0 20 20 20h37q59 0 96 32t70 116l33 90l-361 932q-6 20 17 20h143
q18 0 25 -20l258 -709h4l247 709q6 20 25 20h139q23 0 17 -20l-387 -1037q-66 -171 -131.5 -232t-178.5 -61h-53z" />
    <glyph glyph-name="dotlessi" unicode="&#x131;" horiz-adv-x="507" 
d="M188 0q-20 0 -20 20v941q0 20 20 20h131q20 0 21 -20v-941q0 -20 -21 -20h-131z" />
    <glyph glyph-name="Lslash" unicode="&#x141;" horiz-adv-x="1101" 
d="M193 0q-20 0 -21 20v541l-111 -55q-20 -10 -20 12v125q0 18 20 29l111 55v645q0 20 21 21h141q20 0 20 -21v-557l291 150q20 10 21 -13v-125q0 -18 -21 -28l-291 -150v-467q0 -12 13 -12h663q20 0 21 -20v-130q0 -20 -21 -20h-837z" />
    <glyph glyph-name="lslash" unicode="&#x142;" horiz-adv-x="569" 
d="M336 258q0 -61 23.5 -84.5t74.5 -23.5h39q20 0 21 -21v-119q0 -20 -21 -20h-70q-129 0 -184 62.5t-55 195.5v368l-72 -36q-20 -10 -20 12v110q0 20 20 31l72 37v602q0 20 20 21h131q20 0 21 -21v-520l137 72q20 10 21 -13v-112q0 -20 -21 -31l-137 -72v-438z" />
    <glyph glyph-name="OE" unicode="&#x152;" horiz-adv-x="1941" 
d="M930 354q31 93 31 342.5t-32 345.5q-67 204 -336 203.5t-277.5 -237t-8.5 -396.5t31 -258q68 -207 296 -207t296 207zM633 1415q222 0 325 -143h3v100q0 20 20 21h838q20 0 20 -21v-129q0 -20 -20 -20h-664q-12 0 -12 -13v-409q0 -12 12 -13h563q20 0 21 -20v-129
q0 -20 -21 -21h-563q-12 0 -12 -12v-424q0 -12 12 -12h664q20 0 20 -20v-130q0 -20 -20 -20h-838q-20 0 -20 20v101h-3q-102 -144 -325 -144q-176 0 -323.5 99t-167 272.5t-19.5 347.5t20 348t167 272.5t323 98.5z" />
    <glyph glyph-name="oe" unicode="&#x153;" horiz-adv-x="1710" 
d="M528 137q82 0 140 39.5t76 97.5q28 89 28 215t-24 200q-24 75 -81 115t-139 40t-139 -40t-75 -98q-28 -89 -29 -214.5t23 -199.5q24 -75 81 -115t139 -40zM1415 575q12 -1 12 39q-1 40 -21 99t-78 99t-141 40t-162 -53t-79 -211q0 -12 12 -13h457zM946 426
q14 -289 264 -289q162 0 252 109q16 16 31 4l84 -76q14 -12 2 -29q-59 -74 -155.5 -121t-225.5 -47q-231 0 -336 168h-2q-109 -168 -332 -168q-143 0 -262.5 82.5t-138 214.5t-18 248t36.5 230t137.5 183t244.5 69q227 0 330 -164h4q96 164 324 164q143 0 263.5 -82.5
t137.5 -223.5t17 -239q0 -20 -23 -21h-623q-12 0 -12 -12z" />
    <glyph glyph-name="Scaron" unicode="&#x160;" horiz-adv-x="1210" 
d="M565 1538q-18 0 -33 21l-194 253q-6 8 -4 14.5t12 6.5h92q23 0 39 -21l131 -145h4l129 145q18 20 39 21h92q23 0 9 -21l-195 -253q-14 -20 -33 -21h-88zM322 26q-133 49 -218 126q-14 14 -2 30l91 107q12 14 28 2q185 -144 389 -144q145 0 226.5 66t81.5 166t-68 157.5
t-223 75.5l-70 11q-410 55 -410 385q0 185 123 296t332 111q123 0 234.5 -36t189.5 -93q16 -12 4 -29l-69 -112q-12 -14 -29 -4q-169 104 -317 104t-215.5 -62.5t-67.5 -156.5t65.5 -150.5t227.5 -78.5l67 -11q205 -29 307.5 -123t102.5 -275t-96.5 -264t-191.5 -115
t-227 -32t-265 49z" />
    <glyph glyph-name="scaron" unicode="&#x161;" horiz-adv-x="1003" 
d="M506 -23q-236 0 -406 148q-14 14 0 29l84 90q14 14 29 0q132 -113 303 -113q109 0 162 41.5t53 103.5t-38 96t-152 46l-105 10q-293 32 -293 277q0 141 95.5 220t285.5 79t332 -109q16 -10 4 -29l-69 -88q-12 -14 -29 -4q-121 80 -264 80q-92 0 -139.5 -38t-47.5 -97.5
t41 -91t152 -41.5l102 -11q295 -28 295 -289q0 -132 -101 -220.5t-294 -88.5zM461 1137q-18 0 -33 20l-195 254q-6 8 -4 14.5t13 6.5h92q20 0 39 -21l131 -145h4l129 145q18 20 39 21h92q10 0 12 -6.5t-4 -14.5l-194 -254q-14 -20 -33 -20h-88z" />
    <glyph glyph-name="Ydieresis" unicode="&#x178;" horiz-adv-x="1077" 
d="M274 1591q-20 0 -20 21v147q0 20 20 21h115q20 0 21 -21v-147q0 -20 -21 -21h-115zM684 1591q-20 0 -20 21v147q0 20 20 21h115q20 0 20 -21v-147q0 -20 -20 -21h-115zM469 0q-20 0 -20 20v549l-412 801q-8 23 16 23h146q18 0 30 -21l312 -596h4l309 596q8 20 29 21h141
q25 0 16 -23l-411 -801v-549q0 -20 -21 -20h-139z" />
    <glyph glyph-name="Zcaron" unicode="&#x17d;" horiz-adv-x="1097" 
d="M121 0q-20 0 -21 20v130q0 12 9 22l679 1049v2h-643q-20 0 -20 20v129q0 20 20 21h832q20 0 20 -21v-129q0 -12 -8 -22l-682 -1049v-2h670q20 0 20 -20v-130q0 -20 -20 -20h-856zM510 1540q-18 0 -33 21l-194 254q-15 20 8 20h92q22 0 39 -20l131 -146h4l129 146
q18 20 39 20h92q23 0 8 -20l-194 -254q-14 -20 -33 -21h-88z" />
    <glyph glyph-name="zcaron" unicode="&#x17e;" horiz-adv-x="976" 
d="M133 0q-20 0 -20 20v109q0 14 8 23l538 669v4h-499q-20 0 -21 21v115q0 20 21 20h684q20 0 20 -20v-115q0 -12 -8 -23l-534 -663v-4h522q20 0 20 -21v-115q0 -20 -20 -20h-711zM449 1137q-18 0 -33 20l-195 254q-6 8 -4 14.5t12 6.5h93q20 0 38 -21l132 -145h4l129 145
q18 20 39 21h92q10 0 12 -6.5t-4 -14.5l-195 -254q-14 -20 -32 -20h-88z" />
    <glyph glyph-name="florin" unicode="&#x192;" 
d="M225 -369h-49q-20 0 -20 21v115q0 20 20 20h41q78 0 114 30.5t52 123.5l115 745h-154q-20 0 -20 21v96q0 20 20 20h174l41 260q27 164 99.5 237t224.5 73h53q20 0 20 -21v-115q0 -20 -20 -20h-45q-72 0 -111 -33t-51 -119l-41 -262h191q20 0 20 -20v-96q0 -20 -20 -21
h-213l-115 -741q-35 -250 -142.5 -282t-183.5 -32z" />
    <glyph glyph-name="circumflex" unicode="&#x2c6;" horiz-adv-x="862" 
d="M602 1141q-20 0 -39 20l-129 144h-4l-131 -144q-17 -20 -39 -20h-92q-23 0 -8 20l194 252q14 20 33 21h88q18 0 33 -21l194 -252q15 -20 -8 -20h-92z" />
    <glyph glyph-name="caron" unicode="&#x2c7;" horiz-adv-x="862" 
d="M387 1137q-18 0 -33 20l-194 254q-6 8 -4 14.5t12 6.5h92q22 0 39 -21l131 -145h4l129 145q18 20 39 21h92q10 0 12.5 -6.5t-4.5 -14.5l-194 -254q-14 -20 -33 -20h-88z" />
    <glyph glyph-name="breve" unicode="&#x2d8;" horiz-adv-x="862" 
d="M431 1149q-120 0 -193.5 64.5t-83.5 166.5q0 20 18 21h74q16 0 22 -21q35 -106 165 -106t161 106q6 20 24 21h72q18 0 19 -21q-10 -102 -84 -166.5t-194 -64.5z" />
    <glyph glyph-name="dotaccent" unicode="&#x2d9;" horiz-adv-x="862" 
d="M360 1202q-20 0 -20 21v149q0 20 20 21h142q20 0 20 -21v-149q0 -20 -20 -21h-142z" />
    <glyph glyph-name="ring" unicode="&#x2da;" horiz-adv-x="862" 
d="M432 1180q45 0 75 30.5t30 77.5t-30 78t-75 31t-74.5 -31t-29.5 -78t29.5 -77.5t74.5 -30.5zM432 1096q-82 0 -138 54t-56 138t56 138.5t138 54.5t138.5 -54.5t56.5 -138.5t-56.5 -138t-138.5 -54z" />
    <glyph glyph-name="ogonek" unicode="&#x2db;" horiz-adv-x="862" 
d="M248 -222q0 68 33 119t85 87t74 36h119q10 0 11 -8t-7 -12q-137 -92 -153.5 -128t-16.5 -54q0 -55 53 -56q20 0 47 12t35 -3l37 -72q8 -14 -8 -29q-65 -43 -140 -43t-122 41.5t-47 109.5z" />
    <glyph glyph-name="tilde" unicode="&#x2dc;" horiz-adv-x="862" 
d="M682 1245q-65 -65 -130 -65t-135 40t-112 40q-59 0 -117 -56q-28 -26 -28 -6v98q0 43 56 73t105 30t119 -40q69 -40 111 -40q57 0 117 55q28 25 28 6v-98q0 -23 -14 -37z" />
    <glyph glyph-name="hungarumlaut" unicode="&#x2dd;" horiz-adv-x="862" 
d="M158 1141q-23 0 -13 20l136 252q13 21 32 21h117q20 0 10 -21l-157 -254q-10 -18 -33 -18h-92zM449 1141q-23 0 -13 20l135 252q13 21 33 21h117q20 0 10 -21l-158 -254q-10 -18 -32 -18h-92z" />
    <glyph glyph-name="pi" unicode="&#x3c0;" horiz-adv-x="1183" 
d="M1001 -12q-115 0 -161.5 57t-46.5 174v590q0 12 -13 12h-379q-12 0 -12 -12v-789q0 -20 -20 -20h-131q-20 0 -21 20v789q0 12 -12 12h-88q-20 0 -21 21v119q0 20 21 20h946q20 0 20 -20v-119q0 -20 -20 -21h-86q-12 0 -12 -12v-586q0 -43 14 -59.5t47 -16.5h10
q20 0 21 -20v-119q0 -20 -21 -20h-35z" />
    <glyph glyph-name="uni060C" unicode="&#x60c;" horiz-adv-x="471" 
d="M328 20q0 -20 -21 -20h-143q-20 0 -21 20v191q0 31 13 45l127 168q12 14 28 14t17 -18v-400z" />
    <glyph glyph-name="uni0615" unicode="&#x615;" horiz-adv-x="0" 
d="M42 1257q-48 0 -136 -34v-117h172q33 0 41 12t8 52t-18.5 63.5t-66.5 23.5zM54.5 1331q80.5 0 116.5 -48t36 -118t-26.5 -101.5t-84.5 -31.5h-315q-14 0 -14 15v45q0 14 14 14h24q20 0 21 22v340q0 14 16 15h47q16 0 17 -15v-172q68 35 148.5 35z" />
    <glyph glyph-name="uni061B" unicode="&#x61b;" horiz-adv-x="483" 
d="M328 500q0 -20 -21 -21h-143q-20 0 -21 21v190q0 31 13 45l127 168q12 14 26 15q18 0 19 -19v-399zM143 197q0 20 21 20h155q20 0 21 -20v-177q0 -20 -21 -20h-155q-20 0 -21 20v177z" />
    <glyph glyph-name="uni061F" unicode="&#x61f;" horiz-adv-x="1015" 
d="M604 20q0 -20 -20 -20h-156q-20 0 -20 20v177q0 20 20 20h156q20 0 20 -20v-177zM438 330q-20 0 -20 20v25q0 51 -11.5 81.5t-41.5 71.5l-138 189q-53 72 -78.5 132t-25.5 135q0 154 102.5 250.5t265.5 96.5t264 -89t124 -236q4 -18 -17 -23l-129 -22q-18 -4 -22 16
q-37 194 -214 194q-87 0 -142.5 -51t-55.5 -130t35 -133t61 -91l137 -188q33 -45 47.5 -84t14.5 -101v-43q0 -20 -21 -20h-135z" />
    <glyph glyph-name="uni0640" unicode="&#x640;" horiz-adv-x="227" 
d="M2 0q-41 0 -55.5 17.5t-14.5 64.5t13.5 62.5t56.5 15.5h225q41 0 61.5 -16.5t20.5 -63.5t-19.5 -63.5t-62.5 -16.5h-225z" />
    <glyph glyph-name="uni0647" unicode="&#x647;" horiz-adv-x="987" 
d="M702 428q0 287 -219 287t-219 -287q0 -147 52.5 -215t167 -68t166.5 68t52 215zM483 -14q-182 0 -286.5 104.5t-104.5 339t104.5 339.5t287 105t286.5 -105t104 -341q0 -336 -228 -416q-73 -26 -163 -26z" />
    <glyph glyph-name="uni064B" unicode="&#x64b;" horiz-adv-x="0" 
d="M-256 1536q-20 0 -20 20v29q0 20 20 21h520q20 0 21 -21v-29q0 -20 -21 -20h-520zM-256 1675q-20 0 -20 21v28q0 20 20 21h520q20 0 21 -21v-28q0 -20 -21 -21h-520z" />
    <glyph glyph-name="uni064C" unicode="&#x64c;" horiz-adv-x="0" 
d="M186 1772v18q0 57 -23.5 87t-61.5 30t-57 -28t-19 -52q0 -40 28.5 -57t59.5 -17h71q2 9 2 19zM-193 1675q0 113 -73 113h-21q-20 0 -20 20v29q0 20 20 21h13q66 0 110.5 -43t44.5 -140q0 -53 31 -64.5t83 -11.5q80 0 122 26t53 61h-68q-70 0 -109.5 36.5t-39.5 101.5
t44 108.5t108.5 43.5t108.5 -44t44 -130q0 -150 -66 -211t-178 -61t-144 20q-63 38 -63 125z" />
    <glyph glyph-name="uni064D" unicode="&#x64d;" horiz-adv-x="0" 
d="M-252 -408q-20 0 -20 21v29q0 20 20 20h520q20 0 21 -20v-29q0 -20 -21 -21h-520zM-252 -268q-20 0 -20 20v29q0 20 20 20h520q20 0 21 -20v-29q0 -20 -21 -20h-520z" />
    <glyph glyph-name="uni064E" unicode="&#x64e;" horiz-adv-x="0" 
d="M-256 1536q-20 0 -20 20v29q0 20 20 21h520q20 0 21 -21v-29q0 -20 -21 -20h-520z" />
    <glyph glyph-name="uni064F" unicode="&#x64f;" horiz-adv-x="0" 
d="M-100 1593q132 0 168 86h-68q-70 0 -110 37t-40 102t44.5 108.5t109 43.5t108.5 -44t44 -130q0 -150 -66.5 -211t-189.5 -61h-58q-20 0 -20 20v29q0 20 20 20h58zM84 1766v18q0 57 -23.5 87t-61.5 30t-57.5 -28t-19.5 -52q0 -41 28.5 -57.5t59.5 -16.5h72q2 9 2 19z" />
    <glyph glyph-name="uni0650" unicode="&#x650;" horiz-adv-x="0" 
d="M-252 -283q-20 0 -20 21v29q0 20 20 20h520q20 0 21 -20v-29q0 -20 -21 -21h-520z" />
    <glyph glyph-name="uni0651" unicode="&#x651;" horiz-adv-x="0" 
d="M-262 1839q0 20 20 21h37q20 0 21 -21v-151q0 -39 19.5 -60.5t52 -21.5t52 19.5t19.5 53.5v160q0 20 21 21h36q20 0 21 -21v-160q0 -35 19.5 -54t52 -19t52 21.5t19.5 60.5v151q0 20 21 21h37q20 0 20 -21v-145q0 -72 -40 -117t-110 -45t-110 45q-39 -45 -110 -45
t-110.5 45t-39.5 117v145z" />
    <glyph glyph-name="uni0652" unicode="&#x652;" horiz-adv-x="0" 
d="M-90 1694q0 -37 26.5 -63.5t63.5 -26.5t63.5 26.5t26.5 63.5t-26.5 63.5t-63.5 26.5t-63.5 -26.5t-26.5 -63.5zM-164 1691.5q0 67.5 47 115.5t115 48t116 -48t48 -115.5t-48 -114.5t-116 -47t-115 47t-47 114.5z" />
    <glyph glyph-name="uni0653" unicode="&#x653;" horiz-adv-x="0" 
d="M-16.5 1661q130.5 -53 180 -53t63 15t13.5 44.5t20 30.5h45q20 0 21 -21q0 -84 -38 -127t-98 -43q-82 0 -217.5 52.5t-168.5 52.5t-51.5 -11.5t-28.5 -46.5q-6 -20 -27 -14l-43 12q-18 7 -14 27q14 66 56 100.5t99.5 34.5t188 -53z" />
    <glyph glyph-name="uni0654" unicode="&#x654;" horiz-adv-x="0" 
d="M-172 1688q0 100 51 161.5t160 61.5t160 -72q6 -14 0 -20l-43 -35q-14 -12 -23 -4q-42 47 -98.5 47t-84.5 -35t-28 -81t23.5 -80t46.5 -50h211q12 0 12 -14v-58q0 -14 -12 -14h-416q-12 0 -12 14v58q0 14 12 14h78q-37 54 -37 107z" />
    <glyph glyph-name="uni0655" unicode="&#x655;" horiz-adv-x="0" 
d="M-172 -364q0 98 51 159.5t160 61.5t160 -72q6 -14 0 -21l-43 -34q-14 -12 -23 -4q-42 47 -98.5 47t-84.5 -35t-28 -81t23.5 -80t46.5 -50h211q12 0 12 -14v-58q0 -14 -12 -14h-416q-12 0 -12 14v58q0 14 12 14h78q-37 58 -37 109z" />
    <glyph glyph-name="uni0656" unicode="&#x656;" horiz-adv-x="0" 
d="M39 -487q0 -20 -21 -21h-36q-20 0 -21 21v254q0 20 21 20h36q20 0 21 -20v-254z" />
    <glyph glyph-name="uni0658" unicode="&#x658;" horiz-adv-x="0" 
d="M-180 1819q0 20 20 20h37q20 0 21 -20v-103q0 -53 27.5 -83.5t74.5 -30.5t73.5 30.5t26.5 83.5v103q0 20 21 20h37q20 0 20 -20v-99q0 -86 -47 -137t-131 -51t-132 51t-48 137v99z" />
    <glyph glyph-name="uni0660" unicode="&#x660;" horiz-adv-x="921" 
d="M518 276q-29 -29 -53.5 -29.5t-58.5 29.5l-93 95q-31 31 -32.5 54.5t32.5 55.5l93 92q27 27 50 32t54 -25l100 -99q29 -29 31 -54.5t-31 -57.5z" />
    <glyph glyph-name="uni0661" unicode="&#x661;" horiz-adv-x="921" 
d="M547 20q0 -20 -21 -20h-131q-20 0 -20 20v1199q0 20 20 20h131q20 0 21 -20v-1199z" />
    <glyph glyph-name="uni0662" unicode="&#x662;" horiz-adv-x="921" 
d="M215 979q0 129 58.5 194.5t187.5 65.5h354q20 0 21 -20v-119q0 -20 -21 -21h-303q-76 0 -100.5 -32.5t-24.5 -102.5v-924q0 -20 -20 -20h-131q-20 0 -21 20v959z" />
    <glyph glyph-name="uni0663" unicode="&#x663;" horiz-adv-x="921" 
d="M258 891h143v231q0 20 21 21h131q20 0 20 -21v-231q78 4 109 27.5t31 87.5v213q0 20 20 20h131q20 0 21 -20v-205q0 -227 -121 -253t-191 -26h-315v-715q0 -20 -20 -20h-132q-20 0 -20 20v1199q0 20 20 20h132q20 0 20 -20v-328z" />
    <glyph glyph-name="uni0664" unicode="&#x664;" horiz-adv-x="921" 
d="M786 160q20 0 21 -21v-119q0 -20 -21 -20h-260q-274 0 -337.5 122t-63.5 184q0 114 41 199.5t147 141.5q-66 43 -96.5 115t-30.5 137q0 168 106.5 254t278.5 86h134q20 0 20 -20v-119q0 -20 -20 -21h-138q-98 0 -152.5 -42t-54.5 -135t60.5 -140t146.5 -47h135
q20 0 21 -21v-119q0 -20 -21 -20h-190q-88 0 -149.5 -54.5t-61.5 -152.5t64 -143t161 -45h260z" />
    <glyph glyph-name="uni0665" unicode="&#x665;" horiz-adv-x="921" 
d="M462 166q102 0 145.5 54t43.5 204v229q0 233 -45 335t-145 102t-145.5 -99t-45.5 -332v-235q0 -222 73 -240t119 -18zM461 0q-167 0 -265 82.5t-98 323.5v262q0 456 143.5 515.5t220.5 59.5q173 0 267 -130t94 -449v-248q0 -344 -146 -380t-216 -36z" />
    <glyph glyph-name="uni0666" unicode="&#x666;" horiz-adv-x="921" 
d="M145 1079q-20 0 -20 21v119q0 20 20 20h355q129 0 187 -65.5t58 -194.5v-959q0 -20 -20 -20h-131q-20 0 -21 20v924q0 70 -24.5 102.5t-99.5 32.5h-304z" />
    <glyph glyph-name="uni0667" unicode="&#x667;" horiz-adv-x="921" 
d="M460 -10q-34 0 -57.5 3t-29.5 25l-328 1178q-4 16 18 23l134 32q18 6 24 -14l238 -946l241 946q6 20 25 14l133 -32q23 -6 19 -23l-330 -1178q-6 -23 -29.5 -25.5t-57.5 -2.5z" />
    <glyph glyph-name="uni0668" unicode="&#x668;" horiz-adv-x="921" 
d="M462 1241q34 0 57.5 -3t29.5 -26l328 -1177q4 -16 -19 -23l-133 -32q-18 -6 -25 14l-237 946l-242 -946q-6 -20 -24 -14l-134 32q-23 6 -18 23l330 1177q6 23 29.5 26t57.5 3z" />
    <glyph glyph-name="uni0669" unicode="&#x669;" horiz-adv-x="921" 
d="M618 694v201q0 88 -39.5 136t-114.5 48t-125 -51t-50 -148t55 -141.5t131 -44.5h143zM483 532q-156 0 -258 86.5t-102 253.5t96 267t255 100t238 -88t79 -236v-895q0 -20 -21 -20h-131q-20 0 -21 20v512h-135z" />
    <glyph glyph-name="uni066A" unicode="&#x66a;" horiz-adv-x="1372" 
d="M981 51q-27 -27 -48.5 -27.5t-51.5 27.5l-82 84q-29 29 -30 49.5t30 48.5l82 82q23 25 44 30t48 -23l90 -89q25 -25 27 -48t-27 -52zM440 930q-27 -27 -48 -28t-52 28l-82 84q-29 29 -30 49t30 49l82 82q23 25 44.5 30t47.5 -24l90 -88q51 -51 0 -100zM1010 1290h139
q20 0 14 -20l-790 -1274q-10 -21 -27 -21h-139q-10 0 -14.5 6.5t0.5 14.5l790 1274q10 20 27 20z" />
    <glyph glyph-name="uni066B" unicode="&#x66b;" horiz-adv-x="471" 
d="M143 197q0 20 21 20h143q20 0 21 -20v-191q0 -31 -13 -45l-127 -168q-12 -14 -28 -14t-17 18v400z" />
    <glyph glyph-name="uni066C" unicode="&#x66c;" horiz-adv-x="471" 
d="M143 471q0 20 21 21h143q20 0 21 -21v-190q0 -31 -13 -45l-127 -168q-12 -14 -26 -15q-18 0 -19 19v399z" />
    <glyph glyph-name="uni066D" unicode="&#x66d;" horiz-adv-x="702" 
d="M360 1556h13q20 0 20 -20l33 -203l213 27q12 2 16 -10q9 -29 -2 -35l-190 -101l92 -184q10 -17 -8 -30t-35 4l-147 143l-148 -143q-12 -18 -33 -6q-20 13 -10 32l92 184l-190 101q-11 6 -2 35q4 12 16 10l213 -27l37 203q0 20 20 20z" />
    <glyph glyph-name="uni0670" unicode="&#x670;" horiz-adv-x="0" 
d="M39 1556q0 -20 -21 -20h-36q-20 0 -21 20v254q0 20 21 21h36q20 0 21 -21v-254z" />
    <glyph glyph-name="uni06C0" unicode="&#x6c0;" horiz-adv-x="987" 
d="M702 428q0 287 -219 287t-219 -287q0 -147 52.5 -215t167 -68t166.5 68t52 215zM483 -14q-182 0 -286.5 104.5t-104.5 339t104.5 339.5t287 105t286.5 -105t104 -341q0 -336 -228 -416q-73 -26 -163 -26zM315 1203q0 99 51 160.5t161 61.5t159 -71q6 -14 0 -21l-43 -35
q-14 -12 -22 -4q-42 47 -99 47t-84.5 -34.5t-27.5 -80.5t23.5 -80t45.5 -50h211q12 0 12 -15v-57q0 -14 -12 -14h-416q-12 0 -12 14v57q0 14 12 15h78q-37 54 -37 107z" />
    <glyph glyph-name="uni06C2" unicode="&#x6c2;" horiz-adv-x="987" 
d="M702 428q0 287 -219 287t-219 -287q0 -147 52.5 -215t167 -68t166.5 68t52 215zM483 -14q-182 0 -286.5 104.5t-104.5 339t104.5 339.5t287 105t286.5 -105t104 -341q0 -336 -228 -416q-73 -26 -163 -26zM315 1203q0 99 51 160.5t161 61.5t159 -71q6 -14 0 -21l-43 -35
q-14 -12 -22 -4q-42 47 -99 47t-84.5 -34.5t-27.5 -80.5t23.5 -80t45.5 -50h211q12 0 12 -15v-57q0 -14 -12 -14h-416q-12 0 -12 14v57q0 14 12 15h78q-37 54 -37 107z" />
    <glyph glyph-name="uni06C3" unicode="&#x6c3;" horiz-adv-x="987" 
d="M702 428q0 287 -219 287t-219 -287q0 -147 52.5 -215t167 -68t166.5 68t52 215zM483 -14q-182 0 -286.5 104.5t-104.5 339t104.5 339.5t287 105t286.5 -105t104 -341q0 -336 -228 -416q-73 -26 -163 -26zM281 1040q-20 0 -21 21v149q0 20 21 21h139q20 0 20 -21v-149
q0 -20 -20 -21h-139zM530 1040q-20 0 -20 21v149q0 20 20 21h140q20 0 20 -21v-149q0 -20 -20 -21h-140z" />
    <glyph glyph-name="uni06D4" unicode="&#x6d4;" horiz-adv-x="602" 
d="M535 160q20 0 20 -21v-119q0 -20 -20 -20h-179q-167 0 -299 92q-14 8 -2 29l58 104q10 16 26 6q57 -37 112.5 -54t145.5 -17h138z" />
    <glyph glyph-name="uni06D5" unicode="&#x6d5;" horiz-adv-x="987" 
d="M702 428q0 287 -219 287t-219 -287q0 -147 52.5 -215t167 -68t166.5 68t52 215zM483 -14q-182 0 -286.5 104.5t-104.5 339t104.5 339.5t287 105t286.5 -105t104 -341q0 -336 -228 -416q-73 -26 -163 -26z" />
    <glyph glyph-name="uni06F0" unicode="&#x6f0;" horiz-adv-x="921" 
d="M518 276q-30 -30 -54 -30t-58 30l-93 95q-31 31 -33 55t33 55l93 92q26 27 50 32t54 -25l100 -99q29 -29 31 -55t-31 -57z" />
    <glyph glyph-name="uni06F1" unicode="&#x6f1;" horiz-adv-x="921" 
d="M547 20q0 -20 -21 -20h-131q-20 0 -20 20v1199q0 20 20 20h131q20 0 21 -20v-1199z" />
    <glyph glyph-name="uni06F2" unicode="&#x6f2;" horiz-adv-x="921" 
d="M215 979q0 129 58 195t188 65h354q20 0 21 -20v-119q0 -20 -21 -21h-303q-76 -1 -100 -33t-25 -102v-924q0 -20 -20 -20h-131q-20 0 -21 20v959z" />
    <glyph glyph-name="uni06F3" unicode="&#x6f3;" horiz-adv-x="921" 
d="M258 891h143v231q0 20 21 21h131q20 0 20 -21v-231q78 4 109 28t31 87v213q0 20 20 20h131q20 0 21 -20v-205q0 -229 -184 -266q-58 -12 -128 -13h-315v-715q0 -20 -20 -20h-132q-20 0 -20 20v1199q0 20 20 20h132q20 0 20 -20v-328z" />
    <glyph glyph-name="uni06F4" unicode="&#x6f4;" horiz-adv-x="921" 
d="M621 1241q20 0 20 -20v-97q0 -20 -20 -20q-68 0 -93.5 -28.5t-25.5 -90.5v-94q127 0 157.5 15.5t41 38t10.5 61.5v22q0 20 20 21h131q20 0 21 -21v-14q0 -279 -69 -279h-566v-715q0 -20 -21 -20h-131q-20 0 -20 20v1199q0 20 20 20h131q20 0 21 -20v-328h114v129
q0 117 59.5 169t168.5 52h31z" />
    <glyph glyph-name="uni06F5" unicode="&#x6f5;" horiz-adv-x="921" 
d="M76 524q0 186 30 326q45 207 140.5 300t212.5 93q224 0 305.5 -236t81.5 -485q0 -401 -82 -463.5t-149.5 -62.5t-147.5 67q-72 -65 -158 -65q-233 0 -233 526zM688 522q0 257 -62.5 417.5t-166.5 160.5t-168 -157.5t-64 -420.5q0 -358 127 -358q32 0 55 18.5t34.5 26.5
t21 8t39.5 -26.5t107 -26.5t77 358z" />
    <glyph glyph-name="uni06F6" unicode="&#x6f6;" horiz-adv-x="921" 
d="M264 890q0 177 102.5 263t276.5 86h133q20 0 21 -20v-119q0 -20 -21 -21h-137q-98 0 -152.5 -42t-54.5 -135t59.5 -140t147.5 -47h135q20 0 21 -21v-119q0 -20 -21 -20h-67q-76 0 -105 -7t-47 -40l-330 -537q-10 -16 -28 -6l-111 70q-16 12 -6 28l354 566
q-170 84 -170 261z" />
    <glyph glyph-name="uni06F7" unicode="&#x6f7;" horiz-adv-x="921" 
d="M460 -10q-34 0 -58 3t-29 25l-328 1178q-4 16 18 23l134 32q18 6 24 -14l238 -946l241 946q6 20 25 14l133 -32q23 -6 19 -23l-330 -1178q-6 -24 -30 -26q-23 -2 -57 -2z" />
    <glyph glyph-name="uni06F8" unicode="&#x6f8;" horiz-adv-x="921" 
d="M462 1241q34 0 58 -3t29 -26l328 -1177q4 -16 -19 -23l-133 -32q-18 -6 -25 14l-237 946l-242 -946q-6 -20 -24 -14l-134 32q-23 6 -18 23l330 1177q5 23 29 26t58 3z" />
    <glyph glyph-name="uni06F9" unicode="&#x6f9;" horiz-adv-x="921" 
d="M618 694v201q0 88 -39 136q-40 48 -115 48t-125 -51t-50 -148q0 -98 55 -142t131 -44h143zM483 532q-157 0 -259 87q-101 87 -101 253t96 267q96 100 255 100t238 -88t79 -236v-895q0 -20 -21 -20h-131q-20 0 -21 20v512h-135z" />
    <glyph glyph-name="uni2002" unicode="&#x2002;" horiz-adv-x="1024" 
 />
    <glyph glyph-name="uni2003" unicode="&#x2003;" horiz-adv-x="2048" 
 />
    <glyph glyph-name="uni2009" unicode="&#x2009;" horiz-adv-x="204" 
 />
    <glyph glyph-name="uni200A" unicode="&#x200a;" horiz-adv-x="40" 
 />
    <glyph glyph-name="uni200C" unicode="&#x200c;" horiz-adv-x="67" 
d="M68 4h-68v2701h68v-2701z" />
    <glyph glyph-name="uni200D" unicode="&#x200d;" horiz-adv-x="67" 
d="M68 0h-68v2613l-100 -100l-35 37l129 129l-129 131l35 35l131 -129l129 129l37 -35l-129 -129v-2l129 -129l-37 -37l-92 94v-2607z" />
    <glyph glyph-name="uni200E" unicode="&#x200e;" horiz-adv-x="65" 
d="M223 2638h-157v-2634h-66v2701h223v140l166 -166l-166 -166v125z" />
    <glyph glyph-name="uni200F" unicode="&#x200f;" horiz-adv-x="67" 
d="M68 2705v-2701h-68v2634h-158v-125l-166 166l166 166v-140h226z" />
    <glyph glyph-name="endash" unicode="&#x2013;" horiz-adv-x="1048" 
d="M70 469q-20 0 -21 20v111q0 20 21 21h909q20 0 20 -21v-111q0 -20 -20 -20h-909z" />
    <glyph glyph-name="emdash" unicode="&#x2014;" horiz-adv-x="1740" 
d="M70 469q-20 0 -21 20v111q0 20 21 21h1601q20 0 21 -21v-111q0 -20 -21 -20h-1601z" />
    <glyph glyph-name="quoteleft" unicode="&#x2018;" horiz-adv-x="440" 
d="M158 1030q-20 0 -21 21v170q0 25 15 43l106 116q12 16 27 17q18 0 18 -21v-325q0 -20 -20 -21h-125z" />
    <glyph glyph-name="quoteright" unicode="&#x2019;" horiz-adv-x="440" 
d="M155 1026q-17 0 -18 21v325q0 20 21 21h125q20 0 20 -21v-170q0 -28 -12 -43l-107 -117q-12 -16 -29 -16z" />
    <glyph glyph-name="quotesinglbase" unicode="&#x201a;" horiz-adv-x="440" 
d="M155 -178q-17 0 -18 20v326q0 20 21 20h125q20 0 20 -20v-170q0 -29 -12 -43l-107 -117q-12 -16 -29 -16z" />
    <glyph glyph-name="quotedblleft" unicode="&#x201c;" horiz-adv-x="761" 
d="M158 1030q-20 0 -21 21v170q0 25 15 43l106 116q12 16 27 17q18 0 18 -21v-325q0 -20 -20 -21h-125zM479 1030q-20 0 -20 21v170q0 26 12 43l107 116q12 16 28 17q18 0 19 -21v-325q0 -20 -21 -21h-125z" />
    <glyph glyph-name="quotedblright" unicode="&#x201d;" horiz-adv-x="761" 
d="M155.5 1026q-18.5 0 -18.5 21v325q0 20 21 21h125q20 0 20 -21v-170q0 -29 -12 -43l-107 -117q-10 -16 -28.5 -16zM475 1026q-16 0 -16 21v325q0 20 20 21h125q20 0 21 -21v-170q0 -24 -15 -43l-106 -117q-13 -16 -29 -16z" />
    <glyph glyph-name="quotedblbase" unicode="&#x201e;" horiz-adv-x="761" 
d="M155 -178q-17 0 -18 20v326q0 20 21 20h125q20 0 20 -20v-170q0 -28 -12 -43l-107 -117q-12 -16 -29 -16zM475 -178q-16 0 -16 20v326q0 20 20 20h125q20 0 21 -20v-170q0 -24 -15 -43l-106 -117q-13 -16 -29 -16z" />
    <glyph glyph-name="dagger" unicode="&#x2020;" horiz-adv-x="1011" 
d="M442 -369q-20 0 -20 21v1081q0 12 -12 12h-287q-20 0 -21 21v115q0 20 21 20h287q12 0 12 12v459q0 20 20 21h127q20 0 21 -21v-459q0 -12 12 -12h287q20 0 20 -20v-115q0 -20 -20 -21h-287q-12 0 -12 -12v-1081q0 -20 -21 -21h-127z" />
    <glyph glyph-name="daggerdbl" unicode="&#x2021;" horiz-adv-x="1011" 
d="M442 -369q-20 0 -20 21v395q0 12 -12 12h-287q-20 0 -21 21v115q0 20 21 20h287q12 0 12 12v570q0 12 -12 12h-287q-20 0 -21 20v115q0 20 21 21h287q12 0 12 12v395q0 20 20 21h127q20 0 21 -21v-395q0 -12 12 -12h287q20 0 20 -21v-115q0 -20 -20 -20h-287
q-12 0 -12 -12v-570q0 -12 12 -12h287q20 0 20 -20v-115q0 -20 -20 -21h-287q-12 0 -12 -12v-395q0 -20 -21 -21h-127z" />
    <glyph glyph-name="bullet" unicode="&#x2022;" horiz-adv-x="905" 
d="M193 631q0 117 72.5 189.5t186.5 72.5t187.5 -74t73.5 -189t-74.5 -188t-187.5 -73t-185.5 72.5t-72.5 189.5z" />
    <glyph glyph-name="ellipsis" unicode="&#x2026;" horiz-adv-x="1449" 
d="M164 0q-20 0 -21 20v177q0 20 21 20h155q20 0 21 -20v-177q0 -20 -21 -20h-155zM647 0q-20 0 -20 20v177q0 20 20 20h156q20 0 20 -20v-177q0 -20 -20 -20h-156zM1130 0q-20 0 -20 20v177q0 20 20 20h156q20 0 21 -20v-177q0 -20 -21 -20h-156z" />
    <glyph glyph-name="uni202A" unicode="&#x202a;" horiz-adv-x="1024" 
 />
    <glyph glyph-name="uni202B" unicode="&#x202b;" horiz-adv-x="1024" 
 />
    <glyph glyph-name="uni202C" unicode="&#x202c;" horiz-adv-x="1024" 
 />
    <glyph glyph-name="uni202D" unicode="&#x202d;" horiz-adv-x="1024" 
 />
    <glyph glyph-name="uni202E" unicode="&#x202e;" horiz-adv-x="1024" 
 />
    <glyph glyph-name="perthousand" unicode="&#x2030;" horiz-adv-x="2217" 
d="M1187 100q85 0 109 72q2 8 6.5 25t4.5 30v135q0 122 -4.5 138t-6.5 24q-26 72 -110 72t-109 -72q-12 -24 -12 -176t12 -176q25 -72 110 -72zM1921 172q2 8 5 17.5t4 28t2 49t1 81.5t-1 82t-2 49.5t-4 27.5t-9 31t-35 40t-92 18t-88 -72q-10 -40 -10 -177.5t11 -173.5
q22 -73 109.5 -73t108.5 72zM1187 -18q-89 0 -163.5 51t-82 132t-7.5 208.5t20 191.5t82 107t151 43t163.5 -51.5t82 -131.5t7.5 -183t-3 -136.5t-20 -89.5t-79 -98.5t-151 -42.5zM1812.5 -18q-88.5 0 -163.5 51.5t-82.5 132t-7.5 208t16 183.5q25 72 87 115t150.5 43
t162.5 -51.5t81.5 -131.5t7.5 -183t-3.5 -139t-19.5 -90q-16 -53 -78 -95.5t-150.5 -42.5zM516 866q2 8 5 17.5t4 28t2 49t1 82t-1 82t-2 49t-4 27.5t-9 31t-34.5 40t-92 18t-88.5 -71q-10 -40 -10 -178t11 -174q22 -72 110 -72t108 71zM407.5 676q-88.5 0 -163.5 52
t-82.5 133t-7.5 207.5t16 182.5q25 72 87 115t150.5 43t162.5 -51t81.5 -132.5t8 -208.5t-19.5 -191t-82 -107t-150.5 -43zM336 -23q-10 0 -13.5 6.5t1.5 14.5l806 1397q12 20 33 20h97q20 0 10 -20l-807 -1397q-12 -20 -31 -21h-96z" />
    <glyph glyph-name="guilsinglleft" unicode="&#x2039;" horiz-adv-x="655" 
d="M512 940v-149q0 -20 -18 -41l-203 -201q-8 -8 0 -17l203 -200q18 -20 18 -41v-150q0 -10 -7 -12t-13 4l-388 393q-14 14 0 29l388 393q6 6 13 4t7 -12z" />
    <glyph glyph-name="guilsinglright" unicode="&#x203a;" horiz-adv-x="655" 
d="M143 141v150q0 20 19 41l203 200q8 8 0 17l-203 201q-18 20 -19 41v149q0 10 7.5 12t13.5 -4l387 -393q14 -14 0 -29l-387 -393q-6 -6 -13.5 -4t-7.5 12z" />
    <glyph glyph-name="fraction" unicode="&#x2044;" horiz-adv-x="317" 
d="M-303 -23q-20 0 -10 21l807 1397q12 20 30 20h97q22 0 12 -20l-809 -1397q-13 -21 -31 -21h-96z" />
    <glyph glyph-name="Euro" unicode="&#x20ac;" 
d="M633 137q90 0 144 42t91 112q8 16 27 10l111 -55q14 -8 6 -27q-47 -102 -140.5 -172t-239.5 -70t-267.5 86t-137.5 213t-16 220q0 12 -12 12h-86q-20 0 -21 20v86q0 20 21 21h86q12 0 12 12v111q0 12 -12 12h-86q-20 0 -21 21v86q0 20 21 20h86q12 0 12 12q0 149 27 226
q45 137 146 208.5t249 71.5q261 0 379 -241q8 -18 -6 -27l-111 -55q-18 -8 -27 10q-37 70 -91 111.5t-144 41.5q-210 0 -228 -138t-18 -208q0 -12 12 -12h392q20 0 20 -20l-20 -86q-6 -20 -21 -21h-371q-12 0 -12 -12v-111q0 -12 12 -12h351q20 0 20 -21l-20 -86
q-6 -20 -21 -20h-330q-12 0 -12 -12q0 -138 21 -197q51 -162 225 -162z" />
    <glyph glyph-name="uni2113" unicode="&#x2113;" horiz-adv-x="1040" 
d="M766 1227q0 84 -37 140t-95 56t-98 -59t-40 -176v-506q270 295 270 545zM315 244v227l-151 -141l-53 78l202 178v557q0 168 94 273.5t221 105.5q128 0 198.5 -75t70.5 -219q0 -280 -401 -655v-292q0 -156 72.5 -176.5t105.5 -20.5q90 0 184 68l53 -76
q-143 -107 -290 -107q-148 0 -227 73t-79 202z" />
    <glyph glyph-name="trademark" unicode="&#x2122;" horiz-adv-x="1705" 
d="M352 586q-20 0 -20 20v656q0 12 -13 12h-215q-20 0 -20 20v78q0 20 20 21h588q20 0 21 -21v-78q0 -20 -21 -20h-215q-12 0 -12 -12v-656q0 -20 -21 -20h-92zM1495 586q-20 0 -20 20v494h-5l-182 -379q-10 -20 -26 -21h-68q-14 0 -25 21l-182 379h-4v-494q0 -20 -20 -20
h-84q-20 0 -21 20v766q0 20 21 21h79q16 0 27 -19l242 -516h6l237 516q8 18 29 19h80q20 0 20 -21v-766q0 -20 -20 -20h-84z" />
    <glyph glyph-name="Omega" unicode="&#x2126;" horiz-adv-x="1280" 
d="M743 0q-20 0 -20 20v127q0 20 20 27q127 40 178.5 159.5t51.5 342.5t-13.5 282.5t-19.5 79.5q-72 207 -300 207t-300 -207q-27 -89 -30 -175.5t-3 -188.5q0 -221 51 -339.5t179 -160.5q20 -6 20 -27v-127q0 -20 -20 -20h-387q-20 0 -21 20v127q0 20 21 21h157v4
q-101 64 -142.5 176t-41.5 346t14.5 297.5t24.5 93.5q53 166 178 248t300 82t300 -82t178 -248q8 -31 16.5 -63.5t15.5 -108t7 -206.5q0 -247 -41.5 -359t-142.5 -176v-4h157q20 0 21 -21v-127q0 -20 -21 -20h-387z" />
    <glyph glyph-name="estimated" unicode="&#x212e;" horiz-adv-x="1536" 
d="M1139 760v370q-160 154 -377 154t-367 -154v-370h744zM395 668v-467q147 -152 371 -152q160 0 277.5 73t216.5 234l90 -53q-119 -186 -252 -266t-308 -80q-319 0 -502.5 204.5t-183.5 506.5t182 504t479 202q296 0 477.5 -197t187.5 -509h-1035z" />
    <glyph glyph-name="partialdiff" unicode="&#x2202;" horiz-adv-x="1107" 
d="M551 707q-129 0 -203 -77t-74 -209t68.5 -207t194.5 -75t201 113t91 319q-114 136 -278 136zM516 1415q232 0 357.5 -183.5t125.5 -502.5q0 -530 -181.5 -641t-289.5 -111t-182 32t-127 89.5t-81.5 136t-28.5 221.5t116 270.5t304 127.5t307 -141h2q4 237 -79.5 392
t-246.5 155q-115 0 -229 -86q-16 -10 -27 6l-59 92q-10 16 6 28q144 115 313 115z" />
    <glyph glyph-name="Delta" unicode="&#x2206;" horiz-adv-x="1243" 
d="M952 154q12 0 11 12l-338 954h-4l-340 -954q-4 -12 10 -12h661zM66 0q-23 0 -17 20l483 1352q6 20 25 21h133q18 0 25 -21l479 -1352q6 -20 -16 -20h-1112z" />
    <glyph glyph-name="product" unicode="&#x220f;" horiz-adv-x="1335" 
d="M1001 -369q-20 0 -20 21v1681q0 12 -12 13h-602q-12 0 -13 -13v-1681q0 -20 -20 -21h-141q-20 0 -21 21v1843q0 20 21 21h950q20 0 20 -21v-1843q0 -20 -20 -21h-142z" />
    <glyph glyph-name="summation" unicode="&#x2211;" horiz-adv-x="1093" 
d="M125 -369q-20 0 -21 21v121q0 10 5 18l380 864l-370 688q-6 12 -6 23v129q0 20 20 21h832q20 0 20 -21v-129q0 -20 -20 -20h-646l357 -664q6 -14 0 -29l-375 -852h684q20 0 21 -20v-129q0 -20 -21 -21h-860z" />
    <glyph glyph-name="minus" unicode="&#x2212;" 
d="M145 489q-20 0 -20 21v111q0 20 20 20h820q20 0 20 -20v-111q0 -20 -20 -21h-820z" />
    <glyph glyph-name="radical" unicode="&#x221a;" horiz-adv-x="1288" 
d="M606 -369q-18 0 -26 21l-283 577q-6 12 -18 7l-136 -64q-20 -10 -26 8l-41 88q-10 18 8 27l262 129q20 10 29 -8l264 -551h6l449 1630q6 20 24 21h117q23 0 16 -21l-512 -1843q-6 -20 -24 -21h-109z" />
    <glyph glyph-name="infinity" unicode="&#x221e;" horiz-adv-x="1568" 
d="M400 305q76 0 141 47t157 152q-92 109 -155 156t-143 47t-131.5 -57.5t-51.5 -142.5t53.5 -143.5t129.5 -58.5zM1352 509q0 81 -51.5 139.5t-131.5 58.5t-143 -46.5t-156 -156.5q108 -122 165 -160.5t134 -38.5q78 0 130.5 61.5t52.5 142.5zM784 399q-196 -221 -363 -221
q-153 0 -244 91t-91 237t91.5 237t230.5 91q96 0 183 -56.5t191 -173.5q198 230 364 230q154 0 245.5 -92t91.5 -236t-92 -236t-254 -92q-161 0 -353 221z" />
    <glyph glyph-name="integral" unicode="&#x222b;" horiz-adv-x="847" 
d="M718 1516q15 0 15 -25v-117q0 -24 -18 -20t-21 4h-41q-72 0 -107.5 -46t-35.5 -159v-1122q0 -215 -70.5 -306.5t-220.5 -93.5q-46 0 -75 4t-29 21v117q0 25 26 21t54 -5q72 0 107.5 46t35.5 159v1122q0 215 70.5 306t222.5 94h87z" />
    <glyph glyph-name="approxequal" unicode="&#x2248;" 
d="M730 371q54 0 88 28.5t67 81.5q10 16 28 4l78 -45q16 -10 8 -28q-41 -86 -113 -135.5t-146 -49.5t-124.5 23.5t-88.5 49.5q-91 62 -146 62t-89 -28.5t-67 -81.5q-10 -16 -28 -4l-78 45q-16 10 -8 29q41 86 113 135t146 49t124.5 -23.5t115.5 -67.5q66 -44 120 -44z
M740 625q-74 0 -124.5 23.5t-88.5 49.5q-93 62 -147 62t-88 -29t-67 -82q-10 -16 -28 -4l-78 45q-16 10 -8 29q41 86 113 135t146 49t124.5 -23.5t115.5 -67.5t120 -44q54 0 88 28.5t67 82.5q10 16 28 4l78 -45q16 -10 8 -29q-41 -86 -113 -135t-146 -49z" />
    <glyph glyph-name="notequal" unicode="&#x2260;" 
d="M246 57q-23 0 -10 23l106 205h-197q-20 0 -20 20v111q0 20 20 20h275l133 258h-408q-20 0 -20 21v110q0 20 20 21h488l106 207q8 20 31 20h96q20 0 11 -22l-107 -205h195q20 0 20 -21v-110q0 -20 -20 -21h-273l-133 -258h406q20 0 20 -20v-111q0 -20 -20 -20h-486
l-106 -207q-12 -20 -31 -21h-96z" />
    <glyph glyph-name="lessequal" unicode="&#x2264;" 
d="M145 0q-20 0 -20 20v111q0 20 20 21h820q20 0 20 -21v-111q0 -20 -20 -20h-820zM125 655v97q0 20 20 28l820 336q20 6 20 -12v-127q0 -18 -20 -27l-617 -243v-5l617 -243q20 -8 20 -27v-127q0 -18 -20 -12l-820 336q-20 6 -20 26z" />
    <glyph glyph-name="greaterequal" unicode="&#x2265;" 
d="M145 0q-20 0 -20 20v111q0 20 20 21h820q20 0 20 -21v-111q0 -20 -20 -20h-820zM125 305v127q0 18 20 27l617 243v5l-617 243q-20 8 -20 27v127q0 18 20 12l820 -336q20 -8 20 -28v-97q0 -20 -20 -26l-820 -336q-20 -6 -20 12z" />
    <glyph glyph-name="lozenge" unicode="&#x25ca;" horiz-adv-x="1144" 
d="M858 674l-285 602h-4l-282 -602l286 -602h5zM514 -106q-20 0 -29 20l-360 745q-6 14 0 29l360 746q8 20 29 20h117q20 0 28 -20l361 -746q6 -14 0 -29l-361 -745q-8 -20 -28 -20h-117z" />
    </font>
</defs>
</svg>
