<?xml version="1.0" standalone="no"?>
<!DOCTYPE svg PUBLIC "-//W3C//DTD SVG 1.1//EN" "http://www.w3.org/Graphics/SVG/1.1/DTD/svg11.dtd" >
<svg xmlns="http://www.w3.org/2000/svg">
<metadata>
Created by FontPrep 20130207 at Mon Jul 31 15:55:03 2017
 By Mohammad Rabaya
Copyright (c) 2008 - 2011 Linotype GmbH, www.linotype.com. All rights reserved. This font software may not be reproduced, modified, disclosed or transferred without the express written approval of Linotype GmbH.
</metadata>
<defs>
<font id="22621ad79b2a0ef00d370a9638fd2c91" horiz-adv-x='1024' >
  <font-face 
    font-family="DINNextLTW23-Light"
    font-weight="300"
    font-stretch="normal"
    units-per-em="2048"
    panose-1="2 11 3 3 2 2 3 5 2 3"
    ascent="1536"
    descent="-512"
    x-height="977"
    cap-height="1393"
    bbox="-367.37 -874 2427 2845"
    underline-thickness="102"
    underline-position="-205"
    unicode-range="U+000D-FEFC"
  />
<missing-glyph horiz-adv-x="962" 
d="M410 332q0 20 20 20h64q20 0 20 -20v-80q0 -20 -20 -21h-64q-20 0 -20 21v80zM440 459q-20 0 -20 20v49q0 82 45 138l76 98q47 55 61 88.5t14 87.5t-40.5 92.5t-106.5 38.5q-127 0 -158 -137q-4 -18 -24 -16l-43 8q-20 4 -17 22q16 90 81 146.5t166 56.5t163.5 -64.5
t62.5 -158.5q0 -59 -18 -101.5t-59 -91.5l-76 -98q-27 -33 -34 -54.5t-7 -58.5v-45q0 -20 -21 -20h-45zM80 88q0 -12 12 -12h778q12 0 13 12v1217q0 12 -13 12h-778q-12 0 -12 -12v-1217zM0 1372q0 20 20 21h922q20 0 21 -21v-1352q0 -20 -21 -20h-922q-20 0 -20 20v1352z
" />
    <glyph glyph-name="uniFEF5" unicode="&#xfedf;&#xfe82;" horiz-adv-x="1298" arabic-form="isolated" 
d="M813 1290q72 0 72 60q0 30 20 30h39q20 0 21 -20q1 -122 -97 -142q-28 -6 -67 -6q-63 0 -201 53.5t-174 53.5t-55 -11.5t-29 -45.5q-6 -16 -23 -15l-36 15q-19 4 -11 31.5t25.5 49t37 34t41 15.5t54.5 3q33 -1 85 -17q53 -16 105 -36q142 -52 193 -52zM668 115h266
q51 0 74.5 23.5t23.5 84.5v1149q0 20 21 21h71q20 0 21 -21v-1114q0 -143 -55.5 -200.5t-184.5 -57.5h-792q-20 0 -21 20v74q0 20 21 21h442v968q0 20 20 21h72q20 0 21 -21v-968z" />
    <glyph glyph-name="uniFEF6" unicode="&#xfee0;&#xfe82;" horiz-adv-x="1351" arabic-form="final" 
d="M813 1290q72 0 72 60q0 30 20 30h39q20 0 21 -20q1 -122 -97 -142q-28 -6 -67 -6q-63 0 -201 53.5t-174 53.5t-55 -11.5t-29 -45.5q-6 -16 -23 -15l-36 15q-19 4 -11 31.5t25.5 49t37 34t41 15.5t54.5 3q33 -1 85 -17q53 -16 105 -36q142 -52 193 -52zM1352 115
q82 0 82 -52q0 -47 -19.5 -55t-83 -8t-122 18t-91.5 84q-25 -55 -76 -78.5t-137 -23.5h-792q-20 0 -21 20v74q0 20 21 21h442v968q0 20 20 21h72q20 0 21 -21v-968h266q51 0 74.5 23.5t23.5 84.5v1149q0 20 21 21h71q20 0 21 -21v-1134q0 -63 58.5 -93t137.5 -30h11z" />
    <glyph glyph-name="uniFEF7" unicode="&#xfedf;&#xfe84;" horiz-adv-x="1298" arabic-form="isolated" 
d="M499.5 1580q46.5 62 153.5 62q47 0 91 -19t67 -54q6 -12 -4 -23l-31 -26q-10 -10 -25 6q-38 41 -98.5 41t-90.5 -37t-30 -83q0 -83 62 -132h215q12 0 12 -15v-49q0 -14 -12 -14h-395q-12 0 -13 14v49q0 14 13 15h78q-39 66 -39 134.5t46.5 130.5zM668 115h266
q51 0 74.5 23.5t23.5 84.5v1149q0 20 21 21h71q20 0 21 -21v-1114q0 -143 -55.5 -200.5t-184.5 -57.5h-792q-20 0 -21 20v74q0 20 21 21h442v968q0 20 20 21h72q20 0 21 -21v-968z" />
    <glyph glyph-name="uniFEF8" unicode="&#xfee0;&#xfe84;" horiz-adv-x="1351" arabic-form="final" 
d="M499.5 1580q46.5 62 153.5 62q47 0 91 -19t67 -54q6 -12 -4 -23l-31 -26q-10 -10 -25 6q-38 41 -98.5 41t-90.5 -37t-30 -83q0 -83 62 -132h215q12 0 12 -15v-49q0 -14 -12 -14h-395q-12 0 -13 14v49q0 14 13 15h78q-39 66 -39 134.5t46.5 130.5zM1352 115q82 0 82 -52
q0 -47 -19.5 -55t-83 -8t-122 18t-91.5 84q-25 -55 -76 -78.5t-137 -23.5h-792q-20 0 -21 20v74q0 20 21 21h442v968q0 20 20 21h72q20 0 21 -21v-968h266q51 0 74.5 23.5t23.5 84.5v1149q0 20 21 21h71q20 0 21 -21v-1134q0 -63 58.5 -93t137.5 -30h11z" />
    <glyph glyph-name="uniFEF9" unicode="&#xfedf;&#xfe88;" horiz-adv-x="1298" arabic-form="isolated" 
d="M496 -205.5q47 62.5 153 62.5q47 0 91 -19.5t59 -43t4 -34.5l-31 -26q-10 -10 -25 6q-38 41 -98.5 41t-90.5 -37t-30 -83q0 -83 62 -132h215q12 0 12 -14v-50q0 -14 -12 -14h-395q-12 0 -13 14v50q0 14 13 14h77q-38 64 -38 133.5t47 132zM668 115h266q51 0 74.5 23.5
t23.5 84.5v1149q0 20 21 21h71q20 0 21 -21v-1114q0 -143 -55.5 -200.5t-184.5 -57.5h-792q-20 0 -21 20v74q0 20 21 21h442v968q0 20 20 21h72q20 0 21 -21v-968z" />
    <glyph glyph-name="uniFEFA" unicode="&#xfee0;&#xfe88;" horiz-adv-x="1351" arabic-form="final" 
d="M496 -205.5q47 62.5 153 62.5q47 0 91 -19.5t59 -43t4 -34.5l-31 -26q-10 -10 -25 6q-38 41 -98.5 41t-90.5 -37t-30 -83q0 -83 62 -132h215q12 0 12 -14v-50q0 -14 -12 -14h-395q-12 0 -13 14v50q0 14 13 14h77q-38 64 -38 133.5t47 132zM1352 115q82 0 82 -52
q0 -47 -19.5 -55t-83 -8t-122 18t-91.5 84q-25 -55 -76 -78.5t-137 -23.5h-792q-20 0 -21 20v74q0 20 21 21h442v968q0 20 20 21h72q20 0 21 -21v-968h266q51 0 74.5 23.5t23.5 84.5v1149q0 20 21 21h71q20 0 21 -21v-1134q0 -63 58.5 -93t137.5 -30h11z" />
    <glyph glyph-name="uniFEFB" unicode="&#xfedf;&#xfe8e;" horiz-adv-x="1298" arabic-form="isolated" 
d="M668 115h266q51 0 74.5 23.5t23.5 84.5v1149q0 20 21 21h71q20 0 21 -21v-1114q0 -143 -55.5 -200.5t-184.5 -57.5h-792q-20 0 -21 20v74q0 20 21 21h442v968q0 20 20 21h72q20 0 21 -21v-968z" />
    <glyph glyph-name="uniFEFC" unicode="&#xfee0;&#xfe8e;" horiz-adv-x="1351" arabic-form="final" 
d="M1352 115q82 0 82 -52q0 -47 -19.5 -55t-83 -8t-122 18t-91.5 84q-25 -55 -76 -78.5t-137 -23.5h-792q-20 0 -21 20v74q0 20 21 21h442v968q0 20 20 21h72q20 0 21 -21v-968h266q51 0 74.5 23.5t23.5 84.5v1149q0 20 21 21h71q20 0 21 -21v-1134q0 -63 58.5 -93
t137.5 -30h11z" />
    <glyph glyph-name="uniFEDF_uniFB51.rlig" unicode="&#xfedf;&#xfb51;" horiz-adv-x="1298" 
d="M684 1456q-57 0 -145 -39v-131h190q35 0 43 13.5t8 58.5t-19.5 71.5t-76.5 26.5zM689.5 1516q78.5 0 114.5 -47.5t36 -112.5q0 -129 -111 -129h-295q-14 0 -14 14v31q0 14 14 14h25q20 0 20 23v194q0 14 17 15h26q16 0 17 -15v-24q72 37 150.5 37zM668 115h266
q51 0 74.5 23.5t23.5 84.5v1149q0 20 21 21h71q20 0 21 -21v-1114q0 -143 -55.5 -200.5t-184.5 -57.5h-792q-20 0 -21 20v74q0 20 21 21h442v968q0 20 20 21h72q20 0 21 -21v-968z" />
    <glyph glyph-name="uniFEE0_uniFB51.rlig" unicode="&#xfee0;&#xfb51;" horiz-adv-x="1351" 
d="M684 1456q-57 0 -145 -39v-131h190q35 0 43 13.5t8 58.5t-19.5 71.5t-76.5 26.5zM689.5 1516q78.5 0 114.5 -47.5t36 -112.5q0 -129 -111 -129h-295q-14 0 -14 14v31q0 14 14 14h25q20 0 20 23v194q0 14 17 15h26q16 0 17 -15v-24q72 37 150.5 37zM1352 115q82 0 82 -52
q0 -47 -19.5 -55t-83 -8t-122 18t-91.5 84q-25 -55 -76 -78.5t-137 -23.5h-792q-20 0 -21 20v74q0 20 21 21h442v968q0 20 20 21h72q20 0 21 -21v-968h266q51 0 74.5 23.5t23.5 84.5v1149q0 20 21 21h71q20 0 21 -21v-1134q0 -63 58.5 -93t137.5 -30h11z" />
    <glyph glyph-name="uni0621" unicode="&#x621;" horiz-adv-x="749" arabic-form="isolated" 
d="M190 106q-71 94 -71 218t65 208q86 110 253 111q167 0 235 -106q12 -19 0 -31l-54 -39q-12 -10 -18 -7q-6 4 -24 22q-58 58 -151 57q-93 0 -144 -58q-52 -58 -52 -140.5t36 -144t77 -90.5h338q20 0 20 -22v-61q0 -23 -20 -23h-619q-20 0 -20 23v61q0 23 20 22h129z" />
    <glyph glyph-name="uni0622" unicode="&#x622;" horiz-adv-x="419" arabic-form="isolated" 
d="M266 20q0 -20 -20 -20h-72q-20 0 -20 20v1352q0 20 20 21h72q20 0 20 -21v-1352zM218 1649.5q140 -52.5 187.5 -52.5t62.5 15.5t15 45t21 30.5h39q20 0 20 -21q0 -125 -97 -142q-28 -5 -66 -5q-64 0 -202.5 53t-174 53t-54 -11t-28.5 -46q-6 -16 -23 -15l-37 15
q-18 3 -10 31q7 28 25 50t38 34q29 18 86.5 18t197.5 -52.5z" />
    <glyph glyph-name="uni0623" unicode="&#x623;" horiz-adv-x="419" arabic-form="isolated" 
d="M266 20q0 -20 -20 -20h-72q-20 0 -20 20v1352q0 20 20 21h72q20 0 20 -21v-1352zM98.5 1838q47.5 63 153.5 63q47 0 91 -19.5t67 -54.5q6 -12 -4 -23l-31 -26q-9 -10 -25 6q-40 41 -99.5 41t-89.5 -37t-30 -83q0 -83 62 -132h215q12 0 12 -14v-50q0 -14 -12 -14h-396
q-12 0 -12 14v50q0 14 12 14h78q-39 66 -39 134t47.5 131z" />
    <glyph glyph-name="uni0624" unicode="&#x624;" horiz-adv-x="999" arabic-form="isolated" 
d="M743 418q0 330 -232 330q-122 0 -190.5 -86.5t-68.5 -251.5t62.5 -230t197.5 -65h231v303zM297 -401q-20 0 -21 20v74q0 20 21 20h250q100 0 148 37t48 148v102h-231q-280 0 -352 214q-26 79 -27 193q0 219 105.5 337t275.5 118q344 0 344 -440v-522q0 -160 -66.5 -230.5
t-209.5 -70.5h-285zM319 1083q-40 51 -40 121q-1 70 33 111q65 80 177.5 80t172.5 -70q10 -12 -3 -25l-41 -36q-4 -2 -19 11q-48 42 -116 42t-95.5 -38t-27.5 -77q0 -76 72 -119h240q12 0 12 -14v-51q0 -14 -12 -14h-420q-12 0 -12 14v51q0 14 12 14h67z" />
    <glyph glyph-name="uni0625" unicode="&#x625;" horiz-adv-x="419" arabic-form="isolated" 
d="M266 20q0 -20 -20 -20h-72q-20 0 -20 20v1352q0 20 20 21h72q20 0 20 -21v-1352zM98.5 -206q47.5 63 153.5 63q47 0 91 -19.5t59 -43t4 -34.5l-31 -26q-9 -10 -25 6q-40 41 -99.5 41t-89.5 -37t-30 -83q0 -83 62 -132h215q12 0 12 -14v-50q0 -14 -12 -14h-396
q-12 0 -12 14v50q0 14 12 14h78q-39 66 -39 134t47.5 131z" />
    <glyph glyph-name="uni0626" unicode="&#x626;" horiz-adv-x="1552" arabic-form="isolated" 
d="M231 721q-41 51 -41 120.5t34 110.5q66 80 178 80t171 -69q10 -12 -2 -25l-41 -37q-4 -2 -19 11q-48 42 -116 42t-95.5 -37.5t-27.5 -81.5t25 -73t47 -41h240q12 0 12 -14v-52q0 -14 -12 -14h-420q-12 0 -12 14v52q0 14 12 14h67zM307 383q-114 -175 -114 -339
t97.5 -245.5t258.5 -81.5h495q171 -1 197 75q8 24 8 59.5t-34.5 74.5t-86.5 78q-54 39 -114 81q-234 163 -234 341q0 120 82 210q84 90 254 91q170 -1 282 -101q30 -26 52 -51q10 -12 -6 -28l-53 -58q-10 -12 -27 5q-49 49 -105.5 82.5t-146.5 33.5t-150.5 -46t-60.5 -114.5
t35 -117.5t87 -94t112.5 -88.5t112.5 -89.5q122 -108 122 -216q0 -245 -291 -245h-549q-213 0 -333.5 116.5t-120.5 323.5q0 129 42 235.5t91 176.5q8 12 29 0l63 -41q16 -10 6 -27z" />
    <glyph glyph-name="uni0627" unicode="&#x627;" horiz-adv-x="419" arabic-form="isolated" 
d="M266 20q0 -20 -20 -20h-72q-20 0 -20 20v1352q0 20 20 21h72q20 0 20 -21v-1352z" />
    <glyph glyph-name="uni0628" unicode="&#x628;" horiz-adv-x="1644" arabic-form="isolated" 
d="M1311 115q53 0 76.5 23.5t23.5 84.5v582q0 20 21 20h71q20 0 21 -20v-584q0 -117 -51.5 -169t-161.5 -52h-977q-129 0 -184.5 51t-55.5 174v449q0 20 21 20h71q20 0 21 -20v-451q0 -59 23.5 -83.5t74.5 -24.5h1006zM745 -336q-20 0 -20 21v122q0 20 20 21h107
q20 0 20 -21v-122q0 -20 -20 -21h-107z" />
    <glyph glyph-name="uni0629" unicode="&#x629;" horiz-adv-x="935" arabic-form="isolated" 
d="M700 420q0 328 -244.5 328t-244.5 -328q0 -162 57.5 -241t186.5 -79t187 79t58 241zM454.5 862q360.5 0 360.5 -438t-360.5 -438t-360.5 438t360.5 438zM270 1026q-20 0 -20 21v122q0 20 20 21h107q20 0 20 -21v-122q0 -20 -20 -21h-107zM532 1026q-20 0 -20 21v122
q0 20 20 21h107q20 0 20 -21v-122q0 -20 -20 -21h-107z" />
    <glyph glyph-name="uni062A" unicode="&#x62a;" horiz-adv-x="1644" arabic-form="isolated" 
d="M1311 115q53 0 76.5 23.5t23.5 84.5v582q0 20 21 20h71q20 0 21 -20v-584q0 -117 -51.5 -169t-161.5 -52h-977q-129 0 -184.5 51t-55.5 174v449q0 20 21 20h71q20 0 21 -20v-451q0 -59 23.5 -83.5t74.5 -24.5h1006zM631 905q-20 0 -21 21v123q0 20 21 20h106q20 0 21 -20
v-123q0 -20 -21 -21h-106zM893 905q-20 0 -21 21v123q0 20 21 20h106q20 0 21 -20v-123q0 -20 -21 -21h-106z" />
    <glyph glyph-name="uni062B" unicode="&#x62b;" horiz-adv-x="1644" arabic-form="isolated" 
d="M1311 115q53 0 76.5 23.5t23.5 84.5v582q0 20 21 20h71q20 0 21 -20v-584q0 -117 -51.5 -169t-161.5 -52h-977q-129 0 -184.5 51t-55.5 174v449q0 20 21 20h71q20 0 21 -20v-451q0 -59 23.5 -83.5t74.5 -24.5h1006zM629 905q-20 0 -21 21v123q0 20 21 20h106q20 0 21 -20
v-123q0 -20 -21 -21h-106zM891 905q-20 0 -21 21v123q0 20 21 20h106q20 0 21 -20v-123q0 -20 -21 -21h-106zM758 1167q-20 0 -21 21v123q0 20 21 20h106q20 0 21 -20v-123q0 -20 -21 -21h-106z" />
    <glyph glyph-name="uni062C" unicode="&#x62c;" horiz-adv-x="1120" arabic-form="isolated" 
d="M610 -346q-20 0 -20 20v123q0 20 20 21h107q20 0 20 -21v-123q0 -20 -20 -20h-107zM567 862q434 0 434 -524q0 -190 -57.5 -264t-212.5 -74h-414q-78 0 -105.5 -43t-27.5 -107.5t37 -100.5t129 -36h133q20 0 21 -20v-74q0 -20 -21 -20h-121q-297 0 -296 251
q0 144 73 204.5t164 60.5h391q118 0 150.5 42.5t32.5 155.5q0 222 -72.5 326t-236 104t-259.5 -114q-12 -18 -28 -4l-56 49q-18 10 -6 28q125 160 348 160z" />
    <glyph glyph-name="uni062D" unicode="&#x62d;" horiz-adv-x="1120" arabic-form="isolated" 
d="M567 862q434 0 434 -524q0 -190 -57.5 -264t-212.5 -74h-414q-78 0 -105.5 -43t-27.5 -107.5t37 -100.5t129 -36h238q20 0 20 -20v-74q0 -20 -20 -20h-226q-297 0 -296 251q0 144 73 204.5t164 60.5h391q118 0 150.5 42.5t32.5 155.5q0 222 -72.5 326t-236 104
t-259.5 -114q-12 -18 -28 -4l-56 49q-18 10 -6 28q125 160 348 160z" />
    <glyph glyph-name="uni062E" unicode="&#x62e;" horiz-adv-x="1120" arabic-form="isolated" 
d="M567 862q434 0 434 -524q0 -190 -57.5 -264t-212.5 -74h-414q-78 0 -105.5 -43t-27.5 -107.5t37 -100.5t129 -36h238q20 0 20 -20v-74q0 -20 -20 -20h-226q-297 0 -296 251q0 144 73 204.5t164 60.5h391q118 0 150.5 42.5t32.5 155.5q0 222 -72.5 326t-236 104
t-259.5 -114q-12 -18 -28 -4l-56 49q-18 10 -6 28q125 160 348 160zM522 1026q-20 0 -20 21v122q0 20 20 21h82q20 0 21 -21v-122q0 -20 -21 -21h-82z" />
    <glyph glyph-name="uni062F" unicode="&#x62f;" horiz-adv-x="991" arabic-form="isolated" 
d="M872 350q0 -204 -62 -277t-224 -73h-434q-20 0 -21 20v74q0 20 21 21h409q120 0 155 41q34 41 34 166v198q0 115 -61.5 171.5t-196.5 56.5h-240q-20 0 -21 20v74q0 20 21 20h274q250 0 322 -190q24 -66 24 -158v-164z" />
    <glyph glyph-name="uni0630" unicode="&#x630;" horiz-adv-x="991" arabic-form="isolated" 
d="M872 350q0 -204 -62 -277t-224 -73h-434q-20 0 -21 20v74q0 20 21 21h409q120 0 155 41q34 41 34 166v198q0 115 -61.5 171.5t-196.5 56.5h-240q-20 0 -21 20v74q0 20 21 20h274q250 0 322 -190q24 -66 24 -158v-164zM410 1026q-20 0 -21 21v122q0 20 21 21h82
q20 0 20 -21v-122q0 -20 -20 -21h-82z" />
    <glyph glyph-name="uni0631" unicode="&#x631;" horiz-adv-x="491" arabic-form="isolated" 
d="M350 -100q0 -301 -297 -301h-35q-20 0 -20 20v74q0 20 20 20h48q172 0 172 174v918q0 20 20 20h72q20 0 20 -20v-905z" />
    <glyph glyph-name="uni0632" unicode="&#x632;" horiz-adv-x="491" arabic-form="isolated" 
d="M350 -100q0 -301 -297 -301h-35q-20 0 -20 20v74q0 20 20 20h48q172 0 172 174v918q0 20 20 20h72q20 0 20 -20v-905zM254 1026q-20 0 -21 21v122q0 20 21 21h82q20 0 20 -21v-122q0 -20 -20 -21h-82z" />
    <glyph glyph-name="uni0633" unicode="&#x633;" horiz-adv-x="2142" arabic-form="isolated" 
d="M1198 0q-106 0 -168 66v-27q0 -305 -256 -399q-88 -32 -203 -33q-225 0 -346 117t-121 313q0 129 42 235.5t92 176.5q8 12 28 0l64 -41q16 -10 6 -27q-115 -177 -115 -341t123 -248q94 -64 236 -64q239 0 312 164q26 58 26 143v579q0 20 20 21h74q20 0 20 -21v-348
q0 -74 55.5 -112.5t130 -38.5t108.5 6t51.5 25.5t21.5 54.5t4 92v321q0 20 20 21h74q20 0 21 -21v-358q0 -70 57 -105.5t132.5 -35.5t109.5 7t57.5 33t23.5 138v512q0 20 21 20h74q20 0 20 -20v-537q0 -225 -143 -258q-43 -10 -92 -10h-95q-57 0 -112 25.5t-82 78.5
q-53 -104 -197 -104h-94z" />
    <glyph glyph-name="uni0634" unicode="&#x634;" horiz-adv-x="2142" arabic-form="isolated" 
d="M1198 0q-106 0 -168 66v-27q0 -305 -256 -399q-88 -32 -203 -33q-225 0 -346 117t-121 313q0 129 42 235.5t92 176.5q8 12 28 0l64 -41q16 -10 6 -27q-115 -177 -115 -341t123 -248q94 -64 236 -64q239 0 312 164q26 58 26 143v579q0 20 20 21h74q20 0 20 -21v-348
q0 -74 55.5 -112.5t130 -38.5t108.5 6t51.5 25.5t21.5 54.5t4 92v321q0 20 20 21h74q20 0 21 -21v-358q0 -70 57 -105.5t132.5 -35.5t109.5 7t57.5 33t23.5 138v512q0 20 21 20h74q20 0 20 -20v-537q0 -225 -143 -258q-43 -10 -92 -10h-95q-57 0 -112 25.5t-82 78.5
q-53 -104 -197 -104h-94zM1272 1026q-20 0 -21 21v122q0 20 21 21h106q20 0 21 -21v-122q0 -20 -21 -21h-106zM1534 1026q-20 0 -21 21v122q0 20 21 21h106q20 0 21 -21v-122q0 -20 -21 -21h-106zM1401 1288q-20 0 -21 21v123q0 20 21 20h106q20 0 21 -20v-123
q0 -20 -21 -21h-106z" />
    <glyph glyph-name="uni0635" unicode="&#x635;" horiz-adv-x="2125" arabic-form="isolated" 
d="M1526 862q479 0 479 -481q0 -251 -96 -325q-49 -38 -128 -47t-190 -9h-563q-20 -278 -264 -364q-84 -30 -196 -29q-222 0 -343 117t-121 313q0 129 42 235.5t92 176.5q8 12 28 0l64 -41q16 -10 6 -27q-115 -177 -115 -341t123 -248q94 -64 236 -64q235 0 311 164
q27 58 27 143v764q0 20 20 20h72q20 0 20 -20v-76q254 139 496 139zM1030 115h615q67 0 111 7q44 6 73 34q53 50 53 228.5t-78.5 271t-283 92.5t-490.5 -146v-487z" />
    <glyph glyph-name="uni0636" unicode="&#x636;" horiz-adv-x="2125" arabic-form="isolated" 
d="M1526 862q479 0 479 -481q0 -251 -96 -325q-49 -38 -128 -47t-190 -9h-563q-20 -278 -264 -364q-84 -30 -196 -29q-222 0 -343 117t-121 313q0 129 42 235.5t92 176.5q8 12 28 0l64 -41q16 -10 6 -27q-115 -177 -115 -341t123 -248q94 -64 236 -64q235 0 311 164
q27 58 27 143v764q0 20 20 20h72q20 0 20 -20v-76q254 139 496 139zM1030 115h615q67 0 111 7q44 6 73 34q53 50 53 228.5t-78.5 271t-283 92.5t-490.5 -146v-487zM1495 1026q-20 0 -20 21v122q0 20 20 21h82q20 0 20 -21v-122q0 -20 -20 -21h-82z" />
    <glyph glyph-name="uni0637" unicode="&#x637;" horiz-adv-x="1480" arabic-form="isolated" 
d="M881 862q481 0 481 -481q0 -248 -96 -324q-49 -39 -128 -48t-190 -9h-610q-43 0 -66 18q-36 -18 -108 -18h-80q-20 0 -21 20v74q0 20 21 21h70q73 0 95.5 35.5t22.5 140.5v1081q0 20 21 21h74q20 0 20 -21v-649q254 139 494 139zM387 244q0 -81 -22 -129h636q66 0 111 7
q44 6 72 34q52 52 52.5 229.5t-78 270t-288 92.5t-483.5 -146v-358z" />
    <glyph glyph-name="uni0638" unicode="&#x638;" horiz-adv-x="1480" arabic-form="isolated" 
d="M881 862q481 0 481 -481q0 -248 -96 -324q-49 -39 -128 -48t-190 -9h-610q-43 0 -66 18q-36 -18 -108 -18h-80q-20 0 -21 20v74q0 20 21 21h70q73 0 95.5 35.5t22.5 140.5v1081q0 20 21 21h74q20 0 20 -21v-649q254 139 494 139zM387 244q0 -81 -22 -129h636q66 0 111 7
q44 6 72 34q52 52 52.5 229.5t-78 270t-288 92.5t-483.5 -146v-358zM821 1026q-20 0 -20 21v122q0 20 20 21h82q20 0 21 -21v-122q0 -20 -21 -21h-82z" />
    <glyph glyph-name="uni0639" unicode="&#x639;" horiz-adv-x="1107" arabic-form="isolated" 
d="M332 0q-131 0 -131 -146q0 -66 42 -103.5t163 -37.5h188q20 0 20 -20v-74q0 -20 -20 -20h-197q-313 0 -313 260q0 131 69 191t164 69q-129 124 -129 325q0 260 199 372q82 46 208 46q224 0 341 -157q10 -18 -6 -29l-62 -45q-16 -12 -28 2q-92 115 -238.5 115
t-218.5 -84.5t-72 -193.5t29 -170.5t81 -115.5t122 -69h448q20 0 21 -21v-74q0 -20 -21 -20h-659z" />
    <glyph glyph-name="uni063A" unicode="&#x63a;" horiz-adv-x="1107" arabic-form="isolated" 
d="M332 0q-131 0 -131 -146q0 -66 42 -103.5t163 -37.5h188q20 0 20 -20v-74q0 -20 -20 -20h-197q-313 0 -313 260q0 131 69 191t164 69q-129 124 -129 325q0 260 199 372q82 46 208 46q224 0 341 -157q10 -18 -6 -29l-62 -45q-16 -12 -28 2q-92 115 -238.5 115
t-218.5 -84.5t-72 -193.5t29 -170.5t81 -115.5t122 -69h448q20 0 21 -21v-74q0 -20 -21 -20h-659zM563 1024q-20 0 -20 20v123q0 20 20 21h82q20 0 21 -21v-123q0 -20 -21 -20h-82z" />
    <glyph glyph-name="uni0641" unicode="&#x641;" horiz-adv-x="1890" arabic-form="isolated" 
d="M1044 438.5q0 206.5 98.5 315t262.5 108.5q360 0 360 -436q0 -227 -92 -326.5t-268 -99.5h-1071q-129 0 -184.5 51t-55.5 174v449q0 20 21 20h71q20 0 21 -20v-451q0 -59 23.5 -83.5t74.5 -24.5h811q-72 117 -72 323.5zM1649 420q0 328 -244 328q-123 0 -184.5 -85
t-61.5 -240t58.5 -231.5t187.5 -76.5t186.5 71.5t57.5 233.5zM1380 1026q-20 0 -20 21v122q0 20 20 21h82q20 0 21 -21v-122q0 -20 -21 -21h-82z" />
    <glyph glyph-name="uni0642" unicode="&#x642;" horiz-adv-x="1499" arabic-form="isolated" 
d="M1243 420q0 328 -248 328q-115 0 -180 -86.5t-65 -245t64.5 -230t197.5 -71.5h231v305zM1358 -129q0 -145 -64 -208.5t-254 -63.5h-510q-213 0 -333.5 116.5t-120.5 323.5q0 123 41 235.5t94 188.5q8 14 27 0l65 -41q16 -10 2 -33q-110 -181 -110 -335
q0 -176 96.5 -256.5t257.5 -80.5h467q121 0 173 26t52 112v145h-229q-379 0 -379 426q0 213 100.5 324.5t263.5 111.5q360 0 361 -440v-551zM807 1026q-20 0 -21 21v122q0 20 21 21h106q20 0 21 -21v-122q0 -20 -21 -21h-106zM1069 1026q-20 0 -20 21v122q0 20 20 21h107
q20 0 20 -21v-122q0 -20 -20 -21h-107z" />
    <glyph glyph-name="uni0643" unicode="&#x643;" horiz-adv-x="1677" arabic-form="isolated" 
d="M1311 115q53 0 76.5 23.5t23.5 84.5v1149q0 20 21 21h71q20 0 21 -21v-1151q0 -117 -51.5 -169t-161.5 -52h-977q-129 0 -184.5 51t-55.5 174v449q0 20 21 20h71q20 0 21 -20v-451q0 -59 23.5 -83.5t74.5 -24.5h1006zM877 868q104 0 104 -100v-94q0 -68 -25.5 -91.5
t-91.5 -23.5h-219q-20 0 -20 21v36q0 20 20 21h219q23 0 30 10t7 33v53q0 37 -13.5 47.5t-41.5 10.5h-115q-20 0 -20 20v27q0 14 10 24l162 193q16 20 32 4l31 -29q14 -14 -2 -31l-113 -131h46z" />
    <glyph glyph-name="uni0644" unicode="&#x644;" horiz-adv-x="1173" arabic-form="isolated" 
d="M555 -272q352 0 352 307v1337q0 20 21 21h71q20 0 21 -21v-1333q0 -305 -256 -399q-88 -32 -203 -33q-226 0 -346.5 117t-120.5 313q0 129 42 235.5t91 176.5q8 12 29 0l63 -41q16 -10 7 -27q-115 -177 -115 -340.5t121 -248.5q91 -64 223 -64z" />
    <glyph glyph-name="uni0645" unicode="&#x645;" horiz-adv-x="1177" arabic-form="isolated" 
d="M940 420q0 328 -244.5 328t-244.5 -328q0 -162 58 -241t187 -79t186.5 79t57.5 241zM696.5 862q360.5 0 360.5 -438t-361 -438q-227 0 -319 168q-20 -35 -55 -49.5t-68 -32t-57.5 -49t-24.5 -97.5v-327h-113v370q-1 145 135 213q91 46 116.5 73.5t29.5 66.5q-4 46 -4 104
q0 436 360.5 436z" />
    <glyph glyph-name="uni0646" unicode="&#x646;" horiz-adv-x="1161" arabic-form="isolated" 
d="M555 -272q352 0 352 307v590q0 20 21 20h71q20 0 21 -20v-586q0 -305 -256 -399q-88 -32 -203 -33q-226 0 -346.5 117t-120.5 313q0 129 42 235.5t91 176.5q8 12 29 0l63 -41q16 -10 7 -27q-115 -177 -115 -340.5t121 -248.5q91 -64 223 -64zM600 645q-20 0 -20 21v122
q0 20 20 21h82q20 0 20 -21v-122q0 -20 -20 -21h-82z" />
    <glyph glyph-name="uni0648" unicode="&#x648;" horiz-adv-x="999" arabic-form="isolated" 
d="M743 418q0 330 -232 330q-122 0 -190.5 -86.5t-68.5 -251.5t62.5 -230t197.5 -65h231v303zM297 -401q-20 0 -21 20v74q0 20 21 20h250q100 0 148 37t48 148v102h-231q-280 0 -352 214q-26 79 -27 193q0 219 105.5 337t275.5 118q344 0 344 -440v-522q0 -160 -66.5 -230.5
t-209.5 -70.5h-285z" />
    <glyph glyph-name="uni0649" unicode="&#x649;" horiz-adv-x="1552" arabic-form="isolated" 
d="M307 383q-114 -175 -114 -339t97.5 -245.5t258.5 -81.5h495q171 -1 197 75q8 24 8 59.5t-34.5 74.5t-86.5 78q-54 39 -114 81q-234 163 -234 341q0 120 82 210q84 90 254 91q170 -1 282 -101q30 -26 52 -51q10 -12 -6 -28l-53 -58q-10 -12 -27 5q-49 49 -105.5 82.5
t-146.5 33.5t-150.5 -46t-60.5 -114.5t35 -117.5t87 -94t112.5 -88.5t112.5 -89.5q122 -108 122 -216q0 -245 -291 -245h-549q-213 0 -333.5 116.5t-120.5 323.5q0 129 42 235.5t91 176.5q8 12 29 0l63 -41q16 -10 6 -27z" />
    <glyph glyph-name="uni064A" unicode="&#x64a;" horiz-adv-x="1552" arabic-form="isolated" 
d="M307 537q-114 -175 -114 -339t97.5 -245.5t258.5 -81.5h495q172 1 197 75q8 24 8 59.5t-34.5 74.5t-86.5 78q-54 39 -114 81q-234 163 -234 341q0 118 83 209.5t253 91.5q170 -1 282 -101q30 -26 52 -51q10 -12 -6 -29l-53 -57q-10 -12 -27 4q-49 49 -105.5 83t-146.5 34
t-150.5 -46t-60.5 -114.5t35 -118t87 -94.5t112.5 -88t112.5 -89q122 -108 122 -216q0 -176 -156 -228q-56 -18 -135 -18h-549q-213 0 -333.5 117t-120.5 324q0 129 42 235.5t91 175.5q8 12 29 0l63 -41q16 -10 6 -26zM532 -545q-20 0 -20 21v123q0 20 20 20h107
q20 0 20 -20v-123q0 -20 -20 -21h-107zM795 -545q-20 0 -21 21v123q0 20 21 20h106q20 0 21 -20v-123q0 -20 -21 -21h-106z" />
    <glyph glyph-name="uni0671" unicode="&#x671;" horiz-adv-x="419" arabic-form="isolated" 
d="M266 20q0 -20 -20 -20h-72q-20 0 -20 20v1352q0 20 20 21h72q20 0 20 -21v-1352zM257.5 1784q-53.5 0 -148.5 -39v-131h190q35 0 43 13t8 58t-19.5 72t-73 27zM259.5 1843q78.5 0 114.5 -47t36 -113q0 -129 -111 -129h-295q-14 0 -14 15v30q0 14 14 15h25q20 0 20 22v195
q0 14 17 14h26q16 0 17 -14v-25q72 37 150.5 37z" />
    <glyph glyph-name="uni0679" unicode="&#x679;" horiz-adv-x="1644" arabic-form="isolated" 
d="M1311 115q53 0 76.5 23.5t23.5 84.5v582q0 20 21 20h71q20 0 21 -20v-584q0 -117 -51.5 -169t-161.5 -52h-977q-129 0 -184.5 51t-55.5 174v449q0 20 21 20h71q20 0 21 -20v-451q0 -59 23.5 -83.5t74.5 -24.5h1006zM840.5 1126q-58.5 0 -144.5 -39v-131h191q35 0 43 13.5
t8 58.5t-19.5 71.5t-78 26.5zM847 1186q79 0 114.5 -48t35.5 -114q0 -127 -110 -127h-295q-14 0 -14 14v31q0 14 14 14h24q20 0 21 31v346q0 14 16 15h27q16 0 16 -15v-184q72 37 151 37z" />
    <glyph glyph-name="uni067E" unicode="&#x67e;" horiz-adv-x="1644" arabic-form="isolated" 
d="M1311 115q53 0 76.5 23.5t23.5 84.5v582q0 20 21 20h71q20 0 21 -20v-584q0 -117 -51.5 -169t-161.5 -52h-977q-129 0 -184.5 51t-55.5 174v449q0 20 21 20h71q20 0 21 -20v-451q0 -59 23.5 -83.5t74.5 -24.5h1006zM618 -336q-20 0 -20 21v122q0 20 20 21h107
q20 0 20 -21v-122q0 -20 -20 -21h-107zM881 -336q-20 0 -21 21v122q0 20 21 21h106q20 0 21 -21v-122q0 -20 -21 -21h-106zM756 -571q-20 0 -21 20v123q0 20 21 20h106q20 0 21 -20v-123q0 -20 -21 -20h-106z" />
    <glyph glyph-name="uni0686" unicode="&#x686;" horiz-adv-x="1087" arabic-form="isolated" 
d="M535 -236q-14 0 -15 15v90q0 14 15 14h77q14 0 15 -14v-90q0 -14 -15 -15h-77zM725 -236q-14 0 -14 15v90q0 14 14 14h78q14 0 14 -14v-90q0 -14 -14 -15h-78zM635 -406q-16 0 -17 15v88q0 16 17 16h76q16 0 16 -16v-88q0 -14 -16 -15h-76zM559 862q434 0 434 -524
q0 -190 -57.5 -264t-212.5 -74h-406q-78 0 -105.5 -43t-27.5 -107.5t37 -100.5t129 -36h133q20 0 21 -20v-74q0 -20 -21 -20h-121q-297 0 -296 251q0 144 73 204.5t164 60.5h383q118 0 150 42t32 156q0 224 -72 327t-235.5 103t-259.5 -114q-12 -18 -29 -4l-55 49
q-18 10 -6 28q125 160 348 160z" />
    <glyph glyph-name="uni0688" unicode="&#x688;" horiz-adv-x="991" arabic-form="isolated" 
d="M872 350q0 -204 -62 -277t-224 -73h-434q-20 0 -21 20v74q0 20 21 21h409q120 0 154.5 41.5t34.5 165.5v198q0 115 -61.5 171.5t-196.5 56.5h-240q-20 0 -21 20v74q0 20 21 20h274q250 0 322 -190q24 -66 24 -158v-164zM503.5 1262q-55.5 0 -147.5 -39v-131h191
q35 0 43 13t8 58t-19.5 72t-75 27zM507 1321q79 0 114.5 -48t35.5 -114q0 -127 -110 -127h-295q-14 0 -14 15v30q0 14 14 15h24q20 0 21 30v346q0 14 16 15h27q16 0 16 -15v-184q72 37 151 37z" />
    <glyph glyph-name="uni0691" unicode="&#x691;" horiz-adv-x="491" arabic-form="isolated" 
d="M350 -100q0 -301 -297 -301h-35q-20 0 -20 20v74q0 20 20 20h48q172 0 172 174v918q0 20 20 20h72q20 0 20 -20v-905zM346.5 1262q-56.5 0 -145.5 -39v-131h190q35 0 43 13t8 58t-19.5 72t-76 27zM351.5 1321q78.5 0 114.5 -48t36 -114q0 -127 -111 -127h-295
q-14 0 -14 15v30q0 14 14 15h25q20 0 20 30v346q0 14 17 15h26q16 0 17 -15v-184q72 37 150.5 37z" />
    <glyph glyph-name="uni0698" unicode="&#x698;" horiz-adv-x="491" arabic-form="isolated" 
d="M350 -100q0 -301 -297 -301h-35q-20 0 -20 20v74q0 20 20 20h48q172 0 172 174v918q0 20 20 20h72q20 0 20 -20v-905zM109 1026q-20 0 -21 21v122q0 20 21 21h106q20 0 21 -21v-122q0 -20 -21 -21h-106zM371 1026q-20 0 -21 21v122q0 20 21 21h106q20 0 21 -21v-122
q0 -20 -21 -21h-106zM238 1288q-20 0 -21 21v123q0 20 21 20h106q20 0 21 -20v-123q0 -20 -21 -21h-106z" />
    <glyph glyph-name="uni06A4" unicode="&#x6a4;" horiz-adv-x="1890" arabic-form="isolated" 
d="M1044 438.5q0 206.5 98.5 315t262.5 108.5q360 0 360 -436q0 -227 -92 -326.5t-268 -99.5h-1071q-129 0 -184.5 51t-55.5 174v449q0 20 21 20h71q20 0 21 -20v-451q0 -59 23.5 -83.5t74.5 -24.5h811q-72 117 -72 323.5zM1649 420q0 328 -244 328q-123 0 -184.5 -85
t-61.5 -240t58.5 -231.5t187.5 -76.5t186.5 71.5t57.5 233.5zM1219 1026q-20 0 -21 21v122q0 20 21 21h106q20 0 21 -21v-122q0 -20 -21 -21h-106zM1481 1026q-20 0 -21 21v122q0 20 21 21h106q20 0 21 -21v-122q0 -20 -21 -21h-106zM1348 1288q-20 0 -21 21v123q0 20 21 20
h106q20 0 21 -20v-123q0 -20 -21 -21h-106z" />
    <glyph glyph-name="uni06A9" unicode="&#x6a9;" horiz-adv-x="1689" arabic-form="isolated" 
d="M1227 825q249 -1 321 -191q24 -66 25 -157v-127q0 -202 -62 -276t-225 -74h-952q-129 0 -184.5 51t-55.5 174v449q0 20 21 20h71q20 0 21 -20v-451q0 -59 23.5 -83.5t74.5 -24.5h957q120 0 154 41t34 166v161q0 115 -61.5 171.5t-196.5 56.5h-342q-20 0 -21 20v76
q0 18 7 18l454 535q14 16 27 6l59 -47q20 -14 8 -29l-393 -465h236z" />
    <glyph glyph-name="uni06AF" unicode="&#x6af;" horiz-adv-x="1689" arabic-form="isolated" 
d="M1227 825q249 -1 321 -191q24 -66 25 -157v-127q0 -202 -62 -276t-225 -74h-952q-129 0 -184.5 51t-55.5 174v449q0 20 21 20h71q20 0 21 -20v-451q0 -59 23.5 -83.5t74.5 -24.5h957q120 0 154 41t34 166v161q0 115 -61.5 171.5t-196.5 56.5h-342q-20 0 -21 20v76
q0 18 7 18l454 535q14 16 27 6l59 -47q20 -14 8 -29l-393 -465h236zM745 911q-16 -18 -28 -6l-53 45q-18 16 -9 29l447 524q14 18 26 6l56 -45q18 -16 8 -28z" />
    <glyph glyph-name="uni06BA" unicode="&#x6ba;" horiz-adv-x="1161" arabic-form="isolated" 
d="M555 -272q352 0 352 307v590q0 20 21 20h71q20 0 21 -20v-586q0 -305 -256 -399q-88 -32 -203 -33q-226 0 -346.5 117t-120.5 313q0 129 42 235.5t91 176.5q8 12 29 0l63 -41q16 -10 7 -27q-115 -177 -115 -340.5t121 -248.5q91 -64 223 -64z" />
    <glyph glyph-name="uni06BE" unicode="&#x6be;" horiz-adv-x="1271" arabic-form="isolated" 
d="M379 306q0 -191 135 -191h27q60 1 84 27q45 50 45 149q0 182 -144 182q-77 0 -112 -51.5t-35 -115.5zM258 307.5q0 130.5 76 206.5t193.5 76t192.5 -74t75 -203q0 -82 -17.5 -131t-32.5 -67h48q153 0 199 66q36 51 36 215.5t-103.5 255.5t-280.5 91t-329 -84
q-23 -12 -28 -2l-35 62q-12 23 0 31q179 108 420.5 108t371.5 -150q108 -124 107.5 -329t-74.5 -292t-256 -87h-628q-47 0 -60.5 -13.5t-13.5 -56.5v-47q0 -20 -21 -20h-71q-20 0 -21 20v117q0 115 125 115h170q-43 62 -43 192.5z" />
    <glyph glyph-name="uni06C1" unicode="&#x6c1;" horiz-adv-x="935" arabic-form="isolated" 
d="M700 420q0 328 -244.5 328t-244.5 -328q0 -162 57.5 -241t186.5 -79t187 79t58 241zM454.5 862q360.5 0 360.5 -438t-360.5 -438t-360.5 438t360.5 438z" />
    <glyph glyph-name="uni06C2.fina" unicode="&#x6c2;" horiz-adv-x="962" 
d="M82 442q0 383 403 383h220q20 0 20 -20v-543q0 -72 29.5 -109.5t115.5 -37.5h93q43 0 62 -12.5t19 -49.5t-20 -45t-61 -8h-101q-129 0 -189.5 64.5t-60.5 168.5v463h-159q-141 0 -199.5 -71.5t-58.5 -206.5v-398q0 -20 -21 -20h-72q-20 0 -20 20v422zM315.5 1346.5
q47.5 62.5 153.5 62.5q47 0 91 -19.5t67 -54.5q6 -12 -4 -22l-31 -27q-10 -10 -26 6q-40 41 -99 41t-89 -36.5t-30 -100.5t62 -115h215q12 0 12 -14v-49q0 -14 -12 -14h-396q-12 0 -12 14v49q0 14 12 14h78q-39 66 -39 134.5t47.5 131z" />
    <glyph glyph-name="uni06C3.fina" unicode="&#x6c3;" horiz-adv-x="968" 
d="M434 748q-239 0 -239 -274q0 -146 58 -204.5t180 -58.5t171 59.5t49 161.5v316h-219zM417.5 96q-155.5 0 -246.5 89t-91 274q0 311 224 381q68 22 151 22h198v88q0 20 21 21h71q20 0 21 -21v-727q0 -61 23.5 -84.5t74.5 -23.5h105q41 0 61.5 -12.5t20.5 -50.5t-19.5 -45
t-62.5 -7h-111q-205 0 -205 176q-80 -80 -235.5 -80zM307 1096q-20 0 -20 20v123q0 20 20 21h107q20 0 20 -21v-123q0 -20 -20 -20h-107zM569 1096q-20 0 -20 20v123q0 20 20 21h107q20 0 20 -21v-123q0 -20 -20 -20h-107z" />
    <glyph glyph-name="uni06CC" unicode="&#x6cc;" horiz-adv-x="1552" arabic-form="isolated" 
d="M307 383q-114 -175 -114 -339t97.5 -245.5t258.5 -81.5h495q171 -1 197 75q8 24 8 59.5t-34.5 74.5t-86.5 78q-54 39 -114 81q-234 163 -234 341q0 120 82 210q84 90 254 91q170 -1 282 -101q30 -26 52 -51q10 -12 -6 -28l-53 -58q-10 -12 -27 5q-49 49 -105.5 82.5
t-146.5 33.5t-150.5 -46t-60.5 -114.5t35 -117.5t87 -94t112.5 -88.5t112.5 -89.5q122 -108 122 -216q0 -245 -291 -245h-549q-213 0 -333.5 116.5t-120.5 323.5q0 129 42 235.5t91 176.5q8 12 29 0l63 -41q16 -10 6 -27z" />
    <glyph glyph-name="uni06D2" unicode="&#x6d2;" horiz-adv-x="1515" arabic-form="isolated" 
d="M164 272q0 -157 248 -157h1042q20 0 21 -21v-74q0 -20 -21 -20h-1034q-201 0 -284 73t-83 185q1 167 217 297q167 100 219 139t78 88q4 6 13.5 7.5t17.5 -5.5l51 -39q12 -12 2 -28q-60 -95 -189 -177q-54 -34 -107.5 -65t-95.5 -63q-95 -74 -95 -140z" />
    <glyph glyph-name="uni06D3" unicode="&#x6d3;" horiz-adv-x="1515" arabic-form="isolated" 
d="M164 272q0 -157 248 -157h1042q20 0 21 -21v-74q0 -20 -21 -20h-1034q-201 0 -284 73t-83 185q1 167 217 297q167 100 219 139t78 88q4 6 13.5 7.5t17.5 -5.5l51 -39q12 -12 2 -28q-60 -95 -189 -177q-54 -34 -107.5 -65t-95.5 -63q-95 -74 -95 -140zM145.5 1135.5
q47.5 62.5 153.5 62.5q47 0 91 -19.5t67 -54.5q6 -12 -4 -22l-31 -27q-10 -10 -26 6q-40 41 -99 41t-89 -36.5t-30 -100.5t62 -115h215q12 0 12 -14v-49q0 -14 -12 -14h-396q-12 0 -12 14v49q0 14 12 14h78q-39 66 -39 134.5t47.5 131z" />
    <glyph glyph-name="uni06D5.fina" unicode="&#x6d5;" horiz-adv-x="968" 
d="M434 748q-239 0 -239 -274q0 -146 58 -204.5t180 -58.5t171 59.5t49 161.5v316h-219zM417.5 96q-155.5 0 -246.5 89t-91 274q0 311 224 381q68 22 151 22h198v88q0 20 21 21h71q20 0 21 -21v-727q0 -61 23.5 -84.5t74.5 -23.5h105q41 0 61.5 -12.5t20.5 -50.5t-19.5 -45
t-62.5 -7h-111q-205 0 -205 176q-80 -80 -235.5 -80z" />
    <glyph glyph-name="uniFB51" unicode="&#x671;" horiz-adv-x="473" arabic-form="final" 
d="M274.5 1784q-52.5 0 -149.5 -39v-131h190q35 0 43.5 13t8.5 58t-20 72t-72.5 27zM275.5 1843q78.5 0 114.5 -47t36 -113q0 -129 -111 -129h-295q-14 0 -14 15v30q0 14 14 15h25q20 0 21 22v195q0 14 16 14h27q16 0 16 -14v-25q72 37 150.5 37zM154 1372q0 20 20 21h72
q20 0 20 -21v-1149q0 -61 26.5 -84.5t78.5 -23.5h102q82 0 82 -58q0 -41 -19.5 -49t-62.5 -8h-80q-129 0 -184 52t-55 171v1149z" />
    <glyph glyph-name="uniFB57" unicode="&#x67e;" horiz-adv-x="1734" arabic-form="final" 
d="M1735 0q-169 0 -232 102q-41 -102 -192 -102h-977q-129 0 -184.5 51t-55.5 174v449q0 20 21 20h71q20 0 21 -20v-451q0 -59 23.5 -83.5t74.5 -24.5h1006q53 0 76.5 23.5t23.5 84.5v582q0 20 21 20h71q20 0 21 -20v-547q0 -74 56 -108.5t142 -34.5h13q82 0 82 -52
q0 -47 -19.5 -55t-62.5 -8zM621 -336q-20 0 -21 21v122q0 20 21 21h106q20 0 21 -21v-122q0 -20 -21 -21h-106zM883 -336q-20 0 -21 21v122q0 20 21 21h106q20 0 21 -21v-122q0 -20 -21 -21h-106zM758 -571q-20 0 -21 20v123q0 20 21 20h106q20 0 21 -20v-123q0 -20 -21 -20
h-106z" />
    <glyph glyph-name="uniFB58" unicode="&#x67e;" horiz-adv-x="520" arabic-form="initial" 
d="M0 0q-41 0 -61.5 8t-20.5 45t19.5 49.5t62.5 12.5h147q51 0 75 23.5t24 84.5v582q0 20 20 20h74q20 0 20 -20v-547q0 -133 -55 -195.5t-184 -62.5h-121zM59 -336q-20 0 -20 21v122q0 20 20 21h107q20 0 20 -21v-122q0 -20 -20 -21h-107zM322 -336q-20 0 -21 21v122
q0 20 21 21h106q20 0 21 -21v-122q0 -20 -21 -21h-106zM197 -571q-20 0 -21 20v123q0 20 21 20h106q20 0 21 -20v-123q0 -20 -21 -20h-106z" />
    <glyph glyph-name="uniFB59" unicode="&#x67e;" horiz-adv-x="587" arabic-form="medial" 
d="M377 268q0 -78 54 -115.5t144 -37.5h13q41 0 61.5 -11.5t20.5 -44t-18.5 -46t-84 -13.5t-127 19.5t-90.5 89.5q-25 -49 -65.5 -79t-118.5 -30h-166q-39 0 -56.5 11.5t-17.5 45t16.5 46t57.5 12.5h154q75 0 92 38q18 38 18 134v518q0 20 21 20h71q20 0 21 -20v-537z
M123 -336q-20 0 -21 21v122q0 20 21 21h106q20 0 21 -21v-122q0 -20 -21 -21h-106zM385 -336q-20 0 -20 21v122q0 20 20 21h107q20 0 20 -21v-122q0 -20 -20 -21h-107zM260 -571q-20 0 -20 20v123q0 20 20 20h107q20 0 20 -20v-123q0 -20 -20 -20h-107z" />
    <glyph glyph-name="uniFB67" unicode="&#x679;" horiz-adv-x="1734" arabic-form="final" 
d="M1735 0q-169 0 -232 102q-41 -102 -192 -102h-977q-129 0 -184.5 51t-55.5 174v449q0 20 21 20h71q20 0 21 -20v-451q0 -59 23.5 -83.5t74.5 -24.5h1006q53 0 76.5 23.5t23.5 84.5v582q0 20 21 20h71q20 0 21 -20v-547q0 -74 56 -108.5t142 -34.5h13q82 0 82 -52
q0 -47 -19.5 -55t-62.5 -8zM840.5 1126q-58.5 0 -144.5 -39v-131h191q35 0 43 13.5t8 58.5t-19.5 71.5t-78 26.5zM847 1186q79 0 114.5 -48t35.5 -114q0 -127 -110 -127h-295q-14 0 -14 14v31q0 14 14 14h24q20 0 21 31v346q0 14 16 15h27q16 0 16 -15v-184q72 37 151 37z
" />
    <glyph glyph-name="uniFB68" unicode="&#x679;" horiz-adv-x="522" arabic-form="initial" 
d="M150 115q106 0 106 108v582q0 20 20 20h72q20 0 21 -20v-547q0 -139 -50 -198.5t-190 -59.5h-129q-41 0 -61.5 10t-20.5 47t19.5 47.5t62.5 10.5h150zM370.5 1262q-55.5 0 -147.5 -39v-131h191q35 0 43 13t8 58t-19.5 72t-75 27zM373.5 1321q78.5 0 114.5 -48t36 -114
q0 -127 -110 -127h-295q-14 0 -15 15v30q0 14 15 15h24q20 0 21 30v346q0 14 16 15h27q16 0 16 -15v-184q72 37 150.5 37z" />
    <glyph glyph-name="uniFB69" unicode="&#x679;" horiz-adv-x="579" arabic-form="medial" 
d="M369 268q0 -78 54 -115.5t144 -37.5h13q41 0 61.5 -11.5t20.5 -44t-18.5 -46t-84 -13.5t-127 19.5t-90.5 89.5q-25 -49 -65.5 -79t-118.5 -30h-158q-39 0 -60.5 11.5t-21.5 45t20.5 46t61.5 12.5h145q74 0 92.5 37.5t18.5 134.5v518q0 20 20 20h72q20 0 21 -20v-537z
M364 1262q-55 0 -147 -39v-131h191q35 0 43 13t8 58t-20 72t-75 27zM367.5 1321q78.5 0 114.5 -48t36 -114q0 -127 -110 -127h-295q-14 0 -15 15v30q0 14 15 15h24q20 0 21 30v346q0 14 16 15h27q16 0 16 -15v-184q72 37 150.5 37z" />
    <glyph glyph-name="uniFB6B" unicode="&#x6a4;" horiz-adv-x="1959" arabic-form="final" 
d="M1042 479q0 156 104 269.5t286.5 113.5t284.5 -107.5t102 -269.5q0 -113 -60 -216t-151 -154h352q41 0 61.5 -9.5t20.5 -45.5t-19.5 -48t-62.5 -12h-264q-74 0 -139.5 6t-124.5 43q-68 -37 -145 -43t-136 -6h-817q-129 0 -184.5 51t-55.5 174v449q0 20 21 20h71
q20 0 21 -20v-451q0 -59 23.5 -83.5t74.5 -24.5h944q-207 152 -207 364zM1694 477q0 127 -74.5 196.5t-190.5 69.5t-191 -73t-75 -191t75 -205.5t192 -132.5q180 67 242 223q22 54 22 113zM1241 1026q-20 0 -20 21v122q0 20 20 21h107q20 0 20 -21v-122q0 -20 -20 -21h-107z
M1503 1026q-20 0 -20 21v122q0 20 20 21h107q20 0 20 -21v-122q0 -20 -20 -21h-107zM1370 1288q-20 0 -20 21v123q0 20 20 20h107q20 0 20 -20v-123q0 -20 -20 -21h-107z" />
    <glyph glyph-name="uniFB6C" unicode="&#x6a4;" horiz-adv-x="1060" arabic-form="initial" 
d="M819 420q0 328 -246 328q-121 0 -182 -85t-61 -240t57 -231.5t186 -76.5t187.5 71.5t58.5 233.5zM213 440.5q0 204.5 99.5 313t260.5 108.5q360 0 361 -436q0 -227 -91 -326.5t-270 -99.5h-573q-43 0 -62.5 11.5t-19.5 51.5q0 52 82 52h287q-74 121 -74 325.5zM381 1026
q-20 0 -21 21v122q0 20 21 21h106q20 0 21 -21v-122q0 -20 -21 -21h-106zM643 1026q-20 0 -20 21v122q0 20 20 21h107q20 0 20 -21v-122q0 -20 -20 -21h-107zM510 1288q-20 0 -21 21v123q0 20 21 20h106q20 0 21 -20v-123q0 -20 -21 -21h-106z" />
    <glyph glyph-name="uniFB6D" unicode="&#x6a4;" horiz-adv-x="1032" arabic-form="medial" 
d="M766 477q0 127 -74.5 196.5t-190.5 69.5t-190.5 -72.5t-74.5 -190.5t73.5 -205t192.5 -134q180 67 242 223q22 54 22 113zM115 479q0 157 103.5 270t285.5 113t284.5 -106.5t102.5 -270.5q0 -113 -60 -216t-151 -154h352q41 0 61.5 -9.5t20.5 -45.5t-19.5 -48t-62.5 -12
h-264q-74 0 -139.5 6t-124.5 43q-68 -37 -144.5 -43t-136.5 -6h-223q-82 0 -82 59q0 33 19.5 44.5t62.5 11.5h322q-207 152 -207 364zM319 1026q-20 0 -20 21v122q0 20 20 21h107q20 0 20 -21v-122q0 -20 -20 -21h-107zM582 1026q-20 0 -21 21v122q0 20 21 21h106
q20 0 21 -21v-122q0 -20 -21 -21h-106zM449 1288q-20 0 -21 21v123q0 20 21 20h106q20 0 20 -20v-123q0 -20 -20 -21h-106z" />
    <glyph glyph-name="uniFB7B" unicode="&#x686;" horiz-adv-x="1220" arabic-form="final" 
d="M535 -236q-14 0 -15 15v90q0 14 15 14h77q14 0 15 -14v-90q0 -14 -15 -15h-77zM725 -236q-14 0 -14 15v90q0 14 14 14h78q14 0 14 -14v-90q0 -14 -14 -15h-78zM635 -406q-16 0 -17 15v88q0 16 17 16h76q16 0 16 -16v-88q0 -14 -16 -15h-76zM578 862q434 0 434 -516v-94
q0 -70 48 -103.5t126 -33.5h33q41 0 61 -11.5t20 -47.5t-19 -46t-83.5 -10t-128 21.5t-92.5 93.5q-31 -61 -87 -88t-149 -27h-424q-78 0 -105.5 -43t-27.5 -107.5t37 -100.5t129 -36h133q20 0 21 -20v-74q0 -20 -21 -20h-121q-297 0 -296 251q0 144 73 204.5t164 60.5h402
q118 0 150 42t32 156q0 223 -72.5 326.5t-235 103.5t-260.5 -114q-12 -18 -28 -4l-55 49q-18 10 -7 28q125 160 349 160z" />
    <glyph glyph-name="uniFB7C" unicode="&#x686;" horiz-adv-x="1046" arabic-form="initial" 
d="M492 862q434 0 434 -524q0 -188 -57 -263t-214 -75h-655q-82 0 -82 53q0 43 19.5 52.5t62.5 9.5h618q119 0 151 42t32 156q0 223 -72.5 326.5t-235 103.5t-260.5 -114q-12 -18 -28 -4l-55 49q-18 10 -7 28q125 160 349 160zM346 -336q-20 0 -20 21v122q0 20 20 21h107
q20 0 20 -21v-122q0 -20 -20 -21h-107zM608 -336q-20 0 -20 21v122q0 20 20 21h107q20 0 20 -21v-122q0 -20 -20 -21h-107zM483 -571q-20 0 -20 20v123q0 20 20 20h107q20 0 20 -20v-123q0 -20 -20 -20h-107z" />
    <glyph glyph-name="uniFB7D" unicode="&#x686;" horiz-adv-x="1132" arabic-form="medial" 
d="M492 862q434 0 434 -516v-94q0 -70 48 -103.5t126 -33.5h33q41 0 61 -11.5t20 -47.5t-19 -46t-83.5 -10t-128 21.5t-92.5 93.5q-31 -61 -87 -88t-149 -27h-655q-82 0 -82 53q0 43 19.5 52.5t62.5 9.5h618q119 0 151 42t32 156q0 223 -72.5 326.5t-235 103.5t-260.5 -114
q-12 -18 -28 -4l-55 49q-18 10 -7 28q125 160 349 160zM346 -336q-20 0 -20 21v122q0 20 20 21h107q20 0 20 -21v-122q0 -20 -20 -21h-107zM608 -336q-20 0 -20 21v122q0 20 20 21h107q20 0 20 -21v-122q0 -20 -20 -21h-107zM483 -571q-20 0 -20 20v123q0 20 20 20h107
q20 0 20 -20v-123q0 -20 -20 -20h-107z" />
    <glyph glyph-name="uniFB89" unicode="&#x688;" horiz-adv-x="1083" arabic-form="final" 
d="M872 270q0 -78 54.5 -116.5t144.5 -38.5h12q41 0 61.5 -12.5t20.5 -47.5t-19.5 -45t-83.5 -10q-185 0 -224 119q-29 -66 -86.5 -92.5t-149.5 -26.5h-450q-20 0 -21 20v74q0 20 21 21h409q120 0 154.5 41.5t34.5 165.5v198q0 115 -61.5 171.5t-196.5 56.5h-240
q-20 0 -21 20v74q0 20 21 20h274q250 0 322 -190q24 -66 24 -158v-244zM503.5 1262q-55.5 0 -147.5 -39v-131h191q35 0 43 13t8 58t-19.5 72t-75 27zM507 1321q79 0 114.5 -48t35.5 -114q0 -127 -110 -127h-295q-14 0 -14 15v30q0 14 14 15h24q20 0 21 30v346q0 14 16 15h27
q16 0 16 -15v-184q72 37 151 37z" />
    <glyph glyph-name="uniFB8B" unicode="&#x698;" horiz-adv-x="559" arabic-form="final" 
d="M66 -287q172 0 172 174v918q0 20 20 20h72q20 0 20 -20v-537q0 -78 54.5 -115.5t144.5 -37.5h10q82 0 82 -52q0 -47 -19.5 -55t-75 -8t-106.5 10t-90 53v-163q0 -301 -297 -301h-35q-20 0 -20 20v74q0 20 20 20h48zM115 1026q-20 0 -21 21v122q0 20 21 21h106
q20 0 21 -21v-122q0 -20 -21 -21h-106zM377 1026q-20 0 -21 21v122q0 20 21 21h106q20 0 21 -21v-122q0 -20 -21 -21h-106zM244 1288q-20 0 -21 21v123q0 20 21 20h106q20 0 21 -20v-123q0 -20 -21 -21h-106z" />
    <glyph glyph-name="uniFB8D" unicode="&#x691;" horiz-adv-x="559" arabic-form="final" 
d="M66 -287q172 0 172 174v918q0 20 20 20h72q20 0 20 -20v-537q0 -78 54.5 -115.5t144.5 -37.5h10q82 0 82 -52q0 -47 -19.5 -55t-75 -8t-106.5 10t-90 53v-163q0 -301 -297 -301h-35q-20 0 -20 20v74q0 20 20 20h48zM350 1262q-55 0 -147 -39v-131h190q35 0 43 13t8 58
t-19.5 72t-74.5 27zM353.5 1321q78.5 0 114.5 -48t36 -114q0 -127 -111 -127h-295q-14 0 -14 15v30q0 14 14 15h25q20 0 20 30v346q0 14 17 15h26q16 0 17 -15v-184q72 37 150.5 37z" />
    <glyph glyph-name="uniFB8F" unicode="&#x6a9;" horiz-adv-x="1777" arabic-form="final" 
d="M848 711q-20 0 -21 20v76q0 18 7 18l454 535q14 16 27 6l59 -47q20 -14 8 -29l-393 -465h232q249 -1 321 -191q24 -66 25 -157v-207q0 -78 54 -116.5t144 -38.5h13q41 0 61.5 -12.5t20.5 -47.5t-20 -45t-84 -10q-186 0 -224 119q-29 -66 -86 -92.5t-150 -26.5h-962
q-129 0 -184.5 51t-55.5 174v449q0 20 21 20h71q20 0 21 -20v-451q0 -59 23.5 -83.5t74.5 -24.5h950q121 0 155 41t34 166v161q0 115 -61.5 171.5t-196.5 56.5h-338z" />
    <glyph glyph-name="uniFB90" unicode="&#x6a9;" horiz-adv-x="1007" arabic-form="initial" 
d="M166 711q-20 0 -21 20v76q0 18 7 18l454 535q14 16 27 6l59 -47q20 -14 8 -29l-393 -465h236q249 -1 321 -191q24 -66 25 -157v-127q0 -202 -62 -276t-225 -74h-602q-41 0 -61.5 11.5t-20.5 47t19.5 46t62.5 10.5h578q120 0 154 41t34 166v161q0 115 -61.5 171.5
t-196.5 56.5h-342z" />
    <glyph glyph-name="uniFB91" unicode="&#x6a9;" horiz-adv-x="1095" arabic-form="medial" 
d="M543 825q249 -1 321 -191q24 -66 25 -157v-207q0 -78 54 -116.5t144 -38.5h13q41 0 61.5 -12.5t20.5 -47.5t-20 -45t-84 -10q-184 0 -224 119q-29 -66 -86 -92.5t-150 -26.5h-618q-82 0 -82 57q0 41 19.5 49.5t62.5 8.5h578q120 0 154 41t34 166v161q0 115 -61.5 171.5
t-196.5 56.5h-342q-20 0 -21 20v76q0 18 7 18l454 535q14 16 27 6l59 -47q20 -14 8 -29l-393 -465h236z" />
    <glyph glyph-name="uniFB93" unicode="&#x6af;" horiz-adv-x="1777" arabic-form="final" 
d="M848 711q-20 0 -21 20v76q0 18 7 18l454 535q14 16 27 6l59 -47q20 -14 8 -29l-393 -465h232q249 -1 321 -191q24 -66 25 -157v-207q0 -78 54 -116.5t144 -38.5h13q41 0 61.5 -12.5t20.5 -47.5t-20 -45t-84 -10q-186 0 -224 119q-29 -66 -86 -92.5t-150 -26.5h-962
q-129 0 -184.5 51t-55.5 174v449q0 20 21 20h71q20 0 21 -20v-451q0 -59 23.5 -83.5t74.5 -24.5h950q121 0 155 41t34 166v161q0 115 -61.5 171.5t-196.5 56.5h-338zM745 911q-16 -18 -28 -6l-53 45q-18 16 -9 29l447 524q14 18 26 6l56 -45q18 -16 8 -28z" />
    <glyph glyph-name="uniFB94" unicode="&#x6af;" horiz-adv-x="987" arabic-form="initial" 
d="M166 711q-20 0 -21 20v76q0 18 7 18l454 535q14 16 27 6l59 -47q20 -14 8 -29l-393 -465h236q249 -1 321 -191q24 -66 25 -157v-127q0 -202 -62 -276t-225 -74h-602q-41 0 -61.5 11.5t-20.5 47t19.5 46t62.5 10.5h578q120 0 154 41t34 166v161q0 115 -61.5 171.5
t-196.5 56.5h-342zM84 911q-16 -18 -29 -6l-53 45q-18 16 -8 29l446 524q14 18 27 6l55 -45q18 -16 8 -28z" />
    <glyph glyph-name="uniFB95" unicode="&#x6af;" horiz-adv-x="1097" arabic-form="medial" 
d="M84 911q-16 -18 -29 -6l-53 45q-18 16 -8 29l446 524q14 18 27 6l55 -45q18 -16 8 -28zM543 825q249 -1 321 -191q24 -66 25 -157v-207q0 -78 54 -116.5t144 -38.5h13q41 0 61.5 -12.5t20.5 -47.5t-20 -45t-84 -10q-184 0 -224 119q-29 -66 -86 -92.5t-150 -26.5h-618
q-82 0 -82 57q0 41 19.5 49.5t62.5 8.5h578q120 0 154 41t34 166v161q0 115 -61.5 171.5t-196.5 56.5h-342q-20 0 -21 20v76q0 18 7 18l454 535q14 16 27 6l59 -47q20 -14 8 -29l-393 -465h236z" />
    <glyph glyph-name="uniFB9F" unicode="&#x6ba;" horiz-adv-x="1212" arabic-form="final" 
d="M1212 0q-130 0 -192 66v-27q0 -305 -256 -399q-88 -32 -203 -33q-226 0 -346.5 117t-120.5 313q0 129 42 235.5t91 176.5q8 12 29 0l63 -41q16 -10 7 -27q-115 -177 -115 -341t123 -248q94 -64 235 -64q237 0 311 164q26 58 27 143v590q0 20 21 20h71q20 0 21 -20v-357
q0 -153 182 -153h10q49 0 65.5 -11.5t16.5 -46t-19.5 -46t-62.5 -11.5z" />
    <glyph glyph-name="uniFBA5" unicode="&#x6c0;" horiz-adv-x="987" arabic-form="final" 
d="M346 1116q-41 64 -41 137t32 117q62 84 167 84t151 -65q5 -13 0 -23l-34 -20q-14 -12 -23 -5q-43 48 -104.5 48t-91 -41t-29.5 -89.5t25.5 -87t50.5 -55.5h213q12 0 12 -14v-39q0 -14 -12 -14h-396q-12 0 -12 14v39q0 14 12 14h80zM213 459q0 -248 237 -248
q123 0 172.5 81t49.5 218v238h-219q-240 0 -240 -289zM453.5 96q-152.5 0 -255 90t-102.5 285t106.5 293t270.5 98h199v88q0 20 20 21h72q20 0 20 -21v-727q0 -61 23.5 -84.5t75.5 -23.5h102q41 0 61.5 -12.5t20.5 -50.5t-19.5 -45t-62.5 -7h-74q-197 0 -231 170
q-74 -74 -226.5 -74z" />
    <glyph glyph-name="uniFBA7" unicode="&#x6c1;" horiz-adv-x="962" arabic-form="final" 
d="M82 442q0 383 403 383h220q20 0 20 -20v-543q0 -72 29.5 -109.5t115.5 -37.5h93q43 0 62 -12.5t19 -49.5t-20 -45t-61 -8h-101q-129 0 -189.5 64.5t-60.5 168.5v463h-159q-141 0 -199.5 -71.5t-58.5 -206.5v-398q0 -20 -21 -20h-72q-20 0 -20 20v422z" />
    <glyph glyph-name="uniFBA8" unicode="&#x6c1;" horiz-adv-x="534" arabic-form="initial" 
d="M215 -56q0 -111 180 -110q20 0 21 -20v-66q-2 -22 -44 -22h-22q-170 0 -234 113q-22 40 -22 83.5t6 77.5h-100q-41 0 -61.5 10t-20.5 48t19.5 47.5t62.5 9.5h158q51 0 74.5 23.5t23.5 84.5v582q0 20 20 20h72q20 0 21 -20v-547q0 -106 -34 -166.5t-112 -81.5
q-8 -34 -8 -66z" />
    <glyph glyph-name="uniFBA9" unicode="&#x6c1;" horiz-adv-x="856" arabic-form="medial" 
d="M254 115q20 0 20 -21v-145q0 -92 50.5 -139.5t146.5 -47.5v103q0 181 114 231q42 18 105 19h166q41 0 61.5 -10.5t20.5 -45.5q0 -59 -82 -59h-145q-66 0 -96.5 -25.5t-30.5 -95.5v-213q0 -20 -21 -20h-35q-166 0 -266 69.5t-100 227.5v57h-162q-82 0 -82 57
q0 35 19.5 46.5t62.5 11.5h254z" />
    <glyph glyph-name="uniFBAB" unicode="&#x6be;" horiz-adv-x="1114" arabic-form="final" 
d="M603 -295q122 0 173 37t51 110.5t-51.5 110.5t-193.5 37h-222v-131q0 -96 60.5 -130t182.5 -34zM607 748q-118 0 -182.5 -78t-64.5 -226v-329h287q99 0 149 98t50 231.5t-60.5 218.5t-178.5 85zM944 -123q0 -131 -87.5 -209t-268.5 -78q-342 0 -342 275v135h-53
q-47 0 -60.5 -13.5t-13.5 -56.5v-47q0 -20 -21 -20h-71q-20 0 -21 20v117q0 115 125 115h115v305q0 219 98 330.5t267 111.5t260.5 -109.5t91.5 -320.5q0 -94 -28 -179t-65 -138h244q84 0 84 -60q0 -55 -84 -55h-221q51 -56 51 -123z" />
    <glyph glyph-name="uniFBAC" unicode="&#x6be;" horiz-adv-x="1241" arabic-form="initial" 
d="M348 306q0 -191 135 -191h27q62 1 85 27q44 51 44 149q0 182 -143 182q-78 0 -113 -51.5t-35 -115.5zM227 307.5q0 130.5 76 206.5t194 76t192.5 -74t74.5 -203q0 -82 -17.5 -131t-31.5 -67h47q154 0 200 66q36 51 35.5 215.5t-104 255.5t-281 91t-327.5 -84
q-24 -12 -29 -2l-35 62q-12 23 0 31q179 108 421 108q240 0 370 -150q108 -124 108 -328.5t-73 -292t-256 -87.5h-791q-41 0 -61.5 10t-20.5 47t19.5 47.5t62.5 10.5h270q-43 62 -43 192.5z" />
    <glyph glyph-name="uniFBAD" unicode="&#x6be;" horiz-adv-x="1122" arabic-form="medial" 
d="M611 -295q122 0 173.5 37t51.5 110t-52 110.5t-194 37.5h-221v-131q0 -96 60 -130t182 -34zM615 748q-118 0 -182 -78t-64 -226v-329h286q99 0 149 98t50 231.5t-60.5 218.5t-178.5 85zM952 -123q0 -131 -87.5 -209t-268.5 -78q-342 0 -342 275v135h-254q-82 0 -82 57
q0 39 19.5 48.5t62.5 9.5h254v305q0 219 98.5 330.5t267 111.5t260 -109.5t91.5 -320.5q0 -94 -28 -179t-64 -138h243q84 0 84 -60q0 -55 -84 -55h-221q51 -56 51 -123z" />
    <glyph glyph-name="uniFBAF" unicode="&#x6d2;" horiz-adv-x="667" arabic-form="final" 
d="M328 -401q-281 0 -281 254q0 139 95 207q76 56 204 55h322q41 0 61.5 -9.5t20.5 -48.5q0 -57 -82 -57h-338q-96 0 -138 -39t-42 -94q0 -96 49.5 -125t150.5 -29h819q20 0 21 -20v-74q0 -20 -21 -20h-841z" />
    <glyph glyph-name="uniFBB1" unicode="&#x6d3;" horiz-adv-x="667" arabic-form="final" 
d="M328 -401q-281 0 -281 254q0 139 95 207q76 56 204 55h322q41 0 61.5 -9.5t20.5 -48.5q0 -57 -82 -57h-338q-96 0 -138 -39t-42 -94q0 -96 49.5 -125t150.5 -29h819q20 0 21 -20v-74q0 -20 -21 -20h-841zM355 567q-119 0 -119 -137q0 -64 61 -115h215q12 0 12 -14v-49
q0 -14 -12 -14h-395q-12 0 -13 14v49q0 14 13 14h78q-39 66 -39 114q0 90 47 152t153 62q47 0 91.5 -19.5t66.5 -54.5q6 -12 -4 -22l-31 -27q-10 -10 -25 6q-39 41 -99 41z" />
    <glyph glyph-name="uniFBE8" unicode="&#x649;" horiz-adv-x="522" arabic-form="initial" 
d="M150 115q106 0 106 108v582q0 20 20 20h72q20 0 21 -20v-547q0 -139 -50 -199q-50 -59 -190 -59h-129q-41 0 -61.5 10t-20.5 47t19.5 47.5t62.5 10.5h150z" />
    <glyph glyph-name="uniFBE9" unicode="&#x649;" horiz-adv-x="579" arabic-form="medial" 
d="M369 268q0 -78 54 -115.5t144 -37.5h13q41 0 61.5 -11.5t20.5 -44t-18.5 -46t-84 -13.5t-127 19.5t-90.5 89.5q-25 -49 -65.5 -79t-118.5 -30h-158q-39 0 -60.5 11.5t-21.5 45t20.5 46t61.5 12.5h145q74 0 93 38q18 38 18 134v518q0 20 20 20h72q20 0 21 -20v-537z" />
    <glyph glyph-name="uniFBFD" unicode="&#x6cc;" horiz-adv-x="1490" arabic-form="final" 
d="M1057 -283q215 1 215 137q0 60 -30 96t-87 66.5t-140 59t-188 67.5q-18 6 -12 25l35 82q6 20 24 14q66 -26 128 -52q230 -97 362 -97h127q41 0 61.5 -6.5t20.5 -44t-19.5 -51t-62.5 -13.5h-152q41 -66 41 -129q0 -126 -74 -199t-225 -73h-551q-213 0 -333.5 116.5
t-120.5 323.5q0 129 42 235.5t91 176.5q8 12 29 0l63 -41q16 -10 6 -27q-114 -175 -114 -339t97.5 -245.5t258.5 -81.5h508z" />
    <glyph glyph-name="uniFBFE" unicode="&#x6cc;" horiz-adv-x="520" arabic-form="initial" 
d="M0 0q-41 0 -61.5 8t-20.5 45t19.5 49.5t62.5 12.5h147q51 0 75 23.5t24 84.5v582q0 20 20 20h74q20 0 20 -20v-547q0 -133 -55 -195.5t-184 -62.5h-121zM53 -336q-20 0 -20 21v122q0 20 20 21h107q20 0 20 -21v-122q0 -20 -20 -21h-107zM315 -336q-20 0 -20 21v122
q0 20 20 21h107q20 0 20 -21v-122q0 -20 -20 -21h-107z" />
    <glyph glyph-name="uniFBFF" unicode="&#x6cc;" horiz-adv-x="587" arabic-form="medial" 
d="M377 268q0 -78 54 -115.5t144 -37.5h13q41 0 61.5 -11.5t20.5 -44t-18.5 -46t-84 -13.5t-127 19.5t-90.5 89.5q-25 -49 -65.5 -79t-118.5 -30h-166q-39 0 -56.5 11.5t-17.5 45t16.5 46t57.5 12.5h154q75 0 92 38q18 38 18 134v518q0 20 21 20h71q20 0 21 -20v-537z
M125 -336q-20 0 -21 21v122q0 20 21 21h106q20 0 21 -21v-122q0 -20 -21 -21h-106zM387 -336q-20 0 -20 21v122q0 20 20 21h107q20 0 20 -21v-122q0 -20 -20 -21h-107z" />
    <glyph glyph-name="uniFC5E" unicode="&#xfc5e;" horiz-adv-x="0" arabic-form="isolated" 
d="M-260 1835q0 20 20 20h33q20 0 21 -20v-152q0 -39 20.5 -60t53 -21t53 19t20.5 54v160q0 20 21 20h32q20 0 21 -20v-160q0 -35 20.5 -54t52.5 -19t53 21.5t21 59.5v152q0 20 21 20h33q20 0 20 -20v-145q0 -72 -42 -115t-108.5 -43t-105.5 45q-39 -45 -107.5 -45
t-110.5 43t-42 115v145zM178 2196v20q0 59 -24.5 90t-63.5 31q-40 0 -60 -29q-20 -30 -20 -56q0 -39 28 -57t62 -18h74q4 7 4 19zM-297 2216q-20 0 -20 20v25q0 20 20 20h8q66 0 110 -41.5t44 -138.5q0 -53 31.5 -65.5t85.5 -12.5q89 0 129 28.5t51 62.5h-72
q-68 0 -107.5 36.5t-39.5 100.5t44 106.5t107.5 42.5t106.5 -43t43 -129q0 -148 -66.5 -209t-175.5 -61t-143 20q-62 36 -62 109q0 129 -78 129h-16z" />
    <glyph glyph-name="uniFC5F" unicode="&#xfc5f;" horiz-adv-x="0" arabic-form="isolated" 
d="M-260 2165q0 20 20 20h33q20 0 21 -20v-152q0 -39 20.5 -60.5t53 -21.5t53 19.5t20.5 54.5v160q0 20 21 20h32q20 0 21 -20v-160q0 -35 20.5 -54.5t52.5 -19.5t53 21.5t21 60.5v152q0 20 21 20h33q20 0 20 -20v-146q0 -72 -42 -114.5t-108 -42.5t-106 45
q-40 -45 -108 -45t-110 43t-42 114v146zM-258 1679q-20 0 -21 21v22q0 20 21 21h520q20 0 21 -21v-22q0 -20 -21 -21h-520zM-258 1536q-20 0 -21 20v23q0 20 21 20h520q20 0 21 -20v-23q0 -20 -21 -20h-520z" />
    <glyph glyph-name="uniFC60" unicode="&#xfc60;" horiz-adv-x="0" arabic-form="isolated" 
d="M-262 1968q-20 0 -21 21v22q0 20 21 21h520q20 0 21 -21v-22q0 -20 -21 -21h-520zM-260 1835q0 20 20 20h33q20 0 21 -20v-152q0 -39 20.5 -60t53 -21t53 19t20.5 54v160q0 20 21 20h32q20 0 21 -20v-160q0 -35 20.5 -54t52.5 -19t53 21.5t21 59.5v152q0 20 21 20h33
q20 0 20 -20v-145q0 -72 -42 -115t-108 -43t-106 45q-40 -45 -108 -45t-110 43t-42 115v145z" />
    <glyph glyph-name="uniFC61" unicode="&#xfc61;" horiz-adv-x="0" arabic-form="isolated" 
d="M-92 2017q141 0 172 92h-72q-70 0 -108.5 36t-38.5 99.5t43 107.5t106.5 44t107.5 -43t44 -129q0 -150 -66.5 -211t-187.5 -61h-58q-20 0 -20 20v25q0 20 20 20h58zM94 2192v20q0 59 -23.5 89t-62.5 30t-60.5 -29t-21.5 -64.5t34 -51t58 -15.5h74q2 11 2 21zM-260 1835
q0 20 20 20h33q20 0 21 -20v-152q0 -39 20.5 -60t53 -21t53 19t20.5 54v160q0 20 21 20h32q20 0 21 -20v-160q0 -35 20.5 -54t52.5 -19t53 21.5t21 59.5v152q0 20 21 20h33q20 0 20 -20v-145q0 -72 -42 -115t-108.5 -43t-105.5 45q-39 -45 -107.5 -45t-110.5 43t-42 115v145
z" />
    <glyph glyph-name="uniFC62" unicode="&#xfc62;" horiz-adv-x="0" arabic-form="isolated" 
d="M-262 1542q-20 0 -21 21v22q0 20 21 21h520q20 0 21 -21v-22q0 -20 -21 -21h-520zM-260 2003q0 20 20 20h33q20 0 21 -20v-152q0 -39 20.5 -60.5t53 -21.5t53 19.5t20.5 54.5v160q0 20 21 20h32q20 0 21 -20v-160q0 -35 20.5 -54.5t52.5 -19.5t53 21.5t21 60.5v152
q0 20 21 20h33q20 0 20 -20v-145q0 -72 -42 -115t-108 -43t-106 45q-40 -45 -108 -45t-110 43t-42 115v145z" />
    <glyph glyph-name="uniFC63" unicode="&#xfc63;" horiz-adv-x="0" arabic-form="isolated" 
d="M-260 1835q0 20 20 20h33q20 0 21 -20v-152q0 -39 20.5 -60t53 -21t53 19t20.5 54v160q0 20 21 20h32q20 0 21 -20v-160q0 -35 20.5 -54t52.5 -19t53 21.5t21 59.5v152q0 20 21 20h33q20 0 20 -20v-145q0 -72 -42 -115t-108 -43t-106 45q-40 -45 -108 -45t-110 43
t-42 115v145zM35 1946q0 -20 -21 -21h-30q-20 0 -21 21v254q0 20 21 20h30q20 0 21 -20v-254z" />
    <glyph glyph-name="uniFDF2" unicode="&#xfdf2;" horiz-adv-x="2590" arabic-form="isolated" 
d="M2427 20q0 -20 -21 -20h-71q-20 0 -21 20v1352q0 20 21 21h71q20 0 21 -21v-1352zM434 748q-239 0 -239 -274q0 -146 58 -204.5t180 -58.5t171 59.5t49 161.5v316h-219zM1692 115q106 0 106 108v1149q0 20 21 21h71q20 0 21 -21v-1114q0 -139 -50 -198.5t-190 -59.5h-129
q-86 0 -146.5 19.5t-88.5 89.5q-25 -49 -66 -79t-119 -30h-264q-205 0 -205 176q-80 -80 -235.5 -80t-246.5 89t-91 274q0 311 224 381q68 22 151 22h198v88q0 20 21 21h71q20 0 21 -21v-727q0 -61 23.5 -84.5t74.5 -23.5h246q75 0 93 39t18 133v1085q0 20 20 21h72
q20 0 20 -21v-1104q0 -78 51.5 -115.5t137.5 -37.5h170z" />
    <glyph glyph-name="uniFDFA" unicode="&#xfdfa;" horiz-adv-x="2164" arabic-form="isolated" 
d="M1952 86q-33 0 -41 -51q8 -37 63 -37q27 -1 31 22q-12 66 -53 66zM438 -80q0 38 -59 80q-29 20 -59 20t-29 -24q0 -27 53 -55q50 -31 72 -31t22 10zM233 910q-1 -18 55 -19q56 0 101 27l-2 79q-31 -16 -84 -34q-70 -35 -70 -53zM664 1362q0 -66 -43 -66q-27 0 -43 17
q-37 -31 -62 -31q-43 0 -43 47t6 64l13 12q0 -76 34 -76q25 0 39 33l-4 47l19 29l8 -62q2 -33 30 -33q23 0 23 25l-6 51l14 21q15 -37 15 -78zM166 432q0 -20 66 -20t118 49l-4 78q-180 -70 -180 -107zM1669 1444l-12 -45l-400 -197l9 51zM1294 -248q0 -41 -4 -61
q-12 -27 -42 -27t-38 8q-52 -56 -82 -27t-42 29t-72 -36t-146 -35q-88 0 -88 15t72 15q72 -1 95 5q24 6 74 38q49 32 69 33q20 0 42.5 -16.5t26.5 -16.5q31 0 37 35q2 27 23 27q8 0 8 -12.5t-2 -18.5q2 -8 22 -12q25 1 25 29t22 28zM2025 860q1 14 -35 32t-67 19
q-31 0 -101 -44t-106 -74q8 -2 64 -2t151 18q94 18 94 51zM1233 76l-53 -64l-99 72l-57 -74l-102 74l59 72l96 -72l56 68zM975 915q-6 -135 -27 -149l-51 496l45 116zM1552 1079q0 -23 54 -51l-19 -49q-68 20 -67.5 81.5t53.5 90.5q262 152 432 209l-18 -51
q-75 -27 -255 -114t-180 -116zM1954 176q24 0 67 -51t43 -137t-82 -211t-180 -125q-47 0 -122 33t-74 47q0 8 11 8t57 -16q46 -15 73 -15q139 0 283 217l-15 45q-37 -53 -72 -53t-56 28.5t-21 67.5q0 38 32 100t56 62zM768 846q0 55 -74 284l27 68q82 -254 82 -309t-21 -103
q-20 -57 -51 -57q-10 0 -18 6q-14 -41 -15 -80q0 -154 187 -153q145 0 291 98q4 4 4 6q0 12 -100 28t-105 19q-6 3 -6 19t35 61q123 51 131 109q2 6 2 28q0 192 -41 473l34 115q49 -432 78 -524q37 -117 148 -135l-10 196l43 92l16 -286q57 20 123 73l61 -43q39 -25 80 -30
q47 49 143 119t133 71t87 -29t51 -63q0 -33 -32 -83t-64 -64q-96 -43 -238 -43h-36q-36 0 -62 4q-49 -96 -78 -97q-8 0 -8 23t45 86q-88 35 -99 53q-82 -53 -102 -53q16 -289 53 -363t176 -77q-45 35 -45 97q-1 62 57 138t124 76t117 -35q50 -35 51 -63q-53 18 -116 18
t-124 -29q-53 -29 -53 -57t50 -78q50 -51 91 -59q58 6 159 42t117 46l-34 -76q-207 -109 -399 -109t-236 150q-61 -133 -115 -133t-139 90q-133 -115 -404 -115q-58 0 -143 11q20 -166 66 -209q90 -90 340 -90t358 65q31 76 57 76q8 -1 8 -23t-24 -84q12 -26 60 -26t95 24
q43 135 68 136q8 0 8 -31t-20 -80q62 -27 84 -27t22 8t-16 78l35 74q25 -74 24 -106q0 -137 -90 -138q-47 0 -98 39q-31 -53 -125 -53t-94 53q-102 -71 -409 -71q-169 0 -263 57q-121 70 -123 258l-45 -66q-33 -49 -53 -53q25 -43 25 -90q0 -48 -25 -72q-24 -24 -58 -24
t-118 47q-27 -61 -86 -96q-10 -7 -48 -10t-45 -5l-22 -8q-12 0 -12 9t56 33t73 38l69 53q-20 35 -20 80t37 87t69 42q4 0 26 -12t52 -12t68 47l47 86q-80 25 -113 55q-59 53 -84 174q-59 -102 -162 -102q-36 0 -74 15t-38 26q0 51 88 118q70 56 174 91l-4 34l41 68
q14 -220 42 -286t116 -95l-27 270l39 88l35 -368q106 -12 194 -12q213 0 363 81q29 78 38 78t9 -19t-8 -50q76 -72 120 -72q53 0 86 88l-26 330q-150 0 -184 151q-33 -134 -84 -147l6 -6q72 0 106.5 -16.5t34.5 -69.5t-51 -86q-176 -121 -328 -121q-94 0 -151.5 48
t-57.5 124t33 147q-55 14 -78 88q-37 -104 -117 -104q-96 0 -96 158l-55 -50q-14 -14 -97 -14t-83 37q0 23 26 66t51 53l156 76v20l35 74l8 -246q2 -86 66 -86q31 0 60.5 21.5t33.5 46.5l-33 233l37 80l57 -330q19 -43 67 -43t48 27z" />
    <glyph glyph-name="uniFE82" unicode="&#x622;" horiz-adv-x="473" arabic-form="final" 
d="M222 1649.5q140 -52.5 187.5 -52.5t62.5 15.5t15 45t21 30.5h39q20 0 20 -21q0 -125 -97 -142q-28 -5 -66 -5q-65 0 -202 53t-173.5 53t-55 -11t-28.5 -46q-6 -16 -23 -15l-37 15q-18 4 -10 31q7 28 25 50t38 34q29 18 86.5 18t197.5 -52.5zM154 1372q0 20 20 21h72
q20 0 20 -21v-1149q0 -61 26.5 -84.5t78.5 -23.5h102q82 0 82 -58q0 -41 -19.5 -49t-62.5 -8h-80q-129 0 -184 52t-55 171v1149z" />
    <glyph glyph-name="uniFE84" unicode="&#x623;" horiz-adv-x="473" arabic-form="final" 
d="M154 1372q0 20 20 21h72q20 0 20 -21v-1149q0 -61 26.5 -84.5t78.5 -23.5h102q82 0 82 -58q0 -41 -19.5 -49t-62.5 -8h-80q-129 0 -184 52t-55 171v1149zM106.5 1838q47.5 63 153.5 63q47 0 91 -19.5t67 -54.5q6 -12 -4 -23l-31 -26q-9 -10 -25 6q-40 41 -99.5 41
t-89.5 -37t-30 -83q0 -83 62 -132h215q12 0 12 -14v-50q0 -14 -12 -14h-396q-12 0 -12 14v50q0 14 12 14h78q-39 66 -39 134t47.5 131z" />
    <glyph glyph-name="uniFE86" unicode="&#x624;" horiz-adv-x="1001" arabic-form="final" 
d="M743 418q0 330 -232 330q-122 0 -190.5 -86.5t-68.5 -251.5t62.5 -230t197.5 -65h231v303zM297 -401q-20 0 -21 20v74q0 20 21 20h250q100 0 148 37t48 148v102h-231q-280 0 -352 214q-26 79 -27 193q0 219 105.5 337t275.5 118q344 0 344 -440v-307h143q41 0 61.5 -10.5
t20.5 -46.5t-19.5 -47t-62.5 -11h-143v-100q0 -160 -66.5 -230.5t-209.5 -70.5h-285zM346 1083q-41 51 -41 120.5t34 110.5q66 81 185 81q53 0 96.5 -20.5t60.5 -41t5 -33.5l-41 -36q-4 -2 -19 11q-48 42 -116 42t-95.5 -38t-27.5 -77q0 -78 72 -119h239q12 0 13 -14v-51
q0 -14 -13 -14h-419q-12 0 -13 14v51q0 14 13 14h67z" />
    <glyph glyph-name="uniFE88" unicode="&#x625;" horiz-adv-x="473" arabic-form="final" 
d="M154 1372q0 20 20 21h72q20 0 20 -21v-1149q0 -61 26.5 -84.5t78.5 -23.5h102q82 0 82 -58q0 -41 -19.5 -49t-62.5 -8h-80q-129 0 -184 52t-55 171v1149zM106.5 -206q47.5 63 153.5 63q47 0 91 -19.5t59 -43t4 -34.5l-31 -26q-9 -10 -25 6q-40 41 -99.5 41t-89.5 -37
t-30 -83q0 -83 62 -132h215q12 0 12 -14v-50q0 -14 -12 -14h-396q-12 0 -12 14v50q0 14 12 14h78q-39 66 -39 134t47.5 131z" />
    <glyph glyph-name="uniFE8A" unicode="&#x626;" horiz-adv-x="1509" arabic-form="final" 
d="M209 842q0 120 110 170q43 20 103 20q109 0 170 -69q10 -12 -2 -25l-41 -37q-4 -2 -19 11q-48 42 -116 42t-95.5 -37.5t-27.5 -81.5t24.5 -73t46.5 -41h240q12 0 12 -14v-52q0 -14 -12 -14h-420q-12 0 -12 14v52q0 14 12 14h68q-41 51 -41 121zM1075 -283q215 1 215 137
q0 60 -29.5 96t-87 66.5t-140.5 59t-187 67.5q-18 6 -12 25l34 82q6 20 25 14q66 -26 128 -52q228 -98 361 -97h127q41 0 61.5 -6.5t20.5 -44t-19.5 -51t-62.5 -13.5h-151q41 -66 41 -129q0 -125 -74.5 -198.5t-224.5 -73.5h-551q-213 0 -334 116.5t-121 323.5
q0 129 42 235.5t91 176.5q8 12 29 0l63 -41q16 -10 7 -27q-115 -177 -115 -340.5t98 -244.5t258 -81h508z" />
    <glyph glyph-name="uniFE8B" unicode="&#x626;" horiz-adv-x="563" arabic-form="initial" 
d="M182 1083q-41 51 -41 120t34 111q66 81 185 81q53 0 96.5 -20.5t60.5 -41t5 -33.5l-41 -36q-4 -2 -19 11q-48 42 -116 42t-95.5 -38t-27.5 -77q0 -78 72 -119h240q12 0 12 -14v-51q0 -14 -12 -14h-420q-12 0 -13 14v51q0 14 13 14h67zM168 115q106 0 106 108v582
q0 20 21 20h72q20 0 20 -20v-547q0 -141 -50 -199q-50 -59 -190 -59h-129q-41 0 -61 10t-20 47t19 47.5t62 10.5h150z" />
    <glyph glyph-name="uniFE8C" unicode="&#x626;" horiz-adv-x="577" arabic-form="medial" 
d="M178 1083q-41 51 -41 120t34 111q66 81 185 81q53 0 96.5 -20.5t60.5 -41t5 -33.5l-41 -36q-4 -2 -19 11q-48 42 -116 42t-95.5 -38t-27.5 -77q0 -78 72 -119h239q12 0 13 -14v-51q0 -14 -13 -14h-419q-12 0 -13 14v51q0 14 13 14h67zM387 268q0 -78 54.5 -115.5
t144.5 -37.5h12q41 0 61.5 -11.5t20.5 -44t-18.5 -46t-84 -13.5t-127 19.5t-90.5 89.5q-25 -49 -65.5 -79t-118.5 -30h-158q-39 0 -60 11.5t-21 45t20 46t61 12.5h146q75 0 92 38q18 38 18 134v518q0 20 21 20h72q20 0 20 -20v-537z" />
    <glyph glyph-name="uniFE8E" unicode="&#x627;" horiz-adv-x="473" arabic-form="final" 
d="M154 1372q0 20 20 21h72q20 0 20 -21v-1149q0 -61 26.5 -84.5t78.5 -23.5h102q82 0 82 -58q0 -41 -19.5 -49t-62.5 -8h-80q-129 0 -184 52t-55 171v1149z" />
    <glyph glyph-name="uniFE90" unicode="&#x628;" horiz-adv-x="1734" arabic-form="final" 
d="M1735 0q-169 0 -232 102q-41 -102 -192 -102h-977q-129 0 -184.5 51t-55.5 174v449q0 20 21 20h71q20 0 21 -20v-451q0 -59 23.5 -83.5t74.5 -24.5h1006q53 0 76.5 23.5t23.5 84.5v582q0 20 21 20h71q20 0 21 -20v-547q0 -74 56 -108.5t142 -34.5h13q82 0 82 -52
q0 -47 -19.5 -55t-62.5 -8zM745 -336q-20 0 -20 21v122q0 20 20 21h107q20 0 20 -21v-122q0 -20 -20 -21h-107z" />
    <glyph glyph-name="uniFE91" unicode="&#x628;" horiz-adv-x="522" arabic-form="initial" 
d="M150 115q106 0 106 108v582q0 20 20 20h72q20 0 21 -20v-547q0 -139 -50 -199q-50 -59 -190 -59h-129q-41 0 -61.5 10t-20.5 47t19.5 47.5t62.5 10.5h150zM201 -328q-20 0 -21 21v123q0 20 21 20h106q20 0 21 -20v-123q0 -20 -21 -21h-106z" />
    <glyph glyph-name="uniFE92" unicode="&#x628;" horiz-adv-x="579" arabic-form="medial" 
d="M369 268q0 -78 54 -115.5t144 -37.5h13q41 0 61.5 -11.5t20.5 -44t-18.5 -46t-84 -13.5t-127 19.5t-90.5 89.5q-25 -49 -65.5 -79t-118.5 -30h-158q-39 0 -60.5 11.5t-21.5 45t20.5 46t61.5 12.5h145q74 0 93 38q18 38 18 134v518q0 20 20 20h72q20 0 21 -20v-537z
M264 -328q-20 0 -20 21v123q0 20 20 20h107q20 0 20 -20v-123q0 -20 -20 -21h-107z" />
    <glyph glyph-name="uniFE94" unicode="&#x629;" horiz-adv-x="968" arabic-form="final" 
d="M434 748q-239 0 -239 -274q0 -146 58 -204.5t180 -58.5t171 59.5t49 161.5v316h-219zM417.5 96q-155.5 0 -246.5 89t-91 274q0 311 224 381q68 22 151 22h198v88q0 20 21 21h71q20 0 21 -21v-727q0 -61 23.5 -84.5t74.5 -23.5h105q41 0 61.5 -12.5t20.5 -50.5t-19.5 -45
t-62.5 -7h-111q-205 0 -205 176q-80 -80 -235.5 -80zM252 1108q-20 0 -21 20v123q0 20 21 21h106q20 0 21 -21v-123q0 -20 -21 -20h-106zM514 1108q-20 0 -20 20v123q0 20 20 21h107q20 0 20 -21v-123q0 -20 -20 -20h-107z" />
    <glyph glyph-name="uniFE96" unicode="&#x62a;" horiz-adv-x="1734" arabic-form="final" 
d="M1735 0q-169 0 -232 102q-41 -102 -192 -102h-977q-129 0 -184.5 51t-55.5 174v449q0 20 21 20h71q20 0 21 -20v-451q0 -59 23.5 -83.5t74.5 -24.5h1006q53 0 76.5 23.5t23.5 84.5v582q0 20 21 20h71q20 0 21 -20v-547q0 -74 56 -108.5t142 -34.5h13q82 0 82 -52
q0 -47 -19.5 -55t-62.5 -8zM631 905q-20 0 -21 21v123q0 20 21 20h106q20 0 21 -20v-123q0 -20 -21 -21h-106zM893 905q-20 0 -21 21v123q0 20 21 20h106q20 0 21 -20v-123q0 -20 -21 -21h-106z" />
    <glyph glyph-name="uniFE97" unicode="&#x62a;" horiz-adv-x="520" arabic-form="initial" 
d="M0 0q-41 0 -61.5 8t-20.5 45t19.5 49.5t62.5 12.5h147q51 0 75 23.5t24 84.5v582q0 20 20 20h74q20 0 20 -20v-547q0 -133 -55 -195.5t-184 -62.5h-121zM127 1026q-20 0 -21 21v122q0 20 21 21h106q20 0 21 -21v-122q0 -20 -21 -21h-106zM389 1026q-20 0 -20 21v122
q0 20 20 21h107q20 0 20 -21v-122q0 -20 -20 -21h-107z" />
    <glyph glyph-name="uniFE98" unicode="&#x62a;" horiz-adv-x="587" arabic-form="medial" 
d="M377 268q0 -78 54 -115.5t144 -37.5h13q41 0 61.5 -11.5t20.5 -44t-18.5 -46t-84 -13.5t-127 19.5t-90.5 89.5q-25 -49 -65.5 -79t-118.5 -30h-166q-39 0 -56.5 11.5t-17.5 45t16.5 46t57.5 12.5h154q75 0 92 38q18 38 18 134v518q0 20 21 20h71q20 0 21 -20v-537z
M129 1026q-20 0 -20 21v122q0 20 20 21h107q20 0 20 -21v-122q0 -20 -20 -21h-107zM391 1026q-20 0 -20 21v122q0 20 20 21h107q20 0 20 -21v-122q0 -20 -20 -21h-107z" />
    <glyph glyph-name="uniFE9A" unicode="&#x62b;" horiz-adv-x="1734" arabic-form="final" 
d="M1735 0q-169 0 -232 102q-41 -102 -192 -102h-977q-129 0 -184.5 51t-55.5 174v449q0 20 21 20h71q20 0 21 -20v-451q0 -59 23.5 -83.5t74.5 -24.5h1006q53 0 76.5 23.5t23.5 84.5v582q0 20 21 20h71q20 0 21 -20v-547q0 -74 56 -108.5t142 -34.5h13q82 0 82 -52
q0 -47 -19.5 -55t-62.5 -8zM629 905q-20 0 -21 21v123q0 20 21 20h106q20 0 21 -20v-123q0 -20 -21 -21h-106zM891 905q-20 0 -21 21v123q0 20 21 20h106q20 0 21 -20v-123q0 -20 -21 -21h-106zM758 1167q-20 0 -21 21v123q0 20 21 20h106q20 0 21 -20v-123q0 -20 -21 -21
h-106z" />
    <glyph glyph-name="uniFE9B" unicode="&#x62b;" horiz-adv-x="520" arabic-form="initial" 
d="M0 0q-41 0 -61.5 8t-20.5 45t19.5 49.5t62.5 12.5h147q51 0 75 23.5t24 84.5v582q0 20 20 20h74q20 0 20 -20v-547q0 -133 -55 -195.5t-184 -62.5h-121zM121 1026q-20 0 -21 21v122q0 20 21 21h106q20 0 21 -21v-122q0 -20 -21 -21h-106zM383 1026q-20 0 -21 21v122
q0 20 21 21h106q20 0 21 -21v-122q0 -20 -21 -21h-106zM250 1288q-20 0 -21 21v123q0 20 21 20h106q20 0 21 -20v-123q0 -20 -21 -21h-106z" />
    <glyph glyph-name="uniFE9C" unicode="&#x62b;" horiz-adv-x="587" arabic-form="medial" 
d="M377 268q0 -78 54 -115.5t144 -37.5h13q41 0 61.5 -11.5t20.5 -44t-18.5 -46t-84 -13.5t-127 19.5t-90.5 89.5q-25 -49 -65.5 -79t-118.5 -30h-166q-39 0 -56.5 11.5t-17.5 45t16.5 46t57.5 12.5h154q75 0 92 38q18 38 18 134v518q0 20 21 20h71q20 0 21 -20v-537z
M131 1026q-20 0 -20 21v122q0 20 20 21h107q20 0 20 -21v-122q0 -20 -20 -21h-107zM393 1026q-20 0 -20 21v122q0 20 20 21h107q20 0 20 -21v-122q0 -20 -20 -21h-107zM260 1288q-20 0 -20 21v123q0 20 20 20h107q20 0 20 -20v-123q0 -20 -20 -21h-107z" />
    <glyph glyph-name="uniFE9E" unicode="&#x62c;" horiz-adv-x="1220" arabic-form="final" 
d="M610 -346q-20 0 -20 20v123q0 20 20 21h107q20 0 20 -21v-123q0 -20 -20 -20h-107zM578 862q434 0 434 -516v-94q0 -70 48 -103.5t126 -33.5h33q41 0 61 -11.5t20 -47.5t-19 -46t-83.5 -10t-128 21.5t-92.5 93.5q-31 -61 -87 -88t-149 -27h-424q-78 0 -105.5 -43
t-27.5 -107.5t37 -100.5t129 -36h133q20 0 21 -20v-74q0 -20 -21 -20h-121q-297 0 -296 251q0 144 73 204.5t164 60.5h402q118 0 150 42t32 156q0 223 -72.5 326.5t-235 103.5t-260.5 -114q-12 -18 -28 -4l-55 49q-18 10 -7 28q125 160 349 160z" />
    <glyph glyph-name="uniFE9F" unicode="&#x62c;" horiz-adv-x="1046" arabic-form="initial" 
d="M492 862q434 0 434 -524q0 -188 -57 -263t-214 -75h-655q-82 0 -82 53q0 43 19.5 52.5t62.5 9.5h618q119 0 151 42t32 156q0 223 -72.5 326.5t-235 103.5t-260.5 -114q-12 -18 -28 -4l-55 49q-18 10 -7 28q125 160 349 160zM465 -332q-20 0 -21 21v123q0 20 21 20h106
q20 0 21 -20v-123q0 -20 -21 -21h-106z" />
    <glyph glyph-name="uniFEA0" unicode="&#x62c;" horiz-adv-x="1132" arabic-form="medial" 
d="M492 862q434 0 434 -516v-94q0 -70 48 -103.5t126 -33.5h33q41 0 61 -11.5t20 -47.5t-19 -46t-83.5 -10t-128 21.5t-92.5 93.5q-31 -61 -87 -88t-149 -27h-655q-82 0 -82 53q0 43 19.5 52.5t62.5 9.5h618q119 0 151 42t32 156q0 223 -72.5 326.5t-235 103.5t-260.5 -114
q-12 -18 -28 -4l-55 49q-18 10 -7 28q125 160 349 160zM463 -332q-20 0 -21 21v123q0 20 21 20h106q20 0 21 -20v-123q0 -20 -21 -21h-106z" />
    <glyph glyph-name="uniFEA2" unicode="&#x62d;" horiz-adv-x="1200" arabic-form="final" 
d="M559 862q434 0 434 -516v-94q0 -70 48.5 -103.5t125.5 -33.5h33q41 0 61.5 -11.5t20.5 -47.5t-19.5 -46t-84 -10t-128 21.5t-92.5 93.5q-31 -61 -87 -88t-148 -27h-406q-78 0 -105.5 -43t-27.5 -107.5t37 -100.5t129 -36h238q20 0 20 -20v-74q0 -20 -20 -20h-226
q-297 0 -296 251q0 144 73 204.5t164 60.5h383q118 0 150 42t32 156q0 224 -72 327t-235.5 103t-259.5 -114q-12 -18 -29 -4l-55 49q-18 10 -6 28q125 160 348 160z" />
    <glyph glyph-name="uniFEA3" unicode="&#x62d;" horiz-adv-x="1046" arabic-form="initial" 
d="M492 862q434 0 434 -524q0 -188 -57 -263t-214 -75h-655q-82 0 -82 53q0 43 19.5 52.5t62.5 9.5h618q119 0 151 42t32 156q0 223 -72.5 326.5t-235 103.5t-260.5 -114q-12 -18 -28 -4l-55 49q-18 10 -7 28q125 160 349 160z" />
    <glyph glyph-name="uniFEA4" unicode="&#x62d;" horiz-adv-x="1132" arabic-form="medial" 
d="M492 862q434 0 434 -516v-94q0 -70 48 -103.5t126 -33.5h33q41 0 61 -11.5t20 -47.5t-19 -46t-83.5 -10t-128 21.5t-92.5 93.5q-31 -61 -87 -88t-149 -27h-655q-82 0 -82 53q0 43 19.5 52.5t62.5 9.5h618q119 0 151 42t32 156q0 223 -72.5 326.5t-235 103.5t-260.5 -114
q-12 -18 -28 -4l-55 49q-18 10 -7 28q125 160 349 160z" />
    <glyph glyph-name="uniFEA6" unicode="&#x62e;" horiz-adv-x="1200" arabic-form="final" 
d="M559 862q434 0 434 -516v-94q0 -70 48.5 -103.5t125.5 -33.5h33q41 0 61.5 -11.5t20.5 -47.5t-19.5 -46t-84 -10t-128 21.5t-92.5 93.5q-31 -61 -87 -88t-148 -27h-406q-78 0 -105.5 -43t-27.5 -107.5t37 -100.5t129 -36h238q20 0 20 -20v-74q0 -20 -20 -20h-226
q-297 0 -296 251q0 144 73 204.5t164 60.5h383q118 0 150 42t32 156q0 224 -72 327t-235.5 103t-259.5 -114q-12 -18 -29 -4l-55 49q-18 10 -6 28q125 160 348 160zM514 1026q-20 0 -20 21v122q0 20 20 21h82q20 0 20 -21v-122q0 -20 -20 -21h-82z" />
    <glyph glyph-name="uniFEA7" unicode="&#x62e;" horiz-adv-x="1046" arabic-form="initial" 
d="M463 1024q-20 0 -21 20v123q0 20 21 21h82q20 0 20 -21v-123q0 -20 -20 -20h-82zM492 862q434 0 434 -524q0 -188 -57 -263t-214 -75h-655q-82 0 -82 53q0 43 19.5 52.5t62.5 9.5h618q119 0 151 42t32 156q0 223 -72.5 326.5t-235 103.5t-260.5 -114q-12 -18 -28 -4
l-55 49q-18 10 -7 28q125 160 349 160z" />
    <glyph glyph-name="uniFEA8" unicode="&#x62e;" horiz-adv-x="1132" arabic-form="medial" 
d="M492 862q434 0 434 -516v-94q0 -70 48 -103.5t126 -33.5h33q41 0 61 -11.5t20 -47.5t-19 -46t-83.5 -10t-128 21.5t-92.5 93.5q-31 -61 -87 -88t-149 -27h-655q-82 0 -82 53q0 43 19.5 52.5t62.5 9.5h618q119 0 151 42t32 156q0 223 -72.5 326.5t-235 103.5t-260.5 -114
q-12 -18 -28 -4l-55 49q-18 10 -7 28q125 160 349 160zM463 1024q-20 0 -21 20v123q0 20 21 21h82q20 0 20 -21v-123q0 -20 -20 -20h-82z" />
    <glyph glyph-name="uniFEAA" unicode="&#x62f;" horiz-adv-x="1083" arabic-form="final" 
d="M872 270q0 -78 54.5 -116.5t144.5 -38.5h12q41 0 61.5 -12.5t20.5 -47.5t-19.5 -45t-83.5 -10q-185 0 -224 119q-29 -66 -86.5 -92.5t-149.5 -26.5h-450q-20 0 -21 20v74q0 20 21 21h409q120 0 155 41q34 41 34 166v198q0 115 -61.5 171.5t-196.5 56.5h-240q-20 0 -21 20
v74q0 20 21 20h274q250 0 322 -190q24 -66 24 -158v-244z" />
    <glyph glyph-name="uniFEAC" unicode="&#x630;" horiz-adv-x="1083" arabic-form="final" 
d="M872 270q0 -78 54.5 -116.5t144.5 -38.5h12q41 0 61.5 -12.5t20.5 -47.5t-19.5 -45t-83.5 -10q-185 0 -224 119q-29 -66 -86.5 -92.5t-149.5 -26.5h-450q-20 0 -21 20v74q0 20 21 21h409q120 0 155 41q34 41 34 166v198q0 115 -61.5 171.5t-196.5 56.5h-240q-20 0 -21 20
v74q0 20 21 20h274q250 0 322 -190q24 -66 24 -158v-244zM369 1026q-20 0 -21 21v122q0 20 21 21h82q20 0 20 -21v-122q0 -20 -20 -21h-82z" />
    <glyph glyph-name="uniFEAE" unicode="&#x631;" horiz-adv-x="559" arabic-form="final" 
d="M66 -287q172 0 172 174v918q0 20 20 20h72q20 0 20 -20v-537q0 -78 54.5 -115.5t144.5 -37.5h10q82 0 82 -52q0 -47 -19.5 -55t-75 -8t-106.5 10t-90 53v-163q0 -301 -297 -301h-35q-20 0 -20 20v74q0 20 20 20h48z" />
    <glyph glyph-name="uniFEB0" unicode="&#x632;" horiz-adv-x="559" arabic-form="final" 
d="M66 -287q172 0 172 174v918q0 20 20 20h72q20 0 20 -20v-537q0 -78 54.5 -115.5t144.5 -37.5h10q82 0 82 -52q0 -47 -19.5 -55t-75 -8t-106.5 10t-90 53v-163q0 -301 -297 -301h-35q-20 0 -20 20v74q0 20 20 20h48zM252 1026q-20 0 -21 21v122q0 20 21 21h82q20 0 20 -21
v-122q0 -20 -20 -21h-82z" />
    <glyph glyph-name="uniFEB2" unicode="&#x633;" horiz-adv-x="2211" arabic-form="final" 
d="M1198 0q-106 0 -168 66v-27q0 -305 -256 -399q-88 -32 -203 -33q-225 0 -346 117t-121 313q0 129 42 235.5t92 176.5q8 12 28 0l64 -41q16 -10 6 -27q-115 -177 -115 -341t123 -248q94 -64 236 -64q239 0 312 164q26 58 26 143v579q0 20 20 21h74q20 0 20 -21v-348
q0 -74 55.5 -112.5t130 -38.5t108.5 6t51.5 25.5t21.5 54.5t4 92v321q0 20 20 21h74q20 0 21 -21v-358q0 -70 57 -105.5t132.5 -35.5t108.5 7t52.5 33t19.5 138v512q0 20 21 20h73q20 0 21 -20v-537q0 -78 54 -115.5t145 -37.5h10q41 0 61.5 -12.5t20.5 -47.5t-19.5 -45
t-83 -10t-123 20.5t-92.5 88.5q-25 -53 -68.5 -81t-129.5 -28h-95q-57 0 -112 25.5t-82 78.5q-53 -104 -197 -104h-94z" />
    <glyph glyph-name="uniFEB3" unicode="&#x633;" horiz-adv-x="1542" arabic-form="initial" 
d="M-14 0q-68 0 -68 49q0 41 19.5 53.5t62.5 12.5h211q72 -1 92 43q14 30 14 135v321q0 20 21 21h74q20 0 20 -21v-348q0 -74 55.5 -112.5t130 -38.5t108.5 6t51.5 25.5t21.5 54.5t4 92v321q0 20 20 21h74q20 0 21 -21v-358q0 -70 57 -105.5t132.5 -35.5t108.5 7q32 7 52 33
t20 138v512q0 20 21 20h73q20 0 21 -20v-537q0 -225 -143 -258q-43 -10 -93 -10h-84q-57 0 -112.5 25.5t-81.5 78.5q-53 -104 -197 -104h-94q-57 0 -112.5 25.5t-82.5 78.5q-25 -49 -68.5 -76.5t-129.5 -27.5h-219z" />
    <glyph glyph-name="uniFEB4" unicode="&#x633;" horiz-adv-x="1611" arabic-form="medial" 
d="M-14 0q-68 0 -68 49q0 41 19.5 53.5t62.5 12.5h211q72 -1 92 43q14 30 14 135v321q0 20 21 21h74q20 0 20 -21v-348q0 -74 55.5 -112.5t130 -38.5t108.5 6t51.5 25.5t21.5 54.5t4 92v321q0 20 20 21h74q20 0 21 -21v-358q0 -70 57 -105.5t132.5 -35.5t108.5 7q32 7 52 33
t20 138v512q0 20 21 20h73q20 0 21 -20v-537q0 -78 54 -115.5t145 -37.5h10q41 0 61.5 -12.5t20.5 -47.5t-19.5 -45t-83 -10t-123 20.5t-92.5 88.5q-25 -53 -68.5 -81t-129.5 -28h-95q-57 0 -112.5 25.5t-81.5 78.5q-53 -104 -197 -104h-94q-57 0 -112.5 25.5t-82.5 78.5
q-25 -49 -68.5 -76.5t-129.5 -27.5h-219z" />
    <glyph glyph-name="uniFEB6" unicode="&#x634;" horiz-adv-x="2211" arabic-form="final" 
d="M1198 0q-106 0 -168 66v-27q0 -305 -256 -399q-88 -32 -203 -33q-225 0 -346 117t-121 313q0 129 42 235.5t92 176.5q8 12 28 0l64 -41q16 -10 6 -27q-115 -177 -115 -341t123 -248q94 -64 236 -64q239 0 312 164q26 58 26 143v579q0 20 20 21h74q20 0 20 -21v-348
q0 -74 55.5 -112.5t130 -38.5t108.5 6t51.5 25.5t21.5 54.5t4 92v321q0 20 20 21h74q20 0 21 -21v-358q0 -70 57 -105.5t132.5 -35.5t108.5 7t52.5 33t19.5 138v512q0 20 21 20h73q20 0 21 -20v-537q0 -78 54 -115.5t145 -37.5h10q41 0 61.5 -12.5t20.5 -47.5t-19.5 -45
t-83 -10t-123 20.5t-92.5 88.5q-25 -53 -68.5 -81t-129.5 -28h-95q-57 0 -112 25.5t-82 78.5q-53 -104 -197 -104h-94zM1272 1026q-20 0 -21 21v122q0 20 21 21h106q20 0 21 -21v-122q0 -20 -21 -21h-106zM1534 1026q-20 0 -21 21v122q0 20 21 21h106q20 0 21 -21v-122
q0 -20 -21 -21h-106zM1401 1288q-20 0 -21 21v123q0 20 21 20h106q20 0 21 -20v-123q0 -20 -21 -21h-106z" />
    <glyph glyph-name="uniFEB7" unicode="&#x634;" horiz-adv-x="1542" arabic-form="initial" 
d="M-14 0q-68 0 -68 49q0 41 19.5 53.5t62.5 12.5h211q72 -1 92 43q14 30 14 135v321q0 20 21 21h74q20 0 20 -21v-348q0 -74 55.5 -112.5t130 -38.5t108.5 6t51.5 25.5t21.5 54.5t4 92v321q0 20 20 21h74q20 0 21 -21v-358q0 -70 57 -105.5t132.5 -35.5t108.5 7q32 7 52 33
t20 138v512q0 20 21 20h73q20 0 21 -20v-537q0 -225 -143 -258q-43 -10 -93 -10h-84q-57 0 -112.5 25.5t-81.5 78.5q-53 -104 -197 -104h-94q-57 0 -112.5 25.5t-82.5 78.5q-25 -49 -68.5 -76.5t-129.5 -27.5h-219zM674 1026q-20 0 -21 21v122q0 20 21 21h106q20 0 21 -21
v-122q0 -20 -21 -21h-106zM936 1026q-20 0 -21 21v122q0 20 21 21h106q20 0 21 -21v-122q0 -20 -21 -21h-106zM803 1288q-20 0 -21 21v123q0 20 21 20h106q20 0 21 -20v-123q0 -20 -21 -21h-106z" />
    <glyph glyph-name="uniFEB8" unicode="&#x634;" horiz-adv-x="1611" arabic-form="medial" 
d="M-14 0q-68 0 -68 49q0 41 19.5 53.5t62.5 12.5h211q72 -1 92 43q14 30 14 135v321q0 20 21 21h74q20 0 20 -21v-348q0 -74 55.5 -112.5t130 -38.5t108.5 6t51.5 25.5t21.5 54.5t4 92v321q0 20 20 21h74q20 0 21 -21v-358q0 -70 57 -105.5t132.5 -35.5t108.5 7q32 7 52 33
t20 138v512q0 20 21 20h73q20 0 21 -20v-537q0 -78 54 -115.5t145 -37.5h10q41 0 61.5 -12.5t20.5 -47.5t-19.5 -45t-83 -10t-123 20.5t-92.5 88.5q-25 -53 -68.5 -81t-129.5 -28h-95q-57 0 -112.5 25.5t-81.5 78.5q-53 -104 -197 -104h-94q-57 0 -112.5 25.5t-82.5 78.5
q-25 -49 -68.5 -76.5t-129.5 -27.5h-219zM674 1026q-20 0 -21 21v122q0 20 21 21h106q20 0 21 -21v-122q0 -20 -21 -21h-106zM936 1026q-20 0 -21 21v122q0 20 21 21h106q20 0 21 -21v-122q0 -20 -21 -21h-106zM803 1288q-20 0 -21 21v123q0 20 21 20h106q20 0 21 -20v-123
q0 -20 -21 -21h-106z" />
    <glyph glyph-name="uniFEBA" unicode="&#x635;" horiz-adv-x="2211" arabic-form="final" 
d="M1524 862q479 0 479 -481l-2 -113q0 -78 54 -115.5t145 -37.5h10q41 0 61.5 -9.5t20.5 -47.5t-19.5 -48t-85 -10t-134 24.5t-91.5 100.5q-38 -81 -119 -103t-254 -22h-563q-13 -177 -128 -285t-334.5 -108t-340.5 117t-121 313q0 129 42 235.5t92 176.5q8 12 28 0l64 -41
q16 -10 6 -27q-115 -177 -115 -341t123 -248q94 -64 236 -64q236 0 310 164q26 58 27 143v764q0 20 21 20h72q20 0 20 -20v-76q254 139 496 139zM1028 115h614q66 0 111 7q45 6 73 34q54 52 54 229.5t-78.5 270t-283 92.5t-490.5 -146v-487z" />
    <glyph glyph-name="uniFEBB" unicode="&#x635;" horiz-adv-x="1466" arabic-form="initial" 
d="M866 862q480 0 480 -481q0 -250 -97 -325q-49 -38 -128 -47t-189 -9h-537q-82 0 -119 25q-45 -25 -149 -25h-127q-82 0 -82 55q0 35 19.5 47.5t62.5 12.5h152q74 0 90 41t16 133v508q0 20 21 20h71q20 0 21 -20v-74q254 139 495 139zM371 223q0 -63 -13 -108h627
q66 0 111 7q46 6 74 34q54 52 53.5 229.5t-79 270t-283 92.5t-490.5 -146v-379z" />
    <glyph glyph-name="uniFEBC" unicode="&#x635;" horiz-adv-x="1552" arabic-form="medial" 
d="M1542 115h10q41 0 61.5 -9.5t20.5 -47.5t-19.5 -48t-85 -10t-134 24.5t-90.5 100.5q-38 -81 -119.5 -103t-253.5 -22h-537q-82 0 -119 25q-45 -25 -149 -25h-127q-82 0 -82 55q0 35 19.5 47.5t62.5 12.5h152q74 0 90 41t16 133v508q0 20 21 20h71q20 0 21 -20v-74
q254 139 495 139q480 0 480 -481l-3 -113q0 -78 54.5 -115.5t144.5 -37.5zM371 223q0 -63 -13 -108h627q66 0 111 7q46 6 74 34q54 52 53.5 229.5t-79 270t-283 92.5t-490.5 -146v-379z" />
    <glyph glyph-name="uniFEBE" unicode="&#x636;" horiz-adv-x="2211" arabic-form="final" 
d="M1524 862q479 0 479 -481l-2 -113q0 -78 54 -115.5t145 -37.5h10q41 0 61.5 -9.5t20.5 -47.5t-19.5 -48t-85 -10t-134 24.5t-91.5 100.5q-38 -81 -119 -103t-254 -22h-563q-13 -177 -128 -285t-334.5 -108t-340.5 117t-121 313q0 129 42 235.5t92 176.5q8 12 28 0l64 -41
q16 -10 6 -27q-115 -177 -115 -341t123 -248q94 -64 236 -64q236 0 310 164q26 58 27 143v764q0 20 21 20h72q20 0 20 -20v-76q254 139 496 139zM1028 115h614q66 0 111 7q45 6 73 34q54 52 54 229.5t-78.5 270t-283 92.5t-490.5 -146v-487zM1495 1026q-20 0 -20 21v122
q0 20 20 21h82q20 0 20 -21v-122q0 -20 -20 -21h-82z" />
    <glyph glyph-name="uniFEBF" unicode="&#x636;" horiz-adv-x="1466" arabic-form="initial" 
d="M866 862q480 0 480 -481q0 -250 -97 -325q-49 -38 -128 -47t-189 -9h-537q-82 0 -119 25q-45 -25 -149 -25h-127q-82 0 -82 55q0 35 19.5 47.5t62.5 12.5h152q74 0 90 41t16 133v508q0 20 21 20h71q20 0 21 -20v-74q254 139 495 139zM371 223q0 -63 -13 -108h627
q66 0 111 7q46 6 74 34q54 52 53.5 229.5t-79 270t-283 92.5t-490.5 -146v-379zM840 1026q-20 0 -21 21v122q0 20 21 21h82q20 0 20 -21v-122q0 -20 -20 -21h-82z" />
    <glyph glyph-name="uniFEC0" unicode="&#x636;" horiz-adv-x="1552" arabic-form="medial" 
d="M1542 115h10q41 0 61.5 -9.5t20.5 -47.5t-19.5 -48t-85 -10t-134 24.5t-90.5 100.5q-38 -81 -119.5 -103t-253.5 -22h-537q-82 0 -119 25q-45 -25 -149 -25h-127q-82 0 -82 55q0 35 19.5 47.5t62.5 12.5h152q74 0 90 41t16 133v508q0 20 21 20h71q20 0 21 -20v-74
q254 139 495 139q480 0 480 -481l-3 -113q0 -78 54.5 -115.5t144.5 -37.5zM371 223q0 -63 -13 -108h627q66 0 111 7q46 6 74 34q54 52 53.5 229.5t-79 270t-283 92.5t-490.5 -146v-379zM840 1026q-20 0 -21 21v122q0 20 21 21h82q20 0 20 -21v-122q0 -20 -20 -21h-82z" />
    <glyph glyph-name="uniFEC2" unicode="&#x637;" horiz-adv-x="1568" arabic-form="final" 
d="M383 244q0 -83 -23 -129h637q66 0 111 7q44 6 72 34q52 52 52.5 229.5t-78 270t-288 92.5t-483.5 -146v-358zM877 862q481 0 481 -481l-2 -113q0 -78 54 -115.5t144 -37.5h11q82 0 82 -52q0 -47 -19.5 -55t-85 -8t-135.5 24.5t-90 100.5q-43 -81 -122.5 -103t-250.5 -22
h-610q-43 0 -66 18q-36 -18 -108 -18h-76q-20 0 -21 20v74q0 20 21 21h66q72 0 95 35t23 141v1081q0 20 21 21h73q20 0 21 -21v-649q254 139 494 139z" />
    <glyph glyph-name="uniFEC3" unicode="&#x637;" horiz-adv-x="1454" arabic-form="initial" 
d="M358 244q0 -81 -22 -129h637q67 0 111 7q44 6 72 34q52 51 52 229.5t-78 270.5t-285 92t-487 -146v-358zM852 862q481 0 481 -481q0 -248 -96 -324q-49 -39 -128 -48t-189 -9h-611q-43 0 -65 18q-36 -18 -109 -18h-135q-41 0 -61.5 10t-20.5 47q0 57 82 58h125
q73 0 96 36t23 140v1081q0 20 20 21h74q20 0 20 -21v-649q254 139 494 139z" />
    <glyph glyph-name="uniFEC4" unicode="&#x637;" horiz-adv-x="1540" arabic-form="medial" 
d="M358 244q0 -81 -22 -129h637q67 0 111 7q44 6 72 34q52 51 52 229.5t-78 270.5t-285 92t-487 -146v-358zM852 862q481 0 481 -481l-2 -113q0 -78 54.5 -115.5t144.5 -37.5h10q82 0 82 -52q0 -47 -19.5 -55t-85 -8t-135.5 24.5t-90 100.5q-43 -81 -122.5 -103t-249.5 -22
h-611q-43 0 -65 18q-36 -18 -109 -18h-135q-41 0 -61.5 10t-20.5 47q0 57 82 58h125q73 0 96 36t23 140v1081q0 20 20 21h74q20 0 20 -21v-649q254 139 494 139z" />
    <glyph glyph-name="uniFEC6" unicode="&#x638;" horiz-adv-x="1568" arabic-form="final" 
d="M383 244q0 -83 -23 -129h637q66 0 111 7q44 6 72 34q52 52 52.5 229.5t-78 270t-288 92.5t-483.5 -146v-358zM877 862q481 0 481 -481l-2 -113q0 -78 54 -115.5t144 -37.5h11q82 0 82 -52q0 -47 -19.5 -55t-85 -8t-135.5 24.5t-90 100.5q-43 -81 -122.5 -103t-250.5 -22
h-610q-43 0 -66 18q-36 -18 -108 -18h-76q-20 0 -21 20v74q0 20 21 21h66q72 0 95 35t23 141v1081q0 20 21 21h73q20 0 21 -21v-649q254 139 494 139zM825 1026q-20 0 -20 21v122q0 20 20 21h82q20 0 21 -21v-122q0 -20 -21 -21h-82z" />
    <glyph glyph-name="uniFEC7" unicode="&#x638;" horiz-adv-x="1454" arabic-form="initial" 
d="M358 244q0 -81 -22 -129h637q67 0 111 7q44 6 72 34q52 51 52 229.5t-78 270.5t-285 92t-487 -146v-358zM852 862q481 0 481 -481q0 -248 -96 -324q-49 -39 -128 -48t-189 -9h-611q-43 0 -65 18q-36 -18 -109 -18h-135q-41 0 -61.5 10t-20.5 47q0 57 82 58h125
q73 0 96 36t23 140v1081q0 20 20 21h74q20 0 20 -21v-649q254 139 494 139zM801 1026q-20 0 -21 21v122q0 20 21 21h82q20 0 20 -21v-122q0 -20 -20 -21h-82z" />
    <glyph glyph-name="uniFEC8" unicode="&#x638;" horiz-adv-x="1540" arabic-form="medial" 
d="M358 244q0 -81 -22 -129h637q67 0 111 7q44 6 72 34q52 51 52 229.5t-78 270.5t-285 92t-487 -146v-358zM852 862q481 0 481 -481l-2 -113q0 -78 54.5 -115.5t144.5 -37.5h10q82 0 82 -52q0 -47 -19.5 -55t-85 -8t-135.5 24.5t-90 100.5q-43 -81 -122.5 -103t-249.5 -22
h-611q-43 0 -65 18q-36 -18 -109 -18h-135q-41 0 -61.5 10t-20.5 47q0 57 82 58h125q73 0 96 36t23 140v1081q0 20 20 21h74q20 0 20 -21v-649q254 139 494 139zM805 1026q-20 0 -21 21v122q0 20 21 21h82q20 0 20 -21v-122q0 -20 -20 -21h-82z" />
    <glyph glyph-name="uniFECA" unicode="&#x639;" horiz-adv-x="1161" arabic-form="final" 
d="M862 0q-148 0 -248 63q-61 -25 -133.5 -44t-134.5 -43q-144 -54 -145 -152q0 -68 55 -89.5t217 -21.5h121q20 0 20 -20v-74q0 -20 -20 -20h-111q-219 0 -283.5 29.5t-90 73.5t-25.5 122t34 130t91 87t134 58.5t163 47.5q-42 228 -218 368q-48 38 -83 60.5t-35 32.5v111
q0 19 30 43t82 46q125 54 285 54q402 0 402 -319q0 -121 -74.5 -238.5t-167.5 -175.5q80 -14 92 -14h340q41 0 61.5 -6.5t20.5 -44t-19.5 -51t-62.5 -13.5h-297zM846 542q0 104 -78.5 155t-205 51t-244.5 -54q-28 -12 -39 -20q127 -86 214.5 -203t118.5 -287q156 95 214 247
q20 53 20 111z" />
    <glyph glyph-name="uniFECB" unicode="&#x639;" horiz-adv-x="1052" arabic-form="initial" 
d="M137 444q0 260 199 372q82 46 208 46q222 0 341 -157q10 -18 -6 -29l-62 -45q-16 -12 -29 2q-92 115 -239 115t-218 -84.5t-71 -193.5t28.5 -170.5t81.5 -115.5t122 -69h442q20 0 20 -21v-74q0 -20 -20 -20h-934q-41 0 -61.5 10t-20.5 47t19.5 47.5t62.5 10.5h268
q-131 121 -131 329z" />
    <glyph glyph-name="uniFECC" unicode="&#x639;" horiz-adv-x="1077" arabic-form="medial" 
d="M819 542q0 104 -78.5 155t-204.5 51t-244 -54q-28 -12 -40 -20q127 -86 215 -203t119 -287q154 94 212 247q20 53 21 111zM0 0q-45 0 -64.5 10t-19.5 45t16.5 47.5t67.5 12.5h289q110 0 190 32q-42 228 -218 368q-48 38 -83 60.5t-35 32.5v111q0 18 30 42.5t82 46.5
q124 54 286 54q401 0 401 -319q0 -127 -80 -246t-174 -176q15 -6 60 -6h329q53 0 69.5 -16.5t16.5 -46.5t-19.5 -41t-66.5 -11h-270q-167 0 -264 59q-95 -59 -281 -59h-262z" />
    <glyph glyph-name="uniFECE" unicode="&#x63a;" horiz-adv-x="1161" arabic-form="final" 
d="M862 0q-148 0 -248 63q-61 -25 -133.5 -44t-134.5 -43q-144 -54 -145 -152q0 -68 55 -89.5t217 -21.5h121q20 0 20 -20v-74q0 -20 -20 -20h-111q-219 0 -283.5 29.5t-90 73.5t-25.5 122t34 130t91 87t134 58.5t163 47.5q-42 228 -218 368q-48 38 -83 60.5t-35 32.5v111
q0 19 30 43t82 46q125 54 285 54q402 0 402 -319q0 -121 -74.5 -238.5t-167.5 -175.5q80 -14 92 -14h340q41 0 61.5 -6.5t20.5 -44t-19.5 -51t-62.5 -13.5h-297zM846 542q0 104 -78.5 155t-205 51t-244.5 -54q-28 -12 -39 -20q127 -86 214.5 -203t118.5 -287q156 95 214 247
q20 53 20 111zM571 1026q-20 0 -20 21v122q0 20 20 21h82q20 0 21 -21v-122q0 -20 -21 -21h-82z" />
    <glyph glyph-name="uniFECF" unicode="&#x63a;" horiz-adv-x="1052" arabic-form="initial" 
d="M137 444q0 260 199 372q82 46 208 46q222 0 341 -157q10 -18 -6 -29l-62 -45q-16 -12 -29 2q-92 115 -239 115t-218 -84.5t-71 -193.5t28.5 -170.5t81.5 -115.5t122 -69h442q20 0 20 -21v-74q0 -20 -20 -20h-934q-41 0 -61.5 10t-20.5 47t19.5 47.5t62.5 10.5h268
q-131 121 -131 329zM510 1026q-20 0 -21 21v122q0 20 21 21h82q20 0 20 -21v-122q0 -20 -20 -21h-82z" />
    <glyph glyph-name="uniFED0" unicode="&#x63a;" horiz-adv-x="1077" arabic-form="medial" 
d="M819 542q0 104 -78.5 155t-204.5 51t-244 -54q-28 -12 -40 -20q127 -86 215 -203t119 -287q154 94 212 247q20 53 21 111zM0 0q-45 0 -64.5 10t-19.5 45t16.5 47.5t67.5 12.5h289q110 0 190 32q-42 228 -218 368q-48 38 -83 60.5t-35 32.5v111q0 18 30 42.5t82 46.5
q124 54 286 54q401 0 401 -319q0 -127 -80 -246t-174 -176q15 -6 60 -6h329q53 0 69.5 -16.5t16.5 -46.5t-19.5 -41t-66.5 -11h-270q-167 0 -264 59q-95 -59 -281 -59h-262zM500 1026q-20 0 -21 21v122q0 20 21 21h82q20 0 20 -21v-122q0 -20 -20 -21h-82z" />
    <glyph glyph-name="uniFED2" unicode="&#x641;" horiz-adv-x="1959" arabic-form="final" 
d="M1042 479q0 156 104 269.5t286.5 113.5t284.5 -107.5t102 -269.5q0 -113 -60 -216t-151 -154h352q41 0 61.5 -9.5t20.5 -45.5t-19.5 -48t-62.5 -12h-264q-74 0 -139.5 6t-124.5 43q-68 -37 -145 -43t-136 -6h-817q-129 0 -184.5 51t-55.5 174v449q0 20 21 20h71
q20 0 21 -20v-451q0 -59 23.5 -83.5t74.5 -24.5h944q-207 152 -207 364zM1694 477q0 127 -74.5 196.5t-190.5 69.5t-191 -73t-75 -191t75 -205.5t192 -132.5q180 67 242 223q22 54 22 113zM1391 1026q-20 0 -21 21v122q0 20 21 21h82q20 0 20 -21v-122q0 -20 -20 -21h-82z
" />
    <glyph glyph-name="uniFED3" unicode="&#x641;" horiz-adv-x="1060" arabic-form="initial" 
d="M819 420q0 328 -246 328q-121 0 -182 -85t-61 -240t57 -231.5t186 -76.5t187.5 71.5t58.5 233.5zM213 440.5q0 204.5 99.5 313t260.5 108.5q360 0 361 -436q0 -227 -91 -326.5t-270 -99.5h-573q-43 0 -62.5 11.5t-19.5 51.5q0 52 82 52h287q-74 121 -74 325.5zM530 1026
q-20 0 -20 21v122q0 20 20 21h82q20 0 21 -21v-122q0 -20 -21 -21h-82z" />
    <glyph glyph-name="uniFED4" unicode="&#x641;" horiz-adv-x="1032" arabic-form="medial" 
d="M766 477q0 127 -74.5 196.5t-190.5 69.5t-190.5 -72.5t-74.5 -190.5t73.5 -205t192.5 -134q180 67 242 223q22 54 22 113zM115 479q0 157 103.5 270t285.5 113t284.5 -106.5t102.5 -270.5q0 -113 -60 -216t-151 -154h352q41 0 61.5 -9.5t20.5 -45.5t-19.5 -48t-62.5 -12
h-264q-74 0 -139.5 6t-124.5 43q-68 -37 -144.5 -43t-136.5 -6h-223q-82 0 -82 59q0 33 19.5 44.5t62.5 11.5h322q-207 152 -207 364zM457 1026q-20 0 -21 21v122q0 20 21 21h82q20 0 20 -21v-122q0 -20 -20 -21h-82z" />
    <glyph glyph-name="uniFED6" unicode="&#x642;" horiz-adv-x="1503" arabic-form="final" 
d="M530 -401q-213 0 -333.5 116.5t-120.5 323.5q0 123 41 235.5t94 188.5q8 14 27 0l65 -41q16 -10 2 -33q-110 -181 -110 -335q0 -176 96.5 -256.5t257.5 -80.5h467q121 0 173 26t52 112v145h-229q-379 0 -379 426q0 213 100.5 324.5t263.5 111.5q360 0 361 -440v-307h145
q82 0 82 -52q0 -43 -19.5 -53t-62.5 -10h-145v-129q0 -145 -64 -208.5t-254 -63.5h-510zM1243 420q0 328 -248 328q-115 0 -180 -86.5t-65 -245t64.5 -230t197.5 -71.5h231v305zM805 1026q-20 0 -21 21v122q0 20 21 21h106q20 0 21 -21v-122q0 -20 -21 -21h-106zM1067 1026
q-20 0 -20 21v122q0 20 20 21h107q20 0 20 -21v-122q0 -20 -20 -21h-107z" />
    <glyph glyph-name="uniFED7" unicode="&#x642;" horiz-adv-x="1060" arabic-form="initial" 
d="M819 420q0 328 -246 328q-121 0 -182 -85t-61 -240t57 -231.5t186 -76.5t187.5 71.5t58.5 233.5zM213 440.5q0 204.5 99.5 313t260.5 108.5q360 0 361 -436q0 -227 -91 -326.5t-270 -99.5h-573q-43 0 -62.5 11.5t-19.5 51.5q0 52 82 52h287q-74 121 -74 325.5zM385 1026
q-20 0 -20 21v122q0 20 20 21h107q20 0 20 -21v-122q0 -20 -20 -21h-107zM647 1026q-20 0 -20 21v122q0 20 20 21h107q20 0 20 -21v-122q0 -20 -20 -21h-107z" />
    <glyph glyph-name="uniFED8" unicode="&#x642;" horiz-adv-x="1032" arabic-form="medial" 
d="M766 477q0 127 -74.5 196.5t-190.5 69.5t-190.5 -72.5t-74.5 -190.5t73.5 -205t192.5 -134q180 67 242 223q22 54 22 113zM115 479q0 157 103.5 270t285.5 113t284.5 -106.5t102.5 -270.5q0 -113 -60 -216t-151 -154h352q41 0 61.5 -9.5t20.5 -45.5t-19.5 -48t-62.5 -12
h-264q-74 0 -139.5 6t-124.5 43q-68 -37 -144.5 -43t-136.5 -6h-223q-82 0 -82 59q0 33 19.5 44.5t62.5 11.5h322q-207 152 -207 364zM315 1026q-20 0 -20 21v122q0 20 20 21h107q20 0 20 -21v-122q0 -20 -20 -21h-107zM578 1026q-20 0 -21 21v122q0 20 21 21h106
q20 0 21 -21v-122q0 -20 -21 -21h-106z" />
    <glyph glyph-name="uniFEDA" unicode="&#x643;" horiz-adv-x="1734" arabic-form="final" 
d="M877 868q104 0 104 -100v-94q0 -68 -25.5 -91.5t-91.5 -23.5h-219q-20 0 -20 21v36q0 20 20 21h219q23 0 30 10t7 33v53q0 37 -13.5 47.5t-41.5 10.5h-115q-20 0 -20 20v27q0 14 10 24l162 193q16 20 32 4l31 -29q14 -14 -2 -31l-113 -131h46zM1735 0q-169 0 -232 102
q-41 -102 -192 -102h-977q-129 0 -184.5 51t-55.5 174v449q0 20 21 20h71q20 0 21 -20v-451q0 -59 23.5 -83.5t74.5 -24.5h1006q53 0 76.5 23.5t23.5 84.5v1149q0 20 21 21h71q20 0 21 -21v-1114q0 -74 56 -108.5t142 -34.5h13q82 0 82 -52q0 -47 -19.5 -55t-62.5 -8z" />
    <glyph glyph-name="uniFEDB" unicode="&#x643;" horiz-adv-x="1007" arabic-form="initial" 
d="M166 711q-20 0 -21 20v76q0 18 7 18l454 535q14 16 27 6l59 -47q20 -14 8 -29l-393 -465h236q249 -1 321 -191q24 -66 25 -157v-127q0 -202 -62 -276t-225 -74h-602q-41 0 -61.5 11.5t-20.5 47t19.5 46t62.5 10.5h578q120 0 154 41t34 166v161q0 115 -61.5 171.5
t-196.5 56.5h-342z" />
    <glyph glyph-name="uniFEDC" unicode="&#x643;" horiz-adv-x="1095" arabic-form="medial" 
d="M543 825q249 -1 321 -191q24 -66 25 -157v-207q0 -78 54 -116.5t144 -38.5h13q41 0 61.5 -12.5t20.5 -47.5t-20 -45t-84 -10q-184 0 -224 119q-29 -66 -86 -92.5t-150 -26.5h-618q-82 0 -82 57q0 41 19.5 49.5t62.5 8.5h578q120 0 154 41t34 166v161q0 115 -61.5 171.5
t-196.5 56.5h-342q-20 0 -21 20v76q0 18 7 18l454 535q14 16 27 6l59 -47q20 -14 8 -29l-393 -465h236z" />
    <glyph glyph-name="uniFEDE" unicode="&#x644;" horiz-adv-x="1228" arabic-form="final" 
d="M1229 0q-147 0 -209 66v-27q0 -305 -256 -399q-88 -32 -203 -33q-226 0 -346.5 117t-120.5 313q0 129 42 235.5t91 176.5q8 12 29 0l63 -41q16 -10 7 -27q-115 -177 -115 -341t123 -248q94 -64 235 -64q237 0 311 164q26 58 27 143v1335q0 20 21 21h71q20 0 21 -21v-1102
q0 -153 182 -153h27q49 0 65.5 -11.5t16.5 -46t-19.5 -46t-62.5 -11.5z" />
    <glyph glyph-name="uniFEDF" unicode="&#x644;" horiz-adv-x="522" arabic-form="initial" 
d="M150 115q106 0 106 108v1149q0 20 20 21h72q20 0 21 -21v-1114q0 -139 -50 -199q-50 -59 -190 -59h-129q-41 0 -61.5 10t-20.5 47t19.5 47.5t62.5 10.5h150z" />
    <glyph glyph-name="uniFEE0" unicode="&#x644;" horiz-adv-x="577" arabic-form="medial" 
d="M369 268q0 -78 54 -115.5t144 -37.5h13q41 0 61.5 -11.5t20.5 -44t-18.5 -46t-84 -13.5t-127 19.5t-90.5 89.5q-25 -49 -65.5 -79t-118.5 -30h-158q-39 0 -60.5 11.5t-21.5 45t20.5 46t61.5 12.5h145q74 0 93 38q18 38 18 134v1085q0 20 20 21h72q20 0 21 -21v-1104z" />
    <glyph glyph-name="uniFEE2" unicode="&#x645;" horiz-adv-x="1232" arabic-form="final" 
d="M938 420q0 328 -244.5 328t-244.5 -323.5t243 -324.5q129 0 187.5 79t58.5 241zM172 -74v-327h-113v370q-1 145 133 213q87 44 113.5 72.5t30.5 67.5q-4 36 -4 84q0 457 360 456q363 0 363 -436q0 -100 -6 -133q-1 -149 83 -171q26 -7 60 -7h43q41 0 61.5 -12.5
t20.5 -47.5t-19.5 -45t-62.5 -10h-35q-166 0 -227 102q-87 -116 -281 -116q-226 0 -319 168q-23 -37 -57.5 -52.5t-66.5 -33t-54.5 -47t-22.5 -95.5z" />
    <glyph glyph-name="uniFEE3" unicode="&#x645;" horiz-adv-x="1079" arabic-form="initial" 
d="M844 420q0 328 -245 328t-245 -328q0 -162 57.5 -241t186.5 -79t187.5 79t58.5 241zM958 424q0 -438 -360 -438q-201 0 -285 114q-37 -68 -86 -84t-106 -16h-121q-41 0 -61.5 10t-20.5 48t19.5 47.5t62.5 9.5h113q53 -1 79 29q50 59 50 153q-4 50 -4 109q0 457 360 456
q360 0 360 -438z" />
    <glyph glyph-name="uniFEE4" unicode="&#x645;" horiz-adv-x="1138" arabic-form="medial" 
d="M844 420q0 328 -245 328t-245 -328q0 -162 57.5 -241t186.5 -79t187.5 79t58.5 241zM961 426q0 -93 -7 -133q0 -149 84 -171q26 -7 60 -7h43q41 0 61.5 -12.5t20.5 -47.5t-19.5 -45t-62.5 -10h-35q-168 0 -227 102q-87 -116 -284.5 -116t-281.5 114q-37 -68 -86 -84
t-106 -16h-121q-41 0 -61.5 10t-20.5 48t19.5 47.5t62.5 9.5h113q53 -1 79 29q50 59 50 153q-4 50 -4 109q0 457 360 456q363 0 363 -436z" />
    <glyph glyph-name="uniFEE6" unicode="&#x646;" horiz-adv-x="1212" arabic-form="final" 
d="M1212 0q-130 0 -192 66v-27q0 -305 -256 -399q-88 -32 -203 -33q-226 0 -346.5 117t-120.5 313q0 129 42 235.5t91 176.5q8 12 29 0l63 -41q16 -10 7 -27q-115 -177 -115 -341t123 -248q94 -64 235 -64q237 0 311 164q26 58 27 143v590q0 20 21 20h71q20 0 21 -20v-357
q0 -153 182 -153h10q49 0 65.5 -11.5t16.5 -46t-19.5 -46t-62.5 -11.5zM600 645q-20 0 -20 21v122q0 20 20 21h82q20 0 20 -21v-122q0 -20 -20 -21h-82z" />
    <glyph glyph-name="uniFEE7" unicode="&#x646;" horiz-adv-x="522" arabic-form="initial" 
d="M150 115q106 0 106 108v582q0 20 20 20h72q20 0 21 -20v-547q0 -139 -50 -199q-50 -59 -190 -59h-129q-41 0 -61.5 10t-20.5 47t19.5 47.5t62.5 10.5h150zM270 1026q-20 0 -20 21v122q0 20 20 21h82q20 0 21 -21v-122q0 -20 -21 -21h-82z" />
    <glyph glyph-name="uniFEE8" unicode="&#x646;" horiz-adv-x="579" arabic-form="medial" 
d="M369 268q0 -78 54 -115.5t144 -37.5h13q41 0 61.5 -11.5t20.5 -44t-18.5 -46t-84 -13.5t-127 19.5t-90.5 89.5q-25 -49 -65.5 -79t-118.5 -30h-158q-39 0 -60.5 11.5t-21.5 45t20.5 46t61.5 12.5h145q74 0 93 38q18 38 18 134v518q0 20 20 20h72q20 0 21 -20v-537z
M270 1026q-20 0 -20 21v122q0 20 20 21h82q20 0 21 -21v-122q0 -20 -21 -21h-82z" />
    <glyph glyph-name="uniFEE9" unicode="&#x647;" horiz-adv-x="1271" arabic-form="isolated" 
d="M379 306q0 -191 135 -191h27q60 1 84 27q45 50 45 149q0 182 -144 182q-77 0 -112 -51.5t-35 -115.5zM258 307.5q0 130.5 76 206.5t193.5 76t192.5 -74t75 -203q0 -82 -17.5 -131t-32.5 -67h48q153 0 199 66q36 51 36 215.5t-103.5 255.5t-280.5 91t-329 -84
q-23 -12 -28 -2l-35 62q-12 23 0 31q179 108 420.5 108t371.5 -150q108 -124 107.5 -329t-74.5 -292t-256 -87h-628q-47 0 -60.5 -13.5t-13.5 -56.5v-47q0 -20 -21 -20h-71q-20 0 -21 20v117q0 115 125 115h170q-43 62 -43 192.5z" />
    <glyph glyph-name="uniFEEA" unicode="&#x647;" horiz-adv-x="968" arabic-form="final" 
d="M434 748q-239 0 -239 -274q0 -146 58 -204.5t180 -58.5t171 59.5t49 161.5v316h-219zM417.5 96q-155.5 0 -246.5 89t-91 274q0 311 224 381q68 22 151 22h198v88q0 20 21 21h71q20 0 21 -21v-727q0 -61 23.5 -84.5t74.5 -23.5h105q41 0 61.5 -12.5t20.5 -50.5t-19.5 -45
t-62.5 -7h-111q-205 0 -205 176q-80 -80 -235.5 -80z" />
    <glyph glyph-name="uniFEEB" unicode="&#x647;" horiz-adv-x="1241" arabic-form="initial" 
d="M348 306q0 -191 135 -191h27q62 1 85 27q44 51 44 149q0 182 -143 182q-78 0 -113 -51.5t-35 -115.5zM227 307.5q0 130.5 76 206.5t194 76t192.5 -74t74.5 -203q0 -82 -17.5 -131t-31.5 -67h47q154 0 200 66q36 51 35.5 215.5t-104 255.5t-281 91t-327.5 -84
q-24 -12 -29 -2l-35 62q-12 23 0 31q179 108 421 108q240 0 370 -150q108 -124 108 -328.5t-73 -292t-256 -87.5h-791q-41 0 -61.5 10t-20.5 47t19.5 47.5t62.5 10.5h270q-43 62 -43 192.5z" />
    <glyph glyph-name="uniFEEC" unicode="&#x647;" horiz-adv-x="1122" arabic-form="medial" 
d="M611 -295q122 0 173.5 37t51.5 110t-52 110.5t-194 37.5h-221v-131q0 -96 60 -130t182 -34zM615 748q-118 0 -182 -78t-64 -226v-329h286q99 0 149 98t50 231.5t-60.5 218.5t-178.5 85zM952 -123q0 -131 -87.5 -209t-268.5 -78q-342 0 -342 275v135h-254q-82 0 -82 57
q0 39 19.5 48.5t62.5 9.5h254v305q0 219 98.5 330.5t267 111.5t260 -109.5t91.5 -320.5q0 -94 -28 -179t-64 -138h243q84 0 84 -60q0 -55 -84 -55h-221q51 -56 51 -123z" />
    <glyph glyph-name="uniFEEE" unicode="&#x648;" horiz-adv-x="1001" arabic-form="final" 
d="M743 418q0 330 -232 330q-122 0 -190.5 -86.5t-68.5 -251.5t62.5 -230t197.5 -65h231v303zM297 -401q-20 0 -21 20v74q0 20 21 20h250q100 0 148 37t48 148v102h-231q-280 0 -352 214q-26 79 -27 193q0 219 105.5 337t275.5 118q344 0 344 -440v-307h143q41 0 61.5 -10.5
t20.5 -46.5t-19.5 -47t-62.5 -11h-143v-100q0 -160 -66.5 -230.5t-209.5 -70.5h-285z" />
    <glyph glyph-name="uniFEF0" unicode="&#x649;" horiz-adv-x="1490" arabic-form="final" 
d="M1057 -283q215 1 215 137q0 60 -30 96t-87 66.5t-140 59t-188 67.5q-18 6 -12 25l35 82q6 20 24 14q66 -26 128 -52q230 -97 362 -97h127q41 0 61.5 -6.5t20.5 -44t-19.5 -51t-62.5 -13.5h-152q41 -66 41 -129q0 -126 -74 -199t-225 -73h-551q-213 0 -333.5 116.5
t-120.5 323.5q0 129 42 235.5t91 176.5q8 12 29 0l63 -41q16 -10 6 -27q-114 -175 -114 -339t97.5 -245.5t258.5 -81.5h508z" />
    <glyph glyph-name="uniFEF2" unicode="&#x64a;" horiz-adv-x="1490" arabic-form="final" 
d="M1057 -283q215 1 215 137q0 60 -30 96t-87 66.5t-140 59t-188 67.5q-18 6 -12 25l35 82q6 20 24 14q66 -26 128 -52q230 -97 362 -97h127q41 0 61.5 -6.5t20.5 -44t-19.5 -51t-62.5 -13.5h-152q41 -66 41 -129q0 -126 -74 -199t-225 -73h-551q-213 0 -333.5 116.5
t-120.5 323.5q0 129 42 235.5t91 176.5q8 12 29 0l63 -41q16 -10 6 -27q-114 -175 -114 -339t97.5 -245.5t258.5 -81.5h508zM528 -717q-20 0 -20 21v123q0 20 20 20h107q20 0 20 -20v-123q0 -20 -20 -21h-107zM791 -717q-20 0 -21 21v123q0 20 21 20h106q20 0 21 -20v-123
q0 -20 -21 -21h-106z" />
    <glyph glyph-name="uniFEF3" unicode="&#x64a;" horiz-adv-x="520" arabic-form="initial" 
d="M0 0q-41 0 -61.5 8t-20.5 45t19.5 49.5t62.5 12.5h147q51 0 75 23.5t24 84.5v582q0 20 20 20h74q20 0 20 -20v-547q0 -133 -55 -195.5t-184 -62.5h-121zM61 -336q-20 0 -20 21v122q0 20 20 21h107q20 0 20 -21v-122q0 -20 -20 -21h-107zM324 -336q-20 0 -21 21v122
q0 20 21 21h106q20 0 21 -21v-122q0 -20 -21 -21h-106z" />
    <glyph glyph-name="uniFEF4" unicode="&#x64a;" horiz-adv-x="587" arabic-form="medial" 
d="M377 268q0 -78 54 -115.5t144 -37.5h13q41 0 61.5 -11.5t20.5 -44t-18.5 -46t-84 -13.5t-127 19.5t-90.5 89.5q-25 -49 -65.5 -79t-118.5 -30h-166q-39 0 -56.5 11.5t-17.5 45t16.5 46t57.5 12.5h154q75 0 92 38q18 38 18 134v518q0 20 21 20h71q20 0 21 -20v-537z
M104 -336q-20 0 -20 21v122q0 20 20 21h107q20 0 20 -21v-122q0 -20 -20 -21h-107zM367 -336q-20 0 -21 21v122q0 20 21 21h106q20 0 21 -21v-122q0 -20 -21 -21h-106z" />
    <glyph glyph-name=".notdef" horiz-adv-x="962" 
d="M410 332q0 20 20 20h64q20 0 20 -20v-80q0 -20 -20 -21h-64q-20 0 -20 21v80zM440 459q-20 0 -20 20v49q0 82 45 138l76 98q47 55 61 88.5t14 87.5t-40.5 92.5t-106.5 38.5q-127 0 -158 -137q-4 -18 -24 -16l-43 8q-20 4 -17 22q16 90 81 146.5t166 56.5t163.5 -64.5
t62.5 -158.5q0 -59 -18 -101.5t-59 -91.5l-76 -98q-27 -33 -34 -54.5t-7 -58.5v-45q0 -20 -21 -20h-45zM80 88q0 -12 12 -12h778q12 0 13 12v1217q0 12 -13 12h-778q-12 0 -12 -12v-1217zM0 1372q0 20 20 21h922q20 0 21 -21v-1352q0 -20 -21 -20h-922q-20 0 -20 20v1352z
" />
    <glyph glyph-name="glyph1" horiz-adv-x="1024" 
 />
    <glyph glyph-name="glyph1" horiz-adv-x="1024" 
 />
    <glyph glyph-name="uni000D" unicode="&#xd;" horiz-adv-x="0" 
 />
    <glyph glyph-name="space" unicode=" " horiz-adv-x="503" 
 />
    <glyph glyph-name="space" unicode="&#xa0;" horiz-adv-x="503" 
 />
    <glyph glyph-name="exclam" unicode="!" horiz-adv-x="544" 
d="M201 158q0 20 20 20h103q20 0 20 -20v-138q0 -20 -20 -20h-103q-20 0 -20 20v138zM250 362q-20 0 -21 21l-16 989q0 20 20 21h80q20 0 21 -21l-17 -989q0 -20 -20 -21h-47z" />
    <glyph glyph-name="quotedbl" unicode="&#x22;" horiz-adv-x="643" 
d="M172 1065q-20 0 -20 20v287q0 20 20 21h53q20 0 21 -21v-287q0 -20 -21 -20h-53zM418 1065q-20 0 -21 20v287q0 20 21 21h53q20 0 21 -21v-287q0 -20 -21 -20h-53z" />
    <glyph glyph-name="numbersign" unicode="#" horiz-adv-x="1060" 
d="M655 539l47 346h-307l-47 -346h307zM76 449q-20 0 -21 20v49q0 20 21 21h176l47 346h-172q-20 0 -21 20v51q0 20 21 21h184l56 395q4 20 22 21h55q23 0 19 -21l-55 -395h307l55 395q4 20 23 21h55q23 0 18 -21l-55 -395h174q20 0 21 -21v-51q0 -20 -21 -20h-186l-47 -346
h184q20 0 20 -21v-49q0 -20 -20 -20h-197l-57 -429q-4 -20 -23 -20h-55q-23 0 -18 20l57 429h-307l-57 -429q-4 -20 -23 -20h-55q-23 0 -19 20l58 429h-164z" />
    <glyph glyph-name="dollar" unicode="$" 
d="M858 366q0 116 -58.5 184t-203.5 91v-553q123 14 192.5 88t69.5 190zM266 1040q0 -110 54.5 -177.5t195.5 -96.5v539q-115 -10 -182.5 -82.5t-67.5 -182.5zM967 383q0 -170 -98.5 -276.5t-272.5 -122.5v-109q0 -20 -21 -20h-38q-20 0 -21 20v105q-220 8 -383 122
q-6 4 -7 13.5t5 15.5l43 57q10 12 29 2q147 -97 313 -104v567q-184 29 -271 127.5t-87 253.5t98 260t260 117v107q0 20 21 20h38q20 0 21 -20v-107q162 -8 297 -92q20 -10 6 -29l-35 -55q-12 -16 -28 -6q-120 66 -240 76v-549q371 -57 371 -373z" />
    <glyph glyph-name="percent" unicode="%" horiz-adv-x="1576" 
d="M1159.5 68q102.5 0 132.5 88q2 10 5 21t5.5 30.5t3.5 53.5t1 89.5t-1 88t-3.5 53t-5.5 30.5t-5 21q-31 88 -133 88t-133 -88q-14 -35 -14 -193.5t14 -193.5q31 -88 133.5 -88zM1159 717q84 0 153.5 -48.5t77 -130.5t7.5 -189t-7 -187.5t-77 -129t-154 -48.5t-153.5 48
t-76.5 129t-7 188t7.5 189t76.5 130.5t153 48.5zM563 1167.5q-2 45.5 -14 80.5q-12 34 -46 55.5t-83 21.5q-106 0 -133 -88q-15 -37 -15 -155.5t2 -162.5t13 -71q27 -88 132 -88t132 88q14 35 14 154.5t-2 165zM419 676q-85 0 -148.5 44t-77 116.5t-13.5 196t16.5 250
t223.5 126.5q84 0 141 -40t80 -112q2 -12 5 -26t6 -37t4 -58.5t1 -93t-1 -93.5t-4 -59.5t-6 -36.5t-5 -26q-23 -72 -80 -111.5t-142 -39.5zM1171 1413h56q23 0 12 -20l-807 -1393q-12 -20 -29 -20h-55q-23 0 -12 20l807 1393q12 20 28 20z" />
    <glyph glyph-name="ampersand" unicode="&#x26;" horiz-adv-x="1265" 
d="M262 328q0 -106 66 -176t170 -70t177 46t156 144l-325 424q-117 -96 -180.5 -179t-63.5 -189zM739 1135q0 78 -53 127t-136 49t-135.5 -49.5t-52.5 -112.5t34 -121t130 -182q184 145 198.5 201.5t14.5 87.5zM156 332q0 121 73.5 226.5t214.5 219.5q-111 142 -150.5 214
t-39.5 137q0 124 84 204t213 80t211 -79.5t82 -185.5t-41 -167t-90 -109.5t-123 -109.5l311 -404l146 183q12 16 28 4l43 -37q18 -12 4 -29l-159 -203l96 -124q23 -29 40 -37.5t40 -8.5h28q20 0 21 -20v-66q0 -20 -21 -20h-43q-53 0 -83.5 17.5t-65.5 64.5l-82 108
q-94 -109 -181.5 -159.5t-185.5 -50.5q-178 0 -274 96t-96 256z" />
    <glyph glyph-name="quotesingle" unicode="'" horiz-adv-x="397" 
d="M172 1065q-20 0 -20 20v287q0 20 20 21h53q20 0 21 -21v-287q0 -20 -21 -20h-53z" />
    <glyph glyph-name="parenleft" unicode="(" horiz-adv-x="565" 
d="M154 672q0 211 57 424t168 399q14 20 31 21h41q22 0 14 -21q-203 -393 -203 -713.5t54.5 -534.5t148.5 -399q8 -20 -14 -20h-41q-17 0 -31 20q-111 186 -168 399.5t-57 424.5z" />
    <glyph glyph-name="parenright" unicode=")" horiz-adv-x="565" 
d="M303 783.5q0 322.5 -203 711.5q-8 21 15 21h43q14 0 28 -21q111 -186 168.5 -399t57.5 -540t-226 -708q-14 -20 -28 -20h-43q-23 0 -15 20q96 184 149.5 398.5t53.5 537z" />
    <glyph glyph-name="asterisk" unicode="*" horiz-adv-x="714" 
d="M340 823q-20 0 -21 21v196l-172 -98q-18 -10 -28 8l-17 31q-12 18 9 29l170 98l-170 98q-20 10 -9 29l17 31q10 18 28 8l172 -100v198q0 20 21 21h35q20 0 20 -21v-198l172 100q18 10 29 -8l16 -31q12 -18 -8 -29l-172 -98l172 -98q20 -10 8 -29l-16 -31q-10 -18 -29 -8
l-172 100v-198q0 -20 -20 -21h-35z" />
    <glyph glyph-name="plus" unicode="+" 
d="M492 502q0 12 -13 12h-323q-20 0 -21 21v61q0 20 21 20h323q12 0 13 13v327q0 20 20 21h66q20 0 20 -21v-327q0 -12 12 -13h324q20 0 20 -20v-61q0 -20 -20 -21h-324q-12 0 -12 -12v-328q0 -20 -20 -20h-66q-20 0 -20 20v328z" />
    <glyph glyph-name="comma" unicode="," horiz-adv-x="436" 
d="M154 158q0 20 20 20h88q20 0 21 -20v-154q0 -26 -11 -45l-79 -158q-7 -16 -23 -16t-16 18v355z" />
    <glyph glyph-name="hyphen" unicode="-" horiz-adv-x="765" 
d="M121 494q-20 0 -21 20v64q0 20 21 20h524q20 0 21 -20v-64q0 -20 -21 -20h-524z" />
    <glyph glyph-name="hyphen" unicode="&#x2010;" horiz-adv-x="765" 
d="M121 494q-20 0 -21 20v64q0 20 21 20h524q20 0 21 -20v-64q0 -20 -21 -20h-524z" />
    <glyph glyph-name="hyphen" unicode="&#xad;" horiz-adv-x="765" 
d="M121 494q-20 0 -21 20v64q0 20 21 20h524q20 0 21 -20v-64q0 -20 -21 -20h-524z" />
    <glyph glyph-name="period" unicode="." horiz-adv-x="448" 
d="M154 158q0 20 20 20h100q20 0 21 -20v-138q0 -20 -21 -20h-100q-20 0 -20 20v138z" />
    <glyph glyph-name="slash" unicode="/" horiz-adv-x="833" 
d="M618 1413h62q20 0 14 -20l-452 -1393q-6 -20 -27 -20h-61q-20 0 -15 20l453 1393q6 20 26 20z" />
    <glyph glyph-name="zero" unicode="0" 
d="M823 817.5q0 242.5 -28 321.5q-56 170 -250 170t-250 -170q-22 -59 -25.5 -190.5t-3.5 -374.5t29 -320q56 -170 250 -170t250 170q21 56 24.5 188.5t3.5 375zM545 1413q133 0 236.5 -71.5t128 -200t24.5 -410.5t-8.5 -370t-22.5 -132q-41 -123 -133 -186t-225 -63
t-238.5 72t-128 203t-22.5 474.5t36 449.5q36 107 128 170.5t225 63.5z" />
    <glyph glyph-name="one" unicode="1" 
d="M526 1243h-4l-252 -178q-8 -6 -15 -3t-7 15v86q0 18 14 31l258 186q14 12 31 13h65q20 0 21 -21v-1352q0 -20 -21 -20h-69q-20 0 -21 20v1223z" />
    <glyph glyph-name="two" unicode="2" 
d="M170 74q0 16 8 26l514 674q115 148 115 268t-73.5 192.5t-191.5 72.5t-183.5 -64.5t-84.5 -175.5q-4 -18 -24 -16l-64 16q-20 4 -16 23q17 137 115.5 230t261.5 93t267 -102t104 -264q0 -92 -38 -173t-104 -167l-459 -598v-3h580q20 0 21 -20v-66q0 -20 -21 -20h-707
q-20 0 -20 20v54z" />
    <glyph glyph-name="three" unicode="3" 
d="M909 1049q0 -207 -186 -314v-4q137 -55 176 -165.5t39 -192.5t-28.5 -156t-81 -126t-125 -81.5t-198.5 -29.5t-227.5 82.5t-127.5 203.5q-6 20 14 27l65 16q20 6 27 -14q38 -141 128.5 -175t158.5 -34q131 0 207.5 81t76.5 209t-80.5 212t-211.5 84h-64q-20 0 -20 20v66
q0 20 20 20h61q119 0 192 75t73 193t-70 189.5t-192 71.5q-164 0 -209 -81t-54 -120q-4 -20 -22 -16l-68 18q-20 4 -16 25q22 117 119 198.5t260 81.5q162 0 263 -101t101 -263z" />
    <glyph glyph-name="four" unicode="4" 
d="M137 279q-20 0 -20 20v61q0 11 4 23l452 993q8 16 27 17h76q23 0 14 -19l-448 -987v-2h430q12 0 12 12v381q0 20 21 21h69q20 0 21 -21v-381q0 -12 12 -12h154q20 0 20 -20v-66q0 -20 -20 -20h-154q-12 0 -12 -13v-246q0 -20 -21 -20h-69q-20 0 -21 20v246q0 12 -12 13
h-535z" />
    <glyph glyph-name="five" unicode="5" 
d="M544 86q202 0 259 160q20 63 20 199q-1 136 -25 210t-85.5 113t-154.5 39t-156.5 -50t-84.5 -116q-6 -20 -20 -20h-68q-20 0 -20 20v731q0 20 20 21h658q20 0 20 -21v-65q0 -20 -20 -21h-559q-12 0 -13 -12v-481h4q27 45 92 82.5t175 37.5t229 -77t119 -390
q0 -154 -29 -233q-37 -113 -128 -173t-193 -60q-177 0 -279 81.5t-119 212.5q-4 18 15 25l65 16q18 6 27 -16q16 -92 82.5 -152.5t168.5 -60.5z" />
    <glyph glyph-name="six" unicode="6" 
d="M250 397.5q0 -139.5 82 -225.5t214 -86t214 86t82 225.5t-83 226.5t-214 87t-213 -87t-82 -226.5zM542 817q189 0 299.5 -114.5t110.5 -301.5t-112.5 -304t-293.5 -117t-294 115t-113 304q0 148 90 314l346 665q8 14 27 15h76q10 0 13 -6.5t-1 -12.5l-313 -604l4 -2
q58 49 161 49z" />
    <glyph glyph-name="seven" unicode="7" 
d="M819 1286h-504q-12 0 -12 -12v-191q0 -20 -20 -20h-70q-20 0 -20 20v289q0 20 20 21h705q20 0 20 -21v-76q0 -8 -4 -20l-500 -1258q-7 -18 -26 -18h-76q-20 0 -10 23l497 1257v6z" />
    <glyph glyph-name="eight" unicode="8" 
d="M246 380.5q0 -63.5 21.5 -117.5t60.5 -93t94 -61.5t122.5 -22.5t123 22.5t94.5 61.5t60.5 93t21.5 117.5t-21.5 119t-60.5 95.5t-94.5 62.5t-123 22.5t-122.5 -22.5t-94 -62.5t-60.5 -95.5t-21.5 -119zM544.5 786q59.5 0 107.5 19.5t83 55.5t53.5 83t18.5 130.5
t-72.5 158t-189.5 74.5q-179 0 -220.5 -102.5t-41.5 -158t18 -102.5t52 -83t83 -55.5t108.5 -19.5zM135 398q0 108 62.5 200t160.5 133v4q-82 41 -134 121t-52 174t26.5 160.5t76 116t118 78t193 28.5t228.5 -105.5t104 -260.5q0 -111 -52.5 -191t-134.5 -121v-4
q98 -41 160.5 -133t62.5 -200t-30.5 -181.5t-85 -125.5t-129 -81.5t-164.5 -29.5t-165 29.5t-129 81.5t-85 125.5t-31 181.5z" />
    <glyph glyph-name="nine" unicode="9" 
d="M840 995.5q0 139.5 -82 225.5t-214 86t-214 -86t-82 -225t81.5 -226.5t213.5 -87.5q133 0 215 87t82 226.5zM137 992q0 186 112 303.5t293.5 117.5t294.5 -115t113 -305q0 -147 -90 -313l-346 -666q-8 -14 -27 -14h-75q-10 0 -13.5 6t0.5 12l314 605l-4 2
q-59 -50 -162 -50q-188 0 -299 115.5t-111 301.5z" />
    <glyph glyph-name="colon" unicode=":" horiz-adv-x="464" 
d="M162 158q0 20 20 20h101q20 0 20 -20v-138q0 -20 -20 -20h-101q-20 0 -20 20v138zM182 797q-20 0 -20 20v139q0 20 20 21h101q20 0 20 -21v-139q0 -20 -20 -20h-101z" />
    <glyph glyph-name="semicolon" unicode=";" horiz-adv-x="464" 
d="M168 158q0 20 20 20h88q20 0 21 -20v-154q0 -25 -10 -45l-80 -158q-7 -16 -23 -16t-16 18v355zM182 797q-20 0 -20 20v139q0 20 20 21h101q20 0 20 -21v-139q0 -20 -20 -20h-101z" />
    <glyph glyph-name="less" unicode="&#x3c;" 
d="M135 592q0 18 21 26l778 318q20 6 20 -14v-72q0 -18 -20 -27l-647 -256v-4l647 -256q20 -8 20 -26v-72q0 -20 -20 -14l-778 317q-20 8 -21 27v53z" />
    <glyph glyph-name="equal" unicode="=" 
d="M156 315q-20 0 -21 21v61q0 20 21 21h778q20 0 20 -21v-61q0 -20 -20 -21h-778zM156 713q-20 0 -21 20v62q0 20 21 20h778q20 0 20 -20v-62q0 -20 -20 -20h-778z" />
    <glyph glyph-name="greater" unicode="&#x3e;" 
d="M135 281q0 18 21 26l647 256v4l-647 256q-20 8 -21 27v72q0 20 21 14l778 -318q20 -8 20 -26v-53q0 -18 -20 -27l-778 -317q-20 -6 -21 14v72z" />
    <glyph glyph-name="question" unicode="?" horiz-adv-x="913" 
d="M385 158q0 20 21 20h102q20 0 20 -20v-138q0 -20 -20 -20h-102q-20 0 -21 20v138zM401 457q0 63 13.5 107t52.5 93l113 150q103 124 114 179.5t11 88.5q0 111 -69 171.5t-172 60.5t-168 -59.5t-87 -170.5q-4 -20 -23 -16l-69 12q-20 4 -17 25q23 139 117 227t249 88
t253 -94t98 -244q0 -84 -28.5 -148.5t-96.5 -146.5l-112 -151q-44 -56 -55 -87.5t-11 -92.5v-72q0 -20 -20 -21h-72q-20 0 -21 21v80z" />
    <glyph glyph-name="at" unicode="@" horiz-adv-x="1810" 
d="M892 862q-233 0 -233 -218.5t21 -287.5q47 -145 212 -145t212 145q20 66 20 180.5t-20 180.5q-47 145 -212 145zM559 684.5q0 273.5 311 273.5q98 0 160 -34.5t90 -85.5h4v80q0 20 19 20h61q18 0 19 -20v-502q0 -100 51.5 -153.5t126.5 -53.5q147 0 179 121t32 249
t-51.5 258t-143.5 224t-222 145t-290 51t-290 -51t-222 -145t-142 -224t-50 -370t192.5 -436.5t511.5 -196.5q262 0 449 98q16 10 26 -8l21 -47q6 -18 -10 -27q-191 -110 -486 -110q-354 0 -579.5 225.5t-225.5 581.5t224.5 580.5t491.5 224.5t415.5 -59.5t255 -165
t166 -254.5t59.5 -295q0 -251 -88 -357t-227 -106q-86 0 -148.5 43t-91.5 116h-2q-71 -159 -286 -159q-214 0 -283 204q-27 92 -27 365.5z" />
    <glyph glyph-name="A" unicode="A" horiz-adv-x="1220" 
d="M874 475l-260 729h-6l-262 -729h528zM649 1393q18 0 25 -21l483 -1352q6 -20 -14 -20h-80q-23 0 -27 20l-123 342h-606l-123 -342q-8 -20 -26 -20h-80q-20 0 -15 20l488 1352q6 20 24 21h74z" />
    <glyph glyph-name="B" unicode="B" horiz-adv-x="1230" 
d="M309 123q0 -12 13 -12h366q150 0 226.5 73.5t76.5 196.5t-76.5 197.5t-226.5 74.5h-366q-12 0 -13 -12v-518zM678 764q141 0 216 71.5t75 189.5t-75 187.5t-216 69.5h-356q-12 0 -13 -12v-494q0 -12 13 -12h356zM193 1372q0 20 20 21h467q199 0 302 -97.5t103 -263.5
q0 -129 -58 -206.5t-157 -106.5v-4q92 -19 165 -106.5t73 -225.5q0 -180 -110.5 -281.5t-317.5 -101.5h-467q-20 0 -20 20v1352z" />
    <glyph glyph-name="C" unicode="C" horiz-adv-x="1138" 
d="M170 1102q104 311 440 311q143 0 252 -64.5t168 -193.5q8 -18 -6 -27l-68 -32q-16 -10 -26 8q-104 199 -320 199q-129 0 -230 -75.5t-114.5 -219.5t-13.5 -312t13.5 -311.5t114.5 -219t225 -75.5q221 0 325 199q10 18 26 8l68 -33q14 -8 6 -26q-118 -258 -437 -258
t-423 311q-22 73 -29.5 164t-7.5 306.5t37 340.5z" />
    <glyph glyph-name="D" unicode="D" horiz-adv-x="1269" 
d="M309 123q0 -12 13 -12h311q278 0 348 211q26 82 29.5 184t3.5 232t-15.5 276t-123 207t-242.5 61h-311q-12 0 -13 -12v-1147zM193 1372q0 20 20 21h436q387 0 435.5 -224.5t48.5 -396.5q0 -255 -9.5 -342t-29.5 -147q-92 -283 -445 -283h-436q-20 0 -20 20v1352z" />
    <glyph glyph-name="E" unicode="E" horiz-adv-x="1138" 
d="M193 1372q0 20 20 21h797q20 0 20 -21v-69q0 -20 -20 -21h-688q-12 0 -13 -12v-496q0 -12 13 -12h591q20 0 21 -21v-69q0 -20 -21 -21h-591q-12 0 -13 -12v-516q0 -12 13 -12h688q20 0 20 -21v-70q0 -20 -20 -20h-797q-20 0 -20 20v1352z" />
    <glyph glyph-name="F" unicode="F" horiz-adv-x="1128" 
d="M193 1372q0 20 20 21h797q20 0 20 -21v-69q0 -20 -20 -21h-688q-12 0 -13 -12v-510q0 -12 13 -12h591q20 0 21 -21v-70q0 -20 -21 -20h-591q-12 0 -13 -12v-605q0 -20 -20 -20h-76q-20 0 -20 20v1352z" />
    <glyph glyph-name="G" unicode="G" horiz-adv-x="1247" 
d="M627 1413q240 0 325.5 -101.5t110.5 -156.5q8 -18 -8 -27l-66 -32q-18 -6 -26 8q-53 96 -133 147.5t-205 51.5q-262 0 -340 -236q-27 -89 -30 -187t-3 -228.5t8 -200t25 -125.5q78 -236 340 -236t340 232q32 94 32 266q0 12 -12 12h-315q-20 0 -21 21v67q0 20 21 21h424
q20 0 20 -21v-84q0 -207 -37 -309q-49 -156 -165.5 -235.5t-286.5 -79.5q-428 0 -460 274t-32 494t39 352q102 313 455 313z" />
    <glyph glyph-name="H" unicode="H" horiz-adv-x="1331" 
d="M193 1372q0 20 20 21h76q20 0 20 -21v-598q0 -12 13 -12h688q12 0 12 12v598q0 20 20 21h76q20 0 21 -21v-1352q0 -20 -21 -20h-76q-20 0 -20 20v619q0 12 -12 12h-688q-12 0 -13 -12v-619q0 -20 -20 -20h-76q-20 0 -20 20v1352z" />
    <glyph glyph-name="I" unicode="I" horiz-adv-x="501" 
d="M193 1372q0 20 20 21h76q20 0 20 -21v-1352q0 -20 -20 -20h-76q-20 0 -20 20v1352z" />
    <glyph glyph-name="J" unicode="J" horiz-adv-x="970" 
d="M385 90q133 0 211 77t78 251v954q0 20 20 21h76q20 0 21 -21v-954q0 -225 -111 -331.5t-297 -106.5q-92 0 -172 33.5t-129 80.5q-16 14 -2 29l55 51q14 14 41 -8t85 -49t124 -27z" />
    <glyph glyph-name="K" unicode="K" horiz-adv-x="1222" 
d="M193 1372q0 20 20 21h76q20 0 20 -21v-803l664 805q18 18 35 19h96q10 0 13 -7.5t-5 -15.5l-440 -526l475 -821q14 -23 -10 -23h-93q-18 0 -30 18l-420 732l-285 -340v-390q0 -20 -20 -20h-76q-20 0 -20 20v1352z" />
    <glyph glyph-name="L" unicode="L" horiz-adv-x="1085" 
d="M193 1372q0 20 20 21h76q20 0 20 -21v-1249q0 -12 13 -12h688q20 0 20 -21v-70q0 -20 -20 -20h-797q-20 0 -20 20v1352z" />
    <glyph glyph-name="M" unicode="M" horiz-adv-x="1546" 
d="M193 1372q0 20 20 21h78q23 0 31 -21l452 -997h8l443 997q8 20 28 21h80q20 0 21 -21v-1352q0 -20 -21 -20h-76q-20 0 -20 20v1090h-6l-402 -883q-11 -22 -36 -22h-41q-25 0 -35 22l-402 883h-6v-1090q0 -20 -20 -20h-76q-20 0 -20 20v1352z" />
    <glyph glyph-name="N" unicode="N" horiz-adv-x="1333" 
d="M193 1372q0 20 20 21h76q25 0 35 -21l694 -1145h6v1145q0 20 20 21h76q20 0 21 -21v-1352q0 -20 -21 -20h-80q-23 0 -34 20l-689 1147h-8v-1147q0 -20 -20 -20h-76q-20 0 -20 20v1352z" />
    <glyph glyph-name="O" unicode="O" horiz-adv-x="1247" 
d="M961 1067q-78 236 -337 236t-337 -236q-35 -117 -35 -364t14.5 -302t20.5 -75q78 -236 337 -236t337 236q34 113 34 370.5t-34 370.5zM154 1040.5q21 178.5 160 275.5t310 97q345 0 449 -313q24 -88 29.5 -137.5t8.5 -113t3 -189.5t-9 -209.5t-32 -157.5
q-103 -313 -449 -313t-450 313q-30 81 -35.5 197t-5.5 244t21 306.5z" />
    <glyph glyph-name="P" unicode="P" horiz-adv-x="1198" 
d="M674 715q154 0 234.5 73.5t80.5 209t-81 210t-234 74.5h-352q-12 0 -13 -12v-543q0 -12 13 -12h352zM213 0q-20 0 -20 20v1352q0 20 20 21h465q201 0 314.5 -105.5t113.5 -290t-113.5 -289t-314.5 -104.5h-356q-12 0 -13 -12v-572q0 -20 -20 -20h-76z" />
    <glyph glyph-name="Q" unicode="Q" horiz-adv-x="1247" 
d="M625 90q141 0 231 74l-168 180q-14 14 0 29l51 47q16 12 29 -2l158 -170q49 88 59 197t10 309t-34 313q-78 236 -337 236t-337 -236q-35 -117 -35 -364t14.5 -302t20.5 -75q78 -236 338 -236zM632 -20q-354 0 -458 313q-30 81 -35.5 197t-5.5 244t21 306.5t160 275.5
t310 97q345 0 449 -313q24 -88 29.5 -137.5t8.5 -113t3 -189.5t-14.5 -259t-91.5 -241l143 -150q14 -14 -2 -28l-49 -48q-16 -14 -31 0l-135 146q-123 -100 -302 -100z" />
    <glyph glyph-name="R" unicode="R" horiz-adv-x="1259" 
d="M678 733q150 0 229.5 70.5t79.5 202.5t-80 204t-229 72h-356q-12 0 -13 -12v-525q0 -12 13 -12h356zM1018 0q-16 0 -25 18l-293 605h-378q-12 0 -13 -13v-590q0 -20 -20 -20h-76q-20 0 -20 20v1352q0 20 20 21h467q199 0 311.5 -102.5t112.5 -264.5t-75 -258t-210 -129
l303 -616q14 -23 -10 -23h-94z" />
    <glyph glyph-name="S" unicode="S" horiz-adv-x="1220" 
d="M620 -20q-289 0 -487 161q-16 14 -2 29l49 61q14 16 29 2q189 -143 421 -143q146 0 242.5 78t96.5 207q0 228 -334 270l-64 8q-401 53 -401 369q0 182 119 286.5t340 104.5t377 -117q18 -10 4 -28l-41 -64q-12 -14 -29 -4q-170 103 -329 103t-241.5 -75.5t-82.5 -189.5
t74.5 -182t252.5 -90l64 -8q213 -29 310 -124t97 -263t-93 -250t-185.5 -111.5t-186.5 -29.5z" />
    <glyph glyph-name="T" unicode="T" horiz-adv-x="1075" 
d="M500 0q-20 0 -21 20v1250q0 12 -12 12h-401q-20 0 -21 21v69q0 20 21 21h944q20 0 20 -21v-69q0 -20 -20 -21h-402q-12 0 -12 -12v-1250q0 -20 -21 -20h-75z" />
    <glyph glyph-name="U" unicode="U" horiz-adv-x="1300" 
d="M295 479q0 -199 94 -294t261 -95t261.5 95.5t94.5 293.5v893q0 20 20 21h76q20 0 20 -21v-891q0 -247 -125 -374t-344 -127t-347 122.5t-128 378.5v891q0 20 21 21h75q20 0 21 -21v-893z" />
    <glyph glyph-name="V" unicode="V" horiz-adv-x="1146" 
d="M539 0q-16 0 -23 20l-461 1344q-12 29 15 29h71q23 0 31 -21l403 -1177h5l393 1177q8 20 28 21h74q27 0 17 -29l-459 -1344q-6 -20 -25 -20h-69z" />
    <glyph glyph-name="W" unicode="W" horiz-adv-x="1673" 
d="M1188 0q-16 0 -23 20l-325 1141h-4l-328 -1141q-6 -20 -23 -20h-65q-18 0 -25 20l-329 1350q-6 23 16 23h74q25 0 26 -21l275 -1147h4l321 1147q6 20 25 21h61q18 0 25 -21l326 -1147h4l268 1147q4 20 27 21h73q23 0 17 -23l-330 -1350q-4 -20 -23 -20h-67z" />
    <glyph glyph-name="X" unicode="X" horiz-adv-x="1116" 
d="M944 0q-18 0 -26 18l-359 596h-2l-360 -596q-10 -18 -27 -18h-92q-23 0 -10 23l424 708l-381 639q-14 23 10 23h92q16 0 27 -19l317 -526h2l318 526q12 18 26 19h92q20 0 11 -23l-383 -639l426 -708q10 -23 -13 -23h-92z" />
    <glyph glyph-name="Y" unicode="Y" horiz-adv-x="1054" 
d="M489 0q-20 0 -20 20v551l-418 799q-4 8 1 15.5t16 7.5h79q20 0 31 -21l350 -665h7l344 665q10 20 30 21h78q12 0 16.5 -7.5t0.5 -15.5l-418 -799v-551q0 -20 -21 -20h-76z" />
    <glyph glyph-name="Z" unicode="Z" horiz-adv-x="1105" 
d="M129 0q-20 0 -20 20v68q0 14 10 31l739 1161v2h-702q-20 0 -21 21v69q0 20 21 21h819q20 0 20 -21v-67q0 -16 -10 -31l-739 -1161v-2h729q20 0 20 -21v-70q0 -20 -20 -20h-846z" />
    <glyph glyph-name="bracketleft" unicode="[" horiz-adv-x="579" 
d="M225 -172q-20 0 -20 20v1647q0 20 20 21h244q20 0 20 -21v-55q0 -20 -20 -21h-145q-12 0 -13 -12v-1470q0 -12 13 -13h145q20 0 20 -20v-56q0 -20 -20 -20h-244z" />
    <glyph glyph-name="backslash" unicode="\" horiz-adv-x="833" 
d="M618 -20q-20 0 -26 20l-453 1393q-6 20 15 20h61q20 0 27 -20l452 -1393q6 -20 -14 -20h-62z" />
    <glyph glyph-name="bracketright" unicode="]" horiz-adv-x="579" 
d="M111 -172q-20 0 -21 20v56q0 20 21 20h145q12 0 12 13v1470q0 12 -12 12h-145q-20 0 -21 21v55q0 20 21 21h243q20 0 21 -21v-1647q0 -20 -21 -20h-243z" />
    <glyph glyph-name="asciicircum" unicode="^" 
d="M872 578q-18 0 -26 20l-299 651h-4l-301 -651q-8 -20 -27 -20h-63q-23 0 -15 20l355 774q10 20 28 21h49q18 0 29 -21l352 -774q10 -20 -12 -20h-66z" />
    <glyph glyph-name="underscore" unicode="_" horiz-adv-x="940" 
d="M0 -252v84h940v-84h-940z" />
    <glyph glyph-name="grave" unicode="`" horiz-adv-x="862" 
d="M508 1143q-17 0 -37 20l-180 250q-6 8 -3 14.5t13 6.5h78q20 0 33 -21l157 -250q12 -20 -10 -20h-51z" />
    <glyph glyph-name="a" unicode="a" horiz-adv-x="1050" 
d="M244 270q0 -188 246 -188q122 0 199 59.5t77 159.5v150q0 12 -12 12h-234q-147 0 -211.5 -47t-64.5 -146zM135 268q0 289 371 289h248q12 0 12 12v101q0 124 -54.5 174.5t-204.5 50.5t-241 -74q-18 -14 -30 2l-35 51q-10 16 6 29q111 94 308 94q198 0 278.5 -73
t80.5 -250v-654q0 -20 -20 -20h-66q-20 0 -20 20v103h-2q-29 -61 -105.5 -102t-210.5 -41t-224.5 72.5t-90.5 215.5z" />
    <glyph glyph-name="b" unicode="b" horiz-adv-x="1087" 
d="M836 254q16 168 16 402.5t-277 234.5q-238 0 -257 -162t-19 -279.5t27 -191.5q58 -172 252 -172q242 0 258 168zM598 997q313 0 340 -213t27 -335t-35 -236q-78 -233 -332 -233q-216 0 -297 159h-2v-119q0 -20 -20 -20h-70q-20 0 -21 20v1352q0 20 21 21h70q20 0 20 -21
v-534h2q79 159 297 159z" />
    <glyph glyph-name="c" unicode="c" horiz-adv-x="962" 
d="M509 997q126 0 206 -47t133 -137q10 -16 -6 -27l-58 -36q-16 -10 -26 8q-43 68 -98.5 100.5t-146.5 32.5q-193 0 -251 -184q-26 -76 -26 -218.5t28 -226.5t93 -130t156 -46t146.5 33t98.5 100q10 18 26 8l58 -37q16 -10 6 -26q-108 -184 -330 -184q-135 0 -230 66.5
t-130 178.5t-35 266.5t35 263.5t130 175.5t221 66.5z" />
    <glyph glyph-name="d" unicode="d" horiz-adv-x="1087" 
d="M510 891q-274 0 -274 -278.5t26 -354.5q59 -172 248 -172q243 0 260.5 161t17.5 278.5t-28 198.5q-56 167 -250 167zM489 997q219 0 297 -159h2v534q0 20 21 21h70q20 0 20 -21v-1352q0 -20 -20 -20h-70q-20 0 -21 20v119h-2q-80 -159 -297 -159q-318 0 -342 213t-24 343
t35 228q74 233 331 233z" />
    <glyph glyph-name="e" unicode="e" horiz-adv-x="1028" 
d="M782 557q12 0 13 12q0 87 -19 142q-58 184 -261 184t-261 -184q-18 -52 -18 -142q0 -12 12 -12h534zM140.5 265.5q-17.5 130.5 -17.5 260.5t35 235t129 170.5t227 65.5t249.5 -80t130 -205.5t13.5 -228.5q0 -20 -22 -20h-637q-12 0 -12 -14q0 -103 20 -173
q68 -190 276 -190q172 0 273 125q12 16 29 4l47 -43q14 -12 2 -29q-120 -163 -367 -163q-133 0 -245.5 77.5t-130 208z" />
    <glyph glyph-name="f" unicode="f" horiz-adv-x="630" 
d="M242 0q-20 0 -21 20v846q0 12 -12 13h-105q-20 0 -20 20v57q0 20 20 21h105q12 0 12 12v105q0 172 61 235.5t212 63.5h57q20 0 20 -21v-65q0 -20 -20 -21h-43q-111 0 -143.5 -32.5t-32.5 -145.5v-119q0 -12 12 -12h207q20 0 20 -21v-57q0 -20 -20 -20h-207q-12 0 -12 -13
v-846q0 -20 -21 -20h-69z" />
    <glyph glyph-name="g" unicode="g" horiz-adv-x="1069" 
d="M502 100q235 0 251.5 159t16.5 275.5t-28 196.5q-56 160 -239 160q-232 0 -251 -161t-19 -270t29 -188q56 -172 240 -172zM479 -4q-358 0 -358 331.5t35 439.5t117.5 169t205.5 61q211 0 289 -159h2v118q0 20 21 21h69q20 0 21 -21v-938q0 -205 -104 -306t-288 -101
q-106 0 -194 41t-129 100q-10 16 4 29l51 45q16 12 29 -4q92 -104 242 -105q278 0 278 297v142h-2q-78 -160 -289 -160z" />
    <glyph glyph-name="h" unicode="h" horiz-adv-x="1107" 
d="M842 0q-20 0 -21 20v578q0 293 -256 293q-113 0 -189.5 -71.5t-76.5 -201.5v-598q0 -20 -20 -20h-70q-20 0 -21 20v1352q0 20 21 21h70q20 0 20 -21v-532h2q37 72 110.5 114.5t178.5 42.5q164 0 253 -96t89 -276v-605q0 -20 -21 -20h-69z" />
    <glyph glyph-name="i" unicode="i" horiz-adv-x="487" 
d="M209 0q-20 0 -21 20v936q0 20 21 21h70q20 0 20 -21v-936q0 -20 -20 -20h-70zM199 1237q-20 0 -21 20v115q0 20 21 21h90q20 0 20 -21v-115q0 -20 -20 -20h-90z" />
    <glyph glyph-name="j" unicode="j" horiz-adv-x="487" 
d="M25 -369q-20 0 -21 21v65q0 20 21 21h18q82 0 113.5 29.5t31.5 119.5v1069q0 20 21 21h70q20 0 20 -21v-1067q0 -143 -58.5 -200.5t-193.5 -57.5h-22zM199 1237q-20 0 -21 20v115q0 20 21 21h90q20 0 20 -21v-115q0 -20 -20 -20h-90z" />
    <glyph glyph-name="k" unicode="k" horiz-adv-x="1024" 
d="M850 0q-18 0 -31 20l-311 506l-209 -245v-261q0 -20 -20 -20h-70q-20 0 -21 20v1352q0 20 21 21h70q20 0 20 -21v-938l442 522q21 21 35 21h84q10 0 13.5 -7t-3.5 -14l-288 -342l364 -594q10 -20 -12 -20h-84z" />
    <glyph glyph-name="l" unicode="l" horiz-adv-x="536" 
d="M389 -6q-111 0 -157 53t-46 176v1149q0 20 21 21h69q20 0 21 -21v-1145q0 -72 24.5 -99.5t79.5 -27.5h35q20 0 21 -20v-66q0 -20 -21 -20h-47z" />
    <glyph glyph-name="m" unicode="m" horiz-adv-x="1740" 
d="M1217 997q166 0 257 -96t91 -276v-605q0 -20 -21 -20h-69q-20 0 -21 20v578q0 293 -258 293q-113 0 -188.5 -71.5t-75.5 -201.5v-598q0 -20 -21 -20h-69q-20 0 -21 20v578q0 293 -256 293q-113 0 -189.5 -71.5t-76.5 -201.5v-598q0 -20 -20 -20h-70q-20 0 -21 20v936
q0 20 21 21h70q20 0 20 -21v-116h2q37 72 110.5 114.5t178.5 42.5q227 0 303 -182h2q91 182 322 182z" />
    <glyph glyph-name="n" unicode="n" horiz-adv-x="1107" 
d="M842 0q-20 0 -21 20v578q0 293 -256 293q-113 0 -189.5 -71.5t-76.5 -201.5v-598q0 -20 -20 -20h-70q-20 0 -21 20v936q0 20 21 21h70q20 0 20 -21v-116h2q37 72 110.5 114.5t178.5 42.5q164 0 253 -96t89 -276v-605q0 -20 -21 -20h-69z" />
    <glyph glyph-name="o" unicode="o" horiz-adv-x="1042" 
d="M521 86q95 0 177 56.5t95.5 162t13.5 218.5t-28 193q-28 81 -95.5 128t-162.5 47t-177.5 -57.5t-95 -162t-12.5 -215.5t28 -194q28 -82 95 -129t162 -47zM520 -20q-135 0 -266 91.5t-131 417.5q0 159 37 268t131 174.5t229 65.5t267.5 -91t132.5 -417q0 -153 -37 -266
t-132.5 -178t-230.5 -65z" />
    <glyph glyph-name="p" unicode="p" horiz-adv-x="1087" 
d="M836 254q16 168 16 402.5t-277 234.5q-238 0 -257 -162t-19 -279.5t27 -191.5q58 -172 252 -172q242 0 258 168zM598 -20q-216 0 -297 159h-2v-487q0 -20 -20 -21h-70q-20 0 -21 21v1304q0 20 21 21h70q20 0 20 -21v-118h2q80 159 297 159q313 0 340 -213t27 -335
t-35 -236q-78 -233 -332 -233z" />
    <glyph glyph-name="q" unicode="q" horiz-adv-x="1087" 
d="M509 891q-273 0 -273 -278.5t26 -354.5q59 -172 247 -172q244 0 261.5 161t17.5 278.5t-28 198.5q-56 167 -251 167zM489 997q219 0 297 -159h2v118q0 20 21 21h70q20 0 20 -21v-1304q0 -20 -20 -21h-70q-20 0 -21 21v487h-2q-80 -159 -297 -159q-256 0 -331 233
q-35 115 -35 279t35 272q76 233 331 233z" />
    <glyph glyph-name="r" unicode="r" horiz-adv-x="811" 
d="M209 0q-20 0 -21 20v936q0 20 21 21h70q20 0 20 -21v-125h2q29 72 93 119t146 47q144 0 220 -67q16 -10 4 -27l-41 -57q-10 -14 -31 -4q-75 49 -148 49q-130 0 -187.5 -92t-57.5 -238v-541q0 -20 -20 -20h-70z" />
    <glyph glyph-name="s" unicode="s" horiz-adv-x="985" 
d="M695.5 133q62.5 51 62.5 133t-46 121t-177 55l-99 11q-284 29 -284 260q0 135 91 209.5t263 74.5t315 -94q16 -12 4 -29l-37 -49q-10 -16 -28 -6q-123 76 -254 76q-244 0 -244 -174q0 -72 50 -112t175 -52l99 -10q282 -28 282 -262q0 -141 -95 -223t-273 -82t-268.5 56
t-118.5 81q-14 14 0 28l45 52q12 12 28 0q139 -115 318 -115q129 0 191.5 51z" />
    <glyph glyph-name="t" unicode="t" horiz-adv-x="636" 
d="M469 -6q-139 0 -196.5 59.5t-57.5 204.5v608q0 12 -12 13h-103q-20 0 -20 20v57q0 20 20 21h103q12 0 12 12v281q0 20 21 20h69q20 0 21 -20v-281q0 -12 12 -12h184q20 0 21 -21v-57q0 -20 -21 -20h-184q-12 0 -12 -13v-602q0 -98 35.5 -131t121.5 -33h39q20 0 21 -20
v-66q0 -20 -21 -20h-53z" />
    <glyph glyph-name="u" unicode="u" horiz-adv-x="1095" 
d="M817 0q-20 0 -20 20v115h-2q-37 -72 -111 -113.5t-174 -41.5q-164 0 -251 96t-87 274v606q0 20 21 21h69q20 0 21 -21v-577q0 -293 252 -293q115 0 188.5 75.5t73.5 196.5v598q0 20 20 21h70q20 0 20 -21v-936q0 -20 -20 -20h-70z" />
    <glyph glyph-name="v" unicode="v" horiz-adv-x="958" 
d="M446 0q-18 0 -24 20l-354 936q-6 20 16 21h76q18 0 26 -21l295 -782h2l289 782q8 20 27 21h75q23 0 17 -21l-354 -936q-6 -20 -25 -20h-66z" />
    <glyph glyph-name="w" unicode="w" horiz-adv-x="1507" 
d="M1034 0q-18 0 -24 20l-254 781h-2l-258 -781q-6 -20 -25 -20h-61q-18 0 -25 20l-305 936q-6 20 14 21h74q18 0 27 -21l249 -780h2l254 780q6 20 25 21h59q18 0 25 -21l258 -780h2l244 780q8 20 26 21h74q20 0 14 -21l-305 -936q-6 -20 -24 -20h-64z" />
    <glyph glyph-name="x" unicode="x" horiz-adv-x="948" 
d="M774 0q-18 0 -29 16l-270 398h-2l-272 -398q-10 -16 -29 -16h-82q-22 0 -12 20l334 492l-301 444q-10 21 12 21h84q18 0 29 -16l237 -353h2l240 353q10 16 28 16h82q22 0 13 -21l-303 -444l335 -492q10 -20 -12 -20h-84z" />
    <glyph glyph-name="y" unicode="y" horiz-adv-x="956" 
d="M168 -369q-20 0 -21 21v65q0 20 21 21h37q64 0 104 36t80 146l39 100l-360 936q-6 20 14 21h78q18 0 26 -21l297 -784h2l289 784q6 20 25 21h78q20 0 14 -21l-399 -1050q-85 -230 -159.5 -252.5t-121.5 -22.5h-43z" />
    <glyph glyph-name="z" unicode="z" horiz-adv-x="956" 
d="M139 0q-20 0 -20 20v62q0 14 10 27l580 759v2h-543q-20 0 -21 21v65q0 20 21 21h655q20 0 21 -21v-65q0 -14 -11 -27l-577 -755v-5h567q20 0 21 -20v-64q0 -20 -21 -20h-682z" />
    <glyph glyph-name="braceleft" unicode="{" horiz-adv-x="651" 
d="M471 -172q-98 0 -143 50t-45 165v408q0 96 -32 131.5t-85 40.5q-20 4 -21 20v66q0 16 21 20q53 4 85 40t32 132v399q0 115 45 165.5t143 50.5h70q20 0 20 -21v-55q0 -20 -20 -21h-54q-51 0 -75.5 -26.5t-24.5 -87.5v-392q0 -117 -24.5 -166t-79.5 -69v-4q82 -30 93 -103
t11 -133v-399q0 -61 24.5 -88t75.5 -27h54q20 0 20 -20v-56q0 -20 -20 -20h-70z" />
    <glyph glyph-name="bar" unicode="|" horiz-adv-x="503" 
d="M223 -172q-20 0 -20 20v1647q0 20 20 21h58q20 0 20 -21v-1647q0 -20 -20 -20h-58z" />
    <glyph glyph-name="braceright" unicode="}" horiz-adv-x="651" 
d="M111 -172q-20 0 -21 20v56q0 20 21 20h53q51 0 75.5 26.5t24.5 88.5v399q0 115 18.5 154t38 55.5t48.5 26.5v4q-55 20 -80 69.5t-25 165.5v392q0 61 -24.5 87.5t-75.5 26.5h-53q-20 0 -21 21v55q0 20 21 21h69q98 0 143.5 -50.5t45.5 -165.5v-399q0 -96 31.5 -132
t84.5 -40q20 -4 21 -20v-66q0 -16 -21 -20q-53 -4 -84.5 -40t-31.5 -132v-408q0 -115 -45 -165t-144 -50h-69z" />
    <glyph glyph-name="asciitilde" unicode="~" 
d="M726 442q-70 0 -118.5 26t-86.5 52t-75.5 47t-84.5 21q-89 0 -160 -117q-10 -16 -29 -4l-41 27q-14 10 -6 28q39 76 102.5 119t135.5 43t118.5 -25.5t84.5 -52.5q94 -67 151 -67t95 28.5t75 87.5q10 18 31 4l38 -24q16 -10 7 -29q-39 -76 -103 -120t-134 -44z" />
    <glyph glyph-name="exclamdown" unicode="&#xa1;" horiz-adv-x="544" 
d="M344 819q0 -20 -20 -20h-103q-20 0 -20 20v137q0 20 20 21h103q20 0 20 -21v-137zM295 614q20 0 20 -20l17 -989q0 -20 -21 -21h-80q-20 0 -20 21l16 989q0 20 21 20h47z" />
    <glyph glyph-name="cent" unicode="&#xa2;" 
d="M319 707q-28 -81 -28 -219t28 -220q49 -158 209 -180v799q-160 -23 -209 -180zM178 488q0 475 350 505v170q0 20 21 21h37q20 0 20 -21v-166q213 -12 307 -182q10 -16 -6 -29l-49 -41q-6 -6 -15 -4t-14 11q-41 68 -91 101.5t-132 37.5v-805q82 4 132 39t91 100
q4 8 13.5 10.5t15.5 -4.5l49 -41q14 -14 6 -30q-100 -169 -307 -180v-168q0 -20 -20 -21h-37q-20 0 -21 21v172q-350 29 -350 504z" />
    <glyph glyph-name="sterling" unicode="&#xa3;" 
d="M412 328q0 -142 -66 -219v-3h555q20 0 21 -20v-66q0 -20 -21 -20h-672q-20 0 -20 20v64q-1 12 17 30q39 39 56 78t17 123v281q0 12 -12 12h-103q-20 0 -20 21v55q0 20 20 21h103q12 0 12 12v346q0 170 85 260t216 90t207 -67.5t102 -178.5q2 -18 -16 -24l-66 -19
q-20 -6 -24 15q-38 168 -200 168q-81 0 -136 -55.5t-55 -174.5v-360q0 -12 12 -12h278q20 0 21 -21v-55q0 -20 -21 -21h-278q-12 0 -12 -12v-268z" />
    <glyph glyph-name="currency" unicode="&#xa4;" 
d="M546.5 369q61.5 0 114 22.5t90 62.5t59 93t21.5 114.5t-21.5 114.5t-59 93t-90 62.5t-114 22.5t-114.5 -22.5t-91 -62.5t-59.5 -93t-21.5 -114.5t21.5 -114.5t59.5 -93t91 -62.5t114.5 -22.5zM546 272q-135 0 -239 78l-131 -131q-14 -14 -29 0l-41 45q-14 14 0 29
l130 129q-76 100 -76 238t78 241l-132 131q-14 14 0 29l41 45q14 14 29 0l133 -133q99 78 234 78t239 -78l133 133q16 16 29 0l41 -45q16 -16 0 -29l-131 -131q78 -103 78 -239t-76 -238l131 -131q12 -16 0 -29l-41 -47q-16 -12 -28 0l-134 133q-103 -78 -238 -78z" />
    <glyph glyph-name="yen" unicode="&#xa5;" 
d="M510 0q-20 0 -21 20v297q0 12 -12 13h-270q-20 0 -21 20v51q0 20 21 21h270q12 0 12 12v123q0 12 -12 12h-270q-20 0 -21 21v51q0 20 21 21h246v2l-330 702q-4 10 0 18.5t16 8.5h72q23 0 31 -21l303 -670h4l301 670q8 20 31 21h69q12 0 16.5 -8.5t0.5 -18.5l-330 -702v-2
h246q20 0 20 -21v-51q0 -20 -20 -21h-271q-12 0 -12 -12v-123q0 -12 12 -12h271q20 0 20 -21v-51q0 -20 -20 -20h-271q-12 0 -12 -13v-297q0 -20 -20 -20h-70z" />
    <glyph glyph-name="brokenbar" unicode="&#xa6;" horiz-adv-x="503" 
d="M223 -172q-20 0 -20 20v689q0 20 20 20h58q20 0 20 -20v-689q0 -20 -20 -20h-58zM223 795q-20 0 -20 20v680q0 20 20 21h58q20 0 20 -21v-680q0 -20 -20 -20h-58z" />
    <glyph glyph-name="section" unicode="&#xa7;" horiz-adv-x="1085" 
d="M542 254q110 0 179.5 67.5t69.5 196.5t-69.5 195.5t-179.5 66.5t-178.5 -66.5t-68.5 -195.5t68.5 -196.5t178.5 -67.5zM412 854q-179 88 -179 248q0 143 87 227t230 84t223.5 -82.5t80.5 -193.5q0 -20 -14 -23l-66 -14q-20 -6 -20 14q-4 92 -55.5 145.5t-148.5 53.5
t-152.5 -49.5t-55.5 -143.5t58.5 -149.5t209.5 -87.5q287 -66 287 -365q0 -121 -54.5 -210t-162.5 -124v-2q80 -33 132 -94.5t52 -153.5q0 -159 -92.5 -241t-238.5 -82t-232 79t-90 220q0 20 16 22l66 15q18 6 22 -15q0 -166 87 -193.5t135 -27.5q98 0 159.5 51.5
t61.5 152.5t-64.5 154.5t-217.5 84.5t-220.5 124t-67.5 240q0 188 83 253t141 81v2z" />
    <glyph glyph-name="dieresis" unicode="&#xa8;" horiz-adv-x="862" 
d="M186 1237q-20 0 -20 20v115q0 20 20 21h82q20 0 21 -21v-115q0 -20 -21 -20h-82zM594 1237q-20 0 -21 20v115q0 20 21 21h82q20 0 20 -21v-115q0 -20 -20 -20h-82z" />
    <glyph glyph-name="copyright" unicode="&#xa9;" horiz-adv-x="1699" 
d="M864 1010q-225 0 -225 -214t18 -266q49 -147 207 -147q74 0 119 29.5t78 79.5q12 12 29 6l34 -33q18 -10 9 -27q-37 -61 -105 -102t-170 -41t-191.5 60.5t-104.5 161.5t-15.5 200t27.5 188q28 88 105 140.5t179 52.5t170 -41t105 -103q10 -16 -9 -26l-34 -33
q-16 -6 -29 6q-33 49 -78 79t-119 30zM850 66q135 0 249.5 48t198.5 132t132.5 199.5t48.5 250.5t-48.5 251t-132.5 200t-198.5 132t-249.5 48t-250 -48t-199 -132t-132 -200t-48 -251t48 -250.5t132 -199.5t199 -132t250 -48zM850 -20q-154 0 -285 54t-227 150.5
t-150.5 227.5t-54.5 284.5t54.5 284.5t150.5 227.5t227 150.5t285 54t285 -54t227 -150.5t150.5 -227.5t54.5 -284.5t-54.5 -284.5t-150.5 -227.5t-227 -150.5t-285 -54z" />
    <glyph glyph-name="ordfeminine" unicode="&#xaa;" horiz-adv-x="696" 
d="M328 872q70 0 117 32t47 79v80q0 12 -13 12h-133q-162 0 -162 -100q0 -49 37 -76t107 -27zM92 967q0 186 246 186h141q12 0 13 12v41q0 61 -32 88t-124 27t-154 -39q-16 -14 -28 2l-21 39q-11 18 13 36q65 48 198 48t186.5 -44t53.5 -155v-385q0 -20 -21 -20h-49
q-20 0 -20 20v41h-5q-48 -73 -190 -73q-90 0 -148.5 45t-58.5 131z" />
    <glyph glyph-name="guillemotleft" unicode="&#xab;" horiz-adv-x="1081" 
d="M512 907v-92q0 -23 -14 -37l-228 -229q-8 -8 0 -17l228 -229q14 -14 14 -37v-92q0 -10 -7 -12t-13 4l-351 360q-14 14 0 29l351 360q6 6 13 4.5t7 -12.5zM926 907v-92q0 -23 -15 -37l-227 -229q-8 -8 0 -17l227 -229q15 -15 15 -37v-92q0 -10 -7.5 -12t-13.5 4l-350 360
q-14 14 0 29l350 360q6 6 13.5 4.5t7.5 -12.5z" />
    <glyph glyph-name="logicalnot" unicode="&#xac;" 
d="M868 240q-20 0 -20 20v242q0 12 -12 12h-680q-20 0 -21 21v61q0 20 21 20h778q20 0 20 -20v-336q0 -20 -20 -20h-66z" />
    <glyph glyph-name="registered" unicode="&#xae;" horiz-adv-x="940" 
d="M500 1036q78 0 78 69t-78 69h-105q-6 0 -6 -5v-129q0 -4 6 -4h105zM641 1104q0 -97 -86 -121l86 -172q12 -20 -12 -20h-35q-8 0 -12 5t-9 9l-86 170h-92q-6 0 -6 -4v-162q0 -18 -18 -18h-31q-18 0 -18 18v405q0 18 18 19h162q66 0 102.5 -35t36.5 -94zM708 769
q95 95 95 239t-95 239.5t-237 95.5t-238 -93.5t-96 -241.5t95.5 -241t238.5 -93q142 0 237 95zM471 614q-84 0 -156.5 30t-126 83t-83 126t-29.5 157t29.5 155.5t83 124.5t126 83t156.5 30t155.5 -30t125 -83t83 -124.5t29.5 -155.5t-29.5 -157t-83 -126t-125 -83
t-155.5 -30z" />
    <glyph glyph-name="macron" unicode="&#xaf;" horiz-adv-x="862" 
d="M184 1266q-20 0 -20 20v53q0 20 20 21h492q20 0 20 -21v-53q0 -20 -20 -20h-492z" />
    <glyph glyph-name="degree" unicode="&#xb0;" horiz-adv-x="917" 
d="M457 899q92 0 150.5 61.5t58.5 152.5t-58.5 153.5t-150.5 62.5t-149.5 -61.5t-57.5 -153.5t57.5 -153.5t149.5 -61.5zM458 821q-124 0 -208 84t-84 209t84 209t208 84t208 -84t84 -209t-84 -209t-208 -84z" />
    <glyph glyph-name="plusminus" unicode="&#xb1;" 
d="M156 0q-20 0 -21 20v62q0 20 21 20h778q20 0 20 -20v-62q0 -20 -20 -20h-778zM512 221q-20 0 -20 21v327q0 12 -13 13h-323q-20 0 -21 20v62q0 20 21 20h323q12 0 13 12v328q0 20 20 20h66q20 0 20 -20v-328q0 -12 12 -12h324q20 0 20 -20v-62q0 -20 -20 -20h-324
q-12 0 -12 -13v-327q0 -20 -20 -21h-66z" />
    <glyph glyph-name="uni00B2" unicode="&#xb2;" horiz-adv-x="677" 
d="M109 881q-20 0 -21 20v47q0 12 12 29l320 371q69 77 69 144q0 66 -38.5 106t-102.5 40q-126 0 -155 -122q-4 -20 -25 -17l-47 10q-20 4 -19 25q12 74 77 133t174 59q108 0 169.5 -67t61.5 -163t-90 -204l-281 -319v-4h356q20 0 21 -21v-47q0 -20 -21 -20h-460z" />
    <glyph glyph-name="uni00B3" unicode="&#xb3;" horiz-adv-x="677" 
d="M575 1496q0 -106 -106 -177v-2q81 -32 103 -97t22 -108q0 -109 -69 -177.5t-179 -68.5t-175 48.5t-87 121.5q-6 18 12 25l51 14q16 6 25 -12q18 -43 59 -76t111 -33t114 44t44 112t-45 113t-121 45h-37q-20 0 -21 20v47q0 20 21 21h31q70 0 111.5 39t41.5 102t-39.5 102
t-107.5 39q-111 0 -152 -96q-6 -18 -22 -16l-47 12q-20 4 -17 23q16 66 74.5 115.5t167.5 49.5t173 -62t64 -168z" />
    <glyph glyph-name="acute" unicode="&#xb4;" horiz-adv-x="862" 
d="M303 1143q-23 0 -12 20l158 250q12 20 34 21h78q10 0 13.5 -6.5t-3.5 -14.5l-180 -250q-20 -20 -37 -20h-51z" />
    <glyph glyph-name="mu" unicode="&#xb5;" horiz-adv-x="1114" 
d="M299 358q0 -272 252 -272q113 0 187.5 71.5t74.5 200.5v598q0 20 21 21h71q20 0 21 -21v-936q0 -20 -21 -20h-71q-20 0 -21 20v117h-2q-33 -72 -104.5 -114.5t-169.5 -42.5q-168 0 -234 104h-4v-432q0 -20 -20 -21h-70q-20 0 -21 21v1304q0 20 21 21h70q20 0 20 -21v-598
z" />
    <glyph glyph-name="paragraph" unicode="&#xb6;" horiz-adv-x="1167" 
d="M901 -369q-20 0 -20 21v1626q0 12 -13 12h-196q-12 0 -13 -12v-1626q0 -20 -20 -21h-64q-20 0 -20 21v893q-186 12 -290.5 130t-104.5 299t119 300t331 119h355q20 0 20 -21v-1720q0 -20 -20 -21h-64z" />
    <glyph glyph-name="periodcentered" unicode="&#xb7;" horiz-adv-x="448" 
d="M174 455q-20 0 -20 20v137q0 20 20 21h100q20 0 21 -21v-137q0 -20 -21 -20h-100z" />
    <glyph glyph-name="cedilla" unicode="&#xb8;" horiz-adv-x="862" 
d="M346 -303q-20 0 -14 20l110 283q8 20 27 20h53q20 0 15 -20l-95 -283q-8 -20 -32 -20h-64z" />
    <glyph glyph-name="uni00B9" unicode="&#xb9;" horiz-adv-x="677" 
d="M348 881q-20 0 -20 20v694h-2l-142 -96q-20 -10 -20 10v66q0 20 14 29l139 96q18 12 33 12h51q20 0 21 -20v-791q0 -20 -21 -20h-53z" />
    <glyph glyph-name="ordmasculine" unicode="&#xba;" horiz-adv-x="708" 
d="M188 1020q0 -143 166 -143t166 145.5t-16 189.5q-33 106 -149.5 106.5t-149.5 -106.5q-17 -49 -17 -192zM392 1407q226 0 226 -309.5t-264 -309.5t-264 200t21 255q55 164 281 164z" />
    <glyph glyph-name="guillemotright" unicode="&#xbb;" horiz-adv-x="1081" 
d="M156 174v92q0 23 14 37l227 229q8 8 0 17l-227 229q-14 14 -14 37v92q0 10 7 12.5t13 -4.5l350 -360q14 -14 0 -29l-350 -360q-6 -6 -13 -4t-7 12zM569 174v92q0 23 15 37l227 229q8 8 0 17l-227 229q-15 15 -15 37v92q0 10 7.5 12.5t13.5 -4.5l350 -360q14 -14 0 -29
l-350 -360q-6 -6 -13.5 -4t-7.5 12z" />
    <glyph glyph-name="onequarter" unicode="&#xbc;" horiz-adv-x="1695" 
d="M379 -20q-23 0 -12 20l807 1393q12 20 28 20h55q23 0 13 -20l-807 -1393q-12 -20 -29 -20h-55zM1319 0q-20 0 -21 20v123q0 12 -12 13h-330q-20 0 -20 20v45q0 16 8 33l273 557q8 20 26 20h60q22 0 12 -20l-273 -565v-2h244q12 0 12 12v201q0 20 21 20h51q20 0 21 -20
v-201q0 -12 12 -12h74q20 0 20 -21v-47q0 -20 -20 -20h-74q-12 0 -12 -13v-123q0 -20 -21 -20h-51zM385 561q-20 0 -20 21v694h-3l-141 -96q-20 -10 -20 10v65q0 20 14 29l139 96q18 12 33 13h51q20 0 21 -21v-790q0 -20 -21 -21h-53z" />
    <glyph glyph-name="onehalf" unicode="&#xbd;" horiz-adv-x="1759" 
d="M379 -20q-23 0 -12 20l807 1393q12 20 28 20h55q23 0 13 -20l-807 -1393q-12 -20 -29 -20h-55zM1077 0q-20 0 -20 20v48q0 12 12 28l320 371q69 77 69 144q0 66 -39 106.5t-102 40.5q-124 0 -156 -123q-4 -20 -24 -17l-47 11q-20 4 -19 24q12 76 78 134.5t174 58.5
q107 0 168 -66t61 -164t-90 -204l-280 -320v-4h356q20 0 21 -20v-48q0 -20 -21 -20h-461zM385 561q-20 0 -20 21v694h-3l-141 -96q-20 -10 -20 10v65q0 20 14 29l139 96q18 12 33 13h51q20 0 21 -21v-790q0 -20 -21 -21h-53z" />
    <glyph glyph-name="threequarters" unicode="&#xbe;" horiz-adv-x="1837" 
d="M692 1176q0 -106 -106 -177v-2q81 -32 103 -96.5t22 -107.5q0 -109 -69.5 -177.5t-179.5 -68.5t-174.5 48t-86.5 122q-6 18 12 24l51 15q16 6 25 -13q18 -43 59 -75.5t111 -32.5t113.5 44t43.5 111.5t-45 112.5t-120 45h-37q-20 0 -21 21v47q0 20 21 20h30q70 0 112 39
t42 103t-39 102.5t-107 38.5q-113 0 -153 -96q-6 -18 -23 -17l-47 13q-20 4 -16 22q16 66 74.5 116t167.5 50t173 -62.5t64 -168.5zM520 -20q-23 0 -12 20l807 1393q12 20 28 20h56q23 0 12 -20l-807 -1393q-12 -20 -29 -20h-55zM1458 0q-20 0 -20 20v123q0 12 -13 13h-329
q-20 0 -21 20v45q0 16 8 33l273 557q8 20 26 20h60q22 0 12 -20l-272 -565v-2h243q12 0 13 12v201q0 20 20 20h51q20 0 21 -20v-201q0 -12 12 -12h74q20 0 20 -21v-47q0 -20 -20 -20h-74q-12 0 -12 -13v-123q0 -20 -21 -20h-51z" />
    <glyph glyph-name="questiondown" unicode="&#xbf;" horiz-adv-x="913" 
d="M535 819q0 -20 -21 -20h-102q-20 0 -21 20v137q0 20 21 21h102q20 0 21 -21v-137zM518 520q0 -63 -13 -107t-52 -94l-113 -149q-76 -91 -100.5 -147t-24.5 -121q0 -111 68.5 -171.5t172.5 -60.5t168 59.5t87 170.5q4 20 22 16l70 -12q20 -4 16 -25q-23 -139 -117 -227
t-248 -88t-253 94.5t-99 243.5q0 84 29 148.5t96 146.5l113 151q43 53 54.5 87.5t11.5 92.5v72q0 20 20 21h72q20 0 20 -21v-80z" />
    <glyph glyph-name="Agrave" unicode="&#xc0;" horiz-adv-x="1220" 
d="M584 1565q-22 0 -37 18l-197 215q-6 8 -4 14.5t12 6.5h82q23 0 37 -21l168 -213q16 -20 -8 -20h-53zM874 475l-260 729h-6l-262 -729h528zM649 1393q18 0 25 -21l483 -1352q6 -20 -14 -20h-80q-23 0 -27 20l-123 342h-606l-123 -342q-8 -20 -26 -20h-80q-20 0 -15 20
l488 1352q6 20 24 21h74z" />
    <glyph glyph-name="Aacute" unicode="&#xc1;" horiz-adv-x="1220" 
d="M590 1565q-26 0 -8 20l168 213q14 20 36 21h82q10 0 12.5 -6.5t-3.5 -14.5l-197 -215q-15 -18 -37 -18h-53zM874 475l-260 729h-6l-262 -729h528zM649 1393q18 0 25 -21l483 -1352q6 -20 -14 -20h-80q-23 0 -27 20l-123 342h-606l-123 -342q-8 -20 -26 -20h-80
q-20 0 -15 20l488 1352q6 20 24 21h74z" />
    <glyph glyph-name="Acircumflex" unicode="&#xc2;" horiz-adv-x="1220" 
d="M791 1544q-20 0 -35 21l-146 174h-4l-143 -174q-18 -20 -35 -21h-51q-10 0 -12.5 6t4.5 15l184 252q12 18 33 18h47q18 0 31 -18l186 -252q6 -8 4 -14.5t-12 -6.5h-51zM874 475l-260 729h-6l-262 -729h528zM649 1393q18 0 25 -21l483 -1352q6 -20 -14 -20h-80
q-23 0 -27 20l-123 342h-606l-123 -342q-8 -20 -26 -20h-80q-20 0 -15 20l488 1352q6 20 24 21h74z" />
    <glyph glyph-name="Atilde" unicode="&#xc3;" horiz-adv-x="1220" 
d="M844 1663q-61 -61 -119 -61t-107 30t-72.5 39.5t-63.5 9.5t-107 -67q-18 -14 -19 6v61q0 14 21 37q51 56 113 56t109 -28t70 -39t66 -11t107 67q6 6 11 4t5 -10v-61q0 -19 -14 -33zM874 475l-260 729h-6l-262 -729h528zM649 1393q18 0 25 -21l483 -1352q6 -20 -14 -20
h-80q-23 0 -27 20l-123 342h-606l-123 -342q-8 -20 -26 -20h-80q-20 0 -15 20l488 1352q6 20 24 21h74z" />
    <glyph glyph-name="Adieresis" unicode="&#xc4;" horiz-adv-x="1220" 
d="M365 1610q-20 0 -21 20v115q0 20 21 20h79q20 0 21 -20v-115q0 -20 -21 -20h-79zM774 1610q-20 0 -20 20v115q0 20 20 20h80q20 0 20 -20v-115q0 -20 -20 -20h-80zM874 475l-260 729h-6l-262 -729h528zM649 1393q18 0 25 -21l483 -1352q6 -20 -14 -20h-80q-23 0 -27 20
l-123 342h-606l-123 -342q-8 -20 -26 -20h-80q-20 0 -15 20l488 1352q6 20 24 21h74z" />
    <glyph glyph-name="Aring" unicode="&#xc5;" horiz-adv-x="1220" 
d="M717 1691.5q0 49.5 -30 82t-79 32.5t-78.5 -32.5t-29.5 -82t29.5 -82t78.5 -32.5t79 32.5t30 82zM788 1691.5q0 -77.5 -51 -129t-129 -51.5t-129 51.5t-51 129t51 129t129 51.5t129 -51.5t51 -129zM874 475l-260 729h-6l-262 -729h528zM649 1393q18 0 25 -21l483 -1352
q6 -20 -14 -20h-80q-23 0 -27 20l-123 342h-606l-123 -342q-8 -20 -26 -20h-80q-20 0 -15 20l488 1352q6 20 24 21h74z" />
    <glyph glyph-name="AE" unicode="&#xc6;" horiz-adv-x="1927" 
d="M969 475q12 0 12 12v793h-4l-498 -805h490zM1001 0q-20 0 -20 20v330q0 12 -12 12h-559l-213 -342q-10 -20 -29 -20h-90q-10 0 -13.5 6t1.5 14l833 1354q12 18 31 19h868q20 0 21 -21v-69q0 -20 -21 -21h-688q-12 0 -12 -12v-496q0 -12 12 -12h592q20 0 20 -21v-69
q0 -20 -20 -21h-592q-12 0 -12 -12v-516q0 -12 12 -12h688q20 0 21 -21v-70q0 -20 -21 -20h-797z" />
    <glyph glyph-name="Ccedilla" unicode="&#xc7;" horiz-adv-x="1138" 
d="M473 -303q-20 0 -14 20l102 265q-296 21 -391 309q-22 73 -26.5 128.5t-7.5 120t-3 251t37 311.5q104 311 440 311q143 0 252 -64.5t168 -193.5q8 -18 -6 -27l-68 -32q-16 -10 -26 8q-104 199 -320 199q-129 0 -230 -75.5t-114.5 -219.5t-13.5 -312t13.5 -311.5
t114.5 -219t225 -75.5q221 0 325 199q10 18 26 8l68 -33q14 -8 6 -26q-105 -231 -373 -256l-88 -265q-8 -20 -32 -20h-64z" />
    <glyph glyph-name="Egrave" unicode="&#xc8;" horiz-adv-x="1138" 
d="M193 1372q0 20 20 21h797q20 0 20 -21v-69q0 -20 -20 -21h-688q-12 0 -13 -12v-496q0 -12 13 -12h591q20 0 21 -21v-69q0 -20 -21 -21h-591q-12 0 -13 -12v-516q0 -12 13 -12h688q20 0 20 -21v-70q0 -20 -20 -20h-797q-20 0 -20 20v1352zM618 1565q-21 0 -36 18l-197 215
q-6 8 -4 14.5t12 6.5h82q23 0 37 -21l168 -213q16 -20 -8 -20h-54z" />
    <glyph glyph-name="Eacute" unicode="&#xc9;" horiz-adv-x="1138" 
d="M193 1372q0 20 20 21h797q20 0 20 -21v-69q0 -20 -20 -21h-688q-12 0 -13 -12v-496q0 -12 13 -12h591q20 0 21 -21v-69q0 -20 -21 -21h-591q-12 0 -13 -12v-516q0 -12 13 -12h688q20 0 20 -21v-70q0 -20 -20 -20h-797q-20 0 -20 20v1352zM526 1565q-24 0 -8 20l168 213
q14 20 37 21h82q10 0 12 -6.5t-4 -14.5l-197 -215q-15 -18 -36 -18h-54z" />
    <glyph glyph-name="Ecircumflex" unicode="&#xca;" horiz-adv-x="1138" 
d="M793 1544q-20 0 -35 21l-146 174h-4l-143 -174q-18 -20 -35 -21h-51q-22 0 -8 21l184 252q12 18 33 18h47q18 0 31 -18l186 -252q6 -8 4 -14.5t-12 -6.5h-51zM193 1372q0 20 20 21h797q20 0 20 -21v-69q0 -20 -20 -21h-688q-12 0 -13 -12v-496q0 -12 13 -12h591
q20 0 21 -21v-69q0 -20 -21 -21h-591q-12 0 -13 -12v-516q0 -12 13 -12h688q20 0 20 -21v-70q0 -20 -20 -20h-797q-20 0 -20 20v1352z" />
    <glyph glyph-name="Edieresis" unicode="&#xcb;" horiz-adv-x="1138" 
d="M193 1372q0 20 20 21h797q20 0 20 -21v-69q0 -20 -20 -21h-688q-12 0 -13 -12v-496q0 -12 13 -12h591q20 0 21 -21v-69q0 -20 -21 -21h-591q-12 0 -13 -12v-516q0 -12 13 -12h688q20 0 20 -21v-70q0 -20 -20 -20h-797q-20 0 -20 20v1352zM356 1610q-20 0 -20 20v115
q0 20 20 20h80q20 0 21 -20v-115q0 -20 -21 -20h-80zM766 1610q-20 0 -21 20v115q0 20 21 20h80q20 0 20 -20v-115q0 -20 -20 -20h-80z" />
    <glyph glyph-name="Igrave" unicode="&#xcc;" horiz-adv-x="501" 
d="M233 1565q-21 0 -36 18l-197 215q-6 8 -4 14.5t12 6.5h82q23 0 37 -21l168 -213q16 -20 -8 -20h-54zM193 1372q0 20 20 21h76q20 0 20 -21v-1352q0 -20 -20 -20h-76q-20 0 -20 20v1352z" />
    <glyph glyph-name="Iacute" unicode="&#xcd;" horiz-adv-x="501" 
d="M229 1565q-24 0 -8 20l168 213q14 20 37 21h82q10 0 12 -6.5t-4 -14.5l-197 -215q-15 -18 -36 -18h-54zM193 1372q0 20 20 21h76q20 0 20 -21v-1352q0 -20 -20 -20h-76q-20 0 -20 20v1352z" />
    <glyph glyph-name="Icircumflex" unicode="&#xce;" horiz-adv-x="501" 
d="M434 1544q-20 0 -35 21l-145 174h-4l-144 -174q-18 -20 -34 -21h-52q-22 0 -8 21l185 252q12 18 32 18h47q18 0 31 -18l187 -252q6 -8 4 -14.5t-13 -6.5h-51zM193 1372q0 20 20 21h76q20 0 20 -21v-1352q0 -20 -20 -20h-76q-20 0 -20 20v1352z" />
    <glyph glyph-name="Idieresis" unicode="&#xcf;" horiz-adv-x="501" 
d="M8 1610q-20 0 -20 20v115q0 20 20 20h80q20 0 21 -20v-115q0 -20 -21 -20h-80zM418 1610q-20 0 -21 20v115q0 20 21 20h80q20 0 20 -20v-115q0 -20 -20 -20h-80zM193 1372q0 20 20 21h76q20 0 20 -21v-1352q0 -20 -20 -20h-76q-20 0 -20 20v1352z" />
    <glyph glyph-name="Eth" unicode="&#xd0;" horiz-adv-x="1269" 
d="M633 111q278 0 348 211q26 82 29.5 184t3.5 232t-15.5 276t-123 207t-242.5 61h-311q-12 0 -13 -12v-500q0 -12 13 -12h266q20 0 20 -21v-61q0 -20 -20 -21h-266q-12 0 -13 -12v-520q0 -12 13 -12h311zM213 0q-20 0 -20 20v623q0 12 -13 12h-82q-20 0 -20 21v61
q0 20 20 21h82q12 0 13 12v602q0 20 20 21h436q387 0 435.5 -224.5t48.5 -396.5q0 -255 -9.5 -342t-29.5 -147q-92 -283 -445 -283h-436z" />
    <glyph glyph-name="Ntilde" unicode="&#xd1;" horiz-adv-x="1333" 
d="M193 1372q0 20 20 21h76q25 0 35 -21l694 -1145h6v1145q0 20 20 21h76q20 0 21 -21v-1352q0 -20 -21 -20h-80q-23 0 -34 20l-689 1147h-8v-1147q0 -20 -20 -20h-76q-20 0 -20 20v1352zM901 1663q-61 -61 -119 -61t-107 30t-72 39.5t-62 9.5t-109 -67q-18 -14 -18 6v61
q0 14 20 37q50 56 113 56q62 0 109 -28t70.5 -39t65.5 -11t107 67q6 6 11 4t5 -10v-61q0 -19 -14 -33z" />
    <glyph glyph-name="Ograve" unicode="&#xd2;" horiz-adv-x="1247" 
d="M961 1067q-78 236 -337 236t-337 -236q-35 -117 -35 -364t14.5 -302t20.5 -75q78 -236 337 -236t337 236q34 113 34 370.5t-34 370.5zM154 1040.5q21 178.5 160 275.5t310 97q345 0 449 -313q24 -88 29.5 -137.5t8.5 -113t3 -189.5t-9 -209.5t-32 -157.5
q-103 -313 -449 -313t-450 313q-30 81 -35.5 197t-5.5 244t21 306.5zM631 1565q-22 0 -37 18l-197 215q-6 8 -4 14.5t13 6.5h81q23 0 37 -21l168 -213q16 -20 -8 -20h-53z" />
    <glyph glyph-name="Oacute" unicode="&#xd3;" horiz-adv-x="1247" 
d="M961 1067q-78 236 -337 236t-337 -236q-35 -117 -35 -364t14.5 -302t20.5 -75q78 -236 337 -236t337 236q34 113 34 370.5t-34 370.5zM154 1040.5q21 178.5 160 275.5t310 97q345 0 449 -313q24 -88 29.5 -137.5t8.5 -113t3 -189.5t-9 -209.5t-32 -157.5
q-103 -313 -449 -313t-450 313q-30 81 -35.5 197t-5.5 244t21 306.5zM561 1565q-24 0 -8 20l168 213q14 20 37 21h82q10 0 12 -6.5t-4 -14.5l-197 -215q-15 -18 -37 -18h-53z" />
    <glyph glyph-name="Ocircumflex" unicode="&#xd4;" horiz-adv-x="1247" 
d="M805 1544q-20 0 -35 21l-145 174h-4l-144 -174q-18 -20 -35 -21h-51q-22 0 -8 21l184 252q12 18 33 18h47q18 0 31 -18l186 -252q6 -8 4 -14.5t-12 -6.5h-51zM961 1067q-78 236 -337 236t-337 -236q-35 -117 -35 -364t14.5 -302t20.5 -75q78 -236 337 -236t337 236
q34 113 34 370.5t-34 370.5zM154 1040.5q21 178.5 160 275.5t310 97q345 0 449 -313q24 -88 29.5 -137.5t8.5 -113t3 -189.5t-9 -209.5t-32 -157.5q-103 -313 -449 -313t-450 313q-30 81 -35.5 197t-5.5 244t21 306.5z" />
    <glyph glyph-name="Otilde" unicode="&#xd5;" horiz-adv-x="1247" 
d="M961 1067q-78 236 -337 236t-337 -236q-35 -117 -35 -364t14.5 -302t20.5 -75q78 -236 337 -236t337 236q34 113 34 370.5t-34 370.5zM154 1040.5q21 178.5 160 275.5t310 97q345 0 449 -313q24 -88 29.5 -137.5t8.5 -113t3 -189.5t-9 -209.5t-32 -157.5
q-103 -313 -449 -313t-450 313q-30 81 -35.5 197t-5.5 244t21 306.5zM860 1663q-61 -61 -119 -61t-107 30t-72 39.5t-62 9.5t-109 -67q-18 -14 -18 6v61q1 14 21 37q50 56 112 56t109 -28t70.5 -39t65.5 -11t107 67q6 6 11 4t5 -10v-61q0 -19 -14 -33z" />
    <glyph glyph-name="Odieresis" unicode="&#xd6;" horiz-adv-x="1247" 
d="M961 1067q-78 236 -337 236t-337 -236q-35 -117 -35 -364t14.5 -302t20.5 -75q78 -236 337 -236t337 236q34 113 34 370.5t-34 370.5zM154 1040.5q21 178.5 160 275.5t310 97q345 0 449 -313q24 -88 29.5 -137.5t8.5 -113t3 -189.5t-9 -209.5t-32 -157.5
q-103 -313 -449 -313t-450 313q-30 81 -35.5 197t-5.5 244t21 306.5zM379 1610q-20 0 -21 20v115q0 20 21 20h80q20 0 20 -20v-115q0 -20 -20 -20h-80zM788 1610q-20 0 -20 20v115q0 20 20 20h80q20 0 21 -20v-115q0 -20 -21 -20h-80z" />
    <glyph glyph-name="multiply" unicode="&#xd7;" 
d="M844 223q-14 -14 -29 0l-260 260q-8 8 -16 0l-263 -260q-14 -14 -28 0l-41 45q-14 14 0 29l260 260q8 8 0 16l-260 261q-14 14 0 28l41 45q14 14 28 0l263 -260q8 -8 16 0l260 260q14 14 29 0l41 -45q14 -14 0 -28l-260 -261q-8 -8 0 -16l260 -260q14 -14 0 -29z" />
    <glyph glyph-name="Oslash" unicode="&#xd8;" horiz-adv-x="1247" 
d="M970 1034q-25 76 -44 109l-551 -965q90 -88 250 -88q258 0 336 236q34 113 34 372.5t-25 335.5zM262.5 440.5q10.5 -113.5 59.5 -192.5l550 964q-94 90 -247 91q-260 0 -338 -236q-35 -117 -35 -315t10.5 -311.5zM217 -61h-49q-23 0 -12 20l100 176q-90 120 -106.5 257
t-16.5 303.5t21 345t160 275.5t318 97t300 -98l67 119q10 20 31 20h49q23 0 13 -20l-103 -179q53 -66 73 -125t28 -91.5t13 -79t8 -110t3 -189.5t-9 -209.5t-32 -157.5q-104 -313 -457 -313q-179 0 -301 98l-67 -119q-10 -20 -31 -20z" />
    <glyph glyph-name="Ugrave" unicode="&#xd9;" horiz-adv-x="1300" 
d="M295 479q0 -199 94 -294t261 -95t261.5 95.5t94.5 293.5v893q0 20 20 21h76q20 0 20 -21v-891q0 -247 -125 -374t-344 -127t-347 122.5t-128 378.5v891q0 20 21 21h75q20 0 21 -21v-893zM655 1565q-20 0 -37 18l-196 215q-6 8 -4 14.5t12 6.5h82q23 0 37 -21l168 -213
q16 -20 -8 -20h-54z" />
    <glyph glyph-name="Uacute" unicode="&#xda;" horiz-adv-x="1300" 
d="M295 479q0 -199 94 -294t261 -95t261.5 95.5t94.5 293.5v893q0 20 20 21h76q20 0 20 -21v-891q0 -247 -125 -374t-344 -127t-347 122.5t-128 378.5v891q0 20 21 21h75q20 0 21 -21v-893zM586 1565q-26 0 -8 20l167 213q14 20 37 21h82q10 0 12.5 -6.5t-4.5 -14.5
l-196 -215q-15 -18 -37 -18h-53z" />
    <glyph glyph-name="Ucircumflex" unicode="&#xdb;" horiz-adv-x="1300" 
d="M831 1544q-20 0 -34 21l-146 174h-4l-143 -174q-18 -20 -35 -21h-51q-10 0 -12.5 6t4.5 15l184 252q12 18 33 18h47q18 0 31 -18l186 -252q6 -8 4 -14.5t-12 -6.5h-52zM295 479q0 -199 94 -294t261 -95t261.5 95.5t94.5 293.5v893q0 20 20 21h76q20 0 20 -21v-891
q0 -247 -125 -374t-344 -127t-347 122.5t-128 378.5v891q0 20 21 21h75q20 0 21 -21v-893z" />
    <glyph glyph-name="Udieresis" unicode="&#xdc;" horiz-adv-x="1300" 
d="M295 479q0 -199 94 -294t261 -95t261.5 95.5t94.5 293.5v893q0 20 20 21h76q20 0 20 -21v-891q0 -247 -125 -374t-344 -127t-347 122.5t-128 378.5v891q0 20 21 21h75q20 0 21 -21v-893zM406 1610q-20 0 -21 20v115q0 20 21 20h79q20 0 21 -20v-115q0 -20 -21 -20h-79z
M815 1610q-20 0 -20 20v115q0 20 20 20h80q20 0 20 -20v-115q0 -20 -20 -20h-80z" />
    <glyph glyph-name="Yacute" unicode="&#xdd;" horiz-adv-x="1054" 
d="M481 1565q-24 0 -8 20l168 213q14 20 37 21h82q10 0 12 -6.5t-4 -14.5l-197 -215q-15 -18 -36 -18h-54zM489 0q-20 0 -20 20v551l-418 799q-4 8 1 15.5t16 7.5h79q20 0 31 -21l350 -665h7l344 665q10 20 30 21h78q12 0 16.5 -7.5t0.5 -15.5l-418 -799v-551q0 -20 -21 -20
h-76z" />
    <glyph glyph-name="Thorn" unicode="&#xde;" horiz-adv-x="1198" 
d="M674 426q154 0 234.5 74.5t80.5 210t-81 209t-234 73.5h-352q-12 0 -13 -12v-543q0 -12 13 -12h352zM213 0q-20 0 -20 20v1352q0 20 20 21h76q20 0 20 -21v-256q0 -12 13 -12h356q201 0 314.5 -104.5t113.5 -289t-113.5 -290t-314.5 -105.5h-356q-12 0 -13 -12v-283
q0 -20 -20 -20h-76z" />
    <glyph glyph-name="germandbls" unicode="&#xdf;" horiz-adv-x="1103" 
d="M834 1110q0 199 -268 199q-140 0 -203.5 -67.5t-63.5 -225.5v-996q0 -20 -20 -20h-70q-20 0 -21 20v996q0 299 141.5 348t248.5 49q184 0 275 -80t91 -221q0 -177 -145 -238v-4q127 -47 146.5 -154.5t19.5 -271.5t-23 -262q-35 -106 -120 -149t-214 -43h-30q-20 0 -21 20
v66q0 20 21 20h28q94 0 164 38t77 127t7 227t-22 204q-39 121 -230 125h-24q-20 0 -21 21v65q0 20 21 21h30q117 0 171.5 45t54.5 141z" />
    <glyph glyph-name="agrave" unicode="&#xe0;" horiz-adv-x="1050" 
d="M578 1143q-17 0 -37 20l-181 250q-6 8 -3 14.5t14 6.5h78q20 0 32 -21l158 -250q12 -20 -10 -20h-51zM244 270q0 -188 246 -188q122 0 199 59.5t77 159.5v150q0 12 -12 12h-234q-147 0 -211.5 -47t-64.5 -146zM135 268q0 289 371 289h248q12 0 12 12v101
q0 124 -54.5 174.5t-204.5 50.5t-241 -74q-18 -14 -30 2l-35 51q-10 16 6 29q111 94 308 94q198 0 278.5 -73t80.5 -250v-654q0 -20 -20 -20h-66q-20 0 -20 20v103h-2q-29 -61 -105.5 -102t-210.5 -41t-224.5 72.5t-90.5 215.5z" />
    <glyph glyph-name="aacute" unicode="&#xe1;" horiz-adv-x="1050" 
d="M483 1143q-23 0 -12 20l158 250q12 20 35 21h77q10 0 13.5 -6.5t-2.5 -14.5l-181 -250q-20 -20 -36 -20h-52zM244 270q0 -188 246 -188q122 0 199 59.5t77 159.5v150q0 12 -12 12h-234q-147 0 -211.5 -47t-64.5 -146zM135 268q0 289 371 289h248q12 0 12 12v101
q0 124 -54.5 174.5t-204.5 50.5t-241 -74q-18 -14 -30 2l-35 51q-10 16 6 29q111 94 308 94q198 0 278.5 -73t80.5 -250v-654q0 -20 -20 -20h-66q-20 0 -20 20v103h-2q-29 -61 -105.5 -102t-210.5 -41t-224.5 72.5t-90.5 215.5z" />
    <glyph glyph-name="acircumflex" unicode="&#xe2;" horiz-adv-x="1050" 
d="M707 1143q-20 0 -35 20l-146 174h-4l-143 -174q-18 -20 -35 -20h-51q-23 0 -8 20l184 252q12 18 33 19h47q18 0 31 -19l186 -252q15 -20 -8 -20h-51zM244 270q0 -188 246 -188q122 0 199 59.5t77 159.5v150q0 12 -12 12h-234q-147 0 -211.5 -47t-64.5 -146zM135 268
q0 289 371 289h248q12 0 12 12v101q0 124 -54.5 174.5t-204.5 50.5t-241 -74q-18 -14 -30 2l-35 51q-10 16 6 29q111 94 308 94q198 0 278.5 -73t80.5 -250v-654q0 -20 -20 -20h-66q-20 0 -20 20v103h-2q-29 -61 -105.5 -102t-210.5 -41t-224.5 72.5t-90.5 215.5z" />
    <glyph glyph-name="atilde" unicode="&#xe3;" horiz-adv-x="1050" 
d="M760 1282q-61 -61 -119 -61q-58 -1 -107 29t-72.5 40t-64.5 10t-106 -67q-18 -14 -19 6v61q0 14 21 37q51 56 113 56q62 -1 109 -29t70 -38.5t66 -10.5t107 67q6 6 11 4t5 -10v-61q0 -19 -14 -33zM244 270q0 -188 246 -188q122 0 199 59.5t77 159.5v150q0 12 -12 12h-234
q-147 0 -211.5 -47t-64.5 -146zM135 268q0 289 371 289h248q12 0 12 12v101q0 124 -54.5 174.5t-204.5 50.5t-241 -74q-18 -14 -30 2l-35 51q-10 16 6 29q111 94 308 94q198 0 278.5 -73t80.5 -250v-654q0 -20 -20 -20h-66q-20 0 -20 20v103h-2q-29 -61 -105.5 -102
t-210.5 -41t-224.5 72.5t-90.5 215.5z" />
    <glyph glyph-name="adieresis" unicode="&#xe4;" horiz-adv-x="1050" 
d="M279 1237q-20 0 -21 20v115q0 20 21 21h81q20 0 21 -21v-115q0 -20 -21 -20h-81zM686 1237q-20 0 -20 20v115q0 20 20 21h82q20 0 20 -21v-115q0 -20 -20 -20h-82zM244 270q0 -188 246 -188q122 0 199 59.5t77 159.5v150q0 12 -12 12h-234q-147 0 -211.5 -47t-64.5 -146z
M135 268q0 289 371 289h248q12 0 12 12v101q0 124 -54.5 174.5t-204.5 50.5t-241 -74q-18 -14 -30 2l-35 51q-10 16 6 29q111 94 308 94q198 0 278.5 -73t80.5 -250v-654q0 -20 -20 -20h-66q-20 0 -20 20v103h-2q-29 -61 -105.5 -102t-210.5 -41t-224.5 72.5t-90.5 215.5z
" />
    <glyph glyph-name="aring" unicode="&#xe5;" horiz-adv-x="1050" 
d="M637 1288q0 49 -29.5 82t-79 33t-79 -33t-29.5 -82t29.5 -81.5t79 -32.5t79 32.5t29.5 81.5zM709 1288q0 -78 -51.5 -129t-129 -51t-129 51t-51.5 129t51.5 129t129 51t129 -51t51.5 -129zM244 270q0 -188 246 -188q122 0 199 59.5t77 159.5v150q0 12 -12 12h-234
q-147 0 -211.5 -47t-64.5 -146zM135 268q0 289 371 289h248q12 0 12 12v101q0 124 -54.5 174.5t-204.5 50.5t-241 -74q-18 -14 -30 2l-35 51q-10 16 6 29q111 94 308 94q198 0 278.5 -73t80.5 -250v-654q0 -20 -20 -20h-66q-20 0 -20 20v103h-2q-29 -61 -105.5 -102
t-210.5 -41t-224.5 72.5t-90.5 215.5z" />
    <glyph glyph-name="ae" unicode="&#xe6;" horiz-adv-x="1667" 
d="M244 270q0 -188 246 -188q122 0 199 59.5t77 159.5v150q0 12 -12 12h-234q-147 0 -211.5 -47t-64.5 -146zM1421 557q12 0 13 12q0 87 -19 142q-58 184 -261 184t-261 -184q-19 -55 -19 -142q0 -12 13 -12h534zM135 268q0 289 371 289h248q12 0 12 12v101
q0 124 -54.5 174.5t-204.5 50.5t-241 -74q-18 -14 -30 2l-35 51q-10 16 6 29q111 94 311 94q133 0 213 -36.5t109 -126.5h4q96 164 309 163q133 0 249.5 -80t130 -205.5t13.5 -228.5q0 -20 -22 -20h-637q-12 0 -13 -14q0 -100 21 -173q68 -190 276 -190q172 0 273 125
q12 16 29 4l47 -43q14 -12 2 -29q-53 -72 -143.5 -117.5t-213.5 -45.5q-245 0 -342 190h-2q-81 -190 -358 -190q-147 0 -237.5 72.5t-90.5 215.5z" />
    <glyph glyph-name="ccedilla" unicode="&#xe7;" horiz-adv-x="962" 
d="M469 -16q-346 30 -346 346t35 425t130 175.5t221 66.5t206 -47t133 -137q10 -16 -6 -27l-58 -36q-16 -10 -26 8q-43 68 -98.5 100.5t-146.5 32.5q-193 0 -251 -184q-26 -76 -26 -218.5t28 -226.5t93 -130t156 -46t146.5 33t98.5 100q10 18 26 8l58 -37q16 -10 6 -26
q-100 -163 -283 -182l-88 -265q-8 -20 -33 -20h-63q-20 0 -14 20z" />
    <glyph glyph-name="egrave" unicode="&#xe8;" horiz-adv-x="1028" 
d="M522 1143q-15 0 -37 20l-180 250q-6 8 -3 14.5t13 6.5h78q20 0 33 -21l158 -250q12 -20 -11 -20h-51zM782 557q12 0 13 12q0 87 -19 142q-58 184 -261 184t-261 -184q-18 -52 -18 -142q0 -12 12 -12h534zM140.5 265.5q-17.5 130.5 -17.5 260.5t35 235t129 170.5t227 65.5
t249.5 -80t130 -205.5t13.5 -228.5q0 -20 -22 -20h-637q-12 0 -12 -14q0 -103 20 -173q68 -190 276 -190q172 0 273 125q12 16 29 4l47 -43q14 -12 2 -29q-120 -163 -367 -163q-133 0 -245.5 77.5t-130 208z" />
    <glyph glyph-name="eacute" unicode="&#xe9;" horiz-adv-x="1028" 
d="M782 557q12 0 13 12q0 87 -19 142q-58 184 -261 184t-261 -184q-18 -52 -18 -142q0 -12 12 -12h534zM140.5 265.5q-17.5 130.5 -17.5 260.5t35 235t129 170.5t227 65.5t249.5 -80t130 -205.5t13.5 -228.5q0 -20 -22 -20h-637q-12 0 -12 -14q0 -103 20 -173
q68 -190 276 -190q172 0 273 125q12 16 29 4l47 -43q14 -12 2 -29q-120 -163 -367 -163q-133 0 -245.5 77.5t-130 208zM461 1143q-23 0 -12 20l157 250q12 20 35 21h78q10 0 13 -6.5t-3 -14.5l-180 -250q-20 -20 -37 -20h-51z" />
    <glyph glyph-name="ecircumflex" unicode="&#xea;" horiz-adv-x="1028" 
d="M782 557q12 0 13 12q0 87 -19 142q-58 184 -261 184t-261 -184q-18 -52 -18 -142q0 -12 12 -12h534zM140.5 265.5q-17.5 130.5 -17.5 260.5t35 235t129 170.5t227 65.5t249.5 -80t130 -205.5t13.5 -228.5q0 -20 -22 -20h-637q-12 0 -12 -14q0 -103 20 -173
q68 -190 276 -190q172 0 273 125q12 16 29 4l47 -43q14 -12 2 -29q-120 -163 -367 -163q-133 0 -245.5 77.5t-130 208zM694 1143q-20 0 -35 20l-145 174h-4l-143 -174q-18 -20 -35 -20h-51q-10 0 -12.5 6t3.5 14l185 252q12 18 32 19h48q18 0 30 -19l187 -252q15 -20 -9 -20
h-51z" />
    <glyph glyph-name="edieresis" unicode="&#xeb;" horiz-adv-x="1028" 
d="M782 557q12 0 13 12q0 87 -19 142q-58 184 -261 184t-261 -184q-18 -52 -18 -142q0 -12 12 -12h534zM140.5 265.5q-17.5 130.5 -17.5 260.5t35 235t129 170.5t227 65.5t249.5 -80t130 -205.5t13.5 -228.5q0 -20 -22 -20h-637q-12 0 -12 -14q0 -103 20 -173
q68 -190 276 -190q172 0 273 125q12 16 29 4l47 -43q14 -12 2 -29q-120 -163 -367 -163q-133 0 -245.5 77.5t-130 208zM268 1237q-20 0 -20 20v115q0 20 20 21h82q20 0 21 -21v-115q0 -20 -21 -20h-82zM676 1237q-20 0 -21 20v115q0 20 21 21h82q20 0 20 -21v-115
q0 -20 -20 -20h-82z" />
    <glyph glyph-name="igrave" unicode="&#xec;" horiz-adv-x="487" 
d="M221 1143q-15 0 -37 20l-180 250q-6 8 -3 14.5t13 6.5h78q20 0 33 -21l158 -250q12 -20 -11 -20h-51zM209 0q-20 0 -21 20v936q0 20 21 21h70q20 0 20 -21v-936q0 -20 -20 -20h-70z" />
    <glyph glyph-name="iacute" unicode="&#xed;" horiz-adv-x="487" 
d="M209 0q-20 0 -21 20v936q0 20 21 21h70q20 0 20 -21v-936q0 -20 -20 -20h-70zM219 1143q-23 0 -12 20l158 250q12 20 34 21h78q10 0 13.5 -6.5t-3.5 -14.5l-180 -250q-20 -20 -37 -20h-51z" />
    <glyph glyph-name="icircumflex" unicode="&#xee;" horiz-adv-x="487" 
d="M209 0q-20 0 -21 20v936q0 20 21 21h70q20 0 20 -21v-936q0 -20 -20 -20h-70zM426 1143q-20 0 -35 20l-145 174h-4l-144 -174q-18 -20 -35 -20h-51q-23 0 -8 20l184 252q12 18 33 19h47q18 0 31 -19l186 -252q15 -20 -8 -20h-51z" />
    <glyph glyph-name="idieresis" unicode="&#xef;" horiz-adv-x="487" 
d="M209 0q-20 0 -21 20v936q0 20 21 21h70q20 0 20 -21v-936q0 -20 -20 -20h-70zM0 1237q-20 0 -20 20v115q0 20 20 21h82q20 0 20 -21v-115q0 -20 -20 -20h-82zM408 1237q-20 0 -21 20v115q0 20 21 21h81q20 0 21 -21v-115q0 -20 -21 -20h-81z" />
    <glyph glyph-name="eth" unicode="&#xf0;" horiz-adv-x="1042" 
d="M521 86q286 0 286 262t-28 343t-94.5 130t-162.5 49t-178.5 -57.5t-95 -160.5t-12.5 -206.5t28 -185.5t95 -128t162 -46zM481 973q108 0 195 -55h2l-184 229l-197 -60q-25 -6 -29 15l-14 51q-2 18 16 25l160 47l-117 147q-6 8 -3 14.5t14 6.5h86q17 0 34 -21l93 -115
l192 58q23 6 27 -12l14 -50q4 -20 -14 -26l-156 -47l80 -97q136 -173 188 -299.5t52 -285.5t-31 -265q-41 -123 -136.5 -188t-231.5 -65t-267 91.5t-131 405.5q0 155 33 246q39 119 128 184.5t197 65.5z" />
    <glyph glyph-name="ntilde" unicode="&#xf1;" horiz-adv-x="1107" 
d="M676 1221q-51 0 -80 13.5t-72 39.5t-82 26t-66.5 -19t-56.5 -48q-18 -14 -18 6v61q1 14 21 37q50 56 113 56q63 -1 109 -29t69.5 -38.5t55.5 -10.5q54 0 117 67q6 6 11.5 4t5.5 -10v-61q0 -19 -15 -33q-61 -61 -112 -61zM842 0q-20 0 -21 20v578q0 293 -256 293
q-113 0 -189.5 -71.5t-76.5 -201.5v-598q0 -20 -20 -20h-70q-20 0 -21 20v936q0 20 21 21h70q20 0 20 -21v-116h2q37 72 110.5 114.5t178.5 42.5q164 0 253 -96t89 -276v-605q0 -20 -21 -20h-69z" />
    <glyph glyph-name="ograve" unicode="&#xf2;" horiz-adv-x="1042" 
d="M522 1143q-15 0 -37 20l-180 250q-6 8 -3 14.5t13 6.5h78q20 0 33 -21l158 -250q12 -20 -11 -20h-51zM521 86q95 0 177 56.5t95.5 162t13.5 218.5t-28 193q-28 81 -95.5 128t-162.5 47t-177.5 -57.5t-95 -162t-12.5 -215.5t28 -194q28 -82 95 -129t162 -47zM520 -20
q-135 0 -266 91.5t-131 417.5q0 159 37 268t131 174.5t229 65.5t267.5 -91t132.5 -417q0 -153 -37 -266t-132.5 -178t-230.5 -65z" />
    <glyph glyph-name="oacute" unicode="&#xf3;" horiz-adv-x="1042" 
d="M521 86q95 0 177 56.5t95.5 162t13.5 218.5t-28 193q-28 81 -95.5 128t-162.5 47t-177.5 -57.5t-95 -162t-12.5 -215.5t28 -194q28 -82 95 -129t162 -47zM520 -20q-135 0 -266 91.5t-131 417.5q0 159 37 268t131 174.5t229 65.5t267.5 -91t132.5 -417q0 -153 -37 -266
t-132.5 -178t-230.5 -65zM467 1143q-23 0 -12 20l157 250q12 20 35 21h78q10 0 13 -6.5t-3 -14.5l-180 -250q-20 -20 -37 -20h-51z" />
    <glyph glyph-name="ocircumflex" unicode="&#xf4;" horiz-adv-x="1042" 
d="M521 86q95 0 177 56.5t95.5 162t13.5 218.5t-28 193q-28 81 -95.5 128t-162.5 47t-177.5 -57.5t-95 -162t-12.5 -215.5t28 -194q28 -82 95 -129t162 -47zM520 -20q-135 0 -266 91.5t-131 417.5q0 159 37 268t131 174.5t229 65.5t267.5 -91t132.5 -417q0 -153 -37 -266
t-132.5 -178t-230.5 -65zM700 1143q-20 0 -34 20l-146 174h-4l-143 -174q-18 -20 -35 -20h-51q-10 0 -12.5 6t4.5 14l184 252q12 18 33 19h47q18 0 30 -19l187 -252q15 -20 -8 -20h-52z" />
    <glyph glyph-name="otilde" unicode="&#xf5;" horiz-adv-x="1042" 
d="M756 1282q-61 -61 -119 -61q-58 -1 -107 29t-72.5 40t-64.5 10t-106 -67q-18 -14 -19 6v61q0 14 21 37q51 56 114 56q63 -1 108 -29q46 -28 69.5 -38.5t66.5 -10.5t107 67q6 6 11 4t5 -10v-61q0 -19 -14 -33zM521 86q95 0 177 56.5t95.5 162t13.5 218.5t-28 193
q-28 81 -95.5 128t-162.5 47t-177.5 -57.5t-95 -162t-12.5 -215.5t28 -194q28 -82 95 -129t162 -47zM520 -20q-135 0 -266 91.5t-131 417.5q0 159 37 268t131 174.5t229 65.5t267.5 -91t132.5 -417q0 -153 -37 -266t-132.5 -178t-230.5 -65z" />
    <glyph glyph-name="odieresis" unicode="&#xf6;" horiz-adv-x="1042" 
d="M521 86q95 0 177 56.5t95.5 162t13.5 218.5t-28 193q-28 81 -95.5 128t-162.5 47t-177.5 -57.5t-95 -162t-12.5 -215.5t28 -194q28 -82 95 -129t162 -47zM520 -20q-135 0 -266 91.5t-131 417.5q0 159 37 268t131 174.5t229 65.5t267.5 -91t132.5 -417q0 -153 -37 -266
t-132.5 -178t-230.5 -65zM274 1237q-20 0 -20 20v115q0 20 20 21h82q20 0 21 -21v-115q0 -20 -21 -20h-82zM682 1237q-20 0 -20 20v115q0 20 20 21h82q20 0 20 -21v-115q0 -20 -20 -20h-82z" />
    <glyph glyph-name="divide" unicode="&#xf7;" 
d="M457 264q0 37 25.5 62.5t62.5 25.5t62.5 -25.5t25.5 -62.5t-25.5 -62.5t-62.5 -25.5t-62.5 25.5t-25.5 62.5zM156 514q-20 0 -21 21v61q0 20 21 20h778q20 0 20 -20v-61q0 -20 -20 -21h-778zM457 866q0 37 25.5 62.5t62.5 25.5t62.5 -25.5t25.5 -62.5t-25.5 -62.5
t-62.5 -25.5t-62.5 25.5t-25.5 62.5z" />
    <glyph glyph-name="oslash" unicode="&#xf8;" horiz-adv-x="1042" 
d="M512 86q254 0 274.5 162t20.5 275q0 161 -55 249l-416 -620q72 -66 176 -66zM530 891q-256 0 -275 -162t-19 -273q0 -160 55 -251l416 620q-73 66 -177 66zM920 489q0 -153 -37 -266t-132.5 -178t-236.5 -65t-240 79l-67 -100q-14 -20 -35 -20h-35q-20 0 -10 20l96 147
q-100 127 -100 383q0 159 37 268t131 174.5t234 65.5t243 -79l68 100q14 20 34 20h35q22 0 10 -20l-98 -150q103 -117 103 -379z" />
    <glyph glyph-name="ugrave" unicode="&#xf9;" horiz-adv-x="1095" 
d="M555 1143q-17 0 -37 20l-180 250q-6 8 -3 14.5t13 6.5h78q20 0 33 -21l157 -250q12 -20 -10 -20h-51zM817 0q-20 0 -20 20v115h-2q-37 -72 -111 -113.5t-174 -41.5q-164 0 -251 96t-87 274v606q0 20 21 21h69q20 0 21 -21v-577q0 -293 252 -293q115 0 188.5 75.5
t73.5 196.5v598q0 20 20 21h70q20 0 20 -21v-936q0 -20 -20 -20h-70z" />
    <glyph glyph-name="uacute" unicode="&#xfa;" horiz-adv-x="1095" 
d="M817 0q-20 0 -20 20v115h-2q-37 -72 -111 -113.5t-174 -41.5q-164 0 -251 96t-87 274v606q0 20 21 21h69q20 0 21 -21v-577q0 -293 252 -293q115 0 188.5 75.5t73.5 196.5v598q0 20 20 21h70q20 0 20 -21v-936q0 -20 -20 -20h-70zM489 1143q-23 0 -12 20l158 250
q12 20 35 21h78q10 0 13 -6.5t-3 -14.5l-180 -250q-20 -20 -37 -20h-52z" />
    <glyph glyph-name="ucircumflex" unicode="&#xfb;" horiz-adv-x="1095" 
d="M817 0q-20 0 -20 20v115h-2q-37 -72 -111 -113.5t-174 -41.5q-164 0 -251 96t-87 274v606q0 20 21 21h69q20 0 21 -21v-577q0 -293 252 -293q115 0 188.5 75.5t73.5 196.5v598q0 20 20 21h70q20 0 20 -21v-936q0 -20 -20 -20h-70zM727 1143q-20 0 -35 20l-145 174h-4
l-144 -174q-18 -20 -34 -20h-52q-23 0 -8 20l184 252q12 18 33 19h47q18 0 31 -19l186 -252q15 -20 -8 -20h-51z" />
    <glyph glyph-name="udieresis" unicode="&#xfc;" horiz-adv-x="1095" 
d="M817 0q-20 0 -20 20v115h-2q-37 -72 -111 -113.5t-174 -41.5q-164 0 -251 96t-87 274v606q0 20 21 21h69q20 0 21 -21v-577q0 -293 252 -293q115 0 188.5 75.5t73.5 196.5v598q0 20 20 21h70q20 0 20 -21v-936q0 -20 -20 -20h-70zM301 1237q-20 0 -20 20v115q0 20 20 21
h82q20 0 20 -21v-115q0 -20 -20 -20h-82zM709 1237q-20 0 -21 20v115q0 20 21 21h82q20 0 20 -21v-115q0 -20 -20 -20h-82z" />
    <glyph glyph-name="yacute" unicode="&#xfd;" horiz-adv-x="956" 
d="M430 1143q-23 0 -12 20l157 250q12 20 35 21h78q10 0 13.5 -6.5t-3.5 -14.5l-180 -250q-20 -20 -37 -20h-51zM168 -369q-20 0 -21 21v65q0 20 21 21h37q64 0 104 36t80 146l39 100l-360 936q-6 20 14 21h78q18 0 26 -21l297 -784h2l289 784q6 20 25 21h78q20 0 14 -21
l-399 -1050q-85 -230 -159.5 -252.5t-121.5 -22.5h-43z" />
    <glyph glyph-name="thorn" unicode="&#xfe;" horiz-adv-x="1087" 
d="M836 254q16 168 16 402.5t-277 234.5q-238 0 -257 -162t-19 -279.5t27 -191.5q58 -172 252 -172q242 0 258 168zM598 -20q-216 0 -297 159h-2v-487q0 -20 -20 -21h-70q-20 0 -21 21v1720q0 20 21 21h70q20 0 20 -21v-534h2q80 159 297 159q313 0 340 -213t27 -335
t-35 -236q-78 -233 -332 -233z" />
    <glyph glyph-name="ydieresis" unicode="&#xff;" horiz-adv-x="956" 
d="M236 1237q-20 0 -21 20v115q0 20 21 21h81q20 0 21 -21v-115q0 -20 -21 -20h-81zM643 1237q-20 0 -20 20v115q0 20 20 21h82q20 0 20 -21v-115q0 -20 -20 -20h-82zM168 -369q-20 0 -21 21v65q0 20 21 21h37q64 0 104 36t80 146l39 100l-360 936q-6 20 14 21h78
q18 0 26 -21l297 -784h2l289 784q6 20 25 21h78q20 0 14 -21l-399 -1050q-85 -230 -159.5 -252.5t-121.5 -22.5h-43z" />
    <glyph glyph-name="dotlessi" unicode="&#x131;" horiz-adv-x="487" 
d="M209 0q-20 0 -21 20v936q0 20 21 21h70q20 0 20 -21v-936q0 -20 -20 -20h-70z" />
    <glyph glyph-name="Lslash" unicode="&#x141;" horiz-adv-x="1085" 
d="M213 0q-20 0 -20 20v576l-117 -59q-20 -10 -21 12v74q0 18 21 28l117 60v661q0 20 20 21h76q20 0 20 -21v-602l324 166q20 10 20 -12v-74q0 -18 -20 -29l-324 -166v-532q0 -12 13 -12h688q20 0 20 -21v-70q0 -20 -20 -20h-797z" />
    <glyph glyph-name="lslash" unicode="&#x142;" horiz-adv-x="536" 
d="M297 227q0 -72 24.5 -99.5t79.5 -27.5h35q20 0 21 -20v-66q0 -20 -21 -20h-47q-111 0 -157 53t-46 176v436l-80 -41q-20 -10 -20 13v67q0 18 20 29l80 41v604q0 20 21 21h69q20 0 21 -21v-553l139 74q20 10 21 -12v-68q0 -18 -21 -29l-139 -73v-484z" />
    <glyph glyph-name="OE" unicode="&#x152;" horiz-adv-x="1943" 
d="M626 90q259 0 337 236q34 113 34 359t-14 304t-20 78q-78 236 -337 236t-337 -236q-35 -117 -35 -364t14.5 -302t20.5 -75q78 -236 337 -236zM156 1040.5q21 178.5 160 275.5t311 97q267 0 368 -201h2v160q0 20 21 21h797q20 0 20 -21v-69q0 -20 -20 -21h-689
q-12 0 -12 -12v-496q0 -12 12 -12h592q20 0 21 -21v-69q0 -20 -21 -21h-592q-12 0 -12 -12v-516q0 -12 12 -12h689q20 0 20 -21v-70q0 -20 -20 -20h-797q-20 0 -21 20v160h-2q-102 -200 -368 -200q-347 0 -451 313q-30 81 -35.5 197t-5.5 244t21 306.5z" />
    <glyph glyph-name="oe" unicode="&#x153;" horiz-adv-x="1712" 
d="M521 86q95 0 177 56.5t95.5 162t13.5 218.5t-28 193q-28 81 -95.5 128t-162.5 47t-177.5 -57.5t-95 -162t-12.5 -215.5t28 -194q28 -82 95 -129t162 -47zM1464 557q12 0 13 12q0 199 -91.5 262.5t-240.5 63.5t-207 -184q-20 -58 -20 -142q0 -12 12 -12h534zM1589 483
q0 -20 -22 -20h-637q-12 0 -12 -14q4 -108 22 -173q64 -190 274 -190q178 0 275 125q16 16 31 4l43 -43q14 -12 2 -29q-53 -72 -143.5 -117.5t-278 -45.5t-279.5 204h-4q-90 -204 -340 -204q-135 0 -266 90.5t-131 416.5q0 161 36 269t131 174.5t222 66.5q256 0 348 -204h2
q94 204 336 204q133 0 246 -78t129 -205.5t16 -230.5z" />
    <glyph glyph-name="Scaron" unicode="&#x160;" horiz-adv-x="1220" 
d="M586 1544q-20 0 -33 19l-184 249q-6 8 -4 14.5t12 6.5h51q16 0 35 -21l143 -174h4l146 174q18 21 35 21h51q22 0 8 -21l-186 -249q-12 -18 -31 -19h-47zM620 -20q-289 0 -487 161q-16 14 -2 29l49 61q14 16 29 2q189 -143 421 -143q146 0 242.5 78t96.5 207
q0 228 -334 270l-64 8q-401 53 -401 369q0 182 119 286.5t340 104.5t377 -117q18 -10 4 -28l-41 -64q-12 -14 -29 -4q-170 103 -329 103t-241.5 -75.5t-82.5 -189.5t74.5 -182t252.5 -90l64 -8q213 -29 310 -124t97 -263t-93 -250t-185.5 -111.5t-186.5 -29.5z" />
    <glyph glyph-name="scaron" unicode="&#x161;" horiz-adv-x="985" 
d="M695.5 133q62.5 51 62.5 133t-46 121t-177 55l-99 11q-284 29 -284 260q0 135 91 209.5t263 74.5t315 -94q16 -12 4 -29l-37 -49q-10 -16 -28 -6q-123 76 -254 76q-244 0 -244 -174q0 -72 50 -112t175 -52l99 -10q282 -28 282 -262q0 -141 -95 -223t-273 -82t-268.5 56
t-118.5 81q-14 14 0 28l45 52q12 12 28 0q139 -115 318 -115q129 0 191.5 51zM471 1143q-20 0 -33 18l-184 250q-6 8 -4 14.5t12 6.5h51q16 0 35 -21l144 -174h4l145 174q18 21 35 21h51q10 0 12 -6.5t-4 -14.5l-186 -250q-12 -18 -31 -18h-47z" />
    <glyph glyph-name="Ydieresis" unicode="&#x178;" horiz-adv-x="1054" 
d="M283 1610q-20 0 -21 20v115q0 20 21 20h79q20 0 21 -20v-115q0 -20 -21 -20h-79zM692 1610q-20 0 -20 20v115q0 20 20 20h80q20 0 21 -20v-115q0 -20 -21 -20h-80zM489 0q-20 0 -20 20v551l-418 799q-4 8 1 15.5t16 7.5h79q20 0 31 -21l350 -665h7l344 665q10 20 30 21
h78q12 0 16.5 -7.5t0.5 -15.5l-418 -799v-551q0 -20 -21 -20h-76z" />
    <glyph glyph-name="Zcaron" unicode="&#x17d;" horiz-adv-x="1105" 
d="M129 0q-20 0 -20 20v68q0 14 10 31l739 1161v2h-702q-20 0 -21 21v69q0 20 21 21h819q20 0 20 -21v-67q0 -16 -10 -31l-739 -1161v-2h729q20 0 20 -21v-70q0 -20 -20 -20h-846zM530 1544q-20 0 -32 19l-185 249q-6 8 -4 14.5t13 6.5h51q16 0 35 -21l143 -174h4l145 174
q18 21 35 21h51q23 0 9 -21l-187 -249q-12 -18 -30 -19h-48z" />
    <glyph glyph-name="zcaron" unicode="&#x17e;" horiz-adv-x="956" 
d="M139 0q-20 0 -20 20v62q0 14 10 27l580 759v2h-543q-20 0 -21 21v65q0 20 21 21h655q20 0 21 -21v-65q0 -14 -11 -27l-577 -755v-5h567q20 0 21 -20v-64q0 -20 -21 -20h-682zM457 1143q-20 0 -33 18l-184 250q-6 8 -4 14.5t12 6.5h51q16 0 35 -21l143 -174h4l146 174
q18 21 35 21h51q10 0 12 -6.5t-4 -14.5l-186 -250q-12 -18 -31 -18h-47z" />
    <glyph glyph-name="florin" unicode="&#x192;" 
d="M168 -369q-20 0 -21 21v63q0 20 21 21h47q84 0 126 38t58 144l121 795h-176q-20 0 -20 20v55q0 20 20 21h193l45 293q24 163 92 227t205 64h43q20 0 20 -21v-63q0 -20 -20 -21h-50q-84 0 -124.5 -40t-55.5 -142l-47 -297h205q20 0 20 -21v-55q0 -20 -20 -20h-219
l-121 -789q-24 -163 -93 -228t-206 -65h-43z" />
    <glyph glyph-name="circumflex" unicode="&#x2c6;" horiz-adv-x="862" 
d="M612 1143q-20 0 -34 20l-146 174h-4l-143 -174q-18 -20 -35 -20h-51q-10 0 -12.5 6t3.5 14l185 252q12 18 33 19h47q18 0 30 -19l187 -252q15 -20 -8 -20h-52z" />
    <glyph glyph-name="caron" unicode="&#x2c7;" horiz-adv-x="862" 
d="M408 1143q-20 0 -33 18l-185 250q-6 8 -4 14.5t13 6.5h51q16 0 35 -21l143 -174h4l146 174q18 21 34 21h52q10 0 12 -6.5t-4 -14.5l-187 -250q-12 -18 -30 -18h-47z" />
    <glyph glyph-name="breve" unicode="&#x2d8;" horiz-adv-x="862" 
d="M431 1167q-105 0 -174 59.5t-81 153.5q-4 20 19 21h38q18 0 25 -21q35 -123 173 -123t175 123q6 20 23 21h39q23 0 18 -21q-14 -94 -82 -153.5t-173 -59.5z" />
    <glyph glyph-name="dotaccent" unicode="&#x2d9;" horiz-adv-x="862" 
d="M385 1237q-20 0 -20 20v115q0 20 20 21h90q20 0 21 -21v-115q0 -20 -21 -20h-90z" />
    <glyph glyph-name="ring" unicode="&#x2da;" horiz-adv-x="862" 
d="M539 1288q0 49 -30 82t-79 33t-78.5 -33t-29.5 -82t29.5 -81.5t78.5 -32.5t79 32.5t30 81.5zM610 1288q0 -78 -51 -129t-129 -51t-129 51t-51 129t51 129t129 51t129 -51t51 -129z" />
    <glyph glyph-name="ogonek" unicode="&#x2db;" horiz-adv-x="862" 
d="M430 -352q-66 0 -104.5 37t-38.5 95t30.5 107.5t116.5 112.5q27 20 49 20h70q10 0 10.5 -8t-29.5 -30q-148 -104 -147 -181q0 -57 59 -57q26 0 50 14t34 -2l23 -43q6 -14 -8 -26q-49 -39 -115 -39z" />
    <glyph glyph-name="tilde" unicode="&#x2dc;" horiz-adv-x="862" 
d="M666 1282q-61 -61 -120 -61q-59 -1 -107 29t-71.5 40t-64.5 10t-106 -67q-18 -14 -19 6v61q0 14 21 37q51 56 114 56q63 -1 108 -29q46 -28 69.5 -38.5t66.5 -10.5t107 67q6 6 11 4t5 -10v-61q0 -19 -14 -33z" />
    <glyph glyph-name="hungarumlaut" unicode="&#x2dd;" horiz-adv-x="862" 
d="M195 1143q-23 0 -13 20l137 250q12 20 33 21h68q20 0 10 -21l-156 -252q-11 -18 -30 -18h-49zM449 1143q-20 0 -11 20l137 250q12 20 33 21h66q20 0 10 -21l-156 -252q-11 -18 -30 -18h-49z" />
    <glyph glyph-name="pi" unicode="&#x3c0;" horiz-adv-x="1148" 
d="M969 -12q-86 0 -121 42t-35 130v698q0 12 -12 12h-455q-12 0 -12 -12v-838q0 -20 -21 -20h-71q-20 0 -21 20v838q0 12 -14 12h-76q-20 0 -20 21v65q0 20 20 21h885q20 0 20 -21v-65q0 -20 -20 -21h-78q-12 0 -12 -12v-696q0 -37 12 -52.5t41 -15.5h12q20 0 21 -20v-66
q0 -20 -21 -20h-22z" />
    <glyph glyph-name="uni060C" unicode="&#x60c;" horiz-adv-x="458" 
d="M299 20q0 -20 -20 -20h-101q-20 0 -20 20v164q0 32 10 45l90 160q8 14 24.5 14t16.5 -16v-367z" />
    <glyph glyph-name="uni0615" unicode="&#x615;" horiz-adv-x="0" 
d="M43.5 1262q-56.5 0 -145.5 -39v-131h190q35 0 43 13t8 58t-19.5 72t-76 27zM48.5 1321q78.5 0 114.5 -48t36 -114q0 -127 -111 -127h-295q-14 0 -14 15v30q0 14 14 15h25q20 0 20 30v346q0 14 17 15h26q16 0 17 -15v-184q72 37 150.5 37z" />
    <glyph glyph-name="uni061B" unicode="&#x61b;" horiz-adv-x="448" 
d="M299 500q0 -20 -20 -21h-101q-20 0 -20 21v164q0 31 10 45l90 159q8 14 25 15q16 0 16 -17v-366zM154 158q0 20 20 20h100q20 0 21 -20v-138q0 -20 -21 -20h-100q-20 0 -20 20v138z" />
    <glyph glyph-name="uni061F" unicode="&#x61f;" horiz-adv-x="1015" 
d="M584 20q0 -20 -21 -20h-112q-20 0 -21 20v148q0 20 21 20h112q20 0 21 -20v-148zM463 305q-20 0 -21 21v26q0 57 -12 88t-43 76l-151 217q-89 129 -89 262q0 134 96 228t249 94q152 0 247 -84t117 -225q4 -18 -16 -23l-82 -18q-18 -4 -23 16q-48 219 -239 219
q-100 0 -163 -58.5t-63 -148.5t34 -144t61 -93l147 -211q31 -47 45 -85t14 -102v-34q0 -20 -20 -21h-88z" />
    <glyph glyph-name="uni0640" unicode="&#x640;" horiz-adv-x="200" 
d="M-2 0q-42 0 -54 14t-12 50t11.5 43.5t54.5 7.5h207q41 0 61.5 -9.5t20.5 -43.5t-19.5 -48t-62.5 -14h-207z" />
    <glyph glyph-name="uni0647" unicode="&#x647;" horiz-adv-x="935" 
d="M700 420q0 328 -244.5 328t-244.5 -328q0 -162 57.5 -241t186.5 -79t187 79t58 241zM454.5 862q360.5 0 360.5 -438t-360.5 -438t-360.5 438t360.5 438z" />
    <glyph glyph-name="uni064B" unicode="&#x64b;" horiz-adv-x="0" 
d="M-252 1679q-20 0 -20 21v22q0 20 20 21h520q20 0 21 -21v-22q0 -20 -21 -21h-520zM-252 1536q-20 0 -20 20v23q0 20 20 20h520q20 0 21 -20v-23q0 -20 -21 -20h-520z" />
    <glyph glyph-name="uni064C" unicode="&#x64c;" horiz-adv-x="0" 
d="M184 1766v20q0 59 -24.5 90t-63.5 31q-40 0 -60 -29q-20 -30 -20 -56q0 -41 28.5 -58t61.5 -17h74q4 7 4 19zM-291 1786q-20 0 -20 20v25q0 20 20 20h8q66 0 110 -42t44 -138q0 -53 31.5 -65.5t85.5 -12.5q150 0 180 90h-72q-68 0 -107.5 37t-39.5 101t44 106.5
t107.5 42.5t106.5 -43t43 -129q0 -148 -66.5 -209t-175.5 -61t-143 20q-62 36 -62 109q0 129 -77 129h-17z" />
    <glyph glyph-name="uni064D" unicode="&#x64d;" horiz-adv-x="0" 
d="M-252 -258q-20 0 -20 20v23q0 20 20 20h520q20 0 21 -20v-23q0 -20 -21 -20h-520zM-252 -401q-20 0 -20 20v23q0 20 20 20h520q20 0 21 -20v-23q0 -20 -21 -20h-520z" />
    <glyph glyph-name="uni064E" unicode="&#x64e;" horiz-adv-x="0" 
d="M-252 1538q-20 0 -20 21v22q0 20 20 21h520q20 0 21 -21v-22q0 -20 -21 -21h-520z" />
    <glyph glyph-name="uni064F" unicode="&#x64f;" horiz-adv-x="0" 
d="M-100 1587q141 0 172 92h-72q-70 0 -108.5 36t-38.5 99.5t43 107.5t106.5 44t107.5 -43t44 -129q0 -150 -66.5 -211t-187.5 -61h-58q-20 0 -20 20v25q0 20 20 20h58zM86 1762v20q0 59 -23.5 89t-62.5 30t-60.5 -29t-21.5 -64.5t34 -51t58 -15.5h74q2 11 2 21z" />
    <glyph glyph-name="uni0650" unicode="&#x650;" horiz-adv-x="0" 
d="M-252 -283q-20 0 -20 21v22q0 20 20 21h520q20 0 21 -21v-22q0 -20 -21 -21h-520z" />
    <glyph glyph-name="uni0651" unicode="&#x651;" horiz-adv-x="0" 
d="M-262 1835q0 20 20 20h33q20 0 21 -20v-152q0 -39 20.5 -60t53 -21t53 19t20.5 54v160q0 20 21 20h32q20 0 21 -20v-160q0 -35 20.5 -54t52.5 -19t53 21.5t21 59.5v152q0 20 21 20h32q20 0 21 -20v-145q0 -72 -42 -115t-109 -43t-105 45q-40 -45 -108 -45t-110 43
t-42 115v145z" />
    <glyph glyph-name="uni0652" unicode="&#x652;" horiz-adv-x="0" 
d="M-90 1694q0 -37 26.5 -63.5t63.5 -26.5t63.5 26.5t26.5 63.5t-26.5 63.5t-63.5 26.5t-63.5 -26.5t-26.5 -63.5zM-162 1691.5q0 65.5 47 112.5t112.5 47t113 -47t47.5 -112.5t-47.5 -112.5t-113 -47t-112.5 47t-47 112.5z" />
    <glyph glyph-name="uni0653" unicode="&#x653;" horiz-adv-x="0" 
d="M176 1597q72 1 72 61q0 30 20 30h39q20 0 21 -21q0 -124 -98 -142q-28 -5 -66 -5q-65 0 -202 53t-173 53t-55 -11t-29 -46q-6 -16 -22 -15l-37 15q-19 4 -11 31.5t25.5 49t37 34t41 15.5t54.5 3t85 -16t104 -36q142 -52 194 -53z" />
    <glyph glyph-name="uni0654" unicode="&#x654;" horiz-adv-x="0" 
d="M-116.5 1838q47.5 63 153.5 63q47 0 91 -19.5t67 -54.5q6 -12 -5 -23l-30 -26q-10 -10 -26 6q-40 41 -99 41t-89 -37t-30 -83q0 -82 61 -132h216q12 0 12 -14v-50q0 -14 -12 -14h-396q-12 0 -12 14v50q0 14 12 14h78q-39 66 -39 134t47.5 131z" />
    <glyph glyph-name="uni0655" unicode="&#x655;" horiz-adv-x="0" 
d="M-116.5 -206q47.5 63 153.5 63q47 0 91 -19.5t57.5 -41t11.5 -27t-7 -9.5l-30 -26q-10 -10 -26 6q-40 41 -99 41t-89 -37t-30 -83q0 -82 61 -132h216q12 0 12 -14v-50q0 -14 -12 -14h-396q-12 0 -12 14v50q0 14 12 14h78q-39 66 -39 134t47.5 131z" />
    <glyph glyph-name="uni0656" unicode="&#x656;" horiz-adv-x="0" 
d="M35 -487q0 -20 -21 -21h-30q-20 0 -21 21v254q0 20 21 20h30q20 0 21 -20v-254z" />
    <glyph glyph-name="uni0658" unicode="&#x658;" horiz-adv-x="0" 
d="M-178 1815q0 20 20 20h33q20 0 21 -20v-101q0 -53 29.5 -86t74.5 -33t73.5 33t28.5 86v101q0 20 21 20h33q20 0 20 -20v-99q0 -86 -50 -135t-126 -49t-127 49t-51 135v99z" />
    <glyph glyph-name="uni0660" unicode="&#x660;" horiz-adv-x="837" 
d="M459 313q-45 -45 -86 0l-68 70q-23 23 -22.5 41t22.5 45l68 68q42 42 82 4l73 -72q47 -39 0 -86z" />
    <glyph glyph-name="uni0661" unicode="&#x661;" horiz-adv-x="837" 
d="M475 20q0 -20 -20 -20h-72q-20 0 -21 20v1199q0 20 21 20h72q20 0 20 -20v-1199z" />
    <glyph glyph-name="uni0662" unicode="&#x662;" horiz-adv-x="837" 
d="M215 979q0 129 58.5 194.5t187.5 65.5h284q20 0 21 -20v-76q0 -20 -21 -21h-292q-72 0 -98.5 -36.5t-26.5 -106.5v-959q0 -20 -21 -20h-71q-20 0 -21 20v959z" />
    <glyph glyph-name="uni0663" unicode="&#x663;" horiz-adv-x="837" 
d="M215 891h170v231q0 20 21 21h75q20 0 21 -21v-233q102 0 139 27.5t37 95.5v207q0 20 20 20h78q20 0 21 -20v-175q0 -221 -113 -243.5t-174 -22.5h-295v-758q0 -20 -20 -20h-72q-20 0 -21 20v1199q0 20 21 20h72q20 0 20 -20v-328z" />
    <glyph glyph-name="uni0664" unicode="&#x664;" horiz-adv-x="837" 
d="M526 1120q-237 0 -237 -207q0 -113 66.5 -164t170.5 -51h103q20 0 20 -20v-78q0 -20 -20 -20h-160q-100 0 -168 -64t-68 -178t68.5 -168.5t183.5 -54.5h228q20 0 20 -21v-74q0 -20 -20 -20h-234q-252 0 -305 122t-53 210q0 218 188 317q-66 41 -96.5 115t-30.5 147
q0 160 97.5 244t261.5 84h90q20 0 20 -20v-78q0 -20 -20 -21h-105z" />
    <glyph glyph-name="uni0665" unicode="&#x665;" horiz-adv-x="837" 
d="M579 179q50 62 50 241v213q0 266 -49.5 383t-161.5 117q-166 0 -188.5 -178.5t-22.5 -313.5v-221q0 -182 50 -242.5t161 -60.5t161 62zM420 0q-148 0 -238 82t-90 319v244q0 481 129 539.5t198 58.5q151 0 236.5 -134t85.5 -470v-227q0 -343 -130.5 -377.5t-190.5 -34.5z
" />
    <glyph glyph-name="uni0666" unicode="&#x666;" horiz-adv-x="837" 
d="M133 1122q-20 0 -20 21v76q0 20 20 20h324q111 0 163 -55.5t52 -177.5v-986q0 -20 -21 -20h-71q-20 0 -21 20v967q0 66 -24.5 100.5t-100.5 34.5h-301z" />
    <glyph glyph-name="uni0667" unicode="&#x667;" horiz-adv-x="837" 
d="M417 -10q-34 0 -41 4t-11 18l-312 1196q-4 16 19 23l82 20q18 6 24 -14l238 -987l241 987q6 20 25 14l82 -20q23 -6 18 -23l-311 -1196q-4 -16 -12 -19t-42 -3z" />
    <glyph glyph-name="uni0668" unicode="&#x668;" horiz-adv-x="837" 
d="M419 1237q34 0 42 -4t12 -19l309 -1196q4 -16 -18 -22l-82 -21q-18 -6 -25 15l-237 987l-242 -987q-6 -20 -24 -15l-82 21q-23 6 -19 22l314 1196q4 14 11 18.5t41 4.5z" />
    <glyph glyph-name="uni0669" unicode="&#x669;" horiz-adv-x="837" 
d="M604 682v227q0 104 -46 158.5t-130 54.5t-140.5 -59t-56.5 -170t61.5 -161t153.5 -50h158zM434 1239q283 0 283 -324v-895q0 -20 -21 -20h-71q-20 0 -21 20v547h-160q-141 0 -232 84t-91 234t82 252t231 102z" />
    <glyph glyph-name="uni066A" unicode="&#x66a;" horiz-adv-x="1361" 
d="M926 57q-45 -45 -86 0l-68 70q-23 23 -22.5 41t22.5 45l68 68q42 42 82 4l73 -72q47 -39 0 -86zM457 954q-45 -45 -86 0l-68 70q-23 23 -22.5 41t22.5 45l68 68q42 42 82 4l73 -72q47 -39 0 -86zM1020 1290h98q20 0 15 -20l-791 -1274q-10 -21 -27 -21h-98q-10 0 -14 6.5
t0 14.5l790 1274q10 20 27 20z" />
    <glyph glyph-name="uni066B" unicode="&#x66b;" horiz-adv-x="458" 
d="M156 158q0 20 20 20h103q20 0 20 -20v-164q0 -27 -10 -45l-92 -160q-9 -14 -25 -14t-16 16v367z" />
    <glyph glyph-name="uni066C" unicode="&#x66c;" horiz-adv-x="471" 
d="M156 432q0 20 20 21h103q20 0 20 -21v-164q0 -27 -10 -45l-92 -160q-9 -14 -25 -14t-16 17v366z" />
    <glyph glyph-name="uni066D" unicode="&#x66d;" horiz-adv-x="702" 
d="M356 1556h17q12 0 16 -20l31 -207l221 27q10 2 14 -6l7 -17q2 -8 -9 -14l-200 -98l100 -193q8 -16 -6 -24q-17 -14 -33 2l-149 153l-152 -153q-14 -14 -27 -7l-6 5q-14 8 -6 24l100 193l-200 98q-10 6 -8 14l6 17q4 8 14 6l221 -27l35 207q4 20 14 20z" />
    <glyph glyph-name="uni0670" unicode="&#x670;" horiz-adv-x="0" 
d="M35 1556q0 -20 -21 -20h-30q-20 0 -21 20v254q0 20 21 21h30q20 0 21 -21v-254z" />
    <glyph glyph-name="uni06C0" unicode="&#x6c0;" horiz-adv-x="935" 
d="M297 1188q0 128 102 182q39 20 93 21q109 0 155 -68q8 -16 0 -20l-33 -21q-18 -12 -24 -6q-38 47 -101 47t-92.5 -41t-29.5 -89t24.5 -86t48.5 -54h213q4 0 8.5 2t4.5 -2v-56q0 -14 -13 -14h-395q-12 0 -12 14v41q0 14 12 15h80q-41 59 -41 135zM700 420
q0 328 -244.5 328t-244.5 -328q0 -162 57.5 -241t186.5 -79t187 79t58 241zM454.5 862q360.5 0 360.5 -438t-360.5 -438t-360.5 438t360.5 438z" />
    <glyph glyph-name="uni06C2" unicode="&#x6c2;" horiz-adv-x="935" 
d="M297 1188q0 128 102 182q39 20 93 21q109 0 155 -68q8 -16 0 -20l-33 -21q-18 -12 -24 -6q-38 47 -101 47t-92.5 -41t-29.5 -89t24.5 -86t48.5 -54h213q4 0 8.5 2t4.5 -2v-56q0 -14 -13 -14h-395q-12 0 -12 14v41q0 14 12 15h80q-41 59 -41 135zM700 420
q0 328 -244.5 328t-244.5 -328q0 -162 57.5 -241t186.5 -79t187 79t58 241zM454.5 862q360.5 0 360.5 -438t-360.5 -438t-360.5 438t360.5 438z" />
    <glyph glyph-name="uni06C3" unicode="&#x6c3;" horiz-adv-x="935" 
d="M700 420q0 328 -244.5 328t-244.5 -328q0 -162 57.5 -241t186.5 -79t187 79t58 241zM454.5 862q360.5 0 360.5 -438t-360.5 -438t-360.5 438t360.5 438zM256 1026q-20 0 -20 21v122q0 20 20 21h106q20 0 21 -21v-122q0 -20 -21 -21h-106zM518 1026q-20 0 -20 21v122
q0 20 20 21h107q20 0 20 -21v-122q0 -20 -20 -21h-107z" />
    <glyph glyph-name="uni06D4" unicode="&#x6d4;" horiz-adv-x="569" 
d="M516 115q20 0 21 -21v-74q0 -20 -21 -20h-176q-154 0 -281 84q-16 6 -2 29l35 67q10 16 27 6q57 -37 112.5 -54t145.5 -17h139z" />
    <glyph glyph-name="uni06D5" unicode="&#x6d5;" horiz-adv-x="935" 
d="M700 420q0 328 -244.5 328t-244.5 -328q0 -162 57.5 -241t186.5 -79t187 79t58 241zM454.5 862q360.5 0 360.5 -438t-360.5 -438t-360.5 438t360.5 438z" />
    <glyph glyph-name="uni06F0" unicode="&#x6f0;" horiz-adv-x="837" 
d="M459 313q-45 -45 -86 0l-68 70q-23 23 -22 41q0 18 22 45l68 68q42 42 82 4l73 -72q47 -39 0 -86z" />
    <glyph glyph-name="uni06F1" unicode="&#x6f1;" horiz-adv-x="837" 
d="M475 20q0 -20 -20 -20h-72q-20 0 -21 20v1199q0 20 21 20h72q20 0 20 -20v-1199z" />
    <glyph glyph-name="uni06F2" unicode="&#x6f2;" horiz-adv-x="837" 
d="M215 979q0 129 58 195t188 65h284q20 0 21 -20v-76q0 -20 -21 -21h-292q-72 0 -99 -37t-26 -106v-959q0 -20 -21 -20h-71q-20 0 -21 20v959z" />
    <glyph glyph-name="uni06F3" unicode="&#x6f3;" horiz-adv-x="837" 
d="M215 891h170v231q0 20 21 21h75q20 0 21 -21v-233q102 -1 139 27t37 96v207q0 20 20 20h78q20 0 21 -20v-175q0 -223 -173 -256q-52 -10 -114 -10h-295v-758q0 -20 -20 -20h-72q-20 0 -21 20v1199q0 20 21 20h72q20 0 20 -20v-328z" />
    <glyph glyph-name="uni06F4" unicode="&#x6f4;" horiz-adv-x="837" 
d="M334 1020q0 221 223 221h23q20 0 20 -20v-74q0 -20 -20 -21q-88 0 -111 -32.5t-23 -112.5v-104h70q78 0 116 19t38 95v17q0 20 20 20h72q20 0 20 -20v-13q0 -134 -59 -183.5t-193 -49.5h-325v-742q0 -6 7 -13t3 -7h-102q-20 0 -21 20v1199q0 20 21 20h71q20 0 21 -20
v-342h129v143z" />
    <glyph glyph-name="uni06F5" unicode="&#x6f5;" horiz-adv-x="837" 
d="M104 140q-49 142 -49 431t104 480.5t259 191.5t258.5 -186.5t103.5 -538.5t-68.5 -437t-137.5 -85t-150 67q-69 -65 -150 -65q-121 0 -170 142zM164 518q0 -401 135 -401q33 0 72.5 26.5t48.5 26.5q11 0 46.5 -26.5t73.5 -26.5t59.5 21.5t44 94.5t22.5 259q0 314 -69 475
t-181 161q-178 0 -215 -237.5t-37 -372.5z" />
    <glyph glyph-name="uni06F6" unicode="&#x6f6;" horiz-adv-x="837" 
d="M242 901q0 166 95 252t251 86h117q20 0 20 -20v-76q0 -20 -20 -21h-105q-123 0 -185.5 -49t-62.5 -157t65 -154.5t163 -46.5h122q20 0 21 -21v-76q0 -20 -21 -20h-40q-72 0 -102 -7t-50 -40l-334 -569q-12 -18 -26 -11l-72 37q-16 8 -6 29l354 592q-184 72 -184 272z" />
    <glyph glyph-name="uni06F7" unicode="&#x6f7;" horiz-adv-x="837" 
d="M417 -10q-34 0 -41 4t-11 18l-312 1196q-4 16 19 23l82 20q18 6 24 -14l238 -987l241 987q6 20 25 14l82 -20q23 -6 18 -23l-311 -1196q-4 -16 -12 -19t-42 -3z" />
    <glyph glyph-name="uni06F8" unicode="&#x6f8;" horiz-adv-x="837" 
d="M419 1237q34 0 42 -4t12 -19l309 -1196q4 -16 -18 -22l-82 -21q-18 -6 -25 15l-237 987l-242 -987q-6 -20 -24 -15l-82 21q-23 6 -19 22l314 1196q4 14 11 18t41 5z" />
    <glyph glyph-name="uni06F9" unicode="&#x6f9;" horiz-adv-x="837" 
d="M604 682v227q0 105 -46 159t-130 54t-140 -59t-56 -170t60 -161q62 -50 154 -50h158zM434 1239q278 0 283 -324v-895q0 -20 -21 -20h-71q-20 0 -21 20v547h-160q-141 0 -232 84t-91 235t82 252q83 101 231 101z" />
    <glyph glyph-name="uni2002" unicode="&#x2002;" horiz-adv-x="1024" 
 />
    <glyph glyph-name="uni2003" unicode="&#x2003;" horiz-adv-x="2048" 
 />
    <glyph glyph-name="uni2009" unicode="&#x2009;" horiz-adv-x="204" 
 />
    <glyph glyph-name="uni200A" unicode="&#x200a;" horiz-adv-x="40" 
 />
    <glyph glyph-name="uni200C" unicode="&#x200c;" horiz-adv-x="67" 
d="M68 4h-68v2701h68v-2701z" />
    <glyph glyph-name="uni200D" unicode="&#x200d;" horiz-adv-x="67" 
d="M68 0h-68v2613l-100 -100l-35 37l129 129l-129 131l35 35l131 -129l129 129l37 -35l-129 -129v-2l129 -129l-37 -37l-92 94v-2607z" />
    <glyph glyph-name="uni200E" unicode="&#x200e;" horiz-adv-x="65" 
d="M223 2638h-157v-2634h-66v2701h223v140l166 -166l-166 -166v125z" />
    <glyph glyph-name="uni200F" unicode="&#x200f;" horiz-adv-x="67" 
d="M68 2705v-2701h-68v2634h-158v-125l-166 166l166 166v-140h226z" />
    <glyph glyph-name="endash" unicode="&#x2013;" horiz-adv-x="1032" 
d="M76 496q-20 0 -21 20v59q0 20 21 21h880q20 0 21 -21v-59q0 -20 -21 -20h-880z" />
    <glyph glyph-name="emdash" unicode="&#x2014;" horiz-adv-x="1699" 
d="M76 496q-20 0 -21 20v59q0 20 21 21h1548q20 0 21 -21v-59q0 -20 -21 -20h-1548z" />
    <glyph glyph-name="quoteleft" unicode="&#x2018;" horiz-adv-x="423" 
d="M254 1395q18 0 18 -21v-287q0 -20 -20 -20h-80q-20 0 -20 20v142q0 29 10 45l69 106q11 15 23 15z" />
    <glyph glyph-name="quoteright" unicode="&#x2019;" horiz-adv-x="423" 
d="M170 1065q-18 0 -18 20v287q0 20 20 21h80q20 0 20 -21v-141q0 -31 -10 -45l-69 -107q-11 -14 -23 -14z" />
    <glyph glyph-name="quotesinglbase" unicode="&#x201a;" horiz-adv-x="423" 
d="M170 -170q-18 0 -18 20v287q0 20 20 21h80q20 0 20 -21v-141q0 -31 -10 -45l-69 -107q-11 -14 -23 -14z" />
    <glyph glyph-name="quotedblleft" unicode="&#x201c;" horiz-adv-x="708" 
d="M254 1395q18 0 18 -21v-287q0 -20 -20 -20h-80q-20 0 -20 20v142q0 29 10 45l69 106q11 15 23 15zM539 1395q18 0 18 -21v-287q0 -20 -20 -20h-80q-20 0 -21 20v142q0 29 10 45l70 106q11 15 23 15z" />
    <glyph glyph-name="quotedblright" unicode="&#x201d;" horiz-adv-x="708" 
d="M170 1065q-18 0 -18 20v287q0 20 20 21h80q20 0 20 -21v-141q0 -31 -10 -45l-69 -107q-11 -14 -23 -14zM455 1065q-18 0 -19 20v287q0 20 21 21h80q20 0 20 -21v-141q0 -31 -10 -45l-70 -107q-10 -14 -22 -14z" />
    <glyph glyph-name="quotedblbase" unicode="&#x201e;" horiz-adv-x="708" 
d="M170 -115q-18 0 -18 21v287q0 20 20 20h80q20 0 20 -20v-142q0 -31 -10 -45l-69 -106q-11 -15 -23 -15zM455 -115q-18 0 -19 21v287q0 20 21 20h80q20 0 20 -20v-142q0 -31 -10 -45l-70 -106q-10 -15 -22 -15z" />
    <glyph glyph-name="dagger" unicode="&#x2020;" horiz-adv-x="915" 
d="M424 -369q-20 0 -21 21v1114q0 12 -12 12h-280q-20 0 -21 21v59q0 20 21 21h280q12 0 12 12v481q0 20 21 21h68q20 0 20 -21v-481q0 -12 12 -12h281q20 0 20 -21v-59q0 -20 -20 -21h-281q-12 0 -12 -12v-1114q0 -20 -20 -21h-68z" />
    <glyph glyph-name="daggerdbl" unicode="&#x2021;" horiz-adv-x="915" 
d="M424 -369q-20 0 -21 21v426q0 12 -12 12h-280q-20 0 -21 21v59q0 20 21 20h280q12 0 12 13v622q0 12 -12 13h-280q-20 0 -21 20v60q0 20 21 20h280q12 0 12 12v422q0 20 21 21h68q20 0 20 -21v-422q0 -12 12 -12h281q20 0 20 -20v-60q0 -20 -20 -20h-281q-12 0 -12 -13
v-622q0 -12 12 -13h281q20 0 20 -20v-59q0 -20 -20 -21h-281q-12 0 -12 -12v-426q0 -20 -20 -21h-68z" />
    <glyph glyph-name="bullet" unicode="&#x2022;" horiz-adv-x="866" 
d="M199 631q0 105 65.5 171t167.5 66t169 -66.5t67 -171t-67 -171t-168 -66.5t-167.5 66.5t-66.5 171.5z" />
    <glyph glyph-name="ellipsis" unicode="&#x2026;" horiz-adv-x="1345" 
d="M174 0q-20 0 -20 20v138q0 20 20 20h100q20 0 21 -20v-138q0 -20 -21 -20h-100zM623 0q-20 0 -21 20v138q0 20 21 20h100q20 0 20 -20v-138q0 -20 -20 -20h-100zM1071 0q-20 0 -20 20v138q0 20 20 20h100q20 0 21 -20v-138q0 -20 -21 -20h-100z" />
    <glyph glyph-name="uni202A" unicode="&#x202a;" horiz-adv-x="1024" 
 />
    <glyph glyph-name="uni202B" unicode="&#x202b;" horiz-adv-x="1024" 
 />
    <glyph glyph-name="uni202C" unicode="&#x202c;" horiz-adv-x="1024" 
 />
    <glyph glyph-name="uni202D" unicode="&#x202d;" horiz-adv-x="1024" 
 />
    <glyph glyph-name="uni202E" unicode="&#x202e;" horiz-adv-x="1024" 
 />
    <glyph glyph-name="perthousand" unicode="&#x2030;" horiz-adv-x="2197" 
d="M1159.5 68q102.5 0 132.5 88q2 10 5 21t5.5 30.5t3.5 53.5t1 89.5t-1 88t-3.5 53t-5.5 30.5t-5 21q-31 88 -133 88t-133 -88q-14 -35 -14 -193.5t14 -193.5q31 -88 133.5 -88zM1779.5 68q102.5 0 133.5 88q2 10 5 21t5 30.5t3 53.5t1 89.5t-1 88t-3 53t-5 30.5t-5 21
q-31 88 -147 88t-125 -90.5t-9 -222.5t15 -162q30 -88 132.5 -88zM1159 -16q-84 0 -153.5 48t-76.5 129t-7 188t7.5 189t76.5 130.5t153 48.5t153.5 -48.5t77 -130.5t7.5 -189t-7 -187.5t-77 -129t-154 -48.5zM1780 -16q-84 0 -154 48t-77 129t-7 222t17 182q23 72 80 112
t141 40t153 -48.5t76.5 -130.5t7.5 -189t-7 -188t-76.5 -129t-153.5 -48zM563 1167.5q-2 45.5 -14 80.5q-12 34 -46 55.5t-83 21.5q-106 0 -133 -88q-15 -37 -15 -155.5t2 -162.5t13 -71q27 -88 132 -88t132 88q14 35 14 154.5t-2 165zM419 676q-85 0 -148.5 44t-77 116.5
t-13.5 196t16.5 250t223.5 126.5q84 0 141 -40t80 -112q2 -12 5 -26t6 -37t4 -58.5t1 -93t-1 -93.5t-4 -59.5t-6 -36.5t-5 -26q-23 -72 -80 -111.5t-142 -39.5zM348 -20q-23 0 -12 20l807 1393q12 20 28 20h56q23 0 12 -20l-807 -1393q-12 -20 -29 -20h-55z" />
    <glyph glyph-name="guilsinglleft" unicode="&#x2039;" horiz-adv-x="667" 
d="M512 907v-92q0 -23 -14 -37l-228 -229q-8 -8 0 -17l228 -229q14 -14 14 -37v-92q0 -10 -7 -12t-13 4l-351 360q-14 14 0 29l351 360q6 6 13 4.5t7 -12.5z" />
    <glyph glyph-name="guilsinglright" unicode="&#x203a;" horiz-adv-x="667" 
d="M156 174v92q0 23 14 37l227 229q8 8 0 17l-227 229q-14 14 -14 37v92q0 10 7 12.5t13 -4.5l350 -360q14 -14 0 -29l-350 -360q-6 -6 -13 -4t-7 12z" />
    <glyph glyph-name="fraction" unicode="&#x2044;" horiz-adv-x="309" 
d="M-285 -20q-23 0 -12 20l807 1393q12 20 29 20h55q23 0 12 -20l-807 -1393q-12 -20 -28 -20h-56z" />
    <glyph glyph-name="Euro" unicode="&#x20ac;" 
d="M223 518q0 12 -12 12h-96q-20 0 -21 21v51q0 20 21 21h96q12 0 12 12v135q0 12 -12 12h-96q-20 0 -21 21v51q0 20 21 20h96q12 0 12 13q0 146 10.5 194.5t16.5 71.5q41 125 134 192.5t234 67.5q255 0 361 -237q10 -18 -10 -27l-56 -31q-16 -6 -26 12q-41 78 -103.5 127.5
t-165.5 49.5q-199 0 -258 -181q-24 -63 -24 -239q0 -12 12 -13h436q10 0 15.5 -6t1.5 -16l-17 -49q-6 -20 -24 -21h-412q-12 0 -12 -12v-135q0 -12 12 -12h375q10 0 15 -6.5t1 -16.5l-16 -49q-6 -20 -25 -21h-350q-12 0 -12 -12q0 -163 9 -198t15 -54q59 -180 258 -180
q102 0 165 49t104 127q10 18 26 12l56 -30q35 -14 -58 -139t-293 -125q-141 0 -241 72.5t-127 185.5t-27 280z" />
    <glyph glyph-name="uni2113" unicode="&#x2113;" horiz-adv-x="1040" 
d="M766 1227q0 84 -37 140t-95 56t-98 -59t-40 -176v-506q270 295 270 545zM315 244v227l-151 -141l-53 78l202 178v557q0 168 94 273.5t221 105.5q128 0 198.5 -75t70.5 -219q0 -280 -401 -655v-292q0 -156 72.5 -176.5t105.5 -20.5q90 0 184 68l53 -76
q-143 -107 -290 -107q-148 0 -227 73t-79 202z" />
    <glyph glyph-name="trademark" unicode="&#x2122;" horiz-adv-x="1673" 
d="M362 586q-20 0 -20 20v690q0 12 -12 13h-226q-20 0 -20 20v43q0 20 20 21h566q20 0 20 -21v-43q0 -20 -20 -20h-226q-12 0 -12 -13v-690q0 -20 -20 -20h-50zM1503 586q-20 0 -20 20v580h-4l-230 -469q-8 -16 -24 -17h-39q-16 0 -25 17l-229 469h-4v-580q0 -20 -21 -20
h-45q-20 0 -20 20v766q0 20 20 21h47q16 0 27 -19l268 -561h6l265 561q8 18 24 19h49q20 0 21 -21v-766q0 -20 -21 -20h-45z" />
    <glyph glyph-name="Omega" unicode="&#x2126;" horiz-adv-x="1253" 
d="M727 0q-20 0 -20 20v74q0 18 20 25q80 29 133 69.5t97 130.5t44 359t-36 389q-78 236 -338 236t-338 -236q-28 -92 -32.5 -188.5t-4.5 -210.5q0 -259 57 -376t217 -173q20 -6 21 -25v-74q0 -20 -21 -20h-356q-20 0 -20 20v70q0 20 20 21h178v4q-117 65 -166 188.5
t-49 389.5t46 416q46 149 162 226.5t376.5 77.5t361.5 -315q31 -106 36 -209t5 -215q0 -243 -49 -368.5t-166 -190.5v-4h178q20 0 21 -21v-70q0 -20 -21 -20h-356z" />
    <glyph glyph-name="estimated" unicode="&#x212e;" horiz-adv-x="1316" 
d="M652 936q-155 0 -261 -113v-266h535v266q-119 113 -274 113zM673 -20q-127 0 -213.5 39.5t-148 108.5t-95.5 162t-34 254.5t130 307t344 145.5t346.5 -142t132.5 -366h-744v-335q109 -104 245 -104t221 52t153 168l67 -43q-86 -129 -181.5 -188t-222.5 -59z" />
    <glyph glyph-name="partialdiff" unicode="&#x2202;" horiz-adv-x="1099" 
d="M541 748q-145 0 -226.5 -90.5t-81.5 -240.5t77.5 -240.5t221.5 -90.5t229 124t101 349q-125 189 -321 189zM526 -20q-104 0 -175.5 32.5t-123 90t-78 137t-26.5 221t113.5 264.5t285.5 123q215 0 346 -176h2q7 442 -130.5 540.5t-218.5 98.5t-138 -23.5t-117 -68.5
q-16 -10 -26 6l-33 51q-10 16 6 29q136 108 277 108t229 -55t173 -196t85 -445q0 -537 -173.5 -637t-277.5 -100z" />
    <glyph glyph-name="Delta" unicode="&#x2206;" horiz-adv-x="1220" 
d="M993 104q12 0 11 13l-390 1087h-6l-393 -1087q-4 -12 12 -13h766zM80 0q-23 0 -17 20l488 1352q6 20 24 21h74q16 0 23 -21l485 -1352q6 -20 -16 -20h-1061z" />
    <glyph glyph-name="product" unicode="&#x220f;" horiz-adv-x="1304" 
d="M1026 -369q-20 0 -20 21v1739q0 12 -13 12h-682q-12 0 -12 -12v-1739q0 -20 -20 -21h-76q-20 0 -21 21v1843q0 20 21 21h899q20 0 20 -21v-1843q0 -20 -20 -21h-76z" />
    <glyph glyph-name="summation" unicode="&#x2211;" horiz-adv-x="1087" 
d="M145 -369q-20 0 -20 21v63q0 10 4 19l399 925l-389 742q-6 12 -6 22v72q0 20 21 21h796q20 0 21 -21v-72q0 -20 -21 -20h-682l381 -721q6 -14 0 -29l-393 -909h715q20 0 20 -20v-72q0 -20 -20 -21h-826z" />
    <glyph glyph-name="minus" unicode="&#x2212;" 
d="M156 514q-20 0 -21 21v61q0 20 21 20h778q20 0 20 -20v-61q0 -20 -20 -21h-778z" />
    <glyph glyph-name="radical" unicode="&#x221a;" horiz-adv-x="1261" 
d="M623 -369q-18 0 -25 21l-301 612q-6 12 -18 6l-148 -69q-20 -10 -27 8l-24 53q-10 18 8 27l236 117q20 10 28 -9l287 -596h6l473 1694q6 20 25 21h61q23 0 17 -21l-514 -1843q-6 -20 -25 -21h-59z" />
    <glyph glyph-name="infinity" unicode="&#x221e;" horiz-adv-x="1574" 
d="M399 274q87 0 159.5 55.5t168.5 176.5q-100 125 -171.5 178t-161.5 53t-148 -65.5t-58 -164.5t62 -166t149 -67zM1169 274q95 0 156 69.5t61 165.5q0 95 -57 161.5t-149 66.5t-163 -54t-171 -179q100 -124 155.5 -165.5t89 -53t78.5 -11.5zM786 430q-202 -248 -362 -248
q-228 0 -278 126t-50 234t86.5 196.5t225.5 88.5q100 0 187 -62.5t191 -184.5q109 131 196 189t169 58q155 0 241.5 -88.5t86.5 -233.5q0 -144 -87.5 -233.5t-245.5 -89.5q-159 0 -360 248z" />
    <glyph glyph-name="integral" unicode="&#x222b;" horiz-adv-x="782" 
d="M122 -369q-13 0 -13 25v63q0 25 20 21q14 -2 17 -2h34q78 0 117 52t39 179v1182q0 197 61.5 279.5t194.5 87.5q41 0 61 -4t21 -21v-66q0 -24 -21 -20q-14 4 -17 4h-34q-78 0 -117 -53t-39 -178v-1182q0 -197 -61 -280t-192 -87h-71z" />
    <glyph glyph-name="approxequal" unicode="&#x2248;" 
d="M726 250q-70 0 -118.5 25.5t-86.5 52.5q-94 67 -151 67q-56 0 -94 -27.5t-75 -88.5q-10 -16 -29 -5l-41 27q-14 10 -6 29q39 76 102.5 119t135.5 43t118.5 -26t84.5 -52q97 -67 152 -68q56 0 94 28.5t75 88.5q10 18 31 4l38 -25q16 -10 7 -28q-39 -76 -103 -120t-134 -44
zM726 639q-70 0 -118.5 25.5t-86.5 52.5q-94 67 -151 67q-56 0 -94 -27.5t-75 -88.5q-10 -16 -29 -4l-41 26q-14 10 -6 29q39 76 102.5 119t135.5 43t118.5 -26.5t84.5 -52.5q97 -68 152 -67q56 0 94 29t75 88q10 18 31 4l38 -25q16 -10 7 -28q-39 -76 -103 -120t-134 -44z
" />
    <glyph glyph-name="notequal" unicode="&#x2260;" 
d="M307 86h-59q-23 0 -10 23l114 206h-196q-20 0 -21 21v61q0 20 21 21h254l165 295h-419q-20 0 -21 20v62q0 20 21 20h477l119 209q12 20 28 20h62q21 0 10 -22l-117 -207h199q20 0 20 -20v-62q0 -20 -20 -20h-256l-166 -295h422q20 0 20 -21v-61q0 -20 -20 -21h-479
l-117 -209q-12 -20 -31 -20z" />
    <glyph glyph-name="lessequal" unicode="&#x2264;" 
d="M156 0q-20 0 -21 20v62q0 20 21 20h778q20 0 20 -20v-62q0 -20 -20 -20h-778zM135 659q0 18 21 27l778 318q20 6 20 -15v-69q0 -18 -20 -27l-647 -258v-4l647 -256q20 -8 20 -27v-72q0 -20 -20 -14l-778 318q-20 8 -21 26v53z" />
    <glyph glyph-name="greaterequal" unicode="&#x2265;" 
d="M156 0q-20 0 -21 20v62q0 20 21 20h778q20 0 20 -20v-62q0 -20 -20 -20h-778zM135 348q0 18 21 27l647 256v4l-647 258q-20 8 -21 27v69q0 20 21 15l778 -318q20 -8 20 -27v-53q0 -18 -20 -26l-778 -318q-20 -6 -21 14v72z" />
    <glyph glyph-name="lozenge" unicode="&#x25ca;" horiz-adv-x="1138" 
d="M885 674l-314 641h-4l-311 -641l313 -641h4zM537 -106q-14 0 -25 20l-367 745q-6 14 0 29l367 746q10 20 25 20h65q14 0 25 -20l366 -746q6 -14 0 -29l-366 -745q-10 -20 -25 -20h-65z" />
    <glyph glyph-name="uni25CC" unicode="&#x25cc;" horiz-adv-x="1865" 
d="M1661 704q0 -24 -16.5 -40.5t-40 -16.5t-41 16.5t-17.5 40.5t17.5 41t41.5 17t40 -17t16 -41zM1610 957q0 -24 -16.5 -41t-40.5 -17t-41 17.5t-17 41t17.5 40t41 16.5t40 -16.5t16.5 -40.5zM1466 1175q0 -24 -16 -41.5t-41 -17.5t-41 17.5t-16 41.5t16 41t41 17t41 -17
t16 -41zM1251 1320q0 -24 -16 -41t-40 -17t-41 17t-17 41t17 40t41 16t40 -16t16 -40zM991 1373q0 -24 -16.5 -40t-40 -16t-40.5 16.5t-17 40t17 41t41 17.5t40 -17.5t16 -41.5zM1610 443q0 -24 -16.5 -40t-40.5 -16t-41 16.5t-17 40t17.5 41t41 17.5t40 -17.5t16.5 -41.5z
M739 1322q0 -24 -17 -40t-41 -16t-40 16t-16 40t16 41t40 17t41 -17t17 -41zM1466 229.5q0 -22.5 -16 -40t-41 -17.5t-41 17.5t-16 40t16 40t41 17.5t41 -17.5t16 -40zM1245 83q0 -24 -16.5 -41t-40 -17t-41 17t-17.5 41t17.5 40t41.5 16t40 -16t16 -40zM991 34
q0 -24 -16.5 -41.5t-40 -17.5t-40.5 17.5t-17 41.5t17 41t41 17t40 -17t16 -41zM733 85q0 -24 -17.5 -40t-41 -16t-40 16t-16.5 40t16.5 41t40.5 17t41 -17t17 -41zM518 229.5q0 -22.5 -16.5 -40t-41 -17.5t-41 17.5t-16.5 40t16.5 40t41 17.5t41 -17.5t16.5 -40zM371 450
q0 -24 -17.5 -40.5t-41.5 -16.5t-40 16.5t-16 40.5t16.5 41t40 17t41 -17t17.5 -41zM319 704q0 -24 -16 -40.5t-40.5 -16.5t-41 16.5t-16.5 40.5t16.5 41t41 17t40.5 -17t16 -41zM518 1175q0 -24 -16.5 -41.5t-41 -17.5t-41 17.5t-16.5 41.5t16.5 41t41 17t41 -17t16.5 -41z
M373 964q0 -24 -16.5 -40.5t-40.5 -16.5t-41 16.5t-17 40.5t17.5 41t41 17t40 -17t16.5 -41z" />
    </font>
</defs>
</svg>
